<svg width="75" height="75" viewBox="0 0 75 75" fill="none" xmlns="http://www.w3.org/2000/svg">
<circle cx="37.3334" cy="37.4998" r="30.6667" fill="white"/>
<g clip-path="url(#clip0_2591_4877)">
<path d="M42.2245 33.7247C40.9698 34.9794 39.2681 35.6843 37.4936 35.6843C35.7192 35.6843 34.0175 34.9794 32.7628 33.7247C31.508 32.47 30.8032 30.7682 30.8032 28.9938C30.8032 27.2194 31.508 25.5176 32.7628 24.2629C34.0175 23.0082 35.7192 22.3033 37.4936 22.3033C39.2681 22.3033 40.9698 23.0082 42.2245 24.2629C43.4792 25.5176 44.1841 27.2194 44.1841 28.9938C44.1841 30.7682 43.4792 32.47 42.2245 33.7247ZM24.7853 51.2035C24.7853 45.7653 29.1907 41.3599 34.6289 41.3599H40.3584C45.7966 41.3599 50.202 45.7653 50.202 51.2035C50.202 51.4952 49.9652 51.7319 49.6735 51.7319H25.3137C25.0221 51.7319 24.7853 51.4952 24.7853 51.2035Z" stroke="#707386" stroke-width="2.66667"/>
</g>
<defs>
<clipPath id="clip0_2591_4877">
<rect width="32" height="32" fill="white" transform="matrix(-1 0 0 1 53.3335 20.97)"/>
</clipPath>
</defs>
</svg>
