<svg width="171" height="75" viewBox="0 0 171 75" fill="none" xmlns="http://www.w3.org/2000/svg">
<circle cx="37.3334" cy="37.4999" r="30.6667" fill="white"/>
<g clip-path="url(#clip0_1691_19575)">
<path d="M42.2245 33.7249C40.9698 34.9796 39.268 35.6845 37.4936 35.6845C35.7192 35.6845 34.0174 34.9796 32.7627 33.7249C31.508 32.4702 30.8031 30.7685 30.8031 28.994C30.8031 27.2196 31.508 25.5179 32.7627 24.2631C34.0174 23.0084 35.7192 22.3035 37.4936 22.3035C39.268 22.3035 40.9698 23.0084 42.2245 24.2631C43.4792 25.5179 44.1841 27.2196 44.1841 28.994C44.1841 30.7685 43.4792 32.4702 42.2245 33.7249ZM24.7852 51.2037C24.7852 45.7655 29.1906 41.3601 34.6288 41.3601H40.3583C45.7965 41.3601 50.2019 45.7655 50.2019 51.2037C50.2019 51.4954 49.9652 51.7321 49.6735 51.7321H25.3137C25.022 51.7321 24.7852 51.4954 24.7852 51.2037Z" stroke="#707386" stroke-width="2.66667"/>
</g>
<path d="M81.2628 45C80.9428 45 80.6828 44.9067 80.4828 44.72C80.2961 44.52 80.2028 44.2733 80.2028 43.98V32H82.3428V43.98C82.3428 44.2733 82.2361 44.52 82.0228 44.72C81.8228 44.9067 81.5694 45 81.2628 45ZM76.7228 32.92C76.4428 32.92 76.2028 32.8333 76.0028 32.66C75.8028 32.4733 75.7028 32.2333 75.7028 31.94C75.7028 31.66 75.8028 31.4333 76.0028 31.26C76.2028 31.0867 76.4428 31 76.7228 31H85.8228C86.1028 31 86.3361 31.0933 86.5228 31.28C86.7228 31.4533 86.8228 31.68 86.8228 31.96C86.8228 32.2533 86.7228 32.4867 86.5228 32.66C86.3361 32.8333 86.1028 32.92 85.8228 32.92H76.7228ZM95.4934 34.32C95.7867 34.32 96.0267 34.42 96.2134 34.62C96.4001 34.8067 96.4934 35.0467 96.4934 35.34V43.98C96.4934 44.2733 96.4001 44.52 96.2134 44.72C96.0267 44.9067 95.7867 45 95.4934 45C95.2134 45 94.9734 44.9067 94.7734 44.72C94.5867 44.52 94.4934 44.2733 94.4934 43.98V42.54L94.9134 42.6C94.9134 42.84 94.8134 43.1067 94.6134 43.4C94.4267 43.6933 94.1667 43.98 93.8334 44.26C93.5001 44.5267 93.1067 44.7533 92.6534 44.94C92.2001 45.1133 91.7134 45.2 91.1934 45.2C90.2734 45.2 89.4467 44.9667 88.7134 44.5C87.9801 44.02 87.4001 43.3667 86.9734 42.54C86.5467 41.7133 86.3334 40.7733 86.3334 39.72C86.3334 38.64 86.5467 37.6933 86.9734 36.88C87.4001 36.0533 87.9734 35.4067 88.6934 34.94C89.4267 34.4733 90.2401 34.24 91.1334 34.24C91.7067 34.24 92.2334 34.3333 92.7134 34.52C93.2067 34.7067 93.6334 34.9467 93.9934 35.24C94.3534 35.5333 94.6267 35.8467 94.8134 36.18C95.0134 36.5 95.1134 36.8067 95.1134 37.1L94.4934 37.16V35.34C94.4934 35.06 94.5867 34.82 94.7734 34.62C94.9734 34.42 95.2134 34.32 95.4934 34.32ZM91.4134 43.36C92.0401 43.36 92.5934 43.2 93.0734 42.88C93.5534 42.56 93.9267 42.1267 94.1934 41.58C94.4601 41.02 94.5934 40.4 94.5934 39.72C94.5934 39.0267 94.4601 38.4067 94.1934 37.86C93.9267 37.3133 93.5534 36.88 93.0734 36.56C92.5934 36.24 92.0401 36.08 91.4134 36.08C90.8001 36.08 90.2534 36.24 89.7734 36.56C89.3067 36.88 88.9334 37.3133 88.6534 37.86C88.3867 38.4067 88.2534 39.0267 88.2534 39.72C88.2534 40.4 88.3867 41.02 88.6534 41.58C88.9334 42.1267 89.3067 42.56 89.7734 42.88C90.2534 43.2 90.8001 43.36 91.4134 43.36ZM91.5934 33.68C91.5267 33.68 91.4467 33.6667 91.3534 33.64C91.2734 33.6 91.2001 33.56 91.1334 33.52L89.2734 32.32C89.0867 32.2133 88.9401 32.0867 88.8334 31.94C88.7267 31.78 88.6734 31.6133 88.6734 31.44C88.6734 31.1733 88.7734 30.9667 88.9734 30.82C89.1734 30.6733 89.3801 30.6 89.5934 30.6C89.7667 30.6 89.9267 30.64 90.0734 30.72C90.2201 30.8 90.3467 30.8933 90.4534 31L92.0534 32.6C92.2134 32.76 92.2934 32.92 92.2934 33.08C92.2934 33.2533 92.2267 33.4 92.0934 33.52C91.9734 33.6267 91.8067 33.68 91.5934 33.68ZM101.175 43.98C101.175 44.2733 101.082 44.52 100.895 44.72C100.709 44.9067 100.469 45 100.175 45C99.8953 45 99.6553 44.9067 99.4553 44.72C99.2686 44.52 99.1753 44.2733 99.1753 43.98V35.42C99.1753 35.1267 99.2686 34.8867 99.4553 34.7C99.6553 34.5 99.8953 34.4 100.175 34.4C100.469 34.4 100.709 34.5 100.895 34.7C101.082 34.8867 101.175 35.1267 101.175 35.42V43.98ZM100.155 33.08C99.7686 33.08 99.4886 33.0133 99.3153 32.88C99.1419 32.7333 99.0553 32.4933 99.0553 32.16V31.84C99.0553 31.5067 99.1486 31.2733 99.3353 31.14C99.5219 31.0067 99.8019 30.94 100.175 30.94C100.575 30.94 100.862 31.0133 101.035 31.16C101.209 31.2933 101.295 31.52 101.295 31.84V32.16C101.295 32.5067 101.202 32.7467 101.015 32.88C100.842 33.0133 100.555 33.08 100.155 33.08ZM110.592 45C110.312 45 110.072 44.9067 109.872 44.72C109.685 44.52 109.592 44.2733 109.592 43.98V31.22C109.592 30.9267 109.685 30.6867 109.872 30.5C110.072 30.3 110.312 30.2 110.592 30.2C110.885 30.2 111.125 30.3 111.312 30.5C111.499 30.6867 111.592 30.9267 111.592 31.22V43.98C111.592 44.2733 111.499 44.52 111.312 44.72C111.125 44.9067 110.885 45 110.592 45ZM117.112 34.44C117.365 34.44 117.585 34.5467 117.772 34.76C117.959 34.9733 118.052 35.1867 118.052 35.4C118.052 35.6667 117.925 35.9133 117.672 36.14L111.412 41.74L111.332 39.44L116.372 34.76C116.585 34.5467 116.832 34.44 117.112 34.44ZM117.352 44.98C117.072 44.98 116.832 44.8667 116.632 44.64L112.632 40.42L114.152 39.02L118.052 43.24C118.265 43.4667 118.372 43.72 118.372 44C118.372 44.2933 118.252 44.5333 118.012 44.72C117.785 44.8933 117.565 44.98 117.352 44.98ZM125.787 34.3C126.707 34.3 127.42 34.5 127.927 34.9C128.433 35.2867 128.787 35.8133 128.987 36.48C129.2 37.1467 129.307 37.88 129.307 38.68V43.98C129.307 44.2733 129.207 44.52 129.007 44.72C128.82 44.9067 128.587 45 128.307 45C128.013 45 127.773 44.9067 127.587 44.72C127.4 44.52 127.307 44.2733 127.307 43.98V38.68C127.307 38.2133 127.24 37.7867 127.107 37.4C126.987 37.0133 126.767 36.7067 126.447 36.48C126.14 36.2533 125.707 36.14 125.147 36.14C124.627 36.14 124.16 36.2533 123.747 36.48C123.347 36.7067 123.033 37.0133 122.807 37.4C122.593 37.7867 122.487 38.2133 122.487 38.68V43.98C122.487 44.2733 122.387 44.52 122.187 44.72C122 44.9067 121.767 45 121.487 45C121.193 45 120.953 44.9067 120.767 44.72C120.58 44.52 120.487 44.2733 120.487 43.98V31.22C120.487 30.9267 120.58 30.6867 120.767 30.5C120.953 30.3 121.193 30.2 121.487 30.2C121.767 30.2 122 30.3 122.187 30.5C122.387 30.6867 122.487 30.9267 122.487 31.22V36.68L122.127 36.88C122.22 36.5867 122.373 36.2867 122.587 35.98C122.813 35.6733 123.087 35.3933 123.407 35.14C123.74 34.8867 124.107 34.6867 124.507 34.54C124.907 34.38 125.333 34.3 125.787 34.3ZM142.168 39.74C142.168 40.8067 141.935 41.7533 141.468 42.58C141.002 43.3933 140.368 44.0333 139.568 44.5C138.768 44.9667 137.868 45.2 136.868 45.2C135.868 45.2 134.968 44.9667 134.168 44.5C133.368 44.0333 132.728 43.3933 132.248 42.58C131.782 41.7533 131.548 40.8067 131.548 39.74C131.548 38.66 131.782 37.7133 132.248 36.9C132.728 36.0733 133.368 35.4267 134.168 34.96C134.968 34.48 135.868 34.24 136.868 34.24C137.868 34.24 138.768 34.48 139.568 34.96C140.368 35.4267 141.002 36.0733 141.468 36.9C141.935 37.7133 142.168 38.66 142.168 39.74ZM140.168 39.74C140.168 39.0067 140.022 38.3733 139.728 37.84C139.435 37.2933 139.035 36.8667 138.528 36.56C138.035 36.24 137.482 36.08 136.868 36.08C136.255 36.08 135.695 36.24 135.188 36.56C134.682 36.8667 134.282 37.2933 133.988 37.84C133.695 38.3733 133.548 39.0067 133.548 39.74C133.548 40.4467 133.695 41.0733 133.988 41.62C134.282 42.1667 134.682 42.5933 135.188 42.9C135.695 43.2067 136.255 43.36 136.868 43.36C137.482 43.36 138.035 43.2067 138.528 42.9C139.035 42.5933 139.435 42.1667 139.728 41.62C140.022 41.0733 140.168 40.4467 140.168 39.74ZM153.052 34.32C153.345 34.32 153.585 34.42 153.772 34.62C153.959 34.8067 154.052 35.0467 154.052 35.34V43.98C154.052 44.2733 153.959 44.52 153.772 44.72C153.585 44.9067 153.345 45 153.052 45C152.772 45 152.532 44.9067 152.332 44.72C152.145 44.52 152.052 44.2733 152.052 43.98V42.54L152.472 42.6C152.472 42.84 152.372 43.1067 152.172 43.4C151.985 43.6933 151.725 43.98 151.392 44.26C151.059 44.5267 150.665 44.7533 150.212 44.94C149.759 45.1133 149.272 45.2 148.752 45.2C147.832 45.2 147.005 44.9667 146.272 44.5C145.539 44.02 144.959 43.3667 144.532 42.54C144.105 41.7133 143.892 40.7733 143.892 39.72C143.892 38.64 144.105 37.6933 144.532 36.88C144.959 36.0533 145.532 35.4067 146.252 34.94C146.985 34.4733 147.799 34.24 148.692 34.24C149.265 34.24 149.792 34.3333 150.272 34.52C150.765 34.7067 151.192 34.9467 151.552 35.24C151.912 35.5333 152.185 35.8467 152.372 36.18C152.572 36.5 152.672 36.8067 152.672 37.1L152.052 37.16V35.34C152.052 35.06 152.145 34.82 152.332 34.62C152.532 34.42 152.772 34.32 153.052 34.32ZM148.972 43.36C149.599 43.36 150.152 43.2 150.632 42.88C151.112 42.56 151.485 42.1267 151.752 41.58C152.019 41.02 152.152 40.4 152.152 39.72C152.152 39.0267 152.019 38.4067 151.752 37.86C151.485 37.3133 151.112 36.88 150.632 36.56C150.152 36.24 149.599 36.08 148.972 36.08C148.359 36.08 147.812 36.24 147.332 36.56C146.865 36.88 146.492 37.3133 146.212 37.86C145.945 38.4067 145.812 39.0267 145.812 39.72C145.812 40.4 145.945 41.02 146.212 41.58C146.492 42.1267 146.865 42.56 147.332 42.88C147.812 43.2 148.359 43.36 148.972 43.36ZM147.292 30.38C147.505 30.2067 147.732 30.0667 147.972 29.96C148.212 29.8533 148.505 29.8 148.852 29.8C149.359 29.8 149.752 29.8867 150.032 30.06C150.312 30.2333 150.499 30.4533 150.592 30.72C150.699 30.9733 150.752 31.2133 150.752 31.44C150.752 31.6667 150.712 31.8667 150.632 32.04C150.552 32.2 150.439 32.3733 150.292 32.56C150.172 32.6933 150.072 32.8133 149.992 32.92C149.925 33.0267 149.885 33.14 149.872 33.26C149.872 33.3933 149.812 33.5067 149.692 33.6C149.585 33.6933 149.452 33.74 149.292 33.74C149.132 33.74 148.992 33.6933 148.872 33.6C148.752 33.5067 148.692 33.3867 148.692 33.24C148.692 33.12 148.719 32.9933 148.772 32.86C148.825 32.7267 148.905 32.5933 149.012 32.46C149.132 32.3 149.245 32.1467 149.352 32C149.459 31.8533 149.512 31.7133 149.512 31.58C149.512 31.4067 149.439 31.2733 149.292 31.18C149.159 31.0733 148.999 31.02 148.812 31.02C148.639 31.02 148.479 31.06 148.332 31.14C148.199 31.2067 148.072 31.2867 147.952 31.38C147.845 31.4467 147.725 31.4867 147.592 31.5C147.459 31.5 147.319 31.4267 147.172 31.28C147.025 31.12 146.979 30.96 147.032 30.8C147.085 30.6267 147.172 30.4867 147.292 30.38ZM162.274 34.24C163.221 34.24 163.954 34.44 164.474 34.84C164.994 35.2267 165.354 35.7533 165.554 36.42C165.767 37.0733 165.874 37.8067 165.874 38.62V43.98C165.874 44.2733 165.774 44.52 165.574 44.72C165.387 44.9067 165.154 45 164.874 45C164.581 45 164.341 44.9067 164.154 44.72C163.967 44.52 163.874 44.2733 163.874 43.98V38.64C163.874 38.16 163.807 37.7333 163.674 37.36C163.541 36.9733 163.307 36.6667 162.974 36.44C162.654 36.2 162.201 36.08 161.614 36.08C161.067 36.08 160.587 36.2 160.174 36.44C159.761 36.6667 159.434 36.9733 159.194 37.36C158.967 37.7333 158.854 38.16 158.854 38.64V43.98C158.854 44.2733 158.754 44.52 158.554 44.72C158.367 44.9067 158.134 45 157.854 45C157.561 45 157.321 44.9067 157.134 44.72C156.947 44.52 156.854 44.2733 156.854 43.98V35.5C156.854 35.2067 156.947 34.9667 157.134 34.78C157.321 34.58 157.561 34.48 157.854 34.48C158.134 34.48 158.367 34.58 158.554 34.78C158.754 34.9667 158.854 35.2067 158.854 35.5V36.62L158.494 36.82C158.587 36.5267 158.747 36.2333 158.974 35.94C159.214 35.6333 159.501 35.3533 159.834 35.1C160.167 34.8333 160.541 34.6267 160.954 34.48C161.367 34.32 161.807 34.24 162.274 34.24Z" fill="#707386"/>
<defs>
<clipPath id="clip0_1691_19575">
<rect width="32" height="32" fill="white" transform="matrix(-1 0 0 1 53.3335 20.9702)"/>
</clipPath>
</defs>
</svg>
