<svg width="75" height="75" viewBox="0 0 75 75" fill="none" xmlns="http://www.w3.org/2000/svg">
<circle cx="37.3334" cy="37.4999" r="30.6667" fill="white"/>
<g clip-path="url(#clip0_1691_19720)">
<path d="M37.4936 37.0178C39.6216 37.0178 41.6625 36.1725 43.1673 34.6677C44.672 33.163 45.5174 31.1221 45.5174 28.994C45.5174 26.866 44.672 24.8251 43.1673 23.3203C41.6625 21.8156 39.6216 20.9702 37.4936 20.9702C35.3655 20.9702 33.3246 21.8156 31.8199 23.3203C30.3151 24.8251 29.4698 26.866 29.4698 28.994C29.4698 31.1221 30.3151 33.163 31.8199 34.6677C33.3246 36.1725 35.3655 37.0178 37.4936 37.0178ZM34.6288 40.0268C28.4543 40.0268 23.4519 45.0291 23.4519 51.2037C23.4519 52.2317 24.2856 53.0655 25.3137 53.0655H49.6735C50.7015 53.0655 51.5353 52.2317 51.5353 51.2037C51.5353 45.0291 46.5329 40.0268 40.3583 40.0268H34.6288Z" fill="#78B7EE"/>
</g>
<defs>
<clipPath id="clip0_1691_19720">
<rect width="32" height="32" fill="white" transform="matrix(-1 0 0 1 53.3335 20.9702)"/>
</clipPath>
</defs>
</svg>
