<svg xmlns="http://www.w3.org/2000/svg" width="24" height="24" viewBox="0 0 24 24" fill="none">
  <path d="M6.33044 17.3845C6.33044 17.933 6.7781 18.3806 7.32888 18.3806H8.47029V21.2025C8.47029 21.9173 9.04451 22.5009 9.74998 22.5009C10.4578 22.5009 11.0297 21.9197 11.0297 21.2025V18.3783H13.0218V21.2002C13.0218 21.915 13.5961 22.4986 14.3015 22.4986C15.0094 22.4986 15.5812 21.9173 15.5812 21.2002V18.3783H16.7226C17.2734 18.3783 17.7211 17.9306 17.7211 17.3822V8.11968H6.33044V17.3845ZM14.7 3.31968L15.7523 1.79625C15.8133 1.70718 15.7992 1.58765 15.7172 1.52906C15.6351 1.47281 15.5179 1.50093 15.457 1.59L14.3648 3.17437C13.6453 2.89078 12.8437 2.73375 12.0023 2.73375C11.1609 2.73375 10.3594 2.89078 9.63982 3.17437L8.54763 1.59234C8.48669 1.50328 8.36951 1.47281 8.28748 1.5314C8.20544 1.58765 8.19138 1.70484 8.25232 1.79859L9.30466 3.32203C7.63123 4.10015 6.45935 5.57437 6.30935 7.29703H17.7C17.5453 5.57203 16.3711 4.09781 14.7 3.31968ZM9.59763 5.72203C9.47294 5.72203 9.35104 5.68505 9.24736 5.61578C9.14368 5.5465 9.06287 5.44803 9.01515 5.33283C8.96744 5.21763 8.95495 5.09086 8.97928 4.96856C9.0036 4.84626 9.06365 4.73392 9.15182 4.64575C9.24 4.55758 9.35233 4.49753 9.47463 4.47321C9.59693 4.44888 9.7237 4.46136 9.8389 4.50908C9.9541 4.5568 10.0526 4.63761 10.1218 4.74129C10.1911 4.84497 10.2281 4.96686 10.2281 5.09156C10.2277 5.25864 10.1611 5.41875 10.043 5.53689C9.92482 5.65503 9.76471 5.7216 9.59763 5.72203ZM14.482 5.72203C14.3573 5.72203 14.2354 5.68505 14.1317 5.61578C14.0281 5.5465 13.9472 5.44803 13.8995 5.33283C13.8518 5.21763 13.8393 5.09086 13.8637 4.96856C13.888 4.84626 13.948 4.73392 14.0362 4.64575C14.1244 4.55758 14.2367 4.49753 14.359 4.47321C14.4813 4.44888 14.6081 4.46136 14.7233 4.50908C14.8385 4.5568 14.9369 4.63761 15.0062 4.74129C15.0755 4.84497 15.1125 4.96686 15.1125 5.09156C15.112 5.25864 15.0455 5.41875 14.9273 5.53689C14.8092 5.65503 14.6491 5.7216 14.482 5.72203ZM19.7179 8.08218C19.0101 8.08218 18.4383 8.66343 18.4383 9.38062V14.4525C18.4383 15.1673 19.0125 15.7509 19.7179 15.7509C20.4258 15.7509 20.9976 15.1697 20.9976 14.4525V9.37828C21 8.66109 20.4281 8.08218 19.7179 8.08218ZM4.28201 8.08218C3.57419 8.08218 3.00232 8.66343 3.00232 9.38062V14.4525C3.00232 15.1673 3.57654 15.7509 4.28201 15.7509C4.98982 15.7509 5.56169 15.1697 5.56169 14.4525V9.37828C5.56169 8.66109 4.98748 8.08218 4.28201 8.08218Z" fill="currentColor"/>
</svg>