<svg width="18" height="22" viewBox="0 0 18 22" fill="none" xmlns="http://www.w3.org/2000/svg">
<path d="M3.33051 16.3837C3.33051 16.9322 3.77816 17.3798 4.32894 17.3798H5.47035V20.2017C5.47035 20.9165 6.04457 21.5001 6.75004 21.5001C7.45785 21.5001 8.02972 20.9189 8.02972 20.2017V17.3775H10.0219V20.1994C10.0219 20.9142 10.5961 21.4978 11.3016 21.4978C12.0094 21.4978 12.5813 20.9165 12.5813 20.1994V17.3775H13.7227C14.2735 17.3775 14.7211 16.9298 14.7211 16.3814V7.11889H3.33051V16.3837ZM11.7 2.31889L12.7524 0.795454C12.8133 0.706391 12.7993 0.58686 12.7172 0.528266C12.6352 0.472016 12.518 0.500141 12.4571 0.589204L11.3649 2.17358C10.6453 1.88998 9.84379 1.73295 9.00238 1.73295C8.16097 1.73295 7.35941 1.88998 6.63988 2.17358L5.54769 0.591547C5.48676 0.502485 5.36957 0.472016 5.28754 0.53061C5.20551 0.58686 5.19144 0.704047 5.25238 0.797797L6.30472 2.32123C4.63129 3.09936 3.45941 4.57358 3.30941 6.29623H14.7C14.5453 4.57123 13.3711 3.09702 11.7 2.31889ZM6.59769 4.72123C6.473 4.72123 6.3511 4.68426 6.24742 4.61498C6.14374 4.5457 6.06293 4.44724 6.01522 4.33204C5.9675 4.21683 5.95501 4.09007 5.97934 3.96777C6.00366 3.84547 6.06371 3.73313 6.15188 3.64496C6.24006 3.55678 6.3524 3.49674 6.47469 3.47241C6.59699 3.44809 6.72376 3.46057 6.83896 3.50829C6.95417 3.55601 7.05263 3.63682 7.12191 3.7405C7.19119 3.84418 7.22816 3.96607 7.22816 4.09077C7.22773 4.25784 7.16117 4.41795 7.04302 4.5361C6.92488 4.65424 6.76477 4.7208 6.59769 4.72123ZM11.4821 4.72123C11.3574 4.72123 11.2355 4.68426 11.1318 4.61498C11.0281 4.5457 10.9473 4.44724 10.8996 4.33204C10.8519 4.21683 10.8394 4.09007 10.8637 3.96777C10.888 3.84547 10.9481 3.73313 11.0363 3.64496C11.1244 3.55678 11.2368 3.49674 11.3591 3.47241C11.4814 3.44809 11.6081 3.46057 11.7233 3.50829C11.8385 3.55601 11.937 3.63682 12.0063 3.7405C12.0756 3.84418 12.1125 3.96607 12.1125 4.09077C12.1121 4.25784 12.0455 4.41795 11.9274 4.5361C11.8093 4.65424 11.6491 4.7208 11.4821 4.72123ZM16.718 7.08139C16.0102 7.08139 15.4383 7.66264 15.4383 8.37983V13.4517C15.4383 14.1665 16.0125 14.7501 16.718 14.7501C17.4258 14.7501 17.9977 14.1689 17.9977 13.4517V8.37749C18 7.6603 17.4282 7.08139 16.718 7.08139ZM1.28207 7.08139C0.574255 7.08139 0.00238037 7.66264 0.00238037 8.37983V13.4517C0.00238037 14.1665 0.576599 14.7501 1.28207 14.7501C1.98988 14.7501 2.56176 14.1689 2.56176 13.4517V8.37749C2.56176 7.6603 1.98754 7.08139 1.28207 7.08139Z" fill="#707386"/>
</svg>
