<svg xmlns="http://www.w3.org/2000/svg" width="24" height="24" viewBox="0 0 24 24" fill="none">
  <path d="M20.2501 1.5H3.75012C2.50812 1.5 1.50012 2.508 1.50012 3.75V20.25C1.50012 21.492 2.50812 22.5 3.75012 22.5H20.2501C21.4921 22.5 22.5001 21.492 22.5001 20.25V3.75C22.5001 2.508 21.4921 1.5 20.2501 1.5ZM7.45362 18.0233C7.3293 18.2383 7.12466 18.3951 6.8847 18.4592C6.64475 18.5234 6.38915 18.4896 6.17412 18.3653C5.9591 18.2409 5.80227 18.0363 5.73813 17.7963C5.67399 17.5564 5.7078 17.3008 5.83212 17.0858L6.50262 15.9278C7.25712 15.6983 7.87587 15.876 8.35887 16.4618L7.45362 18.0233ZM13.9644 15.4973H5.43762C4.92162 15.4973 4.50012 15.075 4.50012 14.5598C4.50012 14.0445 4.92237 13.6223 5.43762 13.6223H7.82862L10.8939 8.316L9.93312 6.657C9.80947 6.44182 9.77604 6.18644 9.84012 5.94669C9.90421 5.70693 10.0606 5.50229 10.2751 5.3775C10.4903 5.25385 10.7457 5.22042 10.9854 5.2845C11.2252 5.34859 11.4298 5.50498 11.5546 5.7195L11.9716 6.441L12.3886 5.7195C12.4502 5.61303 12.5321 5.51973 12.6297 5.44492C12.7273 5.37011 12.8387 5.31526 12.9575 5.28351C13.0764 5.25175 13.2003 5.2437 13.3222 5.25983C13.4441 5.27596 13.5617 5.31594 13.6681 5.3775C13.7746 5.43906 13.8679 5.52098 13.9427 5.6186C14.0175 5.71621 14.0724 5.82761 14.1041 5.94642C14.1359 6.06523 14.1439 6.18914 14.1278 6.31106C14.1117 6.43298 14.0717 6.55053 14.0101 6.657L9.98862 13.623H12.8994C13.8459 13.623 14.3761 14.7338 13.9636 15.498L13.9644 15.4973ZM18.5626 15.4973H17.2029L18.1216 17.0865C18.3796 17.5365 18.2244 18.1088 17.7796 18.366C17.3296 18.624 16.7574 18.4688 16.5001 18.024C14.9581 15.357 13.8046 13.3507 13.0314 12.0195C12.2484 10.6597 12.8064 9.30075 13.3644 8.84175C13.9786 9.906 14.8974 11.4998 16.1251 13.623H18.5626C18.8113 13.623 19.0497 13.7218 19.2255 13.8976C19.4014 14.0734 19.5001 14.3119 19.5001 14.5605C19.5001 14.8091 19.4014 15.0476 19.2255 15.2234C19.0497 15.3992 18.8113 15.498 18.5626 15.498V15.4973Z" fill="currentColor"/>
</svg>