<svg width="22" height="22" viewBox="0 0 22 22" fill="none" xmlns="http://www.w3.org/2000/svg">
<path d="M19.2501 0.499939H2.75006C1.50806 0.499939 0.500061 1.50794 0.500061 2.74994V19.2499C0.500061 20.4919 1.50806 21.4999 2.75006 21.4999H19.2501C20.4921 21.4999 21.5001 20.4919 21.5001 19.2499V2.74994C21.5001 1.50794 20.4921 0.499939 19.2501 0.499939ZM6.45356 17.0232C6.32924 17.2382 6.12459 17.395 5.88464 17.4592C5.64469 17.5233 5.38909 17.4895 5.17406 17.3652C4.95904 17.2409 4.80221 17.0362 4.73807 16.7963C4.67393 16.5563 4.70774 16.3007 4.83206 16.0857L5.50256 14.9277C6.25706 14.6982 6.87581 14.8759 7.35881 15.4617L6.45356 17.0232ZM12.9643 14.4972H4.43756C3.92156 14.4972 3.50006 14.0749 3.50006 13.5597C3.50006 13.0444 3.92231 12.6222 4.43756 12.6222H6.82856L9.89381 7.31594L8.93306 5.65694C8.80941 5.44176 8.77598 5.18638 8.84006 4.94662C8.90415 4.70687 9.06054 4.50223 9.27506 4.37744C9.49024 4.25379 9.74562 4.22035 9.98538 4.28444C10.2251 4.34853 10.4298 4.50492 10.5546 4.71944L10.9716 5.44094L11.3886 4.71944C11.4501 4.61297 11.532 4.51967 11.6297 4.44486C11.7273 4.37005 11.8387 4.3152 11.9575 4.28345C12.0763 4.25169 12.2002 4.24364 12.3221 4.25977C12.444 4.2759 12.5616 4.31588 12.6681 4.37744C12.7745 4.439 12.8678 4.52092 12.9426 4.61854C13.0174 4.71615 13.0723 4.82755 13.1041 4.94636C13.1358 5.06517 13.1439 5.18908 13.1277 5.311C13.1116 5.43292 13.0716 5.55047 13.0101 5.65694L8.98856 12.6229H11.8993C12.8458 12.6229 13.3761 13.7337 12.9636 14.4979L12.9643 14.4972ZM17.5626 14.4972H16.2028L17.1216 16.0864C17.3796 16.5364 17.2243 17.1087 16.7796 17.3659C16.3296 17.6239 15.7573 17.4687 15.5001 17.0239C13.9581 14.3569 12.8046 12.3507 12.0313 11.0194C11.2483 9.65969 11.8063 8.30069 12.3643 7.84169C12.9786 8.90594 13.8973 10.4997 15.1251 12.6229H17.5626C17.8112 12.6229 18.0497 12.7217 18.2255 12.8975C18.4013 13.0733 18.5001 13.3118 18.5001 13.5604C18.5001 13.8091 18.4013 14.0475 18.2255 14.2234C18.0497 14.3992 17.8112 14.4979 17.5626 14.4979V14.4972Z" fill="#707386"/>
</svg>
