<svg width="24" height="29" viewBox="0 0 24 29" fill="none" xmlns="http://www.w3.org/2000/svg">
<path d="M17.7227 4.19922C18.8738 5.92622 19.5044 7.83029 19.9338 9.87055C20.3926 12.0525 20.3711 14.2997 20.1135 16.547C21.2727 16.2528 22.389 15.7298 23.3792 15.0216C23.3685 14.4223 23.3148 12.6572 23.0116 10.4426C22.5849 7.33725 22.0482 6.14414 21.2432 5.31878C21.0473 5.11992 20.8488 4.94559 20.6636 4.79849C20.1699 4.64868 19.6332 4.54244 19.0375 4.42531C18.6243 4.34359 18.1815 4.25642 17.7227 4.19922Z" fill="url(#paint0_linear_1760_20359)"/>
<path d="M15.4478 3.49671C15.1983 3.52395 14.9541 3.56481 14.7099 3.61929C14.4684 3.67922 14.2296 3.74732 13.9961 3.83721C13.9371 3.85627 13.8834 3.88351 13.8244 3.90803C13.768 3.93255 13.7117 3.95434 13.6553 3.9843L13.4836 4.06602L13.4621 4.07692L13.4433 4.08509L13.4004 4.10688L13.3172 4.15046C13.0945 4.2676 12.8825 4.39017 12.6839 4.53182C12.5847 4.60265 12.4881 4.67892 12.3995 4.75791C12.3539 4.79877 12.3136 4.83691 12.268 4.88049L12.2009 4.94859L12.1419 5.01397C11.9809 5.19103 11.8548 5.38988 11.7528 5.60507L11.6804 5.76851C11.6562 5.82299 11.6401 5.88019 11.6186 5.9374L11.5891 6.02184C11.5784 6.04908 11.5677 6.07904 11.5623 6.10628C11.5462 6.16349 11.5301 6.22342 11.5167 6.28062C11.4818 6.39503 11.463 6.51488 11.4389 6.63474C11.4281 6.69466 11.4147 6.75187 11.4067 6.8118C11.3986 6.87172 11.3906 6.93165 11.3825 6.99158C11.3449 7.22856 11.3315 7.46828 11.3101 7.70526C11.302 7.82512 11.2993 7.94225 11.294 8.0621C11.294 8.12203 11.2886 8.17923 11.2886 8.23916C11.2886 8.29909 11.2832 8.35629 11.2859 8.41622C11.2859 8.53335 11.2859 8.65048 11.2859 8.76762C11.2859 8.88475 11.2859 8.99915 11.2913 9.11628C11.302 9.34782 11.3074 9.57664 11.3208 9.8C11.3369 10.0261 11.353 10.2495 11.3691 10.4674C11.3745 10.5763 11.3879 10.6853 11.3986 10.7943C11.4093 10.9032 11.4201 11.0095 11.4308 11.1157C11.4523 11.3282 11.4711 11.5379 11.4979 11.7449C11.5247 11.952 11.5489 12.1562 11.573 12.3551C11.5784 12.4041 11.5864 12.4559 11.5918 12.5049L11.5999 12.5757L11.6106 12.6493C11.624 12.7474 11.6374 12.8427 11.6508 12.938C11.8709 14.4635 12.1258 15.7247 12.319 16.6018C12.4156 17.0403 12.4961 17.3836 12.5525 17.6178C12.5659 17.6723 12.5793 17.7213 12.5873 17.7649C12.9818 17.5388 13.3843 17.3209 13.7895 17.1193C13.7868 17.1003 13.7841 17.0894 13.7841 17.0867C13.6151 16.1523 13.489 15.4904 13.3655 14.853C13.1696 13.8424 13.0033 12.9707 12.7349 11.3336C12.3002 8.6641 12.1017 7.08692 13.0355 5.72493C13.4997 5.04665 14.0793 4.67892 14.2698 4.55906C15.8852 3.53757 17.6616 3.88896 19.0891 4.17226C19.4299 4.24036 19.7492 4.30301 20.0551 4.37383C19.8593 4.25398 19.7331 4.19132 19.7331 4.19132C19.2314 3.94889 19.073 3.97885 18.3727 3.74459C17.3906 3.59477 16.8593 3.5185 16.1025 3.45312C15.8852 3.4613 15.6652 3.47492 15.4505 3.49671H15.4478Z" fill="#ACC981"/>
<path d="M6.50918 23.5569L9.54406 21.7809C9.49845 21.7046 9.44478 21.5629 9.32403 21.2933C9.26499 21.1625 9.21401 21.0536 9.17644 20.9609L6.38574 22.5C6.38574 22.5136 6.39111 22.5272 6.39379 22.5408C6.45551 22.914 6.49039 23.2518 6.51186 23.5569H6.50918Z" fill="url(#paint1_linear_1760_20359)"/>
<path d="M8.77041 27.7486C8.87774 27.7622 8.98508 27.7677 9.08973 27.7677C10.1523 27.7677 10.9627 27.1384 11.3706 26.8197C11.7516 26.5228 12.087 26.166 12.3661 25.7601C12.0387 24.9538 11.8455 23.9895 11.6872 23.1914C11.5128 22.317 11.3733 21.6087 11.2579 21.0312L10.7963 21.3009C10.791 21.3363 10.8125 21.4943 10.7373 21.5161C10.5522 21.5706 10.1228 21.8267 9.95914 21.922C9.84912 21.9874 9.6908 21.952 9.6908 21.952C9.68007 21.952 9.66934 21.9574 9.66129 21.9629L6.51638 23.8043C6.53517 24.2483 6.52443 24.6242 6.51638 24.9538C6.49223 25.7574 6.47882 26.2422 6.93499 26.7925C7.5629 27.5497 8.49402 27.7132 8.76504 27.7459L8.77041 27.7486Z" fill="url(#paint2_linear_1760_20359)"/>
<path d="M9.61133 20.7212C9.65426 20.8029 9.71866 20.9119 9.78306 21.0889C9.8904 21.3831 9.85551 21.4839 9.94406 21.522C9.95211 21.5275 9.96285 21.5302 9.97358 21.5302L11.2187 20.8029C11.1516 20.4624 11.0952 20.1709 11.0496 19.9258L9.61401 20.7185L9.61133 20.7212Z" fill="url(#paint3_linear_1760_20359)"/>
<path d="M12.582 19.2802C12.5605 19.351 12.6652 19.4409 12.7108 19.479C12.7698 19.528 12.8584 19.6043 12.9469 19.5771C13.014 19.5553 13.0462 19.479 13.073 19.4055C13.1025 19.3319 13.1616 19.1385 13.0891 19.0868C13.0569 19.0622 13.022 19.0895 12.7966 19.1739C12.6356 19.2311 12.5927 19.2393 12.582 19.2802Z" fill="#89B05F"/>
<path d="M12.6164 18.3395C12.5654 18.3258 12.4983 18.3531 12.4688 18.3994C12.4232 18.4702 12.4822 18.5492 12.5171 18.7154C12.5654 18.9578 12.4983 19.1131 12.5493 19.1321C12.5895 19.1458 12.619 19.0531 12.7452 18.9959C12.8766 18.936 12.9598 18.9823 12.9867 18.936C13.0189 18.8761 12.8901 18.808 12.7693 18.5792C12.6995 18.443 12.6861 18.3585 12.6164 18.3422V18.3395Z" fill="#89B05F"/>
<path d="M7.73829 5.62298C8.11396 4.99646 8.89482 3.68895 10.4109 2.9453C10.5719 2.86631 10.7329 2.79821 10.8966 2.73828C10.7812 2.74373 10.6766 2.7519 10.5827 2.75735C9.80448 2.81728 9.12291 2.94803 8.99411 2.97254C8.41182 3.08695 8.11933 3.14688 7.77854 3.29125C6.88498 3.66988 6.37246 4.35088 6.20609 4.57424C5.70162 5.24707 5.4789 5.95258 5.29106 7.48618C5.13275 8.78007 5.06029 10.1094 5.07908 11.455C5.30716 12.61 5.64527 14.6966 5.67747 17.1018C5.68284 17.5268 5.67747 17.8646 5.67479 18.1996C5.80359 17.9681 6.05046 17.6303 6.5603 17.1127C6.56835 17.1046 6.57908 17.0937 6.58713 17.0855C6.45564 15.5029 6.41539 13.9093 6.46906 12.3485C6.57371 9.30308 6.63543 7.46439 7.73829 5.62025V5.62298Z" fill="#89B05F"/>
<path d="M5.92728 20.6365C6.05876 21.0723 6.21977 21.6035 6.34588 22.2736L9.11243 20.7482C9.1017 20.6773 9.10707 20.6147 9.13122 20.5548C9.13927 20.5357 9.15805 20.4976 9.19562 20.4567C9.28685 20.3641 9.3915 20.3777 9.55787 20.3368C9.69741 20.3042 9.80206 20.2524 9.89866 20.2061C10.0623 20.1271 10.1482 20.059 10.2609 20.0862C10.2663 20.0862 10.277 20.089 10.2877 20.0944L11.0042 19.6994C10.9613 19.4706 10.9318 19.2881 10.9076 19.141C10.7547 18.1413 10.5453 16.9046 10.1885 14.8398C8.86556 15.4909 7.70635 16.3162 6.73765 17.2914C6.0695 17.9643 5.88434 18.3075 5.80384 18.509C5.73676 18.6752 5.69114 18.8332 5.66699 18.9857C5.66699 19.2091 5.67504 19.4515 5.68578 19.7348C5.73408 20.01 5.82263 20.2987 5.92459 20.6338L5.92728 20.6365Z" fill="url(#paint4_linear_1760_20359)"/>
<path d="M17.0866 4.1488C16.9873 4.14335 16.888 4.14062 16.7861 4.14062C15.9891 4.14062 15.1733 4.29589 14.4032 4.78076C14.2047 4.90606 13.6787 5.23839 13.244 5.87308C12.3692 7.15062 12.5651 8.68695 12.9864 11.2911C13.2521 12.9255 13.4184 13.7944 13.6143 14.805C13.6868 15.1836 13.7619 15.5732 13.8451 16.0199C14.9211 16.483 17.0624 17.1613 19.6063 16.6628C19.888 14.4781 19.931 12.16 19.4721 9.97267C19.0508 7.96237 18.4256 6.08827 17.2798 4.39396L17.0866 4.14607V4.1488Z" fill="url(#paint5_linear_1760_20359)"/>
<path d="M12.0584 17.7374C12.0048 17.5004 11.9269 17.1517 11.8384 16.705C11.6559 15.817 11.4198 14.5394 11.2212 12.9949C11.2105 12.8996 11.1971 12.8015 11.1836 12.7035L11.1756 12.6299L11.1675 12.5536C11.1622 12.5046 11.1568 12.4529 11.1514 12.4038C11.13 12.2022 11.1085 12.0007 11.0844 11.7909C11.0602 11.5839 11.0441 11.3687 11.0253 11.1535C11.0173 11.0446 11.0065 10.9356 10.9985 10.8266C10.9904 10.7177 10.9797 10.606 10.9743 10.4943C10.9609 10.2709 10.9502 10.0449 10.9368 9.81604C10.9287 9.58722 10.9234 9.35296 10.918 9.1187C10.9126 9.00156 10.918 8.88171 10.918 8.76458C10.918 8.64472 10.918 8.52487 10.9207 8.40501C10.9207 8.34508 10.9234 8.28516 10.926 8.22523C10.9287 8.1653 10.9314 8.10537 10.9341 8.04272C10.9421 7.92014 10.9448 7.80029 10.9556 7.67771C10.9797 7.43255 10.9985 7.18467 11.0414 6.93679C11.0522 6.87413 11.0602 6.81148 11.0709 6.75156C11.0817 6.6889 11.0951 6.62625 11.1085 6.56632C11.1353 6.44102 11.1595 6.31572 11.1971 6.19314C11.2158 6.13049 11.2319 6.07056 11.2507 6.00791C11.2588 5.97794 11.2695 5.94526 11.2802 5.91529L11.3124 5.82268C11.3366 5.76275 11.3554 5.7001 11.3822 5.64017C11.4091 5.58024 11.4386 5.52032 11.4654 5.46039C11.5835 5.2234 11.7337 4.99731 11.9162 4.80118L11.986 4.72764L12.0531 4.66226C12.1014 4.61868 12.1523 4.56965 12.2006 4.52879C12.2999 4.44434 12.4046 4.36262 12.5119 4.28908C12.7266 4.13926 12.9574 4.01123 13.1881 3.89682L13.274 3.85324L13.3169 3.83145L13.3411 3.82055L13.3625 3.80966L13.537 3.73066C13.5933 3.70342 13.6577 3.6789 13.7167 3.65439C13.7785 3.62987 13.8375 3.60263 13.8992 3.58356C14.1353 3.4964 14.3795 3.4283 14.6264 3.37109C14.4466 3.37109 14.2615 3.37654 14.0602 3.38744C13.0835 3.44464 12.3777 3.4855 11.664 3.95403C11.13 4.3027 10.7758 4.76577 10.6067 4.98914C10.604 4.99459 10.2337 5.47946 9.9815 6.0406C9.23821 7.69133 9.98955 12.1913 10.0754 12.7007V12.7089C10.6067 15.7598 10.8965 17.4459 11.0951 18.7017C11.4305 18.4728 11.774 18.2522 12.1228 18.0425C12.1094 17.9825 12.0853 17.8817 12.0531 17.7428L12.0584 17.7374Z" fill="#ACC981"/>
<path d="M10.5209 3.18015C9.07189 3.88839 8.3447 5.10328 7.95561 5.75704C6.93325 7.46498 6.83396 9.10482 6.72395 12.3572C6.67296 13.8391 6.70785 15.3482 6.82591 16.8518C7.77583 15.9529 8.88942 15.1902 10.1452 14.5773C10.0513 14.0271 9.94667 13.4223 9.8286 12.7522V12.7441C9.68101 11.9023 8.99139 7.6148 9.75078 5.93138C10.0164 5.34027 10.3921 4.84723 10.4082 4.82816C10.588 4.5939 10.961 4.10631 11.5299 3.73585C12.3027 3.23191 13.0728 3.1856 14.0522 3.1284C14.8197 3.08481 15.3671 3.1284 16.1238 3.19377C16.2043 3.19922 16.2821 3.20739 16.3572 3.21556C16.5987 3.21556 16.8402 3.22374 17.0791 3.23463C16.851 3.13657 16.7034 3.07937 16.427 3.03578C15.9923 2.96223 15.7803 3.00309 15.1712 2.89141C14.868 2.83421 14.6291 2.77156 14.4574 2.7198C13.5719 2.69801 12.8018 2.69528 12.1604 2.70346C11.5969 2.777 11.0549 2.9241 10.5209 3.18288V3.18015Z" fill="#89B05F"/>
<path d="M22.3042 23.5332C21.9043 23.999 21.5206 24.236 21.0349 24.5356C19.8542 25.2629 18.8131 25.4509 18.1262 25.5735C17.8444 25.6225 17.6646 25.6443 17.5305 25.6443C17.4312 25.6443 17.356 25.6334 17.2836 25.6171C16.3954 25.4046 15.95 24.3695 15.7836 23.9799C14.6995 21.4521 14.034 18.3522 13.8435 17.3906C13.433 17.5976 13.0278 17.8183 12.6306 18.0498C12.6897 18.1098 12.7192 18.2323 12.8695 18.4584C12.9419 18.5674 12.9419 18.5483 13.017 18.6654C13.1485 18.867 13.221 18.976 13.2478 19.104C13.2934 19.3274 13.2102 19.6706 12.9929 19.736C12.7916 19.7986 12.5421 19.5998 12.4616 19.4036C12.4321 19.3355 12.4482 19.3219 12.3945 18.9705C12.3811 18.8834 12.3703 18.8125 12.3462 18.6682C12.3113 18.453 12.2872 18.3304 12.2818 18.2541C11.8981 18.4857 11.517 18.7308 11.1494 18.9842C11.1548 19.025 11.1628 19.0659 11.1682 19.1067C11.2567 19.6815 11.4848 20.8365 11.9437 23.1382C12.204 24.4457 12.5957 26.4179 13.594 27.0036C14.1333 27.3195 14.6915 27.3767 14.6968 27.3767C14.7693 27.3822 14.9571 27.4013 15.6306 27.3114C16.3149 27.2215 16.8247 27.1098 16.8811 27.0962C17.3775 26.9872 18.2093 26.802 19.2585 26.407C20.458 25.9548 21.1181 25.7069 21.8319 25.1458C22.2237 24.8353 22.5322 24.5084 22.7791 24.2006C23.0394 23.506 23.1897 22.6397 23.2782 21.5556C23.2702 21.5828 23.2621 21.6128 23.2514 21.64C23.0045 22.43 22.7684 22.9911 22.3068 23.5305L22.3042 23.5332Z" fill="#89B05F"/>
<path d="M23.3817 15.3359C22.3218 16.066 21.133 16.5917 19.9014 16.8668C19.1661 17.0303 18.4577 17.0984 17.7976 17.0984C16.1286 17.0984 14.752 16.6734 13.9014 16.3247C13.9416 16.5454 13.9846 16.7824 14.0329 17.0411C14.0409 17.0793 14.7332 20.882 16.0132 23.8729C16.1661 24.2297 16.5713 25.1777 17.3361 25.3602C17.4461 25.3874 17.5856 25.4038 18.0767 25.3166C18.7475 25.1968 19.7592 25.0142 20.8969 24.3142C21.3638 24.0254 21.7341 23.7993 22.1071 23.3635C22.5418 22.8569 22.7565 22.3393 23.0007 21.5657C23.1375 21.1298 23.2502 20.7294 23.3414 20.3699C23.3951 19.0024 23.3897 17.3462 23.3817 15.3387V15.3359Z" fill="url(#paint6_linear_1760_20359)"/>
<path d="M10.2207 2.26311C10.3576 2.25494 10.4703 2.24949 10.5535 2.24404C10.4783 2.18139 10.371 2.09422 10.2315 2.00978C10.0705 1.91172 9.83432 1.77007 9.4989 1.72104C9.36473 1.70197 9.13128 1.66928 8.85757 1.75917C8.76097 1.78914 8.68584 1.82727 8.63217 1.85724C8.59729 1.9553 8.5624 2.05881 8.5302 2.16505C8.498 2.26311 8.47117 2.36117 8.44434 2.45379C8.80927 2.39386 9.12054 2.35572 9.36473 2.33121C9.71893 2.2958 10.0195 2.27673 10.2207 2.26311Z" fill="#89B05F"/>
<path d="M19.3412 26.652C18.2733 27.0525 17.4334 27.2404 16.9289 27.3521C16.8725 27.3657 16.352 27.4774 15.657 27.57C15.2115 27.63 14.9673 27.6436 14.8251 27.6436C14.7446 27.6436 14.699 27.6381 14.6668 27.6354C14.6427 27.6354 14.0496 27.5728 13.4593 27.2268C13.0461 26.9844 12.7321 26.5513 12.4879 26.0337C12.2115 26.4096 11.8895 26.7419 11.5273 27.0225C11.1275 27.333 10.2393 28.0249 9.08273 28.0249C8.97003 28.0249 8.85732 28.0195 8.73926 28.0059C8.44409 27.9705 7.43246 27.7907 6.74283 26.9626C6.22226 26.3361 6.24104 25.7531 6.26519 24.9468C6.28398 24.353 6.30545 23.6148 6.13908 22.5906C6.03443 21.945 5.89489 21.4356 5.76341 20.9889C5.81976 21.6236 5.87342 21.7897 5.89757 22.4626C5.4575 22.814 5.01206 23.3587 4.82154 23.2226C4.73836 23.1626 4.77593 23.0264 4.60687 22.8466C4.47002 22.6995 4.37074 22.7104 4.24999 22.5851C4.09435 22.4217 4.07825 22.2065 4.06484 22.0921C4.0058 21.5882 3.80992 21.4792 3.56573 20.3133C3.17664 18.4556 3.53085 18.0769 3.09614 16.6223C2.64265 15.1133 2.58362 14.958 2.58362 14.958C2.49507 14.7264 2.25356 14.1136 2.32602 14.0754C2.37968 14.0482 2.538 14.3342 2.65339 14.2933C2.69632 14.2797 2.73657 14.2198 2.75267 13.961C2.77145 13.6941 2.7795 13.5606 2.72315 13.3236C2.60777 12.8306 2.84927 12.0951 2.95124 11.6729C3.16323 10.7903 3.05321 10.0058 2.87879 8.75003C2.69364 7.41528 2.32333 6.18949 2.32333 6.18949C2.1677 5.67466 1.94766 5.04542 1.95303 4.22005C1.95303 4.12199 1.96376 3.5554 2.2804 3.00515C2.43067 2.74638 2.54068 2.67555 2.62119 2.64286C2.78755 2.57749 2.99954 2.59928 3.4906 2.88802C3.78308 3.05963 4.18022 3.33203 4.60151 3.74608C4.75178 3.55267 4.91278 3.41648 5.06036 3.32386C5.3287 3.15225 5.4253 3.19311 5.61582 3.01877C5.76341 2.8853 5.76072 2.80903 5.98881 2.53118C6.09883 2.39771 6.19811 2.29419 6.26788 2.2261C6.13103 2.09807 5.92977 1.92646 5.66949 1.7494C5.26967 1.477 4.90741 1.23184 4.38684 1.13923C3.5872 0.994855 2.93514 1.30539 2.7473 1.40073C2.42262 1.56144 2.50848 1.59958 2.03353 1.89377C1.22315 2.39226 0.882365 2.33233 0.522794 2.73276C0.469127 2.79268 0.278608 3.01605 0.122973 3.58536C-0.011195 4.0784 -0.12658 4.87108 0.294709 6.78332C0.490594 7.66589 0.622079 7.99004 0.893099 9.18587C0.992383 9.62443 1.0702 10.0085 1.1346 10.4879C1.19364 10.9238 1.16949 10.9156 1.22047 11.1825C1.30634 11.6238 1.38684 12.0488 1.60419 12.4982C1.64712 12.5881 1.80276 12.8959 1.77593 13.1792C1.77324 13.2146 1.76251 13.2936 1.74641 13.3808C1.71421 13.5688 1.69811 13.6641 1.66054 13.7295C1.57467 13.8738 1.45929 13.8847 1.46197 13.9746C1.46197 14.0346 1.51296 14.04 1.57467 14.1326C1.66859 14.2743 1.60419 14.3396 1.68737 14.4949C1.72226 14.5576 1.78129 14.6148 1.90204 14.7264C2.04695 14.8626 2.08451 14.8626 2.10061 14.8572C2.17575 14.8327 2.15428 14.6611 2.18648 14.6556C2.26161 14.6393 2.62119 15.5001 2.84122 16.813C2.97271 17.5894 2.99954 18.205 3.03979 19.0848C3.09614 20.3079 3.03979 20.6457 3.21153 21.313C3.37253 21.945 3.6194 22.4299 3.7965 22.7322C3.87968 22.9747 3.96823 23.3288 3.98165 23.7592C3.99507 24.1514 3.93872 24.4783 3.88237 24.7153C2.27235 25.1675 1.09972 25.5243 0.874315 25.6115C0.809915 25.636 0.67038 25.6987 0.517428 25.7858C0.393993 25.8539 0.332276 25.8921 0.302759 25.9302C0.208841 26.0637 0.321542 26.1563 0.289342 26.4941C0.275925 26.6439 0.238358 26.7556 0.302759 26.8128C0.334959 26.84 0.375209 26.84 0.402043 26.8427C0.541578 26.8427 0.632812 26.7419 0.74283 26.6548C0.820648 26.5948 0.938716 26.5158 1.11313 26.4532C1.09972 26.5758 1.0702 26.9435 1.29829 27.1778C1.4083 27.2895 1.57199 27.3657 2.09793 27.3793C2.59972 27.393 2.98076 27.3358 3.18201 27.3058C4.02459 27.1832 5.11671 27.0361 5.22137 27.3058C5.24283 27.3603 5.22942 27.4583 5.30723 27.5237C5.37163 27.5782 5.42798 27.551 5.5219 27.6109C5.61314 27.6681 5.6024 27.7226 5.66412 27.7553C5.77414 27.8152 5.90294 27.7089 6.06394 27.6545C6.11761 27.6354 6.17128 27.6245 6.21958 27.6191C6.28129 27.7416 6.35911 27.856 6.46376 27.9568C6.84748 28.3382 7.34391 28.3709 7.8618 28.4199C10.4888 28.6705 10.2071 29.0383 11.8251 28.9974C12.5711 28.9783 13.2071 28.8694 14.4763 28.6487C15.4799 28.4744 16.3922 28.2728 16.843 28.1557C17.5326 27.9759 20.4441 27.2241 22.0595 25.4072C22.1641 25.2901 22.2607 25.1647 22.3493 25.0286C22.2339 25.1375 22.1078 25.2437 21.9736 25.35C21.2276 25.9356 20.5139 26.2053 19.3305 26.6493L19.3412 26.652ZM4.19364 22.8902C4.22047 22.8793 4.28487 23.0019 4.42172 23.2525C4.91546 24.1596 5.04695 24.3285 4.96376 24.4674C4.88863 24.5927 4.67396 24.639 4.55052 24.5682C4.40562 24.4892 4.43514 24.2822 4.36537 23.8C4.28219 23.2307 4.14802 22.9038 4.19364 22.8875V22.8902ZM5.46287 26.0446C5.45214 26.1645 5.35553 26.2816 5.2482 26.3061C5.15428 26.3279 5.0711 26.2761 5.04963 26.2625C4.64176 26.0283 2.87611 26.5104 1.86984 26.4205C1.79739 26.4151 1.69006 26.4014 1.68469 26.3633C1.66859 26.2652 2.29113 26.0855 2.62655 25.9874C2.94587 25.8948 3.39131 25.7749 3.93872 25.6687C4.02727 25.8294 4.18022 25.922 4.32244 25.9002C4.40026 25.8893 4.48344 25.843 4.53711 25.7695C4.60151 25.6796 4.56662 25.6197 4.63639 25.5243C4.69274 25.4508 4.76519 25.4181 4.82154 25.3936C4.93693 25.3445 5.04426 25.3445 5.10598 25.35C5.17843 25.4998 5.2482 25.6197 5.30455 25.7123C5.41725 25.8921 5.46824 25.9493 5.46019 26.0446H5.46287Z" fill="#89B05F"/>
<path d="M9.51774 0.655572C10.1349 0.571128 10.6394 0.778151 10.9265 0.895282C11.5249 1.13772 11.9381 1.51635 12.0213 1.59262C12.1877 1.74516 12.3004 1.88136 12.3272 1.8623C12.3728 1.82688 12.1474 1.36381 11.8308 0.96883C11.5571 0.628332 11.1278 0.0971554 10.4355 0.00998793C10.363 0.00181599 9.93366 -0.0472157 9.49359 0.181599C9.16085 0.35321 8.87105 0.66102 8.91935 0.748187C8.95692 0.816287 9.17427 0.70188 9.51506 0.655572H9.51774Z" fill="#89B05F"/>
<path d="M5.91884 3.24069C5.57805 3.37689 5.30971 3.54578 5.07895 3.78549C4.47519 4.41201 4.29272 5.18017 4.22295 5.49343C4.03243 6.35148 4.18807 7.01069 4.39469 7.98315C4.55032 8.7159 4.68986 9.4541 4.83208 10.1923C4.85891 9.26614 4.92599 8.35089 5.0387 7.4547C5.21043 6.06546 5.40632 5.21558 6.00471 4.41745C6.18181 4.18047 6.72385 3.45861 7.68181 3.05274C8.04675 2.89747 8.36607 2.83482 8.94567 2.72041C9.13083 2.685 9.79362 2.5597 10.5637 2.5025C10.9314 2.47526 11.4627 2.45346 12.1335 2.44257C12.3374 2.41533 12.5441 2.39898 12.7534 2.38809C12.7212 2.30909 12.5816 2.21375 12.2757 2.00945C11.5405 1.51641 11.1729 1.27126 11.0494 1.21405C10.6094 1.00703 10.2444 0.835418 9.73727 0.824522C9.49576 0.819074 9.23011 0.887174 8.69612 1.01248C8.32045 1.09964 8.14335 1.16502 7.98235 1.23584C7.77573 1.33118 7.60936 1.43469 7.41079 1.57634C6.81508 2.00401 6.39111 2.30637 6.09862 2.85117C6.06374 2.91382 5.97787 3.07453 5.91347 3.24614L5.91884 3.24069ZM7.37322 2.57059C7.74889 2.02852 8.25873 1.77519 8.44925 1.67985C8.6505 1.58179 8.81151 1.50279 9.03959 1.47011C9.60578 1.38839 10.0781 1.65261 10.494 1.8896C10.8213 2.07755 11.0038 2.25734 11.1756 2.39898C10.5423 2.41533 9.42331 2.4807 8.01455 2.74221C7.71133 2.79941 7.43762 2.84844 7.19075 2.9002C7.22832 2.81031 7.28199 2.70407 7.37322 2.57059Z" fill="#89B05F"/>
<defs>
<linearGradient id="paint0_linear_1760_20359" x1="17.7509" y1="10.397" x2="23.425" y2="10.397" gradientUnits="userSpaceOnUse">
<stop stop-color="#F6D365"/>
<stop offset="1" stop-color="#FDA085"/>
</linearGradient>
<linearGradient id="paint1_linear_1760_20359" x1="6.40153" y1="22.2639" x2="9.56964" y2="22.2639" gradientUnits="userSpaceOnUse">
<stop stop-color="#F6D365"/>
<stop offset="1" stop-color="#FDA085"/>
</linearGradient>
<linearGradient id="paint2_linear_1760_20359" x1="6.53613" y1="24.4125" x2="12.4136" y2="24.4125" gradientUnits="userSpaceOnUse">
<stop stop-color="#F6D365"/>
<stop offset="1" stop-color="#FDA085"/>
</linearGradient>
<linearGradient id="paint3_linear_1760_20359" x1="9.61936" y1="20.7311" x2="11.2317" y2="20.7311" gradientUnits="userSpaceOnUse">
<stop stop-color="#F6D365"/>
<stop offset="1" stop-color="#FDA085"/>
</linearGradient>
<linearGradient id="paint4_linear_1760_20359" x1="5.69368" y1="18.5711" x2="11.0474" y2="18.5711" gradientUnits="userSpaceOnUse">
<stop stop-color="#F6D365"/>
<stop offset="1" stop-color="#FDA085"/>
</linearGradient>
<linearGradient id="paint5_linear_1760_20359" x1="12.6649" y1="10.5137" x2="19.8762" y2="10.5137" gradientUnits="userSpaceOnUse">
<stop stop-color="#F6D365"/>
<stop offset="1" stop-color="#FDA085"/>
</linearGradient>
<linearGradient id="paint6_linear_1760_20359" x1="13.9488" y1="20.3783" x2="23.4636" y2="20.3783" gradientUnits="userSpaceOnUse">
<stop stop-color="#F6D365"/>
<stop offset="1" stop-color="#FDA085"/>
</linearGradient>
</defs>
</svg>
