<svg width="23" height="26" viewBox="0 0 23 26" fill="none" xmlns="http://www.w3.org/2000/svg">
<g clip-path="url(#clip0_1650_18406)">
<path d="M11.5003 -0.00012207C10.5916 -0.00012207 9.8574 0.726051 9.8574 1.62488V2.59988C6.10962 3.35145 3.28596 6.63192 3.28596 10.5624V11.5171C3.28596 13.9038 2.39779 16.2093 0.795998 17.9968L0.416087 18.4183C-0.0151638 18.8956 -0.117843 19.5812 0.143988 20.1652C0.405819 20.7491 0.996222 21.1249 1.6431 21.1249H21.3574C22.0043 21.1249 22.5896 20.7491 22.8565 20.1652C23.1235 19.5812 23.0157 18.8956 22.5844 18.4183L22.2045 17.9968C20.6027 16.2093 19.7146 13.9089 19.7146 11.5171V10.5624C19.7146 6.63192 16.8909 3.35145 13.1431 2.59988V1.62488C13.1431 0.726051 12.409 -0.00012207 11.5003 -0.00012207ZM13.8259 25.0503C14.442 24.4409 14.786 23.6132 14.786 22.7499H11.5003H8.21454C8.21454 23.6132 8.55851 24.4409 9.17459 25.0503C9.79066 25.6597 10.6275 25.9999 11.5003 25.9999C12.373 25.9999 13.2099 25.6597 13.8259 25.0503Z" fill="#78B7EE"/>
</g>
<defs>
<clipPath id="clip0_1650_18406">
<rect width="23" height="26.0001" fill="white" transform="translate(0.000732422 -0.00012207)"/>
</clipPath>
</defs>
</svg>
