<svg width="79" height="79" viewBox="0 0 79 79" fill="none" xmlns="http://www.w3.org/2000/svg">
<rect x="1.66667" y="1.33348" width="76" height="76" rx="20.7891" fill="url(#paint0_linear_1659_19257)" stroke="url(#paint1_linear_1659_19257)" stroke-width="2.66667"/>
<g clip-path="url(#clip0_1659_19257)">
<path d="M39.6992 18.6696C44.7804 18.6696 49.8631 18.6637 54.9443 18.6726C57.2695 18.677 59.1537 19.9159 59.9559 22.0176C60.1794 22.6023 60.3097 23.2609 60.3111 23.8855C60.3348 31.6057 60.3304 39.3245 60.3245 47.0447C60.323 49.8628 58.2434 52.1362 55.409 52.2206C51.9338 52.3227 48.454 52.2798 44.9758 52.2694C44.2535 52.2679 43.6659 52.4337 43.0768 52.8896C40.2898 55.0461 37.4687 57.1552 34.6565 59.2807C34.4212 59.4583 34.1844 59.6403 33.9298 59.7898C33.0728 60.2916 32.059 59.8638 32.0072 58.8899C31.9124 57.0709 31.9302 55.2444 31.9124 53.4209C31.9006 52.2813 31.9095 52.2798 30.8009 52.2798C28.7287 52.2798 26.6566 52.2946 24.5844 52.2739C22.1482 52.2487 20.2714 51.2866 19.3626 48.9155C19.1229 48.2894 19.0163 47.5745 19.0148 46.8996C18.9941 39.2786 19 31.6575 19.0045 24.0365C19.0059 20.9431 21.2631 18.6815 24.3802 18.6741C29.4865 18.6607 34.5929 18.6711 39.6992 18.6711V18.6696ZM44.8411 44.5729V44.5759C46.7652 44.5759 48.6909 44.5892 50.615 44.5699C51.7118 44.5596 52.4488 43.9439 52.6176 42.9699C52.8514 41.6216 51.9278 40.5677 50.4063 40.5574C46.7046 40.5322 43.0028 40.5115 39.3041 40.584C38.6854 40.5959 37.969 40.9585 37.4895 41.3788C36.893 41.9013 36.9063 42.7213 37.2245 43.4421C37.5679 44.2147 38.2295 44.5685 39.0672 44.5714C40.9914 44.5773 42.917 44.5729 44.8411 44.5729ZM34.513 34.1485C32.54 34.1485 30.5655 34.1263 28.5926 34.1559C27.2323 34.1767 26.3783 35.4451 26.7957 36.7461C27.1139 37.7348 27.7874 38.1389 29.2024 38.1419C32.7309 38.1493 36.258 38.1448 39.7866 38.1419C40.0071 38.1419 40.2276 38.1152 40.4467 38.0812C41.7344 37.8799 42.3634 37.1413 42.282 35.935C42.2095 34.8605 41.3836 34.1589 40.1403 34.1515C38.265 34.1411 36.3897 34.1485 34.5159 34.1515L34.513 34.1485ZM30.57 44.5773C31.2094 44.5773 31.8488 44.5773 32.4882 44.5773C32.5622 44.5773 32.6362 44.5714 32.7087 44.564C33.7196 44.4663 34.4345 43.7648 34.5544 42.7568C34.6477 41.9783 34.0601 40.8889 33.212 40.806C31.5439 40.6417 29.8388 40.5677 28.1766 40.7276C27.037 40.8371 26.5485 41.8495 26.7173 42.9877C26.8549 43.9231 27.626 44.5418 28.7243 44.5744C29.3385 44.5921 29.9543 44.5773 30.5685 44.5773H30.57ZM48.8048 34.1515V34.1485C48.1388 34.1485 47.4727 34.1485 46.8067 34.1485C46.7578 34.1485 46.7075 34.15 46.6587 34.153C45.6522 34.2181 44.8515 35.0085 44.776 36.009C44.7049 36.9607 45.442 37.9716 46.4411 38.0294C47.9612 38.1182 49.4946 38.1196 51.0146 38.0353C52.0611 37.9761 52.6945 37.0821 52.6442 36.0149C52.5954 34.9922 51.8272 34.1974 50.8044 34.1545C50.1399 34.1263 49.4724 34.15 48.8063 34.15L48.8048 34.1515Z" fill="url(#paint2_linear_1659_19257)"/>
</g>
<defs>
<linearGradient id="paint0_linear_1659_19257" x1="39.6667" y1="2.66681" x2="39.6667" y2="76.0001" gradientUnits="userSpaceOnUse">
<stop offset="0.0885417" stop-color="#F4F6FF"/>
<stop offset="0.526042" stop-color="white"/>
<stop offset="0.875" stop-color="#F4F6FF"/>
</linearGradient>
<linearGradient id="paint1_linear_1659_19257" x1="3" y1="39.3335" x2="76.3333" y2="39.3335" gradientUnits="userSpaceOnUse">
<stop stop-color="#F6D365"/>
<stop offset="1" stop-color="#FDA085"/>
</linearGradient>
<linearGradient id="paint2_linear_1659_19257" x1="17.6668" y1="18.6666" x2="60.3335" y2="59.9999" gradientUnits="userSpaceOnUse">
<stop stop-color="#F6D365"/>
<stop offset="1" stop-color="#FDA085"/>
</linearGradient>
<clipPath id="clip0_1659_19257">
<rect width="41.3304" height="41.3333" fill="white" transform="translate(19 18.6668)"/>
</clipPath>
</defs>
</svg>
