<svg width="66" height="66" viewBox="0 0 66 66" fill="none" xmlns="http://www.w3.org/2000/svg">
<rect y="-0.00012207" width="65.3333" height="65.3333" rx="17.3333" fill="white"/>
<g clip-path="url(#clip0_1659_19312)">
<path fill-rule="evenodd" clip-rule="evenodd" d="M43.3824 32.8872L43.3822 32.8873L43.3497 32.8411C43.3212 32.8004 43.299 32.7687 43.2755 32.7387L43.2514 32.7078C43.178 32.6134 43.1043 32.5188 43.0281 32.4267C41.3329 30.3891 39.1996 29.0076 36.6864 28.1944C35.9929 27.9693 35.613 27.4705 35.6082 26.741L35.6051 26.3199V26.3199C35.5969 25.1969 35.5886 24.074 35.6106 22.9517C35.6337 21.7809 36.1644 20.8974 37.2139 20.3419C37.4358 20.2246 37.6577 20.0985 37.858 19.9476C38.2994 19.614 38.538 19.2078 38.4294 18.6068C38.3552 18.1958 38.36 17.7505 38.4318 17.3379C38.5324 16.7553 38.3281 16.3195 37.8748 16.0354C37.3855 15.7281 36.8612 15.4352 36.3121 15.2724C33.5962 14.4671 30.8571 14.4743 28.1364 15.2389C27.5251 15.4105 26.9504 15.76 26.4053 16.1024C25.9903 16.3634 25.8355 16.7872 25.9233 17.3187C25.9935 17.7449 25.9959 18.2014 25.9257 18.6284C25.8355 19.1751 26.0214 19.5662 26.4261 19.8806C26.6559 20.0594 26.9081 20.211 27.1627 20.3523C28.1939 20.9253 28.7294 21.7984 28.7422 22.9764C28.7521 23.8692 28.7499 24.7625 28.7477 25.6559V25.656L28.7477 25.6586C28.7471 25.9079 28.7465 26.1573 28.7461 26.4066C28.7445 27.5631 28.4963 27.911 27.4181 28.2782C24.9839 29.1082 22.9264 30.4905 21.2847 32.4778C21.2354 32.537 21.1921 32.6007 21.1478 32.6659L21.1478 32.6659C21.1276 32.6956 21.1072 32.7255 21.086 32.7555C26.5449 35.5647 38.1928 35.5672 43.3822 32.8873L43.3832 32.8888L43.3824 32.8872ZM31.3251 15.4782C31.6225 15.448 31.9199 15.4178 32.2168 15.3842L32.4848 15.4035C33.6911 15.4901 34.8841 15.5757 36.0328 15.9739C36.2435 16.0473 36.4558 16.1431 36.6361 16.2716C37.0256 16.5486 37.0424 16.9077 36.6202 17.1168C36.1166 17.3658 35.5699 17.5741 35.0192 17.6755C32.9761 18.0522 30.9249 18.053 28.893 17.5821C28.4748 17.4855 28.063 17.3028 27.6911 17.0857C27.3215 16.8694 27.3215 16.4959 27.703 16.2972C28.1667 16.0553 28.6695 15.8335 29.1795 15.7457C29.8894 15.6238 30.6072 15.551 31.3251 15.4782ZM20.1441 34.1723C23.9757 36.0079 28.0628 36.5059 32.2201 36.5386C36.367 36.5705 40.4461 36.1164 44.3048 34.3231C44.8172 35.2329 45.2027 36.1875 45.4038 37.2042C45.4882 37.6307 45.5401 38.0637 45.592 38.4968L45.592 38.4969C45.627 38.7892 45.6621 39.0815 45.7071 39.3719C45.759 39.7071 45.6105 39.9257 45.3863 40.1356C44.5179 40.9473 43.4916 41.494 42.3918 41.9138C40.201 42.751 37.9185 43.1931 35.5896 43.3288C33.7085 43.4382 31.8146 43.4812 29.9327 43.4046C27.0285 43.2865 24.1681 42.838 21.4458 41.7486C20.504 41.3719 19.603 40.9114 18.8967 40.1572C18.7738 40.0247 18.6668 39.8148 18.6668 39.6408C18.6604 37.7557 19.1433 35.9911 20.0339 34.3343C20.0547 34.2954 20.0808 34.2596 20.1075 34.2229C20.1197 34.206 20.132 34.189 20.1441 34.1715V34.1723ZM22.5025 39.6943C22.5081 39.7325 22.5117 39.7756 22.5155 39.8215C22.5253 39.9378 22.5365 40.072 22.5863 40.1899C22.6613 40.3695 22.785 40.6281 22.9239 40.6528C23.0739 40.6799 23.3253 40.5195 23.4306 40.3695C24.03 39.5139 24.2782 38.5522 24.1402 37.5147C24.1216 37.375 24.0262 37.2454 23.9308 37.1157C23.8866 37.0557 23.8424 36.9956 23.8058 36.9345C23.7427 36.9742 23.6736 37.0095 23.6045 37.0447C23.4543 37.1214 23.3042 37.198 23.2168 37.3199C22.7235 38.0079 22.5639 38.8124 22.5025 39.6935V39.6943ZM27.1307 38.5493C27.1355 38.6082 27.14 38.6635 27.1465 38.7131C27.0787 39.6052 26.9573 40.4175 26.4307 41.0973C26.3301 41.2266 26.1394 41.3543 25.9909 41.3543C25.8776 41.3543 25.7132 41.1716 25.6589 41.0351C25.4139 40.4166 25.4961 39.7765 25.6629 39.1628C25.7834 38.7214 25.9838 38.2936 26.2088 37.8938C26.2918 37.7461 26.5592 37.6081 26.7212 37.6296C26.8521 37.6464 26.9925 37.8962 27.0508 38.0686C27.1046 38.2276 27.1186 38.3999 27.1307 38.5493ZM38.9624 40.0973L39.0414 40.0702C38.9922 39.8882 38.9445 39.7057 38.8967 39.5232L38.8966 39.5228C38.7717 39.0452 38.6468 38.5675 38.4955 38.0981C38.4309 37.8978 38.2505 37.7206 38.0877 37.5705C37.8219 37.3239 37.5984 37.3774 37.4931 37.7222C37.4053 38.0087 37.3319 38.3168 37.3415 38.6121C37.3694 39.4533 37.5075 40.2785 38.0494 40.9633C38.1563 41.0989 38.4005 41.245 38.533 41.2091C38.6775 41.17 38.8076 40.9385 38.8682 40.7653C38.9186 40.6212 38.9306 40.4633 38.9425 40.3054C38.9478 40.2359 38.9531 40.1664 38.9616 40.0981L38.9624 40.0973ZM32.9789 39.7254L32.9789 39.7253C32.8923 39.3419 32.8067 38.9624 32.6886 38.5937C32.6399 38.4421 32.4156 38.2513 32.2735 38.2521C32.1299 38.2537 31.9216 38.4421 31.8553 38.5977C31.4156 39.6241 31.4539 40.668 31.8585 41.6935C31.92 41.8499 32.1379 42.0439 32.2807 42.0423C32.4252 42.0399 32.6423 41.8412 32.6949 41.6839C32.8101 41.3374 32.8927 40.9798 32.978 40.6108L32.978 40.6107L32.978 40.6106C33.0116 40.4655 33.0455 40.3186 33.082 40.1699H33.0812C33.0457 40.0214 33.0122 39.8731 32.9789 39.7254ZM44.976 38.636C44.9018 37.6272 44.7334 36.7733 44.1564 36.0629C44.0534 35.9361 43.8364 35.8036 43.6999 35.8283C43.5666 35.853 43.3942 36.0614 43.3671 36.2122C43.162 37.3367 43.4285 38.3655 44.079 39.2976C44.1208 39.3577 44.1857 39.4047 44.247 39.449L44.247 39.449L44.2562 39.4557C44.4884 39.6217 44.7007 39.5897 44.8037 39.3232C44.8758 39.1366 44.9148 38.9372 44.9449 38.7828C44.9558 38.7271 44.9655 38.6773 44.9752 38.636H44.976ZM30.3546 39.2092L30.3546 39.2091C30.3381 39.0424 30.3167 38.8269 30.2456 38.6288C30.1777 38.4397 30.0109 38.2042 29.8433 38.1603C29.7172 38.1276 29.4523 38.3295 29.3669 38.4892C28.8689 39.4189 28.6709 40.4094 28.9519 41.4469C29.003 41.6353 29.1977 41.8994 29.3469 41.9138C29.505 41.929 29.7452 41.723 29.8497 41.5523C30.2327 40.9251 30.3461 40.2174 30.3725 39.3661C30.3658 39.322 30.3605 39.2687 30.3546 39.2092ZM35.6623 40.3767C35.6503 40.3743 35.6391 40.3727 35.6271 40.3703C35.6236 40.3157 35.6231 40.2603 35.6226 40.2049C35.6215 40.0854 35.6205 39.966 35.5888 39.8547L35.5633 39.7643C35.4291 39.2889 35.2944 38.8115 35.106 38.3575C35.0397 38.1971 34.7668 37.9919 34.6351 38.0207C34.4683 38.0574 34.3127 38.2936 34.2217 38.478C34.1407 38.6431 34.1283 38.8493 34.1167 39.0417L34.1156 39.0614C34.0661 39.9122 34.2041 40.7294 34.6519 41.4653C34.7421 41.6129 34.9767 41.7941 35.1044 41.7669C35.2648 41.7334 35.4524 41.5235 35.5066 41.3511C35.5765 41.1324 35.6014 40.8994 35.6263 40.6664L35.6264 40.6662C35.6367 40.5694 35.6471 40.4725 35.6607 40.3767H35.6623ZM21.1808 36.9991C21.1781 36.9526 21.179 36.9038 21.18 36.8547C21.182 36.7436 21.1842 36.6301 21.1449 36.5338L21.132 36.5023C21.048 36.2974 20.9373 36.0272 20.7834 35.9839C20.6365 35.9424 20.3548 36.1452 20.2279 36.3128C19.8025 36.8762 19.6006 37.5418 19.5543 38.2386C19.5288 38.6272 19.5543 39.0335 19.6445 39.4102C19.7259 39.7486 19.994 39.7964 20.255 39.5666C20.3819 39.4549 20.4921 39.3144 20.5783 39.1675C20.9709 38.5027 21.1465 37.7741 21.18 36.9991H21.1808ZM40.2792 37.7693C40.3168 38.6711 40.4923 39.4716 40.992 40.1588C41.076 40.275 41.2174 40.349 41.3591 40.4233L41.3592 40.4233L41.3592 40.4233C41.4248 40.4576 41.4905 40.492 41.5506 40.5307C41.5904 40.4681 41.639 40.4064 41.6875 40.3446L41.6875 40.3446C41.7937 40.2095 41.9 40.0743 41.9153 39.9297C42.0167 38.9505 41.798 38.0295 41.2761 37.1883L41.2597 37.1617C41.2297 37.1123 41.1977 37.0598 41.1532 37.0334C41.1149 37.0111 41.0741 36.9838 41.0326 36.956C40.9081 36.8726 40.7771 36.7848 40.6879 36.8148C40.5394 36.8634 40.4085 37.0741 40.3447 37.2425C40.2953 37.3718 40.291 37.5181 40.2873 37.6402V37.6402C40.2859 37.6877 40.2846 37.7315 40.2808 37.7693H40.2792ZM19.7095 42.766C19.473 42.6559 19.2366 42.5458 18.9989 42.4389H18.9981C18.9983 42.4425 18.9983 42.4474 18.9983 42.4532C18.9984 42.4718 18.9984 42.5001 19.0045 42.5275C19.0213 42.6049 19.0412 42.6815 19.0628 42.7582C19.7811 45.2538 21.1705 47.3097 23.2065 48.9019C26.7636 51.6841 30.8092 52.5524 35.1947 51.6665C39.1237 50.8732 42.2084 48.7822 44.2483 45.2706C44.787 44.3432 45.1709 43.3496 45.4015 42.3009C45.1847 42.4079 44.9718 42.5172 44.7606 42.6258C44.3117 42.8564 43.8702 43.0832 43.4143 43.2753C40.5212 44.4932 37.4637 44.929 34.3599 45.0942C32.047 45.2171 29.7341 45.158 27.4324 44.8699C25.3326 44.6074 23.2568 44.2251 21.2759 43.4549C20.745 43.2483 20.2272 43.0072 19.7095 42.766Z" fill="url(#paint0_linear_1659_19312)"/>
</g>
<defs>
<linearGradient id="paint0_linear_1659_19312" x1="18.6667" y1="33.3332" x2="45.7175" y2="33.3332" gradientUnits="userSpaceOnUse">
<stop stop-color="#F6D365"/>
<stop offset="1" stop-color="#FDA085"/>
</linearGradient>
<clipPath id="clip0_1659_19312">
<rect width="27.0507" height="37.3333" fill="white" transform="translate(18.6666 14.6665)"/>
</clipPath>
</defs>
</svg>
