<svg width="75" height="75" viewBox="0 0 75 75" fill="none" xmlns="http://www.w3.org/2000/svg">
<circle cx="37.3334" cy="37.4998" r="30.6667" fill="white"/>
<g clip-path="url(#clip0_2384_3575)">
<path d="M48.7033 26.5928L40.6673 21.9528C39.6532 21.3696 38.5039 21.0627 37.334 21.0627C36.1642 21.0627 35.0148 21.3696 34.0007 21.9528L25.9647 26.5928C24.9525 27.1794 24.112 28.0212 23.527 29.0343C22.9421 30.0474 22.6333 31.1963 22.6313 32.3661V41.6461C22.6333 42.8162 22.9422 43.9652 23.5271 44.9785C24.112 45.9918 24.9525 46.8339 25.9647 47.4208L34.0007 52.0595C35.0147 52.643 36.1641 52.9502 37.334 52.9502C38.5039 52.9502 39.6534 52.643 40.6673 52.0595L48.7033 47.4208C49.7155 46.8339 50.556 45.9918 51.141 44.9785C51.7259 43.9652 52.0347 42.8162 52.0367 41.6461V32.3661C52.0348 31.1963 51.7259 30.0474 51.141 29.0343C50.5561 28.0212 49.7155 27.1794 48.7033 26.5928ZM35.334 24.2635C35.9421 23.9124 36.6319 23.7276 37.334 23.7276C38.0362 23.7276 38.7259 23.9124 39.334 24.2635L47.37 28.9021C47.5738 29.0309 47.7653 29.1782 47.942 29.3421L39.6847 34.1088C38.9698 34.5209 38.1592 34.7378 37.334 34.7378C36.5089 34.7378 35.6982 34.5209 34.9833 34.1088L26.726 29.3421C26.9028 29.1782 27.0942 29.0309 27.298 28.9021L35.334 24.2635ZM27.298 45.1101C26.6903 44.758 26.1857 44.2525 25.8347 43.6441C25.4837 43.0357 25.2986 42.3458 25.298 41.6435V32.3661C25.3073 32.1259 25.339 31.8871 25.3927 31.6528L33.65 36.4195C34.3793 36.8343 35.1744 37.1207 36.0007 37.2661V50.0248C35.7704 49.9543 35.5472 49.8623 35.334 49.7501L27.298 45.1101ZM49.37 41.6435C49.3694 42.3458 49.1843 43.0357 48.8333 43.6441C48.4823 44.2525 47.9777 44.758 47.37 45.1101L39.334 49.7501C39.1209 49.8623 38.8977 49.9543 38.6673 50.0248V37.2661C39.4936 37.1207 40.2888 36.8343 41.018 36.4195L49.2753 31.6528C49.3291 31.8871 49.3608 32.1259 49.37 32.3661V41.6435Z" fill="#707386"/>
</g>
<defs>
<clipPath id="clip0_2384_3575">
<rect width="32" height="32" fill="white" transform="translate(21.334 20.9701)"/>
</clipPath>
</defs>
</svg>
