<svg width="171" height="75" viewBox="0 0 171 75" fill="none" xmlns="http://www.w3.org/2000/svg">
<circle cx="37.3334" cy="37.4999" r="30.6667" fill="white"/>
<g clip-path="url(#clip0_1691_19666)">
<path d="M41.0167 36.4196C40.2878 36.8345 39.4932 37.1214 38.6674 37.2676V52.8023C39.3701 52.6655 40.0457 52.4146 40.6674 52.0596L48.7034 47.4209C49.7155 46.8341 50.5561 45.9919 51.141 44.9786C51.7259 43.9653 52.0347 42.8163 52.0367 41.6463V32.3663C52.0324 31.654 51.9131 30.9471 51.6834 30.2729L41.0167 36.4196Z" fill="#78B7EE"/>
<path d="M34.99 34.1128C35.7041 34.5236 36.5135 34.7397 37.3373 34.7397C38.1611 34.7397 38.9705 34.5236 39.6846 34.1128L50.3513 27.9662C49.8789 27.4233 49.3214 26.9609 48.7006 26.5968L40.6673 21.9528C39.6532 21.3697 38.5038 21.0627 37.334 21.0627C36.1641 21.0627 35.0147 21.3697 34.0006 21.9528L25.9646 26.5928C25.366 26.9433 24.8261 27.3856 24.3646 27.9035L34.99 34.1128Z" fill="#78B7EE"/>
<path d="M36.0007 37.2676C35.1743 37.1217 34.3792 36.8348 33.65 36.4196L23.01 30.2009C22.7638 30.8965 22.6358 31.6284 22.6313 32.3663V41.6463C22.6333 42.8163 22.9422 43.9653 23.5271 44.9786C24.112 45.9919 24.9525 46.8341 25.9647 47.4209L34.0007 52.0596C34.6224 52.4146 35.298 52.6655 36.0007 52.8023V37.2676Z" fill="#78B7EE"/>
</g>
<path d="M86.504 31.8C86.7973 31.9467 86.964 32.1733 87.004 32.48C87.0573 32.7867 86.984 33.0667 86.784 33.32C86.6373 33.52 86.444 33.6333 86.204 33.66C85.9773 33.6867 85.7506 33.64 85.524 33.52C85.1373 33.32 84.7306 33.16 84.304 33.04C83.8773 32.92 83.424 32.86 82.944 32.86C82.184 32.86 81.4973 32.9867 80.884 33.24C80.284 33.48 79.764 33.8333 79.324 34.3C78.884 34.7533 78.544 35.2933 78.304 35.92C78.0773 36.5467 77.964 37.24 77.964 38C77.964 38.84 78.0906 39.5867 78.344 40.24C78.5973 40.88 78.944 41.4267 79.384 41.88C79.8373 42.32 80.364 42.6533 80.964 42.88C81.5773 43.0933 82.2373 43.2 82.944 43.2C83.3973 43.2 83.8373 43.1467 84.264 43.04C84.704 42.9333 85.1173 42.7733 85.504 42.56C85.744 42.44 85.9773 42.4 86.204 42.44C86.444 42.4667 86.6373 42.58 86.784 42.78C87.0106 43.06 87.0906 43.3467 87.024 43.64C86.9706 43.92 86.804 44.1333 86.524 44.28C86.1906 44.4667 85.824 44.6267 85.424 44.76C85.024 44.8933 84.6173 45 84.204 45.08C83.7906 45.16 83.3706 45.2 82.944 45.2C81.984 45.2 81.0773 45.04 80.224 44.72C79.3706 44.4 78.6106 43.9333 77.944 43.32C77.2773 42.7067 76.7506 41.9533 76.364 41.06C75.9906 40.1667 75.804 39.1467 75.804 38C75.804 36.9733 75.9773 36.0267 76.324 35.16C76.684 34.28 77.184 33.5267 77.824 32.9C78.4773 32.26 79.2373 31.7667 80.104 31.42C80.9706 31.06 81.9173 30.88 82.944 30.88C83.584 30.88 84.204 30.96 84.804 31.12C85.4173 31.28 85.984 31.5067 86.504 31.8ZM97.6788 34.32C97.9721 34.32 98.2121 34.42 98.3988 34.62C98.5855 34.8067 98.6788 35.0467 98.6788 35.34V43.98C98.6788 44.2733 98.5855 44.52 98.3988 44.72C98.2121 44.9067 97.9721 45 97.6788 45C97.3988 45 97.1588 44.9067 96.9588 44.72C96.7721 44.52 96.6788 44.2733 96.6788 43.98V42.54L97.0988 42.6C97.0988 42.84 96.9988 43.1067 96.7988 43.4C96.6121 43.6933 96.3521 43.98 96.0188 44.26C95.6855 44.5267 95.2921 44.7533 94.8388 44.94C94.3855 45.1133 93.8988 45.2 93.3788 45.2C92.4588 45.2 91.6321 44.9667 90.8988 44.5C90.1655 44.02 89.5855 43.3667 89.1588 42.54C88.7321 41.7133 88.5188 40.7733 88.5188 39.72C88.5188 38.64 88.7321 37.6933 89.1588 36.88C89.5855 36.0533 90.1588 35.4067 90.8788 34.94C91.6121 34.4733 92.4255 34.24 93.3188 34.24C93.8921 34.24 94.4188 34.3333 94.8988 34.52C95.3921 34.7067 95.8188 34.9467 96.1788 35.24C96.5388 35.5333 96.8121 35.8467 96.9988 36.18C97.1988 36.5 97.2988 36.8067 97.2988 37.1L96.6788 37.16V35.34C96.6788 35.06 96.7721 34.82 96.9588 34.62C97.1588 34.42 97.3988 34.32 97.6788 34.32ZM93.5988 43.36C94.2255 43.36 94.7788 43.2 95.2588 42.88C95.7388 42.56 96.1121 42.1267 96.3788 41.58C96.6455 41.02 96.7788 40.4 96.7788 39.72C96.7788 39.0267 96.6455 38.4067 96.3788 37.86C96.1121 37.3133 95.7388 36.88 95.2588 36.56C94.7788 36.24 94.2255 36.08 93.5988 36.08C92.9855 36.08 92.4388 36.24 91.9588 36.56C91.4921 36.88 91.1188 37.3133 90.8388 37.86C90.5721 38.4067 90.4388 39.0267 90.4388 39.72C90.4388 40.4 90.5721 41.02 90.8388 41.58C91.1188 42.1267 91.4921 42.56 91.9588 42.88C92.4388 43.2 92.9855 43.36 93.5988 43.36ZM93.6788 33.58C93.1988 33.58 92.7521 33.5 92.3388 33.34C91.9388 33.1667 91.5921 32.9267 91.2988 32.62C91.0188 32.3 90.8188 31.94 90.6988 31.54C90.5921 31.26 90.5988 31.04 90.7188 30.88C90.8388 30.7067 91.0055 30.62 91.2188 30.62C91.4721 30.62 91.6721 30.68 91.8188 30.8C91.9655 30.9067 92.1055 31.06 92.2388 31.26C92.3588 31.5267 92.5388 31.74 92.7788 31.9C93.0188 32.0467 93.3188 32.12 93.6788 32.12C94.0255 32.12 94.3188 32.0467 94.5588 31.9C94.7988 31.74 94.9855 31.5267 95.1188 31.26C95.2655 31.06 95.4055 30.9067 95.5388 30.8C95.6855 30.68 95.8788 30.62 96.1188 30.62C96.3455 30.62 96.5188 30.7 96.6388 30.86C96.7588 31.02 96.7655 31.2333 96.6588 31.5C96.5388 31.9133 96.3321 32.28 96.0388 32.6C95.7588 32.9067 95.4188 33.1467 95.0188 33.32C94.6188 33.4933 94.1721 33.58 93.6788 33.58ZM106.901 34.24C107.847 34.24 108.581 34.44 109.101 34.84C109.621 35.2267 109.981 35.7533 110.181 36.42C110.394 37.0733 110.501 37.8067 110.501 38.62V43.98C110.501 44.2733 110.401 44.52 110.201 44.72C110.014 44.9067 109.781 45 109.501 45C109.207 45 108.967 44.9067 108.781 44.72C108.594 44.52 108.501 44.2733 108.501 43.98V38.64C108.501 38.16 108.434 37.7333 108.301 37.36C108.167 36.9733 107.934 36.6667 107.601 36.44C107.281 36.2 106.827 36.08 106.241 36.08C105.694 36.08 105.214 36.2 104.801 36.44C104.387 36.6667 104.061 36.9733 103.821 37.36C103.594 37.7333 103.481 38.16 103.481 38.64V43.98C103.481 44.2733 103.381 44.52 103.181 44.72C102.994 44.9067 102.761 45 102.481 45C102.187 45 101.947 44.9067 101.761 44.72C101.574 44.52 101.481 44.2733 101.481 43.98V35.5C101.481 35.2067 101.574 34.9667 101.761 34.78C101.947 34.58 102.187 34.48 102.481 34.48C102.761 34.48 102.994 34.58 103.181 34.78C103.381 34.9667 103.481 35.2067 103.481 35.5V36.62L103.121 36.82C103.214 36.5267 103.374 36.2333 103.601 35.94C103.841 35.6333 104.127 35.3533 104.461 35.1C104.794 34.8333 105.167 34.6267 105.581 34.48C105.994 34.32 106.434 34.24 106.901 34.24ZM124.144 34.3C125.064 34.3 125.777 34.5 126.284 34.9C126.791 35.2867 127.144 35.8133 127.344 36.48C127.557 37.1467 127.664 37.88 127.664 38.68V43.98C127.664 44.2733 127.564 44.52 127.364 44.72C127.177 44.9067 126.944 45 126.664 45C126.371 45 126.131 44.9067 125.944 44.72C125.757 44.52 125.664 44.2733 125.664 43.98V38.68C125.664 38.2133 125.597 37.7867 125.464 37.4C125.344 37.0133 125.124 36.7067 124.804 36.48C124.497 36.2533 124.064 36.14 123.504 36.14C122.984 36.14 122.517 36.2533 122.104 36.48C121.704 36.7067 121.391 37.0133 121.164 37.4C120.951 37.7867 120.844 38.2133 120.844 38.68V43.98C120.844 44.2733 120.744 44.52 120.544 44.72C120.357 44.9067 120.124 45 119.844 45C119.551 45 119.311 44.9067 119.124 44.72C118.937 44.52 118.844 44.2733 118.844 43.98V31.22C118.844 30.9267 118.937 30.6867 119.124 30.5C119.311 30.3 119.551 30.2 119.844 30.2C120.124 30.2 120.357 30.3 120.544 30.5C120.744 30.6867 120.844 30.9267 120.844 31.22V36.68L120.484 36.88C120.577 36.5867 120.731 36.2867 120.944 35.98C121.171 35.6733 121.444 35.3933 121.764 35.14C122.097 34.8867 122.464 34.6867 122.864 34.54C123.264 34.38 123.691 34.3 124.144 34.3ZM140.526 39.74C140.526 40.8067 140.292 41.7533 139.826 42.58C139.359 43.3933 138.726 44.0333 137.926 44.5C137.126 44.9667 136.226 45.2 135.226 45.2C134.226 45.2 133.326 44.9667 132.526 44.5C131.726 44.0333 131.086 43.3933 130.606 42.58C130.139 41.7533 129.906 40.8067 129.906 39.74C129.906 38.66 130.139 37.7133 130.606 36.9C131.086 36.0733 131.726 35.4267 132.526 34.96C133.326 34.48 134.226 34.24 135.226 34.24C136.226 34.24 137.126 34.48 137.926 34.96C138.726 35.4267 139.359 36.0733 139.826 36.9C140.292 37.7133 140.526 38.66 140.526 39.74ZM138.526 39.74C138.526 39.0067 138.379 38.3733 138.086 37.84C137.792 37.2933 137.392 36.8667 136.886 36.56C136.392 36.24 135.839 36.08 135.226 36.08C134.612 36.08 134.052 36.24 133.546 36.56C133.039 36.8667 132.639 37.2933 132.346 37.84C132.052 38.3733 131.906 39.0067 131.906 39.74C131.906 40.4467 132.052 41.0733 132.346 41.62C132.639 42.1667 133.039 42.5933 133.546 42.9C134.052 43.2067 134.612 43.36 135.226 43.36C135.839 43.36 136.392 43.2067 136.886 42.9C137.392 42.5933 137.792 42.1667 138.086 41.62C138.379 41.0733 138.526 40.4467 138.526 39.74ZM135.206 48.12C134.819 48.12 134.539 48.0467 134.366 47.9C134.192 47.7667 134.106 47.5333 134.106 47.2V46.88C134.106 46.5467 134.199 46.3133 134.386 46.18C134.572 46.0467 134.846 45.98 135.206 45.98C135.619 45.98 135.912 46.0467 136.086 46.18C136.259 46.3133 136.346 46.5467 136.346 46.88V47.2C136.346 47.5467 136.252 47.7867 136.066 47.92C135.892 48.0533 135.606 48.12 135.206 48.12ZM135.586 31.38L133.986 32.72C133.839 32.84 133.712 32.94 133.606 33.02C133.512 33.0867 133.366 33.12 133.166 33.12C133.019 33.12 132.892 33.08 132.786 33C132.692 32.9067 132.646 32.8 132.646 32.68C132.646 32.6 132.659 32.52 132.686 32.44C132.712 32.36 132.772 32.2667 132.866 32.16L134.006 30.8C134.259 30.4667 134.599 30.3 135.026 30.3H135.626C135.852 30.3 136.032 30.34 136.166 30.42C136.299 30.4867 136.426 30.6133 136.546 30.8L137.626 32.16C137.706 32.2667 137.759 32.36 137.786 32.44C137.812 32.5067 137.826 32.5867 137.826 32.68C137.826 32.8 137.779 32.9067 137.686 33C137.592 33.08 137.472 33.12 137.326 33.12C137.112 33.12 136.959 33.0867 136.866 33.02C136.772 32.94 136.646 32.8333 136.486 32.7L134.766 31.24L135.586 31.38Z" fill="#78B7EE"/>
<defs>
<clipPath id="clip0_1691_19666">
<rect width="32" height="32" fill="white" transform="translate(21.334 20.9702)"/>
</clipPath>
</defs>
</svg>
