<svg width="75" height="75" viewBox="0 0 75 75" fill="none" xmlns="http://www.w3.org/2000/svg">
<circle cx="37.3334" cy="37.4999" r="30.6667" fill="white"/>
<g clip-path="url(#clip0_1691_19667)">
<path d="M41.0167 36.4196C40.2878 36.8345 39.4932 37.1214 38.6674 37.2676V52.8023C39.3701 52.6655 40.0457 52.4146 40.6674 52.0596L48.7034 47.4209C49.7155 46.8341 50.5561 45.9919 51.141 44.9786C51.7259 43.9653 52.0347 42.8163 52.0367 41.6463V32.3663C52.0324 31.654 51.9131 30.9471 51.6834 30.2729L41.0167 36.4196Z" fill="#78B7EE"/>
<path d="M34.99 34.1128C35.7041 34.5236 36.5135 34.7397 37.3373 34.7397C38.1611 34.7397 38.9705 34.5236 39.6846 34.1128L50.3513 27.9662C49.8789 27.4233 49.3214 26.9609 48.7006 26.5968L40.6673 21.9528C39.6532 21.3697 38.5038 21.0627 37.334 21.0627C36.1641 21.0627 35.0147 21.3697 34.0006 21.9528L25.9646 26.5928C25.366 26.9433 24.8261 27.3856 24.3646 27.9035L34.99 34.1128Z" fill="#78B7EE"/>
<path d="M36.0007 37.2676C35.1743 37.1217 34.3792 36.8348 33.65 36.4196L23.01 30.2009C22.7638 30.8965 22.6358 31.6284 22.6313 32.3663V41.6463C22.6333 42.8163 22.9422 43.9653 23.5271 44.9786C24.112 45.9919 24.9525 46.8341 25.9647 47.4209L34.0007 52.0596C34.6224 52.4146 35.298 52.6655 36.0007 52.8023V37.2676Z" fill="#78B7EE"/>
</g>
<defs>
<clipPath id="clip0_1691_19667">
<rect width="32" height="32" fill="white" transform="translate(21.334 20.9702)"/>
</clipPath>
</defs>
</svg>
