<svg width="66" height="66" viewBox="0 0 66 66" fill="none" xmlns="http://www.w3.org/2000/svg">
<rect width="65.3333" height="65.3333" rx="17.3333" fill="white"/>
<path fill-rule="evenodd" clip-rule="evenodd" d="M30.4713 49.6719C30.644 49.8262 30.8218 49.9852 31.0089 50.149C31.0089 49.9636 31.0089 49.8605 31.0068 49.7555L31.007 45.279C31.0076 37.8193 31.0082 30.3586 30.9945 22.8993C30.9945 22.5202 30.8898 22.0895 30.6926 21.7722C29.5427 19.9196 28.015 18.4401 26.1443 17.3233C22.8608 15.3636 19.2427 14.7351 15.4952 14.6671C14.4438 14.6465 13.7108 15.4295 13.7108 16.4866C13.7067 25.1845 13.7067 33.8825 13.7108 42.5804C13.7128 43.6169 14.4274 44.3278 15.45 44.4102C15.8547 44.4435 16.26 44.4734 16.6653 44.5034L16.6659 44.5034C17.9652 44.5994 19.2649 44.6954 20.5466 44.9027C23.828 45.4343 26.8404 46.6666 29.4482 48.7849C29.7908 49.0638 30.1205 49.3584 30.4713 49.6719ZM54.0642 51.8639C55.5344 52.1627 55.9841 51.9669 56.6987 50.7161V50.6632C56.6987 41.136 56.6987 31.6088 56.6967 22.0817C56.1381 20.7278 55.3763 20.6021 53.672 20.7897V21.3893V42.1357C53.672 42.4056 53.672 42.6756 53.6555 42.9455C53.5364 45 51.9491 46.7618 49.9121 47.0111C49.2172 47.0964 48.5179 47.1445 47.8187 47.1926L47.8186 47.1926L47.8185 47.1926C47.0655 47.2444 46.3125 47.2961 45.565 47.3944C43.1009 47.72 40.7436 48.433 38.6059 49.7394C38.0305 50.0912 37.4853 50.4948 36.9401 50.8984L36.9398 50.8987C36.6932 51.0812 36.4466 51.2637 36.1973 51.4415L36.2774 51.5713C36.3677 51.5548 36.4601 51.5383 36.5505 51.5239C37.0428 51.45 37.5346 51.3661 38.0264 51.2823C39.1262 51.0946 40.2261 50.907 41.3329 50.8315C45.3966 50.5554 49.4255 50.8975 53.4132 51.7382C53.5441 51.767 53.6758 51.7912 53.8078 51.8155L53.8079 51.8155L53.8079 51.8155C53.8932 51.8312 53.9787 51.8469 54.0642 51.8639ZM33.6876 50.1638V49.5168C33.6876 47.4594 33.6889 45.4021 33.6902 43.3447V43.3447C33.6943 36.799 33.6984 30.2536 33.6609 23.7095C33.6547 22.4628 34.0757 21.5149 34.8129 20.5959C37.201 17.6203 40.3694 15.978 44.0225 15.2424C45.438 14.9572 46.8904 14.8431 48.3372 14.7295L48.3372 14.7295C48.5631 14.7118 48.7889 14.6941 49.0144 14.6757C50.2156 14.5788 50.9857 15.3701 50.9877 16.5859C50.9898 25.2034 50.9898 33.823 50.9877 42.4406C50.9877 43.6831 50.2896 44.3879 49.0534 44.4085C45.963 44.46 42.9424 44.903 40.0429 46.0281C37.817 46.8915 35.817 48.1114 34.1044 49.7908C34.0323 49.8646 33.9546 49.9317 33.853 50.0195L33.8527 50.0198C33.8039 50.062 33.7495 50.109 33.6876 50.1638ZM27.5393 51.3797C27.8367 51.4374 28.1341 51.4951 28.4321 51.5461C28.4486 51.5297 28.4645 51.5132 28.4804 51.4967C28.4963 51.4802 28.5122 51.4637 28.5287 51.4472C28.5001 51.4339 28.47 51.4227 28.44 51.4116C28.3775 51.3884 28.3157 51.3654 28.2699 51.3236C26.8223 50.0254 25.1631 49.0878 23.3458 48.4284C20.8344 47.5176 18.2307 47.1653 15.5736 47.0766C14.8959 47.054 14.1711 46.9159 13.5633 46.6274C11.8199 45.797 11.0232 44.3298 11.0232 42.4052C11.0262 37.1477 11.0259 31.8889 11.0255 26.6299C11.0253 24.8768 11.0252 23.1235 11.0252 21.3703V20.7254C10.8759 20.7254 10.7334 20.724 10.5955 20.7228C10.3104 20.7201 10.0452 20.7177 9.78084 20.7274C8.67815 20.7686 8.00462 21.4734 8.00257 22.5902C7.99949 23.8298 7.99987 25.0704 8.00026 26.3106C8.00039 26.7238 8.00051 27.1371 8.00051 27.5501V49.9698C8.00051 51.4761 8.90608 52.2509 10.362 51.9274C13.5078 51.2309 16.6865 50.7713 19.9084 50.7693C21.7872 50.7693 23.6682 50.9156 25.543 51.0681C26.2122 51.1222 26.8756 51.2509 27.5393 51.3797Z" fill="url(#paint0_linear_1659_19090)"/>
<defs>
<linearGradient id="paint0_linear_1659_19090" x1="3.33333" y1="6.66667" x2="57.3333" y2="52" gradientUnits="userSpaceOnUse">
<stop stop-color="#BFF0FF"/>
<stop offset="1" stop-color="#66A6FF"/>
</linearGradient>
</defs>
</svg>
