<svg width="32" height="32" viewBox="0 0 32 32" fill="none" xmlns="http://www.w3.org/2000/svg">
<path d="M29.3331 6.66687H14.5437C14.4906 6.5175 14.425 6.37437 14.3394 6.24375L17.1119 2.62188C17.1869 2.635 17.255 2.66687 17.3331 2.66687C18.0681 2.66687 18.6663 2.06813 18.6663 1.33312C18.6663 0.598125 18.0681 0 17.3331 0C16.5981 0 16 0.598125 16 1.33312C16 1.48688 16.0394 1.62937 16.0875 1.76688L13.2775 5.43875C13.0837 5.37625 12.8806 5.33313 12.6663 5.33313C12.4519 5.33313 12.24 5.3775 12.0431 5.4425L9.23375 1.82438C9.29438 1.67188 9.33313 1.5075 9.33313 1.33312C9.33313 0.598125 8.735 0 8 0C7.265 0 6.66625 0.598125 6.66625 1.33312C6.66625 2.06813 7.265 2.66687 8 2.66687C8.06063 2.66687 8.11312 2.63937 8.1725 2.63188L10.9862 6.25625C10.9044 6.38375 10.8406 6.52187 10.7894 6.66687H2.66625C1.19562 6.66687 0 7.8625 0 9.33313V28C0 29.4706 1.19562 30.6669 2.66625 30.6669V31.3331C2.66625 31.7019 2.96438 32 3.33313 32H4C4.2525 32 4.4825 31.8575 4.59625 31.6313L5.07875 30.6669H26.9212L27.4031 31.6313C27.5169 31.8575 27.7469 32 28 32H28.6663C29.035 32 29.3331 31.7019 29.3331 31.3331V30.6669C30.8037 30.6669 32 29.4706 32 28V9.33313C32 7.8625 30.8037 6.66687 29.3331 6.66687ZM22.6663 24.5669C22.6663 25.7763 21.8575 26.835 20.6994 27.1425C19.2238 27.5338 16.6325 28 12.6663 28C8.7 28 6.10938 27.5338 4.63375 27.1425C3.475 26.835 2.66625 25.7763 2.66625 24.5669V12.7662C2.66625 11.5575 3.475 10.4981 4.63312 10.1906C6.10938 9.79938 8.7 9.33313 12.6663 9.33313C16.6325 9.33313 19.2237 9.79938 20.6987 10.1906C21.8581 10.4981 22.6663 11.5575 22.6663 12.7662V24.5669ZM28.6663 25.3331H24.6663C24.2981 25.3331 24 25.035 24 24.6669C24 24.2987 24.2981 24 24.6663 24H28.6663C29.035 24 29.3331 24.2981 29.3331 24.6669C29.3331 25.0356 29.035 25.3331 28.6663 25.3331ZM26.6663 22.6669C25.1956 22.6669 24 21.4706 24 20C24 18.5294 25.1956 17.3331 26.6663 17.3331C28.1369 17.3331 29.3331 18.5294 29.3331 20C29.3331 21.4706 28.1369 22.6669 26.6663 22.6669ZM26.6663 16C25.1956 16 24 14.8038 24 13.3331C24 11.8625 25.1956 10.6669 26.6663 10.6669C28.1369 10.6669 29.3331 11.8625 29.3331 13.3331C29.3331 14.8038 28.1369 16 26.6663 16Z" fill="#89B05F"/>
<path d="M27.333 18.8711V19.3323C27.333 19.7011 27.0349 19.9992 26.6661 19.9992C26.2974 19.9992 25.9999 19.7011 25.9999 19.3323V18.8711C25.6086 19.1036 25.333 19.5123 25.333 19.9992C25.333 20.7342 25.9311 21.3323 26.6661 21.3323C27.4011 21.3323 27.9999 20.7342 27.9999 19.9992C27.9999 19.5123 27.7243 19.1036 27.333 18.8711Z" fill="url(#paint0_linear_1760_20381)"/>
<path d="M26.6662 12C26.1793 12 25.7706 12.2756 25.5381 12.6669H26C26.3681 12.6669 26.6662 12.965 26.6662 13.3331C26.6662 13.7013 26.3681 14 26 14H25.5381C25.7706 14.3913 26.1793 14.6669 26.6662 14.6669C27.4012 14.6669 27.9993 14.0681 27.9993 13.3331C27.9993 12.5981 27.4012 12 26.6662 12Z" fill="url(#paint1_linear_1760_20381)"/>
<path d="M20.4585 11.0958C19.0379 10.7189 16.5323 10.2695 12.666 10.2695C12.5823 10.2695 12.5004 10.2695 12.4179 10.2702L18.0454 15.8977C18.4566 16.3089 18.4566 16.9758 18.0454 17.387C17.6341 17.7983 16.9673 17.7983 16.556 17.387L9.54602 10.377C9.10602 10.4089 8.69227 10.4464 8.30414 10.4889L17.2973 19.482C17.8373 20.022 17.866 20.8689 17.361 21.3739C16.856 21.8789 16.0091 21.8502 15.4691 21.3102L5.17727 11.0183C5.07102 11.0445 4.96977 11.0702 4.87352 11.0958C4.12602 11.2939 3.60352 11.9808 3.60352 12.7652V24.5658C3.60352 25.3508 4.12602 26.037 4.87414 26.2352C6.29477 26.612 8.79977 27.0614 12.666 27.0614C16.5323 27.0614 19.0379 26.612 20.4591 26.2352C21.2066 26.037 21.7285 25.3508 21.7285 24.5658V12.7652C21.7285 11.9808 21.2066 11.2939 20.4585 11.0958Z" fill="url(#paint2_linear_1760_20381)"/>
<defs>
<linearGradient id="paint0_linear_1760_20381" x1="25.3463" y1="20.1065" x2="28.0215" y2="20.1065" gradientUnits="userSpaceOnUse">
<stop stop-color="#F6D365"/>
<stop offset="1" stop-color="#FDA085"/>
</linearGradient>
<linearGradient id="paint1_linear_1760_20381" x1="25.5504" y1="13.3386" x2="28.0193" y2="13.3386" gradientUnits="userSpaceOnUse">
<stop stop-color="#F6D365"/>
<stop offset="1" stop-color="#FDA085"/>
</linearGradient>
<linearGradient id="paint2_linear_1760_20381" x1="3.69414" y1="18.6979" x2="21.8753" y2="18.6979" gradientUnits="userSpaceOnUse">
<stop stop-color="#F6D365"/>
<stop offset="1" stop-color="#FDA085"/>
</linearGradient>
</defs>
</svg>
