<svg width="19" height="27" viewBox="0 0 19 27" fill="none" xmlns="http://www.w3.org/2000/svg">
<g clip-path="url(#clip0_1760_20190)">
<path d="M9.46915 20.2553C8.19347 20.2553 6.91778 20.266 5.6431 20.2437C5.45319 20.2398 5.15092 20.1208 5.09623 19.9814C4.33361 18.0435 3.11062 16.3843 1.825 14.7601C-0.640854 11.6431 -0.596111 6.81581 1.88764 3.71729C3.78078 1.35637 6.26254 0.0766975 9.30409 0.00313067C11.8008 -0.0568844 14.0429 0.745575 15.9072 2.44439C17.4166 3.81893 18.4447 5.44611 18.8145 7.43725C19.3276 10.1941 18.7807 12.7147 17.0397 14.974C15.8376 16.5324 14.6514 18.1015 13.9176 19.9436C13.859 20.0907 13.5756 20.2379 13.3936 20.2408C12.0871 20.2669 10.7776 20.2553 9.46915 20.2553ZM9.2325 3.3088C8.9372 3.34365 8.6399 3.36881 8.34659 3.41528C5.80914 3.82086 3.42184 6.10047 3.3582 9.1864C3.34528 9.80398 3.75393 10.1699 4.34753 10.136C4.89539 10.1041 5.16981 9.83882 5.20262 9.09541C5.29708 6.95617 6.96253 5.14216 9.40452 5.08408C9.68193 5.07731 10.01 4.90017 10.2139 4.70366C10.4704 4.45683 10.5022 4.10835 10.3034 3.76472C10.0588 3.33977 9.66502 3.29815 9.2325 3.3088Z" fill="#89B05F"/>
<path d="M13.7496 22.0297C14.021 23.8766 13.1967 25.6393 11.7292 26.4301C10.0846 27.3168 8.05126 27.1581 6.66621 26.0003C5.50686 25.0314 5.14195 23.7478 5.21752 22.3075C5.23442 21.9764 5.47007 22.0306 5.67788 22.0306C7.0689 22.0287 8.45992 22.0297 9.85193 22.0297C11.1415 22.0297 12.4311 22.0297 13.7496 22.0297Z" fill="url(#paint0_linear_1760_20190)"/>
</g>
<defs>
<linearGradient id="paint0_linear_1760_20190" x1="5.25097" y1="24.5221" x2="13.8705" y2="24.5221" gradientUnits="userSpaceOnUse">
<stop stop-color="#F6D365"/>
<stop offset="1" stop-color="#FDA085"/>
</linearGradient>
<clipPath id="clip0_1760_20190">
<rect width="19" height="27" fill="white"/>
</clipPath>
</defs>
</svg>
