<svg width="16" height="16" viewBox="0 0 16 16" fill="none" xmlns="http://www.w3.org/2000/svg">
<path d="M12.6667 0.66626H3.33333C2.4496 0.667318 1.60237 1.01885 0.97748 1.64374C0.352588 2.26863 0.00105857 3.11586 0 3.99959L0 11.9996C0.00105857 12.8833 0.352588 13.7306 0.97748 14.3554C1.60237 14.9803 2.4496 15.3319 3.33333 15.3329H12.6667C13.5504 15.3319 14.3976 14.9803 15.0225 14.3554C15.6474 13.7306 15.9989 12.8833 16 11.9996V3.99959C15.9989 3.11586 15.6474 2.26863 15.0225 1.64374C14.3976 1.01885 13.5504 0.667318 12.6667 0.66626ZM3.33333 1.99959H12.6667C13.0659 2.00038 13.4557 2.1206 13.786 2.3448C14.1163 2.56899 14.3719 2.88689 14.52 3.25759L9.41467 8.36359C9.03895 8.7378 8.53028 8.94791 8 8.94791C7.46972 8.94791 6.96105 8.7378 6.58533 8.36359L1.48 3.25759C1.6281 2.88689 1.88374 2.56899 2.21403 2.3448C2.54432 2.1206 2.93414 2.00038 3.33333 1.99959ZM12.6667 13.9996H3.33333C2.8029 13.9996 2.29419 13.7889 1.91912 13.4138C1.54405 13.0387 1.33333 12.53 1.33333 11.9996V4.99959L5.64267 9.30626C6.26842 9.93043 7.11617 10.281 8 10.281C8.88383 10.281 9.73158 9.93043 10.3573 9.30626L14.6667 4.99959V11.9996C14.6667 12.53 14.456 13.0387 14.0809 13.4138C13.7058 13.7889 13.1971 13.9996 12.6667 13.9996Z" fill="#707386"/>
</svg>
