<svg xmlns="http://www.w3.org/2000/svg" width="16" height="17" viewBox="0 0 16 17" fill="none">
  <g clip-path="url(#clip0_336_217)">
    <path d="M12.6667 1.375H3.33333C2.4496 1.37606 1.60237 1.72759 0.97748 2.35248C0.352588 2.97737 0.00105857 3.8246 0 4.70833L0 12.7083C0.00105857 13.5921 0.352588 14.4393 0.97748 15.0642C1.60237 15.6891 2.4496 16.0406 3.33333 16.0417H12.6667C13.5504 16.0406 14.3976 15.6891 15.0225 15.0642C15.6474 14.4393 15.9989 13.5921 16 12.7083V4.70833C15.9989 3.8246 15.6474 2.97737 15.0225 2.35248C14.3976 1.72759 13.5504 1.37606 12.6667 1.375ZM3.33333 2.70833H12.6667C13.0659 2.70912 13.4557 2.82934 13.786 3.05354C14.1163 3.27773 14.3719 3.59563 14.52 3.96633L9.41467 9.07233C9.03895 9.44654 8.53028 9.65665 8 9.65665C7.46972 9.65665 6.96105 9.44654 6.58533 9.07233L1.48 3.96633C1.6281 3.59563 1.88374 3.27773 2.21403 3.05354C2.54432 2.82934 2.93414 2.70912 3.33333 2.70833ZM12.6667 14.7083H3.33333C2.8029 14.7083 2.29419 14.4976 1.91912 14.1225C1.54405 13.7475 1.33333 13.2388 1.33333 12.7083V5.70833L5.64267 10.015C6.26842 10.6392 7.11617 10.9897 8 10.9897C8.88383 10.9897 9.73158 10.6392 10.3573 10.015L14.6667 5.70833V12.7083C14.6667 13.2388 14.456 13.7475 14.0809 14.1225C13.7058 14.4976 13.1971 14.7083 12.6667 14.7083Z" fill="currentColor"/>
  </g>
  <defs>
    <clipPath id="clip0_336_217">
      <rect width="16" height="16" fill="currentColor" transform="translate(0 0.708984)"/>
    </clipPath>
  </defs>
</svg>