<svg width="140" height="140" fill="none" xmlns="http://www.w3.org/2000/svg"><path fill-rule="evenodd" clip-rule="evenodd" d="M0 0h140v140H0V0z" fill="#fff" fill-opacity=".01"></path><path d="M63 115c2.2091 0 4-1.791 4-4s-1.7909-4-4-4c-2.2091 0-4 1.791-4 4s1.7909 4 4 4zM77 23c2.2091 0 4-1.7909 4-4 0-2.2091-1.7909-4-4-4-2.2091 0-4 1.7909-4 4 0 2.2091 1.7909 4 4 4z" stroke="#E8E8E8" stroke-width="2"></path><path fill-rule="evenodd" clip-rule="evenodd" d="M123 92c.552 0 1 .4477 1 1v2.999l3 .001c.552 0 1 .4477 1 1s-.448 1-1 1h-3v3c0 .552-.448 1-1 1s-1-.448-1-1v-3h-3c-.552 0-1-.4477-1-1s.448-1 1-1h3v-3c0-.5523.448-1 1-1zM39 23c.5523 0 1 .4477 1 1v2.999L43 27c.5523 0 1 .4477 1 1s-.4477 1-1 1h-3v3c0 .5523-.4477 1-1 1s-1-.4477-1-1v-3h-3c-.5523 0-1-.4477-1-1s.4477-1 1-1h3v-3c0-.5523.4477-1 1-1z" fill="#E8E8E8"></path><path d="M90.3995 59.4263c.5858-.5858.5858-1.5355 0-2.1213-.5858-.5858-1.5355-.5858-2.1213 0L67.065 78.5182c-.5858.5858-.5858 1.5355 0 2.1213.5858.5858 1.5355.5858 2.1213 0l21.2132-21.2132z" fill="#BDBDBD"></path><path d="M70 67c3.3137 0 6-2.6863 6-6s-2.6863-6-6-6-6 2.6863-6 6 2.6863 6 6 6zM88 83c3.3137 0 6-2.6863 6-6s-2.6863-6-6-6-6 2.6863-6 6 2.6863 6 6 6z" stroke="#BDBDBD" stroke-width="3"></path><path clip-rule="evenodd" d="M110 43c2.209 0 4 1.7909 4 4v13c-4.971 0-9 4.0294-9 9s4.029 9 9 9v13c0 2.2091-1.791 4-4 4H30c-2.2091 0-4-1.7909-4-4V78c4.9706 0 9-4.0294 9-9s-4.0294-9-9-9V47c0-2.2091 1.7909-4 4-4h80z" stroke="#BDBDBD" stroke-width="2"></path><path d="M50.5 47h-2c-.8284 0-1.5.6716-1.5 1.5v41c0 .8284.6716 1.5 1.5 1.5h2c.8284 0 1.5-.6716 1.5-1.5v-41c0-.8284-.6716-1.5-1.5-1.5z" fill="#E8E8E8"></path></svg>