<svg width="31" height="32" viewBox="0 0 31 32" fill="none" xmlns="http://www.w3.org/2000/svg">
<g clip-path="url(#clip0_1760_20301)">
<path d="M27.2394 21.0524C26.8151 20.1727 25.6456 18.3926 24.9211 16.7575C24.0518 14.7911 23.6585 13.0214 23.6585 13.0214C23.6585 13.0214 25.4903 12.9696 25.4696 12.5763C25.4489 12.1934 25.1902 10.7031 25.1902 10.7031C25.1902 10.7031 25.0764 8.02265 24.176 8.08475C23.2756 8.14684 22.8616 8.17789 22.8616 8.17789C22.8616 8.17789 19.9017 0.229637 19.0013 0.0536989C16.5796 -0.422368 14.0647 1.81308 12.7193 3.09639C11.3636 4.3797 10.784 7.07052 10.784 7.07052C10.784 7.07052 8.71415 6.27362 7.2342 9.11968C6.75813 10.0511 5.47482 13.1559 5.47482 13.1559C5.47482 13.1559 3.95348 13.2076 3.75684 13.6113C3.5602 14.0252 3.18763 14.7186 3.46706 14.8014C3.74649 14.8842 4.3778 14.9567 4.48129 15.4638C4.58478 15.9709 1.4386 22.6565 0.351923 25.2335C-0.734752 27.8105 0.734847 31.8467 4.80212 32.002C8.87974 32.1572 12.1087 27.4793 12.2433 26.4651C12.3674 25.4509 12.0259 24.1054 11.9224 23.0809C11.8293 22.0666 13.1022 13.4146 13.185 12.6798C13.2782 11.945 14.2303 11.1895 14.2303 11.1895C14.2303 11.1895 16.2898 13.8286 16.4347 15.2361C16.5796 16.654 16.828 18.3823 17.1385 20.5039C17.4489 22.6255 19.3636 24.6333 22.4477 26.7756C25.5317 28.9282 27.198 29.5595 28.1191 29.5078C29.0402 29.456 30.3338 28.2762 30.2821 27.4069C30.2407 26.5375 28.1605 22.9877 27.2394 21.0524ZM10.5977 21.6837C10.3493 22.5634 9.64559 23.4534 8.19668 23.8053C6.74778 24.1468 4.65723 23.8985 3.79824 23.8053C2.93925 23.7122 2.62877 23.0912 2.8461 22.5427C3.07379 21.9942 5.75425 15.4017 5.75425 15.4017L11.3532 15.7846C11.3532 15.7846 10.8461 20.8144 10.5977 21.6941V21.6837ZM9.07637 13.4353C6.83058 13.4353 6.35451 13.1145 6.23032 12.6177C6.10613 12.1106 7.81376 8.7885 8.53821 8.0951C9.26266 7.40169 10.3079 7.40169 10.3079 7.40169C10.3079 7.40169 9.65593 8.94374 9.89397 9.29561C10.132 9.64749 11.0945 11.1274 12.3881 12.6177C12.2019 13.3422 11.3118 13.4353 9.06602 13.4353H9.07637ZM23.4515 10.1029L24.3623 10.5789H23.4515V10.1029ZM18.2458 6.07698C17.4489 3.69665 18.1527 1.07828 18.6909 0.446972C19.229 -0.184335 22.7995 8.91269 22.8306 9.32666C22.872 9.74063 23.0583 10.6203 23.0583 10.6203H21.1643C21.1643 10.6203 21.2575 9.92692 21.1333 9.77168C21.0091 9.61644 19.2394 8.98513 18.2562 6.07698H18.2458ZM24.383 21.7665C23.6585 21.4353 22.9962 20.8765 21.8163 18.4444C20.6469 16.0123 21.0609 12.9386 21.0609 12.9386H23.2135C23.2135 12.9386 23.5861 14.7911 24.3519 16.5712C25.2006 18.5479 26.4425 20.4832 26.5667 20.9075C26.784 21.6941 26.1837 22.5841 24.383 21.7665Z" fill="#89B05F"/>
</g>
<defs>
<clipPath id="clip0_1760_20301">
<rect width="30.282" height="32" fill="white"/>
</clipPath>
</defs>
</svg>
