<svg width="37" height="32" viewBox="0 0 37 32" fill="none" xmlns="http://www.w3.org/2000/svg">
<g clip-path="url(#clip0_1760_20344)">
<path fill-rule="evenodd" clip-rule="evenodd" d="M30.8526 17.2173C28.3446 19.659 25.8039 21.0005 24.0001 21.0228L23.9979 21.0206C23.3741 21.0288 22.9073 20.7667 22.5649 20.4221C22.7398 20.8062 22.9825 21.1628 23.316 21.3511C23.9054 21.6837 25.7568 21.1396 27.3676 20.6662C28.1005 20.4509 28.7835 20.2502 29.2751 20.1533C29.596 20.0417 29.8997 19.9479 30.1796 19.8771C33.4789 19.0411 34.1832 22.6486 34.909 30.3483C34.909 30.3483 33.3911 21.395 31.3231 20.801C29.255 20.2069 21.446 24.2105 21.446 24.2105C21.446 24.2105 23.1232 22.968 25.4719 21.8566C24.382 22.03 23.0674 22.1849 22.5023 21.6809C21.7668 21.025 21.5703 18.8446 21.539 18.4285C21.4549 18.4404 21.3663 18.4471 21.2703 18.4471C20.0829 18.4471 17.135 17.7868 17.135 17.7868C17.135 17.7868 18.1906 18.3808 18.2129 19.129C18.2353 19.8764 17.6851 23.2643 17.6851 23.2643C17.6851 23.2643 17.531 20.8226 17.0032 19.8109C16.4754 18.7992 15.8814 18.6451 15.8814 18.6451C15.8814 18.6451 16.4754 20.2508 16.7836 22.231C16.9438 23.2625 17.2714 24.2523 17.4955 24.9295L17.4956 24.9296L17.4956 24.9296C17.7016 25.552 17.8202 25.9105 17.6412 25.7946C17.5063 25.7074 17.1828 25.3515 16.8211 24.9536L16.8211 24.9535L16.821 24.9535L16.821 24.9535L16.821 24.9534C16.1793 24.2475 15.4175 23.4094 15.3752 23.705C15.3089 24.1673 14.0114 25.6189 13.5052 25.5311C13.2067 25.479 11.6813 25.2623 10.0734 25.2229C9.5329 25.2095 8.88971 25.2653 8.3902 25.3197C6.74576 25.8467 5.16832 26.4899 4.25416 27.2142C1.80722 29.1527 3.70552 31.7947 3.84919 31.9875C2.40277 30.078 1.71789 28.415 4.02264 26.5048C5.54574 25.243 9.60809 24.1747 12.1987 23.5933C12.9461 23.2233 13.1955 23.0238 13.1955 23.0238C13.1955 23.0238 8.04777 23.4861 2.9663 22.1C-2.36232 20.6469 0.360054 14.445 4.25341 11.2112C6.13831 9.64571 8.01576 8.47621 10.0421 7.66181C10.0395 7.62531 10.0371 7.58881 10.0346 7.5523C10.0322 7.51585 10.0298 7.4794 10.0272 7.44295C10.0212 7.35362 10.0413 7.30374 10.0801 7.26875C10.0686 7.27469 10.0567 7.28038 10.0447 7.28611L10.0446 7.28614C10.0356 7.29046 10.0265 7.2948 10.0175 7.29927V7.28662C10.0135 7.22766 10.009 7.16878 10.0044 7.10993L10.0044 7.10971C9.99532 6.99254 9.98625 6.87547 9.98179 6.75807C9.97435 6.54889 9.97658 6.33896 9.98775 6.12978C9.99519 5.99727 10.0056 5.8655 10.0198 5.73374L10.0201 5.7309C10.0406 5.5437 10.0429 5.52264 10.2103 5.43895L10.1441 5.47181L10.144 5.47188C10.1111 5.48814 10.0783 5.50435 10.0458 5.52083C10.0466 5.51785 10.0473 5.51488 10.0473 5.5119C10.0734 5.32579 10.1069 5.14043 10.1485 4.9573C10.1776 4.82926 10.1843 4.80097 10.2863 4.72132C10.2557 4.73621 10.2252 4.75109 10.1954 4.76598C10.1962 4.76152 10.1977 4.75705 10.1992 4.75258C10.3168 4.30741 10.4865 3.8749 10.718 3.47589C10.735 3.44676 10.7529 3.4148 10.7718 3.38121L10.7718 3.38119C10.8637 3.21734 10.9774 3.01452 11.1096 2.91012C11.1156 2.90119 11.1223 2.893 11.1297 2.88481C11.6076 2.30862 12.2553 1.85676 12.8836 1.45923C13.401 1.13243 13.89 0.886766 14.4707 0.710336C15.2136 0.48403 15.9715 0.294201 16.7375 0.16467L16.7466 0.163122C17.3695 0.0578256 18.0515 -0.0574744 18.6827 0.0321619C18.0152 0.139106 17.3557 0.355031 16.7092 0.566727C16.5906 0.605542 16.4725 0.644215 16.3548 0.682048C16.9653 0.595694 17.5839 0.527207 18.201 0.524229C17.2608 0.769146 16.3243 1.0297 15.3968 1.31928C16.7375 0.976097 18.1541 0.697681 19.5432 0.699914C18.2241 1.03937 16.9139 1.42127 15.6223 1.85452C17.0181 1.4704 18.5085 1.19049 19.9609 1.18379C19.2097 1.37958 18.4608 1.58802 17.7164 1.80911C18.912 1.52549 20.1916 1.32002 21.4244 1.33491C19.8276 1.72946 18.2405 2.18207 16.6869 2.72178C18.2509 2.27661 19.9236 1.93939 21.5569 1.95055C19.9408 2.35552 18.3373 2.81186 16.7628 3.35752C18.1645 2.98233 19.6817 2.69945 21.1393 2.72104C19.8514 3.03891 18.5725 3.39847 17.3092 3.80418C18.4415 3.56373 19.6251 3.36497 20.7872 3.3806C20.0249 3.56894 19.267 3.7744 18.5122 3.99103C19.7197 3.78557 21.0299 3.68433 22.2611 3.86597C22.3728 3.88011 22.5001 3.89798 22.646 3.91957C23.8551 4.09898 25.9403 4.46358 27.5592 4.74664L27.5593 4.74666L27.56 4.74677C28.3589 4.88646 29.0443 5.00629 29.4546 5.07418C32.5127 5.58039 36.5601 6.65832 36.5601 6.65832C36.5601 6.65832 33.3241 6.27717 30.027 5.73448C28.064 5.4114 25.7235 4.88956 23.9971 4.48087C22.7085 4.26722 21.7847 4.16746 19.9132 4.29923C19.0482 4.36027 17.9263 4.69749 16.8558 5.09949C15.6558 5.61165 14.3464 6.22655 13.4523 6.65609C14.2027 6.5072 14.9784 6.39628 15.7868 6.32184C17.9985 6.03151 21.5986 5.80595 25.8917 6.4603C31.1627 7.26348 33.7337 7.06922 35.0968 6.96622C35.5997 6.92822 35.9382 6.90265 36.1872 6.94418C37.111 7.09828 37.0559 7.74667 36.3628 9.42983C36.3133 9.55027 36.2637 9.67458 36.2124 9.80347L36.2121 9.80424L36.212 9.80448C35.6193 11.2919 34.7833 13.39 30.8526 17.2173ZM23.7805 8.98987C24.0694 9.37102 24.2115 9.60402 24.2711 9.71122V9.71048C24.257 9.55191 24.2465 9.42387 24.2421 9.34124C24.2272 9.07027 24.1192 8.55215 24.053 8.25214C23.9502 8.23055 23.7641 8.23874 23.4284 8.32956C22.6147 8.54991 22.4606 8.63775 22.4606 8.63775C22.4606 8.63775 23.3629 8.43974 23.7805 8.98987ZM13.0878 6.48304C13.1299 6.46498 13.172 6.44691 13.2141 6.42904C12.687 6.65236 12.1615 6.87867 11.6367 7.10572L11.6416 7.10431L11.6448 7.10349L11.8852 6.9993L11.8856 6.99914C11.9768 6.95968 12.0682 6.92013 12.16 6.88016C12.4258 6.76701 12.693 6.65236 12.9617 6.53698C13.0038 6.51912 13.0458 6.50108 13.0878 6.48304ZM19.3147 16.5354C18.743 16.9969 18.8308 17.789 18.8308 17.789H18.8323C18.8323 17.789 20.5043 18.0749 21.3619 18.031C22.2194 17.987 22.7257 17.4808 22.7257 17.4808C22.7257 17.4808 22.7152 17.5173 22.6907 17.5761C22.8224 17.4123 22.9535 17.2143 23.077 16.9754C23.7366 15.6994 24.0448 14.1592 24.0448 14.0713C24.0448 14.0514 24.0708 13.9784 24.1103 13.8675C24.2449 13.4895 24.536 12.6721 24.4847 12.0256C24.4524 11.6189 24.3995 11.0661 24.351 10.5603L24.351 10.56L24.3509 10.5598C24.3246 10.2853 24.2997 10.0247 24.28 9.80874C24.1483 9.92785 23.5698 10.4065 22.8567 10.3097C22.043 10.2003 21.647 10.3321 21.647 10.3321C21.647 10.3321 22.681 12.4001 22.6587 12.7299C22.6363 13.0597 22.1525 13.3894 21.8666 13.2577C21.5807 13.1252 21.9328 14.2694 21.9328 14.2694C21.9328 14.2694 22.2626 14.2254 22.5046 14.6215C22.7465 15.0175 23.0108 15.1277 23.0108 15.1277C23.0108 15.1277 22.5492 15.15 22.3289 15.5676C22.1085 15.9853 21.8011 16.3374 21.0969 16.2935C20.9619 16.285 20.8341 16.2717 20.7118 16.259L20.7118 16.259C20.1961 16.2054 19.7768 16.1617 19.3147 16.5354ZM19.2656 26.5005L20.1068 23.2451C19.7279 23.6404 19.3623 24.7161 19.2708 25.2253C19.1331 25.9898 19.2656 26.5012 19.2656 26.5012V26.5005ZM14.3282 26.9946C15.0801 27.0731 15.5419 27.1214 15.5419 27.0006C15.5419 26.7371 15.2888 24.7844 15.2888 24.7844L16.1524 27.5284C16.1524 27.5284 11.4498 27.0333 9.88279 27.0661C8.70957 27.0907 7.61154 27.2477 7.61154 27.2477C7.61154 27.2477 8.79369 26.8912 10.7076 26.8189C12.1321 26.7652 13.4349 26.9013 14.3282 26.9946Z" fill="#89B05F"/>
</g>
<defs>
<clipPath id="clip0_1760_20344">
<rect width="36.8827" height="32" fill="white"/>
</clipPath>
</defs>
</svg>
