<svg width="48" height="36" viewBox="0 0 48 36" fill="none" xmlns="http://www.w3.org/2000/svg">
<g clip-path="url(#clip0_2498_27734)">
<path d="M30.2165 5.80411C29.7734 5.13456 29.0951 5.00175 28.3624 5.00066C25.1334 4.99957 21.9033 4.99957 18.6742 4.99957C15.7348 4.99957 12.7953 4.99739 9.85587 5.00175C9.38555 5.00283 8.91415 5.02352 8.44384 5.04094C7.65346 5.07033 7.10149 5.45899 6.81408 6.18624C6.51578 6.94287 6.73896 7.60479 7.255 8.19377C9.47809 10.7293 11.6957 13.2681 13.9286 15.795C14.2139 16.1183 14.3271 16.4482 14.3249 16.8739C14.3119 19.5586 14.3238 22.2444 14.314 24.9301C14.3108 25.6813 14.5144 26.3356 15.1251 26.7994C16.8485 28.108 18.5708 29.421 20.3279 30.6828C20.6393 30.9059 21.2054 31.0453 21.5843 30.9865C22.514 30.8428 22.9201 30.2364 22.9201 29.1967C22.9212 27.7161 22.9255 26.2344 22.9288 24.7538C22.9288 24.462 22.6926 24.2247 22.4008 24.2247H21.3807C21.0889 24.2247 20.8527 24.4609 20.8527 24.7527C20.8516 25.69 20.8516 26.6274 20.8505 27.5637C20.8505 27.7901 20.8178 28.0166 20.7917 28.3541C20.5413 28.2038 20.3693 28.1211 20.2191 28.0089C19.0422 27.1304 17.8577 26.2616 16.7059 25.3515C16.5197 25.2045 16.3912 24.8692 16.3891 24.6199C16.3673 21.9352 16.3695 19.2505 16.3793 16.5658C16.3815 15.8527 16.204 15.2626 15.7032 14.6987C13.6325 12.3689 11.6119 9.99555 9.5739 7.63637C9.44761 7.49048 9.33656 7.33044 9.11883 7.04739H28.062C27.8366 7.35004 27.6875 7.57975 27.51 7.78443C25.4284 10.1774 23.349 12.5725 21.2533 14.9523C20.955 15.2909 20.844 15.6371 20.8451 16.0813C20.8494 17.2266 20.8505 18.3719 20.8516 19.5161C20.8516 19.7622 21.0519 19.9614 21.298 19.9614H22.4737C22.722 19.9614 22.9223 19.76 22.9201 19.5118C22.9157 18.876 22.9092 18.2391 22.9005 17.6033C22.8874 16.6246 23.1651 15.9017 23.815 15.182C25.9292 12.8425 27.9847 10.4495 30.0553 8.07075C30.6193 7.41972 30.6715 6.49216 30.2165 5.80411Z" fill="#707386"/>
<rect x="33" y="5" width="8" height="2" rx="1" fill="#707386"/>
<rect x="29" y="13" width="12" height="2" rx="1" fill="#707386"/>
<rect x="29" y="21" width="12" height="2" rx="1" fill="#707386"/>
<rect x="29" y="29" width="12" height="2" rx="1" fill="#707386"/>
</g>
<defs>
<clipPath id="clip0_2498_27734">
<rect width="34.7378" height="26" fill="white" transform="translate(6.68018 5)"/>
</clipPath>
</defs>
</svg>
