<svg width="66" height="66" viewBox="0 0 66 66" fill="none" xmlns="http://www.w3.org/2000/svg">
<rect x="0.666626" width="65.3333" height="65.3333" rx="17.3333" fill="white"/>
<path fill-rule="evenodd" clip-rule="evenodd" d="M23.6151 15.9613C23.6193 16.7058 23.0587 17.2853 22.3353 17.282C21.6321 17.2799 21.0747 16.708 21.0704 15.9864C21.0662 15.2396 21.6225 14.6645 22.3491 14.6667C23.0534 14.6689 23.6108 15.2396 23.6151 15.9613ZM35.0933 22.8419L35.0933 22.8422L35.0933 22.8425L35.0933 22.8428L35.0933 22.8431C35.0951 22.9533 35.0969 23.064 35.0982 23.1753L36.0099 23.1756H36.012H36.0123H36.0126H36.0129C36.6032 23.1758 37.1815 23.1761 37.7598 23.1753C38.5151 23.1742 39.2343 22.996 39.8991 22.6363C42.0842 21.4555 42.9991 19.3923 42.6895 16.6316C42.4099 16.6316 42.1297 16.6313 41.8493 16.6311H41.8492H41.849H41.8489H41.8488H41.8487C41.2866 16.6306 40.7232 16.6301 40.1598 16.6316C38.0364 16.637 36.1673 17.9829 35.4035 20.021C35.0623 20.9296 35.0774 21.8638 35.0933 22.8419ZM18.3133 22.7029C18.025 23.0298 17.7601 23.3305 17.475 23.6541C20.3558 26.3668 22.242 29.6458 22.9802 33.6529C22.879 33.6529 22.7801 33.6542 22.683 33.6554C22.439 33.6585 22.2059 33.6614 21.9739 33.6442C21.8771 33.6365 21.7675 33.537 21.6973 33.4507C19.4739 30.761 17.5452 27.8647 15.8644 24.7923C15.7165 24.5212 15.5963 24.2293 15.4921 23.9373C15.1814 23.0626 15.3155 22.5947 16.0133 21.9911C16.5846 21.498 17.2771 21.3001 17.9835 21.1886C20.1037 20.853 21.9686 21.3242 23.3504 23.137C24.0494 24.0532 24.4557 25.116 24.6802 26.2498C25.0483 28.1041 24.9759 29.9311 24.3281 31.7177C24.2791 31.8527 24.2202 31.9833 24.1459 32.1478L24.1459 32.1479L24.1457 32.1484C24.1087 32.2303 24.068 32.3206 24.0228 32.424C23.059 28.5284 21.1558 25.3379 18.3133 22.7029ZM15.3425 34.9877H51.0621C51.0211 35.2946 50.987 35.5999 50.9531 35.903L50.9531 35.9032L50.9531 35.9034L50.9531 35.9036L50.953 35.9038L50.953 35.904L50.953 35.9043L50.953 35.9045C50.8798 36.5596 50.8077 37.2046 50.6696 37.8337C49.3473 43.8559 45.9303 48.1343 40.4304 50.6228C38.3953 51.5434 36.2422 51.9512 34.0167 51.9916C31.8997 52.0299 29.7955 51.9545 27.7604 51.2908C21.6616 49.3042 17.7053 45.1461 15.9074 38.8352C15.5532 37.5932 15.3936 36.3117 15.3425 34.9877ZM26.4306 47.4761C23.5956 46.0317 21.3573 43.9456 19.6988 41.1838C19.5202 41.2963 19.3473 41.4049 19.1752 41.513L19.1718 41.5152C18.9904 41.6292 18.8099 41.7426 18.6244 41.8595C20.435 44.8564 22.8339 47.0978 25.8881 48.6372C26.0259 48.3412 26.1539 48.0675 26.2848 47.7877L26.2853 47.7868L26.4306 47.4761ZM27.4721 48.0741V49.3501H28.6923V48.0741H27.4721ZM44.1438 33.6336H50.4533C50.1001 32.9743 49.3075 32.362 48.5299 32.198C48.2553 32.1402 47.9755 32.1058 47.6956 32.0715C47.4095 32.0364 47.1234 32.0013 46.8427 31.9411C45.9576 31.7508 45.6374 30.9538 46.1097 30.1655C46.1795 30.0487 46.2649 29.9415 46.3501 29.8345C46.4508 29.7082 46.5514 29.5821 46.6257 29.4406C46.6733 29.3494 46.7235 29.2581 46.7739 29.1664L46.774 29.1663C46.9733 28.8036 47.176 28.4346 47.2406 28.0454C47.3618 27.3162 47.3842 26.5519 47.331 25.8117C47.2289 24.3761 46.514 23.5758 45.2831 23.4839C44.8885 23.4544 44.4523 23.5353 44.0842 23.6895C42.3449 24.4155 41.3513 25.7362 41.9077 27.8508C42.0981 28.5713 42.264 29.3039 42.3662 30.0419C42.5087 31.0697 41.8651 31.87 40.8641 31.9531C40.5348 31.9797 40.1965 31.9328 39.8658 31.8869L39.8386 31.8831C39.6168 31.8524 39.3972 31.8002 39.1903 31.751L39.1902 31.751L39.1901 31.751L39.1901 31.7509L39.1901 31.7509L39.19 31.7509C39.1022 31.73 39.0167 31.7097 38.9343 31.6918C38.8875 32.3751 38.845 33.0027 38.8035 33.626H42.8534C43.2906 31.1145 43.88 28.6686 44.6938 26.2534C44.8586 26.3118 45.0168 26.3676 45.1729 26.4228C45.4058 26.505 45.6339 26.5855 45.8714 26.67C45.1406 28.9693 44.5332 31.2599 44.1438 33.6336ZM29.3435 25.8868C28.9212 25.8365 28.5286 25.7895 28.101 25.7381C27.8297 28.032 27.0542 30.1093 25.6255 31.9987C25.6736 31.7655 25.7224 31.5423 25.7698 31.3253L25.7698 31.3252L25.7698 31.3252C25.8661 30.8849 25.9567 30.4703 26.0244 30.0514C26.3584 27.9959 26.0968 26.007 25.318 24.0915C25.1968 23.7941 25.2297 23.6027 25.4446 23.3742C26.2159 22.5542 27.1542 22.3421 28.184 22.6198C30.335 23.2004 31.7871 24.5616 32.4169 26.7877C32.4466 26.8929 32.4605 27.0022 32.4755 27.1197C32.4825 27.1744 32.4897 27.2309 32.4988 27.2896C31.1637 27.6886 30.1254 28.4682 29.4329 29.6873C28.7425 30.9031 28.5435 32.2075 28.8807 33.619H25.9329C27.8914 31.429 29.002 28.8684 29.3435 25.8868ZM37.4795 31.2717C37.2586 31.3503 37.0436 31.427 36.8286 31.5036L36.8276 31.504C36.6121 31.5808 36.3966 31.6576 36.1752 31.7364C36.3093 32.1475 36.4337 32.5302 36.5688 32.9467C36.7317 32.8938 36.8887 32.8426 37.0512 32.7896C37.2379 32.7287 37.4318 32.6654 37.6497 32.5947C37.6302 32.6912 37.6126 32.784 37.5955 32.8737L37.5955 32.874C37.5512 33.1074 37.5107 33.3208 37.4507 33.5284C37.4337 33.5896 37.2848 33.6454 37.1965 33.6465C34.9423 33.6531 32.687 33.6542 30.4328 33.6421C30.3338 33.641 30.1658 33.5087 30.1477 33.4136C30.0808 33.0726 30.0361 32.7274 29.9868 32.3471C29.9694 32.2128 29.9514 32.0742 29.9317 31.9299L30.2495 32.0308L30.2521 32.0316L30.2535 32.0321L30.259 32.0338C30.5448 32.1246 30.7946 32.204 31.0594 32.2874C31.1162 32.1132 31.1716 31.9437 31.2272 31.7741C31.3016 31.5467 31.3761 31.3191 31.454 31.0793L31.1366 30.9649C30.8857 30.8745 30.6433 30.7872 30.4019 30.6999C30.6711 29.6765 32.1008 28.546 33.1795 28.5153V29.7049H34.4327V28.5481C35.5582 28.4333 37.0582 29.7738 37.4795 31.2717ZM33.1934 32.3235H34.4263V31.064H33.1934V32.3235ZM15.3721 33.6367H20.1795C19.4827 32.6997 18.8178 31.8075 18.1008 30.8464C17.9014 30.9471 17.6987 31.0438 17.4956 31.1407L17.4956 31.1407C17.0214 31.3671 16.5447 31.5947 16.1008 31.8763C15.4976 32.2579 15.2263 32.8658 15.3721 33.6367ZM29.3544 17.9732C29.3661 18.6904 29.9331 19.2524 30.6406 19.2469C31.3427 19.2415 31.8969 18.6685 31.8991 17.9447C31.9012 17.2045 31.3352 16.6261 30.6119 16.6316C29.8917 16.6371 29.3427 17.222 29.3544 17.9732Z" fill="url(#paint0_linear_1659_19093)"/>
<defs>
<linearGradient id="paint0_linear_1659_19093" x1="15.3333" y1="33.3332" x2="51.062" y2="33.3332" gradientUnits="userSpaceOnUse">
<stop stop-color="#9BE15D"/>
<stop offset="1" stop-color="#00E3AE"/>
</linearGradient>
</defs>
</svg>
