<svg width="75" height="75" viewBox="0 0 75 75" fill="none" xmlns="http://www.w3.org/2000/svg">
<circle cx="37.3334" cy="37.4999" r="30.6667" fill="white"/>
<g clip-path="url(#clip0_1691_19640)">
<path d="M38.183 36.1205H45.7577C49.9425 36.1205 53.3335 32.7294 53.3335 28.5458C53.3335 24.361 49.9425 20.97 45.7577 20.97C41.5741 20.97 38.1818 24.361 38.1818 28.5458V36.1205H38.183Z" fill="#78B7EE"/>
<path d="M36.4838 36.1205H28.908C24.7244 36.1205 21.3322 32.7294 21.3322 28.5446C21.3333 24.361 24.7255 20.97 28.9092 20.97C33.0928 20.97 36.485 24.361 36.485 28.5458V36.1205H36.4838Z" fill="#78B7EE"/>
<path d="M38.1829 37.8196H45.7575C49.9423 37.8196 53.3334 41.2106 53.3334 45.3942C53.3334 49.5778 49.9423 52.9701 45.7575 52.9701C41.5739 52.9701 38.1817 49.579 38.1817 45.3942V37.8196H38.1829Z" fill="#78B7EE"/>
<path d="M36.484 37.8196H28.9082C24.7246 37.8196 21.3324 41.2106 21.3324 45.3954C21.3324 49.579 24.7234 52.9712 28.9082 52.9712C33.0918 52.9712 36.484 49.5802 36.484 45.3954V37.8196Z" fill="#78B7EE"/>
</g>
<defs>
<clipPath id="clip0_1691_19640">
<rect width="32" height="32" fill="white" transform="matrix(-1 0 0 1 53.3335 20.97)"/>
</clipPath>
</defs>
</svg>
