<svg width="75" height="75" viewBox="0 0 75 75" fill="none" xmlns="http://www.w3.org/2000/svg">
<circle cx="37.3334" cy="37.4998" r="30.6667" fill="white"/>
<g clip-path="url(#clip0_2384_303)">
<path d="M39.5152 34.787H45.7577C49.2062 34.787 52.0002 31.9928 52.0002 28.5457C52.0002 25.0972 49.2061 22.3032 45.7577 22.3032C42.3103 22.3032 39.5152 25.0974 39.5152 28.5457V34.787Z" stroke="#707386" stroke-width="2.66667"/>
<path d="M35.1517 34.787H28.908C25.4608 34.787 22.6658 31.993 22.6656 28.5449L35.1517 34.787ZM35.1517 34.787V28.5457C35.1517 25.0974 32.3566 22.3032 28.9092 22.3032C25.4619 22.3032 22.6667 25.0973 22.6656 28.5445L35.1517 34.787Z" stroke="#707386" stroke-width="2.66667"/>
<path d="M45.7575 39.1528H39.515V45.3941C39.515 48.8424 42.3101 51.6366 45.7575 51.6366C49.2058 51.6366 52 48.8415 52 45.3941C52 41.947 49.206 39.1528 45.7575 39.1528Z" stroke="#707386" stroke-width="2.66667"/>
<path d="M35.1507 39.1528H28.9082C25.4609 39.1528 22.6657 41.947 22.6657 45.3953C22.6657 48.8427 25.46 51.6378 28.9082 51.6378C32.3556 51.6378 35.1507 48.8436 35.1507 45.3953V39.1528Z" stroke="#707386" stroke-width="2.66667"/>
</g>
<defs>
<clipPath id="clip0_2384_303">
<rect width="32" height="32" fill="white" transform="matrix(-1 0 0 1 53.3335 20.9698)"/>
</clipPath>
</defs>
</svg>
