<svg width="171" height="75" viewBox="0 0 171 75" fill="none" xmlns="http://www.w3.org/2000/svg">
<circle cx="37.3334" cy="37.4999" r="30.6667" fill="white"/>
<g clip-path="url(#clip0_1691_19572)">
<path d="M39.5152 34.7871H45.7577C49.2062 34.7871 52.0002 31.9929 52.0002 28.5458C52.0002 25.0974 49.2061 22.3033 45.7577 22.3033C42.3103 22.3033 39.5152 25.0975 39.5152 28.5458V34.7871Z" stroke="#707386" stroke-width="2.66667"/>
<path d="M35.1517 34.7871H28.908C25.4607 34.7871 22.6657 31.9931 22.6655 28.545L35.1517 34.7871ZM35.1517 34.7871V28.5458C35.1517 25.0975 32.3565 22.3033 28.9092 22.3033C25.4619 22.3033 22.6667 25.0975 22.6655 28.5446L35.1517 34.7871Z" stroke="#707386" stroke-width="2.66667"/>
<path d="M45.7575 39.1529H39.5151V45.3942C39.5151 48.8425 42.3102 51.6367 45.7575 51.6367C49.2058 51.6367 52 48.8416 52 45.3942C52 41.9471 49.2061 39.1529 45.7575 39.1529Z" stroke="#707386" stroke-width="2.66667"/>
<path d="M35.1507 39.1529H28.9082C25.4608 39.1529 22.6657 41.9471 22.6657 45.3954C22.6657 48.8428 25.4599 51.6379 28.9082 51.6379C32.3555 51.6379 35.1507 48.8437 35.1507 45.3954V39.1529Z" stroke="#707386" stroke-width="2.66667"/>
</g>
<path d="M82.421 31C83.3943 31 84.2543 31.1867 85.001 31.56C85.7477 31.92 86.3677 32.4267 86.861 33.08C87.3677 33.72 87.7477 34.4667 88.001 35.32C88.2543 36.16 88.381 37.0533 88.381 38C88.381 39.2933 88.1543 40.4733 87.701 41.54C87.2477 42.5933 86.581 43.4333 85.701 44.06C84.821 44.6867 83.7277 45 82.421 45H77.541C77.261 45 77.021 44.9067 76.821 44.72C76.621 44.52 76.521 44.2733 76.521 43.98V32.02C76.521 31.7267 76.621 31.4867 76.821 31.3C77.021 31.1 77.261 31 77.541 31H82.421ZM82.221 43.08C83.1677 43.08 83.9343 42.8467 84.521 42.38C85.1077 41.9133 85.5343 41.3 85.801 40.54C86.081 39.7667 86.221 38.92 86.221 38C86.221 37.32 86.141 36.68 85.981 36.08C85.8343 35.4667 85.5943 34.9267 85.261 34.46C84.941 33.98 84.5277 33.6067 84.021 33.34C83.5277 33.06 82.9277 32.92 82.221 32.92H78.441L78.621 32.74V43.28L78.501 43.08H82.221ZM92.4974 43.98C92.4974 44.2733 92.4041 44.52 92.2174 44.72C92.0307 44.9067 91.7907 45 91.4974 45C91.2174 45 90.9774 44.9067 90.7774 44.72C90.5907 44.52 90.4974 44.2733 90.4974 43.98V35.42C90.4974 35.1267 90.5907 34.8867 90.7774 34.7C90.9774 34.5 91.2174 34.4 91.4974 34.4C91.7907 34.4 92.0307 34.5 92.2174 34.7C92.4041 34.8867 92.4974 35.1267 92.4974 35.42V43.98ZM91.4774 33.08C91.0907 33.08 90.8107 33.0133 90.6374 32.88C90.4641 32.7333 90.3774 32.4933 90.3774 32.16V31.84C90.3774 31.5067 90.4707 31.2733 90.6574 31.14C90.8441 31.0067 91.1241 30.94 91.4974 30.94C91.8974 30.94 92.1841 31.0133 92.3574 31.16C92.5307 31.2933 92.6174 31.52 92.6174 31.84V32.16C92.6174 32.5067 92.5241 32.7467 92.3374 32.88C92.1641 33.0133 91.8774 33.08 91.4774 33.08ZM100.088 45.2C98.9811 45.2 98.0211 44.9733 97.2077 44.52C96.3944 44.0533 95.7611 43.42 95.3077 42.62C94.8677 41.8067 94.6477 40.88 94.6477 39.84C94.6477 38.6667 94.8811 37.6667 95.3477 36.84C95.8277 36 96.4477 35.36 97.2077 34.92C97.9677 34.4667 98.7744 34.24 99.6277 34.24C100.281 34.24 100.901 34.3733 101.488 34.64C102.074 34.8933 102.594 35.2533 103.048 35.72C103.514 36.1733 103.881 36.7133 104.148 37.34C104.414 37.9533 104.554 38.6267 104.568 39.36C104.554 39.6267 104.448 39.8467 104.248 40.02C104.048 40.1933 103.814 40.28 103.548 40.28H95.7677L95.2877 38.58H102.808L102.428 38.94V38.44C102.401 37.9733 102.248 37.5667 101.968 37.22C101.688 36.86 101.341 36.5867 100.928 36.4C100.514 36.2 100.081 36.1 99.6277 36.1C99.2277 36.1 98.8411 36.1667 98.4677 36.3C98.1077 36.42 97.7811 36.62 97.4877 36.9C97.2077 37.18 96.9811 37.5533 96.8077 38.02C96.6477 38.4733 96.5677 39.04 96.5677 39.72C96.5677 40.4533 96.7211 41.0933 97.0277 41.64C97.3344 42.1867 97.7477 42.6133 98.2677 42.92C98.7877 43.2133 99.3611 43.36 99.9877 43.36C100.481 43.36 100.888 43.3133 101.208 43.22C101.528 43.1133 101.794 42.9867 102.008 42.84C102.221 42.6933 102.408 42.5533 102.568 42.42C102.768 42.3 102.968 42.24 103.168 42.24C103.408 42.24 103.608 42.3267 103.768 42.5C103.928 42.66 104.008 42.8533 104.008 43.08C104.008 43.3733 103.861 43.64 103.568 43.88C103.208 44.2267 102.708 44.5333 102.068 44.8C101.441 45.0667 100.781 45.2 100.088 45.2ZM99.8877 31.98L98.2877 33.32C98.1411 33.44 98.0144 33.54 97.9077 33.62C97.8144 33.6867 97.6677 33.72 97.4677 33.72C97.3211 33.72 97.1944 33.68 97.0877 33.6C96.9944 33.5067 96.9477 33.4 96.9477 33.28C96.9477 33.2 96.9611 33.12 96.9877 33.04C97.0144 32.96 97.0744 32.8667 97.1677 32.76L98.3077 31.4C98.5611 31.0667 98.9011 30.9 99.3277 30.9H99.9277C100.154 30.9 100.334 30.94 100.468 31.02C100.601 31.0867 100.728 31.2133 100.848 31.4L101.928 32.76C102.008 32.8667 102.061 32.96 102.088 33.04C102.114 33.1067 102.128 33.1867 102.128 33.28C102.128 33.4 102.081 33.5067 101.988 33.6C101.894 33.68 101.774 33.72 101.628 33.72C101.414 33.72 101.261 33.6867 101.168 33.62C101.074 33.54 100.948 33.4333 100.788 33.3L99.0677 31.84L99.8877 31.98ZM97.0277 30.62C96.7611 30.62 96.5411 30.52 96.3677 30.32C96.2077 30.1067 96.1344 29.8133 96.1477 29.44C96.1744 29 96.3744 28.62 96.7477 28.3C97.1211 27.9667 97.6677 27.8 98.3877 27.8C98.6944 27.8 98.9811 27.8667 99.2477 28C99.5144 28.1333 99.7677 28.28 100.008 28.44C100.248 28.6 100.468 28.7467 100.668 28.88C100.881 29 101.074 29.06 101.248 29.06C101.408 29.06 101.528 29.0133 101.608 28.92C101.701 28.8267 101.741 28.6933 101.728 28.52C101.661 28.2667 101.694 28.0667 101.828 27.92C101.961 27.7733 102.134 27.7 102.348 27.7C102.628 27.7 102.848 27.8067 103.008 28.02C103.168 28.22 103.248 28.5 103.248 28.86C103.221 29.1133 103.134 29.3733 102.988 29.64C102.841 29.8933 102.614 30.1067 102.308 30.28C102.014 30.4533 101.628 30.54 101.148 30.54C100.894 30.54 100.628 30.48 100.348 30.36C100.081 30.2267 99.8144 30.08 99.5477 29.92C99.2811 29.76 99.0277 29.62 98.7877 29.5C98.5611 29.3667 98.3544 29.3 98.1677 29.3C98.0211 29.3 97.8944 29.3467 97.7877 29.44C97.6811 29.52 97.6344 29.6467 97.6477 29.82C97.7144 30.06 97.6744 30.2533 97.5277 30.4C97.3944 30.5467 97.2277 30.62 97.0277 30.62ZM112.248 34.24C113.195 34.24 113.928 34.44 114.448 34.84C114.968 35.2267 115.328 35.7533 115.528 36.42C115.742 37.0733 115.848 37.8067 115.848 38.62V43.98C115.848 44.2733 115.748 44.52 115.548 44.72C115.362 44.9067 115.128 45 114.848 45C114.555 45 114.315 44.9067 114.128 44.72C113.942 44.52 113.848 44.2733 113.848 43.98V38.64C113.848 38.16 113.782 37.7333 113.648 37.36C113.515 36.9733 113.282 36.6667 112.948 36.44C112.628 36.2 112.175 36.08 111.588 36.08C111.042 36.08 110.562 36.2 110.148 36.44C109.735 36.6667 109.408 36.9733 109.168 37.36C108.942 37.7333 108.828 38.16 108.828 38.64V43.98C108.828 44.2733 108.728 44.52 108.528 44.72C108.342 44.9067 108.108 45 107.828 45C107.535 45 107.295 44.9067 107.108 44.72C106.922 44.52 106.828 44.2733 106.828 43.98V35.5C106.828 35.2067 106.922 34.9667 107.108 34.78C107.295 34.58 107.535 34.48 107.828 34.48C108.108 34.48 108.342 34.58 108.528 34.78C108.728 34.9667 108.828 35.2067 108.828 35.5V36.62L108.468 36.82C108.562 36.5267 108.722 36.2333 108.948 35.94C109.188 35.6333 109.475 35.3533 109.808 35.1C110.142 34.8333 110.515 34.6267 110.928 34.48C111.342 34.32 111.782 34.24 112.248 34.24ZM132.812 30.2C133.105 30.2 133.345 30.2933 133.532 30.48C133.718 30.6667 133.812 30.9133 133.812 31.22V43.98C133.812 44.2733 133.718 44.52 133.532 44.72C133.345 44.9067 133.105 45 132.812 45C132.532 45 132.292 44.9067 132.092 44.72C131.905 44.52 131.812 44.2733 131.812 43.98V42.54L132.232 42.56C132.232 42.8 132.132 43.0733 131.932 43.38C131.745 43.6733 131.485 43.96 131.152 44.24C130.818 44.52 130.425 44.7533 129.972 44.94C129.518 45.1133 129.032 45.2 128.512 45.2C127.592 45.2 126.765 44.9667 126.032 44.5C125.298 44.02 124.718 43.3733 124.292 42.56C123.865 41.7333 123.652 40.7867 123.652 39.72C123.652 38.6533 123.865 37.7133 124.292 36.9C124.718 36.0733 125.292 35.4267 126.012 34.96C126.745 34.48 127.558 34.24 128.452 34.24C129.012 34.24 129.532 34.3333 130.012 34.52C130.505 34.7067 130.932 34.9467 131.292 35.24C131.652 35.5333 131.932 35.8467 132.132 36.18C132.332 36.5 132.432 36.8067 132.432 37.1L131.812 37.16V31.22C131.812 30.9267 131.905 30.6867 132.092 30.5C132.292 30.3 132.532 30.2 132.812 30.2ZM128.732 43.36C129.372 43.36 129.925 43.2 130.392 42.88C130.872 42.56 131.245 42.1267 131.512 41.58C131.778 41.0333 131.912 40.4133 131.912 39.72C131.912 39.0267 131.778 38.4067 131.512 37.86C131.245 37.3133 130.872 36.88 130.392 36.56C129.912 36.24 129.358 36.08 128.732 36.08C128.118 36.08 127.572 36.24 127.092 36.56C126.625 36.88 126.252 37.3133 125.972 37.86C125.705 38.4067 125.572 39.0267 125.572 39.72C125.572 40.4133 125.705 41.0333 125.972 41.58C126.252 42.1267 126.625 42.56 127.092 42.88C127.572 43.2 128.118 43.36 128.732 43.36ZM130.812 33.6C130.518 33.6 130.272 33.52 130.072 33.36C129.885 33.1867 129.792 32.9533 129.792 32.66C129.792 32.4067 129.885 32.1933 130.072 32.02C130.272 31.8467 130.518 31.76 130.812 31.76H134.212C134.505 31.76 134.745 31.8467 134.932 32.02C135.132 32.1933 135.232 32.4133 135.232 32.68C135.232 32.96 135.132 33.1867 134.932 33.36C134.745 33.52 134.505 33.6 134.212 33.6H130.812ZM145.234 34.32C145.527 34.32 145.767 34.42 145.954 34.62C146.14 34.8067 146.234 35.0467 146.234 35.34V43.98C146.234 44.2733 146.14 44.52 145.954 44.72C145.767 44.9067 145.527 45 145.234 45C144.954 45 144.714 44.9067 144.514 44.72C144.327 44.52 144.234 44.2733 144.234 43.98V42.54L144.654 42.6C144.654 42.84 144.554 43.1067 144.354 43.4C144.167 43.6933 143.907 43.98 143.574 44.26C143.24 44.5267 142.847 44.7533 142.394 44.94C141.94 45.1133 141.454 45.2 140.934 45.2C140.014 45.2 139.187 44.9667 138.454 44.5C137.72 44.02 137.14 43.3667 136.714 42.54C136.287 41.7133 136.074 40.7733 136.074 39.72C136.074 38.64 136.287 37.6933 136.714 36.88C137.14 36.0533 137.714 35.4067 138.434 34.94C139.167 34.4733 139.98 34.24 140.874 34.24C141.447 34.24 141.974 34.3333 142.454 34.52C142.947 34.7067 143.374 34.9467 143.734 35.24C144.094 35.5333 144.367 35.8467 144.554 36.18C144.754 36.5 144.854 36.8067 144.854 37.1L144.234 37.16V35.34C144.234 35.06 144.327 34.82 144.514 34.62C144.714 34.42 144.954 34.32 145.234 34.32ZM141.154 43.36C141.78 43.36 142.334 43.2 142.814 42.88C143.294 42.56 143.667 42.1267 143.934 41.58C144.2 41.02 144.334 40.4 144.334 39.72C144.334 39.0267 144.2 38.4067 143.934 37.86C143.667 37.3133 143.294 36.88 142.814 36.56C142.334 36.24 141.78 36.08 141.154 36.08C140.54 36.08 139.994 36.24 139.514 36.56C139.047 36.88 138.674 37.3133 138.394 37.86C138.127 38.4067 137.994 39.0267 137.994 39.72C137.994 40.4 138.127 41.02 138.394 41.58C138.674 42.1267 139.047 42.56 139.514 42.88C139.994 43.2 140.54 43.36 141.154 43.36ZM141.334 33.68C141.267 33.68 141.187 33.6667 141.094 33.64C141.014 33.6 140.94 33.56 140.874 33.52L139.014 32.32C138.827 32.2133 138.68 32.0867 138.574 31.94C138.467 31.78 138.414 31.6133 138.414 31.44C138.414 31.1733 138.514 30.9667 138.714 30.82C138.914 30.6733 139.12 30.6 139.334 30.6C139.507 30.6 139.667 30.64 139.814 30.72C139.96 30.8 140.087 30.8933 140.194 31L141.794 32.6C141.954 32.76 142.034 32.92 142.034 33.08C142.034 33.2533 141.967 33.4 141.834 33.52C141.714 33.6267 141.547 33.68 141.334 33.68ZM154.455 34.24C155.402 34.24 156.135 34.44 156.655 34.84C157.175 35.2267 157.535 35.7533 157.735 36.42C157.949 37.0733 158.055 37.8067 158.055 38.62V43.98C158.055 44.2733 157.955 44.52 157.755 44.72C157.569 44.9067 157.335 45 157.055 45C156.762 45 156.522 44.9067 156.335 44.72C156.149 44.52 156.055 44.2733 156.055 43.98V38.64C156.055 38.16 155.989 37.7333 155.855 37.36C155.722 36.9733 155.489 36.6667 155.155 36.44C154.835 36.2 154.382 36.08 153.795 36.08C153.249 36.08 152.769 36.2 152.355 36.44C151.942 36.6667 151.615 36.9733 151.375 37.36C151.149 37.7333 151.035 38.16 151.035 38.64V43.98C151.035 44.2733 150.935 44.52 150.735 44.72C150.549 44.9067 150.315 45 150.035 45C149.742 45 149.502 44.9067 149.315 44.72C149.129 44.52 149.035 44.2733 149.035 43.98V35.5C149.035 35.2067 149.129 34.9667 149.315 34.78C149.502 34.58 149.742 34.48 150.035 34.48C150.315 34.48 150.549 34.58 150.735 34.78C150.935 34.9667 151.035 35.2067 151.035 35.5V36.62L150.675 36.82C150.769 36.5267 150.929 36.2333 151.155 35.94C151.395 35.6333 151.682 35.3533 152.015 35.1C152.349 34.8333 152.722 34.6267 153.135 34.48C153.549 34.32 153.989 34.24 154.455 34.24Z" fill="#707386"/>
<defs>
<clipPath id="clip0_1691_19572">
<rect width="32" height="32" fill="white" transform="matrix(-1 0 0 1 53.3335 20.97)"/>
</clipPath>
</defs>
</svg>
