<svg width="27" height="26" viewBox="0 0 27 26" fill="none" xmlns="http://www.w3.org/2000/svg">
<g clip-path="url(#clip0_1650_18413)">
<path d="M14.4171 25.9162C28.5593 25.1045 31.1885 5.18757 17.7695 0.715058C14.0563 -0.527661 9.79871 0.0375852 6.55018 2.22895H6.5511C5.04556 3.22996 3.76658 4.53545 2.79666 6.0612C1.82675 7.58695 1.18743 9.29908 0.919963 11.0871L0.919151 11.0866C-0.35358 19.0682 6.34365 26.444 14.4171 25.9162ZM24.8839 17.7188C24.4223 18.8118 23.8018 19.8306 23.0426 20.7424C22.989 20.4229 23.1369 20.0527 22.9165 19.7545C22.6774 19.2884 22.456 18.8128 22.2069 18.3522C22.1142 18.181 22.1398 18.0826 22.2763 17.9593C23.7384 16.6764 22.435 17.3585 22.5786 15.5249C22.5838 15.4753 22.5739 15.4254 22.5504 15.3815C22.5269 15.3376 22.4907 15.3017 22.4465 15.2786C21.7535 14.8361 20.8487 14.6841 20.1325 15.1759C19.2399 15.5978 17.9666 15.2751 17.6779 14.2505C17.4225 13.5695 17.4538 12.8817 17.4471 12.1862C17.4883 11.8112 18.0028 11.7482 17.9194 11.3147C17.9392 10.7642 17.7598 10.1831 18.2803 9.82384C18.3202 9.78864 18.3678 9.76322 18.4192 9.7496C18.4706 9.73598 18.5245 9.73454 18.5766 9.74539C19.0522 9.80291 19.5329 9.69081 19.934 9.42882C20.3594 9.15912 20.8847 9.3337 21.3559 9.27231C21.5805 9.25631 21.7469 9.32228 21.8852 9.49712C22.1571 9.8404 22.5824 9.9412 22.9397 10.1497C23.0599 10.2198 23.1244 10.1314 23.1808 10.0587C23.481 9.67145 23.941 9.54135 24.3443 9.31867C24.564 9.19278 25.0045 9.67338 25.3795 9.69044C26.1267 12.306 25.9533 15.2176 24.8839 17.7188ZM24.7083 7.88862C24.2605 7.94753 24.5616 7.52213 24.3305 7.29956C24.0985 7.09246 23.8777 6.873 23.6693 6.64214C23.5613 6.52687 23.4915 6.50834 23.3667 6.63148C23.0316 6.96308 23.0504 6.92789 23.4412 7.32414C23.8976 7.82575 24.2415 7.81737 23.4159 8.16594C23.228 8.25054 23.0505 8.4433 22.8455 8.16477C22.7214 7.99623 22.5524 7.88298 22.5725 7.62334C22.6033 7.22298 22.2979 6.93271 22.1565 6.58705C22.1143 6.48391 22.0397 6.55658 22 6.60736C21.7026 6.98964 21.2535 7.13741 20.8466 7.34978C20.1439 7.96423 20.3043 7.8973 19.3717 7.87059C19.2854 7.8743 19.26 7.7702 19.2225 7.70936C18.753 6.94064 18.844 6.75325 19.3305 6.02754C19.5095 5.92019 20.3001 6.04409 20.4496 6.20019C20.5168 6.27027 20.5719 6.35193 20.6688 6.47411C20.7433 6.17653 20.7056 5.94852 20.7133 5.72392C20.8394 4.80229 21.6138 5.21763 22.1635 5.01745C22.4234 4.81884 22.53 4.71997 22.4749 4.62252C23.394 5.58096 24.1486 6.68448 24.7083 7.88862ZM22.3997 4.54539C22.0245 4.30108 21.1909 4.04351 21.1687 3.43983C21.6039 3.77963 22.0153 4.14903 22.3997 4.54539ZM5.14192 4.42859C5.84141 3.72808 6.62403 3.11584 7.47232 2.60554C7.76081 2.75281 7.96662 3.29459 8.32849 3.10208C8.71443 2.89957 9.12576 2.73894 9.40282 2.37682C9.55978 2.18614 9.83446 2.33209 10.0395 2.27425C10.8455 2.16512 11.0634 3.08284 11.3649 3.62878C11.3382 3.65118 11.3242 3.67266 11.3127 3.67134C10.6133 3.59243 9.97203 3.81698 9.33823 4.06103C9.13002 4.14122 8.96955 4.14802 8.8393 3.94754C8.67832 3.69962 8.47149 3.69246 8.21469 3.79941C7.97683 3.96755 7.12223 3.99659 7.18129 4.33403C7.23928 4.65106 6.98898 5.19143 7.55804 5.08341C7.82469 4.99064 8.05392 5.77861 8.21687 5.32559C8.56655 3.90879 10.0407 5.14516 11.1774 4.23989C11.5956 3.99177 11.9395 4.80904 12.102 5.09692C12.2255 5.36703 12.3149 5.68502 12.7491 5.59082C12.4768 5.86321 12.2026 6.13377 11.9334 6.40911C11.8553 6.48899 11.7843 6.46339 11.6966 6.43293C11.3581 6.31542 11.015 6.21096 10.6776 6.09015C10.5167 6.03252 10.4395 6.02688 10.4432 6.2425C10.7186 7.72531 9.45543 6.29521 8.57818 7.40721C7.48354 8.50734 8.33067 9.43054 6.82623 10.5871C6.7363 10.6697 6.6616 10.6796 6.57268 10.6143C5.91912 10.1504 4.45073 9.89829 3.96252 10.6567C3.95552 10.6795 3.95381 10.7036 3.95752 10.7273C3.96123 10.7509 3.97027 10.7733 3.98395 10.7929C4.24542 11.212 4.26594 11.9171 4.76238 11.2141C4.91015 11.0881 5.08372 11.1305 5.23505 11.1557C5.39425 11.1821 5.31518 11.3507 5.31122 11.4488C5.33372 11.8398 5.89617 11.9095 5.78552 12.3497C5.7224 12.6681 6.12352 12.4921 6.29978 12.5455C6.58471 12.5866 6.80089 12.4913 6.98355 12.2688C7.12208 12.1 7.91726 11.9853 8.10038 12.0939C8.24557 12.2402 8.30655 12.4688 8.41071 12.6474C8.58382 12.9948 8.59128 13.0018 8.8461 12.7273C9.43161 12.2676 10.2546 12.6313 10.8117 12.9504C11.2494 13.1956 11.1049 14.0709 11.7568 13.9451C11.8821 13.9155 11.9498 14.0222 12.0185 14.0996C12.492 14.6789 13.2567 14.6096 13.5368 15.4041C13.7173 15.7354 13.698 16.0259 13.5446 16.3537C13.4357 16.9695 13.1329 17.4232 12.4935 17.5957C11.9865 17.7778 12.8418 18.605 11.6813 18.9349C11.3837 18.9997 11.3452 19.2276 11.3837 19.4949C11.5068 20.1834 11.3396 20.703 10.5824 20.8844C10.3584 20.9584 10.3983 21.2562 10.2921 21.4259C9.76961 22.378 10.2445 23.0727 10.9099 23.7395C10.3259 23.774 9.69298 23.8334 9.49113 23.2047C9.23895 22.4722 9.01074 21.7335 8.63678 21.0487C8.5112 20.8188 8.59205 20.5516 8.5888 20.3022C8.49764 19.2819 7.45571 18.5182 7.65142 17.431C7.72729 16.8865 6.95064 17.6641 6.14652 16.6731C5.8785 16.3552 5.25485 15.5868 5.36256 15.1885C5.5827 14.6397 5.60591 13.9778 6.11412 13.5969C6.3306 13.4287 6.35031 12.9039 5.94655 13.0056C4.90939 13.1792 5.131 12.3998 4.52355 12.5478C4.11223 12.5916 3.81531 12.4567 3.49564 12.169C2.53658 11.2869 2.26165 11.9405 1.71215 11.2865C2.08091 8.68891 3.28475 6.2818 5.14192 4.42859Z" fill="#78B7EE"/>
</g>
<defs>
<clipPath id="clip0_1650_18413">
<rect width="26" height="26" fill="white" transform="translate(0.713867 0.00012207)"/>
</clipPath>
</defs>
</svg>
