<svg width="66" height="66" viewBox="0 0 66 66" fill="none" xmlns="http://www.w3.org/2000/svg">
<rect width="65.3333" height="65.3333" rx="17.3333" fill="white"/>
<g clip-path="url(#clip0_1659_19099)">
<path fill-rule="evenodd" clip-rule="evenodd" d="M51.5411 22.3398H51.5411C50.963 22.3411 50.4033 22.3424 49.8437 22.3306C49.7272 22.3282 49.5974 22.2374 49.5004 22.1573C49.407 22.08 49.3217 21.9938 49.2363 21.9075C49.1631 21.8335 49.0899 21.7595 49.0115 21.691C48.5615 21.2942 48.0338 21.3013 47.5922 21.7078C47.4151 21.8704 47.2429 22.0389 47.0791 22.2134C46.9711 22.3285 46.869 22.4488 46.7528 22.5855L46.7527 22.5857C46.6927 22.6563 46.6289 22.7314 46.5587 22.8124C46.4204 22.6098 46.2869 22.4165 46.1575 22.2289L46.1573 22.2287C45.8826 21.8308 45.6261 21.4591 45.3796 21.0814C45.1176 20.6809 44.8095 20.3761 44.2818 20.4478C43.7505 20.5207 43.5503 20.9092 43.4048 21.3563C43.1609 22.1035 42.9026 22.8458 42.5702 23.5894C42.2982 22.5206 42.0249 21.4519 41.7517 20.3832L41.7516 20.3829L41.7489 20.3725C41.7209 20.2631 41.6917 20.154 41.6624 20.0449C41.6031 19.8235 41.5438 19.6021 41.4942 19.3779C41.3935 18.9272 41.1594 18.6152 40.6705 18.5506C40.1853 18.4861 39.8554 18.6797 39.5946 19.189L39.5611 19.2543L39.5611 19.2543C39.0954 20.1614 38.6292 21.0699 38.1826 21.9863C38.0552 22.2481 37.9072 22.3557 37.6003 22.3473C36.9271 22.331 36.2534 22.3338 35.578 22.3367C35.3163 22.3378 35.0543 22.339 34.7921 22.339C35.1451 18.0462 39.2173 14.5376 43.6086 14.6703C48.8247 14.8281 51.8719 18.9571 52.1024 22.339C51.913 22.339 51.7261 22.3394 51.5411 22.3398ZM32.7543 22.7668C31.568 23.4697 30.6715 24.3806 29.8539 25.423C29.8205 25.385 29.7903 25.3514 29.7623 25.3203C29.7112 25.2633 29.6679 25.2151 29.6271 25.1648C27.4205 22.4416 24.5929 21.0597 21.0277 21.4506C18.0727 21.7758 15.7764 23.1732 14.4117 25.8474C13.2739 28.0781 13.1368 30.4666 13.5395 32.8742C14.2565 37.1634 16.1537 40.8943 19.2178 44.0395C22.1935 47.0938 25.6252 49.5743 29.2498 51.817C29.6914 52.0907 30.0905 52.0429 30.5175 51.7799C33.333 50.0489 36.0114 48.1374 38.4921 45.9594C41.4386 43.3712 43.8198 40.3886 45.1493 36.6792C45.3968 35.9889 45.6073 35.2853 45.827 34.5512L45.827 34.5511C45.9303 34.2059 46.0355 33.8539 46.1477 33.4934C42.5667 34.2393 39.414 33.6237 36.6822 31.4133C33.9528 29.2054 32.7179 26.2802 32.7543 22.7668ZM26.9376 41.365V41.3649V41.3648C26.9383 41.0826 26.9389 40.7971 26.9389 40.507C26.64 40.507 26.348 40.5073 26.0608 40.5077H26.0604H26.0599H26.0589H26.0589C25.4042 40.5084 24.7747 40.5091 24.1453 40.5058C23.4538 40.5022 23.0717 40.1508 23.062 39.4634C23.045 38.256 23.045 37.0474 23.062 35.84C23.0717 35.1407 23.4611 34.7892 24.1865 34.7833C24.8039 34.7784 25.4219 34.7796 26.0537 34.7809H26.054H26.0544C26.3459 34.7815 26.6403 34.7821 26.9389 34.7821L26.9387 33.8926C26.9384 33.3181 26.9381 32.7572 26.9389 32.1963C26.9414 31.3046 27.2701 30.9674 28.1569 30.9627C29.2911 30.9567 30.4265 30.9567 31.5607 30.9627C32.4244 30.9674 32.7543 31.3046 32.7555 32.1665C32.7563 32.7273 32.7561 33.2875 32.7558 33.8683L32.7555 34.7821H33.6641C33.8597 34.7821 34.0553 34.7812 34.2509 34.7803C34.6909 34.7782 35.131 34.7762 35.571 34.7845C36.2358 34.7976 36.6313 35.1586 36.641 35.8054C36.6592 37.0426 36.6604 38.2811 36.6397 39.5184C36.63 40.1448 36.2273 40.501 35.5929 40.5058C34.9591 40.5099 34.3253 40.5089 33.6683 40.5079H33.6679C33.3693 40.5075 33.0659 40.507 32.7555 40.507V41.0437C32.7555 41.2751 32.7563 41.5063 32.7571 41.7375L32.7571 41.7389V41.7392C32.7589 42.2683 32.7607 42.7971 32.7531 43.3258C32.7446 43.9247 32.3759 44.3324 31.7766 44.3419C30.4908 44.3623 29.2049 44.3635 27.9191 44.3407C27.3077 44.33 26.9486 43.914 26.9414 43.2756C26.9346 42.6444 26.9361 42.0132 26.9376 41.365ZM16.2877 30.5824C16.2892 30.5177 16.2907 30.4532 16.2907 30.3889C16.4472 28.1522 17.3522 26.316 19.2931 25.0608C20.1046 24.5348 21.012 24.2706 21.9909 24.273C22.6035 24.2754 23.0123 24.6173 23.0402 25.1529C23.0681 25.6872 22.7042 26.1511 22.1001 26.1403C20.0233 26.1056 18.3457 28.1116 18.2195 30.2992C18.2149 30.3782 18.2121 30.4575 18.2094 30.5367C18.2028 30.7262 18.1962 30.9156 18.1637 31.1001C18.08 31.5819 17.6712 31.9071 17.2127 31.8927C16.7299 31.8772 16.3393 31.5114 16.2944 31.0141C16.281 30.8712 16.2844 30.7267 16.2877 30.5824ZM40.7937 24.4898C40.6134 23.7796 40.4331 23.0694 40.2531 22.3593C40.2192 22.3521 40.1864 22.3449 40.1537 22.3365C40.0918 22.4588 40.0284 22.5803 39.9649 22.7019L39.9648 22.7021L39.9648 22.7021C39.8228 22.974 39.6809 23.246 39.5568 23.526C39.3191 24.0592 38.9224 24.2767 38.3389 24.266C37.5674 24.2516 36.7951 24.2554 36.0232 24.2593H36.0232H36.0232H36.0229H36.0227C35.7657 24.2605 35.5086 24.2618 35.2517 24.2624C35.1465 24.2624 35.0412 24.2697 34.9353 24.2771L34.9352 24.2771C34.8812 24.2809 34.827 24.2847 34.7725 24.2875C35.2359 28.7022 39.4586 32.6161 44.8191 31.8008C47.1845 31.441 49.083 30.2623 50.501 28.3591C51.4072 27.1434 51.9591 25.789 52.101 24.2839C52.0666 24.2733 52.0409 24.2645 52.0207 24.2576C51.9863 24.2459 51.9682 24.2397 51.9506 24.2397C51.7649 24.2387 51.5792 24.2371 51.3936 24.2354H51.3934C50.8829 24.2309 50.3723 24.2264 49.8617 24.2361L49.8214 24.2369C49.2517 24.2477 48.6901 24.2584 48.286 23.6336C48.1517 23.774 48.0243 23.9093 47.9009 24.0405L47.9003 24.0411L47.9003 24.0412C47.6403 24.3174 47.3977 24.5751 47.1445 24.823C46.5586 25.3945 45.9351 25.3359 45.4668 24.6748C45.2999 24.4389 45.1374 24.1998 44.9653 23.9466L44.9652 23.9465L44.9652 23.9464L44.9636 23.9442C44.8799 23.8209 44.7938 23.6943 44.7038 23.5631C44.6802 23.6247 44.6592 23.6779 44.6402 23.7258L44.6401 23.7261C44.6083 23.8064 44.5822 23.8723 44.5595 23.9396C44.4253 24.3318 44.2921 24.7241 44.159 25.1164L44.1587 25.1171L44.1586 25.1175L44.1584 25.1179C43.9041 25.867 43.6499 26.616 43.3889 27.3633C43.2033 27.8953 42.8369 28.1248 42.325 28.0686C41.8871 28.0208 41.6154 27.7303 41.4698 27.1553C41.2447 26.2665 41.0192 25.3781 40.7937 24.4898ZM25.0017 36.6747V38.6148C25.255 38.6148 25.5025 38.6177 25.746 38.6206C26.271 38.6267 26.7772 38.6326 27.281 38.6089C28.5826 38.5467 28.932 38.8958 28.8665 40.1892C28.8405 40.6989 28.847 41.2103 28.8534 41.723C28.8563 41.9523 28.8592 42.1818 28.8592 42.4115H30.8317C30.8317 42.1135 30.8315 41.8196 30.8314 41.5285C30.8311 40.9545 30.8308 40.3914 30.8317 39.8282C30.8329 38.9197 31.1373 38.6172 32.0483 38.616H34.6795V36.6759H34.1955C33.9878 36.6759 33.7803 36.6761 33.5728 36.6762C33.0542 36.6767 32.5358 36.6772 32.0168 36.6747C31.1519 36.6711 30.8353 36.3627 30.8317 35.5235C30.8308 35.3442 30.8311 35.1654 30.8314 34.9865C30.8315 34.897 30.8317 34.8074 30.8317 34.7177V32.8971H28.8592C28.8592 33.1699 28.8596 33.4395 28.86 33.7068C28.861 34.3668 28.862 35.0127 28.8568 35.6585C28.8519 36.3029 28.5014 36.6579 27.8536 36.6711C27.4042 36.6795 26.9543 36.6778 26.5041 36.6761C26.3187 36.6754 26.1333 36.6747 25.9479 36.6747H25.0017Z" fill="url(#paint0_linear_1659_19099)"/>
</g>
<defs>
<linearGradient id="paint0_linear_1659_19099" x1="13.3337" y1="33.3338" x2="52.1024" y2="33.3338" gradientUnits="userSpaceOnUse">
<stop stop-color="#F6D365"/>
<stop offset="1" stop-color="#FDA085"/>
</linearGradient>
<clipPath id="clip0_1659_19099">
<rect width="38.7692" height="37.3333" fill="white" transform="translate(13.3334 14.6667)"/>
</clipPath>
</defs>
</svg>
