<svg width="171" height="75" viewBox="0 0 171 75" fill="none" xmlns="http://www.w3.org/2000/svg">
<circle cx="37.3334" cy="37.3332" r="30.6667" fill="white"/>
<g clip-path="url(#clip0_1691_19571)">
<path d="M52.1615 32.8953L42.0482 22.7806C40.7965 21.5326 39.1011 20.8318 37.3335 20.8318C35.566 20.8318 33.8705 21.5326 32.6188 22.7806L22.5055 32.8953C22.1327 33.2657 21.8372 33.7064 21.636 34.1918C21.4348 34.6773 21.332 35.1978 21.3335 35.7233V48.8126C21.3335 49.8735 21.7549 50.8909 22.5051 51.6411C23.2552 52.3912 24.2726 52.8126 25.3335 52.8126H49.3335C50.3944 52.8126 51.4118 52.3912 52.1619 51.6411C52.9121 50.8909 53.3335 49.8735 53.3335 48.8126V35.7233C53.335 35.1978 53.2322 34.6773 53.031 34.1918C52.8298 33.7064 52.5343 33.2657 52.1615 32.8953ZM41.3335 50.146H33.3335V44.9006C33.3335 43.8398 33.7549 42.8223 34.5051 42.0722C35.2552 41.3221 36.2726 40.9006 37.3335 40.9006C38.3944 40.9006 39.4118 41.3221 40.1619 42.0722C40.9121 42.8223 41.3335 43.8398 41.3335 44.9006V50.146ZM50.6668 48.8126C50.6668 49.1662 50.5264 49.5054 50.2763 49.7554C50.0263 50.0055 49.6871 50.146 49.3335 50.146H44.0002V44.9006C44.0002 43.1325 43.2978 41.4368 42.0476 40.1866C40.7973 38.9363 39.1016 38.234 37.3335 38.234C35.5654 38.234 33.8697 38.9363 32.6195 40.1866C31.3692 41.4368 30.6668 43.1325 30.6668 44.9006V50.146H25.3335C24.9799 50.146 24.6408 50.0055 24.3907 49.7554C24.1407 49.5054 24.0002 49.1662 24.0002 48.8126V35.7233C24.0014 35.3699 24.1418 35.0313 24.3908 34.7806L34.5042 24.67C35.2558 23.9219 36.2731 23.5019 37.3335 23.5019C38.394 23.5019 39.4112 23.9219 40.1628 24.67L50.2762 34.7846C50.5243 35.0343 50.6646 35.3713 50.6668 35.7233V48.8126Z" fill="#707386"/>
</g>
<path d="M81.1704 44.8333C80.8504 44.8333 80.5904 44.7399 80.3904 44.5533C80.2037 44.3533 80.1104 44.1066 80.1104 43.8133V31.8333H82.2504V43.8133C82.2504 44.1066 82.1437 44.3533 81.9304 44.5533C81.7304 44.7399 81.477 44.8333 81.1704 44.8333ZM76.6304 32.7533C76.3504 32.7533 76.1104 32.6666 75.9104 32.4933C75.7104 32.3066 75.6104 32.0666 75.6104 31.7733C75.6104 31.4933 75.7104 31.2666 75.9104 31.0933C76.1104 30.9199 76.3504 30.8333 76.6304 30.8333H85.7304C86.0104 30.8333 86.2437 30.9266 86.4304 31.1133C86.6304 31.2866 86.7304 31.5133 86.7304 31.7933C86.7304 32.0866 86.6304 32.3199 86.4304 32.4933C86.2437 32.6666 86.0104 32.7533 85.7304 32.7533H76.6304ZM88.5818 44.8333C88.2884 44.8333 88.0484 44.7399 87.8618 44.5533C87.6751 44.3533 87.5818 44.1066 87.5818 43.8133V35.3333C87.5818 35.0399 87.6751 34.7999 87.8618 34.6133C88.0484 34.4133 88.2884 34.3133 88.5818 34.3133C88.8618 34.3133 89.0951 34.4133 89.2818 34.6133C89.4818 34.7999 89.5818 35.0399 89.5818 35.3333V37.5733L89.3818 36.7133C89.4884 36.3399 89.6484 35.9933 89.8618 35.6733C90.0884 35.3533 90.3551 35.0733 90.6618 34.8333C90.9684 34.5933 91.3084 34.4066 91.6818 34.2733C92.0684 34.1399 92.4684 34.0733 92.8818 34.0733C93.2284 34.0733 93.5284 34.1666 93.7818 34.3533C94.0351 34.5399 94.1618 34.7733 94.1618 35.0533C94.1618 35.4133 94.0684 35.6799 93.8818 35.8533C93.6951 36.0133 93.4884 36.0933 93.2618 36.0933C93.0618 36.0933 92.8684 36.0533 92.6818 35.9733C92.4951 35.8799 92.2751 35.8333 92.0218 35.8333C91.7418 35.8333 91.4551 35.9066 91.1618 36.0533C90.8684 36.1999 90.6018 36.4199 90.3618 36.7133C90.1218 36.9933 89.9284 37.3266 89.7818 37.7133C89.6484 38.0999 89.5818 38.5333 89.5818 39.0133V43.8133C89.5818 44.1066 89.4818 44.3533 89.2818 44.5533C89.0951 44.7399 88.8618 44.8333 88.5818 44.8333ZM104.327 34.1533C104.62 34.1533 104.86 34.2533 105.047 34.4533C105.233 34.6399 105.327 34.8799 105.327 35.1733V43.8133C105.327 44.1066 105.233 44.3533 105.047 44.5533C104.86 44.7399 104.62 44.8333 104.327 44.8333C104.047 44.8333 103.807 44.7399 103.607 44.5533C103.42 44.3533 103.327 44.1066 103.327 43.8133V42.3733L103.747 42.4333C103.747 42.6733 103.647 42.9399 103.447 43.2333C103.26 43.5266 103 43.8133 102.667 44.0933C102.333 44.3599 101.94 44.5866 101.487 44.7733C101.033 44.9466 100.547 45.0333 100.027 45.0333C99.1068 45.0333 98.2801 44.7999 97.5468 44.3333C96.8134 43.8533 96.2334 43.1999 95.8068 42.3733C95.3801 41.5466 95.1668 40.6066 95.1668 39.5533C95.1668 38.4733 95.3801 37.5266 95.8068 36.7133C96.2334 35.8866 96.8068 35.2399 97.5268 34.7733C98.2601 34.3066 99.0734 34.0733 99.9668 34.0733C100.54 34.0733 101.067 34.1666 101.547 34.3533C102.04 34.5399 102.467 34.7799 102.827 35.0733C103.187 35.3666 103.46 35.6799 103.647 36.0133C103.847 36.3333 103.947 36.6399 103.947 36.9333L103.327 36.9933V35.1733C103.327 34.8933 103.42 34.6533 103.607 34.4533C103.807 34.2533 104.047 34.1533 104.327 34.1533ZM100.247 43.1933C100.873 43.1933 101.427 43.0333 101.907 42.7133C102.387 42.3933 102.76 41.9599 103.027 41.4133C103.293 40.8533 103.427 40.2333 103.427 39.5533C103.427 38.8599 103.293 38.2399 103.027 37.6933C102.76 37.1466 102.387 36.7133 101.907 36.3933C101.427 36.0733 100.873 35.9133 100.247 35.9133C99.6334 35.9133 99.0868 36.0733 98.6068 36.3933C98.1401 36.7133 97.7668 37.1466 97.4868 37.6933C97.2201 38.2399 97.0868 38.8599 97.0868 39.5533C97.0868 40.2333 97.2201 40.8533 97.4868 41.4133C97.7668 41.9599 98.1401 42.3933 98.6068 42.7133C99.0868 43.0333 99.6334 43.1933 100.247 43.1933ZM113.549 34.0733C114.495 34.0733 115.229 34.2733 115.749 34.6733C116.269 35.0599 116.629 35.5866 116.829 36.2533C117.042 36.9066 117.149 37.6399 117.149 38.4533V43.8133C117.149 44.1066 117.049 44.3533 116.849 44.5533C116.662 44.7399 116.429 44.8333 116.149 44.8333C115.855 44.8333 115.615 44.7399 115.429 44.5533C115.242 44.3533 115.149 44.1066 115.149 43.8133V38.4733C115.149 37.9933 115.082 37.5666 114.949 37.1933C114.815 36.8066 114.582 36.4999 114.249 36.2733C113.929 36.0333 113.475 35.9133 112.889 35.9133C112.342 35.9133 111.862 36.0333 111.449 36.2733C111.035 36.4999 110.709 36.8066 110.469 37.1933C110.242 37.5666 110.129 37.9933 110.129 38.4733V43.8133C110.129 44.1066 110.029 44.3533 109.829 44.5533C109.642 44.7399 109.409 44.8333 109.129 44.8333C108.835 44.8333 108.595 44.7399 108.409 44.5533C108.222 44.3533 108.129 44.1066 108.129 43.8133V35.3333C108.129 35.0399 108.222 34.7999 108.409 34.6133C108.595 34.4133 108.835 34.3133 109.129 34.3133C109.409 34.3133 109.642 34.4133 109.829 34.6133C110.029 34.7999 110.129 35.0399 110.129 35.3333V36.4533L109.769 36.6533C109.862 36.3599 110.022 36.0666 110.249 35.7733C110.489 35.4666 110.775 35.1866 111.109 34.9333C111.442 34.6666 111.815 34.4599 112.229 34.3133C112.642 34.1533 113.082 34.0733 113.549 34.0733ZM124.306 34.0733C124.879 34.0733 125.406 34.1666 125.886 34.3533C126.366 34.5399 126.779 34.7799 127.126 35.0733C127.486 35.3533 127.766 35.6466 127.966 35.9533C128.166 36.2599 128.266 36.5266 128.266 36.7533L127.806 36.7733V35.1733C127.806 34.8933 127.899 34.6533 128.086 34.4533C128.272 34.2533 128.512 34.1533 128.806 34.1533C129.099 34.1533 129.339 34.2533 129.526 34.4533C129.712 34.6399 129.806 34.8799 129.806 35.1733V43.9933C129.806 45.1266 129.566 46.0466 129.086 46.7533C128.606 47.4733 127.966 47.9999 127.166 48.3333C126.379 48.6666 125.512 48.8333 124.566 48.8333C124.232 48.8333 123.839 48.7866 123.386 48.6933C122.932 48.6133 122.512 48.5133 122.126 48.3933C121.752 48.2733 121.492 48.1533 121.346 48.0333C121.039 47.8733 120.832 47.6866 120.726 47.4733C120.632 47.2599 120.632 47.0466 120.726 46.8333C120.859 46.5399 121.039 46.3599 121.266 46.2933C121.492 46.2266 121.752 46.2466 122.046 46.3533C122.179 46.3933 122.386 46.4666 122.666 46.5733C122.946 46.6799 123.259 46.7733 123.606 46.8533C123.952 46.9466 124.279 46.9933 124.586 46.9933C125.652 46.9933 126.452 46.7466 126.986 46.2533C127.532 45.7599 127.806 45.0866 127.806 44.2333V42.4333L128.026 42.5733C127.986 42.8533 127.859 43.1399 127.646 43.4333C127.446 43.7133 127.179 43.9733 126.846 44.2133C126.512 44.4533 126.126 44.6533 125.686 44.8133C125.259 44.9599 124.819 45.0333 124.366 45.0333C123.419 45.0333 122.572 44.7999 121.826 44.3333C121.079 43.8533 120.486 43.2066 120.046 42.3933C119.606 41.5666 119.386 40.6199 119.386 39.5533C119.386 38.4866 119.606 37.5466 120.046 36.7333C120.486 35.9066 121.072 35.2599 121.806 34.7933C122.552 34.3133 123.386 34.0733 124.306 34.0733ZM124.606 35.9133C123.952 35.9133 123.379 36.0733 122.886 36.3933C122.392 36.7133 122.006 37.1466 121.726 37.6933C121.446 38.2399 121.306 38.8599 121.306 39.5533C121.306 40.2466 121.446 40.8666 121.726 41.4133C122.006 41.9599 122.392 42.3933 122.886 42.7133C123.379 43.0333 123.952 43.1933 124.606 43.1933C125.259 43.1933 125.832 43.0399 126.326 42.7333C126.819 42.4133 127.206 41.9799 127.486 41.4333C127.766 40.8733 127.906 40.2466 127.906 39.5533C127.906 38.8599 127.766 38.2399 127.486 37.6933C127.206 37.1333 126.819 36.6999 126.326 36.3933C125.832 36.0733 125.259 35.9133 124.606 35.9133ZM142.808 34.0733C143.528 34.0733 144.168 34.1533 144.728 34.3133C145.288 34.4599 145.722 34.6733 146.028 34.9533C146.348 35.2199 146.508 35.5333 146.508 35.8933C146.508 36.1199 146.442 36.3333 146.308 36.5333C146.175 36.7199 145.975 36.8133 145.708 36.8133C145.522 36.8133 145.362 36.7799 145.228 36.7133C145.108 36.6466 144.995 36.5666 144.888 36.4733C144.782 36.3799 144.648 36.2866 144.488 36.1933C144.342 36.1133 144.122 36.0466 143.828 35.9933C143.548 35.9399 143.295 35.9133 143.068 35.9133C142.362 35.9133 141.748 36.0733 141.228 36.3933C140.722 36.7133 140.322 37.1466 140.028 37.6933C139.748 38.2399 139.608 38.8599 139.608 39.5533C139.608 40.2466 139.748 40.8666 140.028 41.4133C140.322 41.9599 140.715 42.3933 141.208 42.7133C141.715 43.0333 142.302 43.1933 142.968 43.1933C143.368 43.1933 143.695 43.1666 143.948 43.1133C144.202 43.0466 144.422 42.9666 144.608 42.8733C144.808 42.7533 144.975 42.6333 145.108 42.5133C145.255 42.3799 145.455 42.3133 145.708 42.3133C146.002 42.3133 146.222 42.4066 146.368 42.5933C146.528 42.7666 146.608 42.9866 146.608 43.2533C146.608 43.5466 146.428 43.8333 146.068 44.1133C145.722 44.3799 145.255 44.5999 144.668 44.7733C144.082 44.9466 143.435 45.0333 142.728 45.0333C141.688 45.0333 140.782 44.7933 140.008 44.3133C139.248 43.8333 138.655 43.1799 138.228 42.3533C137.815 41.5266 137.608 40.5933 137.608 39.5533C137.608 38.4999 137.828 37.5666 138.268 36.7533C138.708 35.9266 139.322 35.2733 140.108 34.7933C140.895 34.3133 141.795 34.0733 142.808 34.0733ZM153.819 34.1333C154.739 34.1333 155.453 34.3333 155.959 34.7333C156.466 35.1199 156.819 35.6466 157.019 36.3133C157.233 36.9799 157.339 37.7133 157.339 38.5133V43.8133C157.339 44.1066 157.239 44.3533 157.039 44.5533C156.853 44.7399 156.619 44.8333 156.339 44.8333C156.046 44.8333 155.806 44.7399 155.619 44.5533C155.433 44.3533 155.339 44.1066 155.339 43.8133V38.5133C155.339 38.0466 155.273 37.6199 155.139 37.2333C155.019 36.8466 154.799 36.5399 154.479 36.3133C154.173 36.0866 153.739 35.9733 153.179 35.9733C152.659 35.9733 152.193 36.0866 151.779 36.3133C151.379 36.5399 151.066 36.8466 150.839 37.2333C150.626 37.6199 150.519 38.0466 150.519 38.5133V43.8133C150.519 44.1066 150.419 44.3533 150.219 44.5533C150.033 44.7399 149.799 44.8333 149.519 44.8333C149.226 44.8333 148.986 44.7399 148.799 44.5533C148.613 44.3533 148.519 44.1066 148.519 43.8133V31.0533C148.519 30.7599 148.613 30.5199 148.799 30.3333C148.986 30.1333 149.226 30.0333 149.519 30.0333C149.799 30.0333 150.033 30.1333 150.219 30.3333C150.419 30.5199 150.519 30.7599 150.519 31.0533V36.5133L150.159 36.7133C150.253 36.4199 150.406 36.1199 150.619 35.8133C150.846 35.5066 151.119 35.2266 151.439 34.9733C151.773 34.7199 152.139 34.5199 152.539 34.3733C152.939 34.2133 153.366 34.1333 153.819 34.1333ZM167.961 34.3133C168.241 34.3133 168.474 34.4133 168.661 34.6133C168.861 34.7999 168.961 35.0399 168.961 35.3333V40.5933C168.961 41.9799 168.574 43.0666 167.801 43.8533C167.027 44.6266 165.934 45.0133 164.521 45.0133C163.121 45.0133 162.034 44.6266 161.261 43.8533C160.501 43.0666 160.121 41.9799 160.121 40.5933V35.3333C160.121 35.0399 160.214 34.7999 160.401 34.6133C160.587 34.4133 160.827 34.3133 161.121 34.3133C161.401 34.3133 161.634 34.4133 161.821 34.6133C162.021 34.7999 162.121 35.0399 162.121 35.3333V40.5933C162.121 41.4599 162.321 42.1066 162.721 42.5333C163.134 42.9599 163.734 43.1733 164.521 43.1733C165.321 43.1733 165.927 42.9599 166.341 42.5333C166.754 42.1066 166.961 41.4599 166.961 40.5933V35.3333C166.961 35.0399 167.054 34.7999 167.241 34.6133C167.427 34.4133 167.667 34.3133 167.961 34.3133ZM162.741 30.2133C162.954 30.0399 163.181 29.8999 163.421 29.7933C163.661 29.6866 163.954 29.6333 164.301 29.6333C164.807 29.6333 165.201 29.7199 165.481 29.8933C165.761 30.0666 165.947 30.2866 166.041 30.5533C166.147 30.8066 166.201 31.0466 166.201 31.2733C166.201 31.4999 166.161 31.6999 166.081 31.8733C166.001 32.0333 165.887 32.2066 165.741 32.3933C165.621 32.5266 165.521 32.6466 165.441 32.7533C165.374 32.8599 165.334 32.9733 165.321 33.0933C165.321 33.2266 165.261 33.3399 165.141 33.4333C165.034 33.5266 164.901 33.5733 164.741 33.5733C164.581 33.5733 164.441 33.5266 164.321 33.4333C164.201 33.3399 164.141 33.2199 164.141 33.0733C164.141 32.9533 164.167 32.8266 164.221 32.6933C164.274 32.5599 164.354 32.4266 164.461 32.2933C164.581 32.1333 164.694 31.9799 164.801 31.8333C164.907 31.6866 164.961 31.5466 164.961 31.4133C164.961 31.2399 164.887 31.1066 164.741 31.0133C164.607 30.9066 164.447 30.8533 164.261 30.8533C164.087 30.8533 163.927 30.8933 163.781 30.9733C163.647 31.0399 163.521 31.1199 163.401 31.2133C163.294 31.2799 163.174 31.3199 163.041 31.3333C162.907 31.3333 162.767 31.2599 162.621 31.1133C162.474 30.9533 162.427 30.7933 162.481 30.6333C162.534 30.4599 162.621 30.3199 162.741 30.2133Z" fill="#707386"/>
<defs>
<clipPath id="clip0_1691_19571">
<rect width="32" height="32" fill="white" transform="translate(21.3335 20.8032)"/>
</clipPath>
</defs>
</svg>
