<svg width="75" height="75" viewBox="0 0 75 75" fill="none" xmlns="http://www.w3.org/2000/svg">
<circle cx="37.3339" cy="37.4998" r="30.6667" fill="white"/>
<g clip-path="url(#clip0_2384_383)">
<path d="M37.334 40.9599C35.1249 40.9599 33.334 42.7508 33.334 44.9599V52.9599H41.334V44.9599C41.334 42.7508 39.5431 40.9599 37.334 40.9599Z" fill="#78B7EE"/>
<path d="M44.0007 44.9599V52.9599H49.334C51.5431 52.9599 53.334 51.169 53.334 48.9599V36.7986C53.3343 36.1059 53.0651 35.4403 52.5833 34.9426L41.2527 22.6932C39.2534 20.5301 35.8792 20.3973 33.716 22.3965C33.6133 22.4915 33.5143 22.5905 33.4194 22.6932L22.1087 34.9386C21.6123 35.4384 21.3338 36.1142 21.334 36.8186V48.9599C21.334 51.169 23.1249 52.9599 25.334 52.9599H30.6673V44.9599C30.6922 41.3242 33.6277 38.3552 37.1719 38.2697C40.8346 38.1813 43.9727 41.2009 44.0007 44.9599Z" fill="#78B7EE"/>
<path d="M37.334 40.9599C35.1249 40.9599 33.334 42.7508 33.334 44.9599V52.9599H41.334V44.9599C41.334 42.7508 39.5431 40.9599 37.334 40.9599Z" fill="#78B7EE"/>
</g>
<defs>
<clipPath id="clip0_2384_383">
<rect width="32" height="32" fill="white" transform="translate(21.334 20.9698)"/>
</clipPath>
</defs>
</svg>
