<svg width="171" height="75" viewBox="0 0 171 75" fill="none" xmlns="http://www.w3.org/2000/svg">
<circle cx="37.3339" cy="37.4999" r="30.6667" fill="white"/>
<g clip-path="url(#clip0_1691_19584)">
<path d="M37.334 40.96C35.1249 40.96 33.334 42.7508 33.334 44.96V52.96H41.334V44.96C41.334 42.7508 39.5431 40.96 37.334 40.96Z" fill="#78B7EE"/>
<path d="M44.0007 44.9601V52.9601H49.334C51.5431 52.9601 53.334 51.1692 53.334 48.9601V36.7987C53.3343 36.1061 53.0651 35.4404 52.5833 34.9427L41.2527 22.6934C39.2534 20.5302 35.8792 20.3974 33.716 22.3967C33.6133 22.4917 33.5143 22.5906 33.4194 22.6934L22.1087 34.9387C21.6123 35.4385 21.3338 36.1144 21.334 36.8187V48.9601C21.334 51.1692 23.1249 52.9601 25.334 52.9601H30.6673V44.9601C30.6922 41.3243 33.6277 38.3553 37.1719 38.2698C40.8346 38.1814 43.9727 41.201 44.0007 44.9601Z" fill="#78B7EE"/>
<path d="M37.334 40.96C35.1249 40.96 33.334 42.7508 33.334 44.96V52.96H41.334V44.96C41.334 42.7508 39.5431 40.96 37.334 40.96Z" fill="#78B7EE"/>
</g>
<path d="M81.1708 45C80.8508 45 80.5908 44.9067 80.3908 44.72C80.2042 44.52 80.1108 44.2733 80.1108 43.98V32H82.2508V43.98C82.2508 44.2733 82.1442 44.52 81.9308 44.72C81.7308 44.9067 81.4775 45 81.1708 45ZM76.6308 32.92C76.3508 32.92 76.1108 32.8333 75.9108 32.66C75.7108 32.4733 75.6108 32.2333 75.6108 31.94C75.6108 31.66 75.7108 31.4333 75.9108 31.26C76.1108 31.0867 76.3508 31 76.6308 31H85.7308C86.0108 31 86.2442 31.0933 86.4308 31.28C86.6308 31.4533 86.7308 31.68 86.7308 31.96C86.7308 32.2533 86.6308 32.4867 86.4308 32.66C86.2442 32.8333 86.0108 32.92 85.7308 32.92H76.6308ZM88.5823 45C88.2889 45 88.0489 44.9067 87.8623 44.72C87.6756 44.52 87.5823 44.2733 87.5823 43.98V35.5C87.5823 35.2067 87.6756 34.9667 87.8623 34.78C88.0489 34.58 88.2889 34.48 88.5823 34.48C88.8623 34.48 89.0956 34.58 89.2823 34.78C89.4823 34.9667 89.5823 35.2067 89.5823 35.5V37.74L89.3823 36.88C89.4889 36.5067 89.6489 36.16 89.8623 35.84C90.0889 35.52 90.3556 35.24 90.6623 35C90.9689 34.76 91.3089 34.5733 91.6823 34.44C92.0689 34.3067 92.4689 34.24 92.8823 34.24C93.2289 34.24 93.5289 34.3333 93.7823 34.52C94.0356 34.7067 94.1623 34.94 94.1623 35.22C94.1623 35.58 94.0689 35.8467 93.8823 36.02C93.6956 36.18 93.4889 36.26 93.2623 36.26C93.0623 36.26 92.8689 36.22 92.6823 36.14C92.4956 36.0467 92.2756 36 92.0223 36C91.7423 36 91.4556 36.0733 91.1623 36.22C90.8689 36.3667 90.6023 36.5867 90.3623 36.88C90.1223 37.16 89.9289 37.4933 89.7823 37.88C89.6489 38.2667 89.5823 38.7 89.5823 39.18V43.98C89.5823 44.2733 89.4823 44.52 89.2823 44.72C89.0956 44.9067 88.8623 45 88.5823 45ZM104.327 34.32C104.621 34.32 104.861 34.42 105.047 34.62C105.234 34.8067 105.327 35.0467 105.327 35.34V43.98C105.327 44.2733 105.234 44.52 105.047 44.72C104.861 44.9067 104.621 45 104.327 45C104.047 45 103.807 44.9067 103.607 44.72C103.421 44.52 103.327 44.2733 103.327 43.98V42.54L103.747 42.6C103.747 42.84 103.647 43.1067 103.447 43.4C103.261 43.6933 103.001 43.98 102.667 44.26C102.334 44.5267 101.941 44.7533 101.487 44.94C101.034 45.1133 100.547 45.2 100.027 45.2C99.1073 45.2 98.2806 44.9667 97.5473 44.5C96.8139 44.02 96.2339 43.3667 95.8073 42.54C95.3806 41.7133 95.1673 40.7733 95.1673 39.72C95.1673 38.64 95.3806 37.6933 95.8073 36.88C96.2339 36.0533 96.8073 35.4067 97.5273 34.94C98.2606 34.4733 99.0739 34.24 99.9673 34.24C100.541 34.24 101.067 34.3333 101.547 34.52C102.041 34.7067 102.467 34.9467 102.827 35.24C103.187 35.5333 103.461 35.8467 103.647 36.18C103.847 36.5 103.947 36.8067 103.947 37.1L103.327 37.16V35.34C103.327 35.06 103.421 34.82 103.607 34.62C103.807 34.42 104.047 34.32 104.327 34.32ZM100.247 43.36C100.874 43.36 101.427 43.2 101.907 42.88C102.387 42.56 102.761 42.1267 103.027 41.58C103.294 41.02 103.427 40.4 103.427 39.72C103.427 39.0267 103.294 38.4067 103.027 37.86C102.761 37.3133 102.387 36.88 101.907 36.56C101.427 36.24 100.874 36.08 100.247 36.08C99.6339 36.08 99.0873 36.24 98.6073 36.56C98.1406 36.88 97.7673 37.3133 97.4873 37.86C97.2206 38.4067 97.0873 39.0267 97.0873 39.72C97.0873 40.4 97.2206 41.02 97.4873 41.58C97.7673 42.1267 98.1406 42.56 98.6073 42.88C99.0873 43.2 99.6339 43.36 100.247 43.36ZM113.549 34.24C114.496 34.24 115.229 34.44 115.749 34.84C116.269 35.2267 116.629 35.7533 116.829 36.42C117.042 37.0733 117.149 37.8067 117.149 38.62V43.98C117.149 44.2733 117.049 44.52 116.849 44.72C116.662 44.9067 116.429 45 116.149 45C115.856 45 115.616 44.9067 115.429 44.72C115.242 44.52 115.149 44.2733 115.149 43.98V38.64C115.149 38.16 115.082 37.7333 114.949 37.36C114.816 36.9733 114.582 36.6667 114.249 36.44C113.929 36.2 113.476 36.08 112.889 36.08C112.342 36.08 111.862 36.2 111.449 36.44C111.036 36.6667 110.709 36.9733 110.469 37.36C110.242 37.7333 110.129 38.16 110.129 38.64V43.98C110.129 44.2733 110.029 44.52 109.829 44.72C109.642 44.9067 109.409 45 109.129 45C108.836 45 108.596 44.9067 108.409 44.72C108.222 44.52 108.129 44.2733 108.129 43.98V35.5C108.129 35.2067 108.222 34.9667 108.409 34.78C108.596 34.58 108.836 34.48 109.129 34.48C109.409 34.48 109.642 34.58 109.829 34.78C110.029 34.9667 110.129 35.2067 110.129 35.5V36.62L109.769 36.82C109.862 36.5267 110.022 36.2333 110.249 35.94C110.489 35.6333 110.776 35.3533 111.109 35.1C111.442 34.8333 111.816 34.6267 112.229 34.48C112.642 34.32 113.082 34.24 113.549 34.24ZM124.306 34.24C124.879 34.24 125.406 34.3333 125.886 34.52C126.366 34.7067 126.779 34.9467 127.126 35.24C127.486 35.52 127.766 35.8133 127.966 36.12C128.166 36.4267 128.266 36.6933 128.266 36.92L127.806 36.94V35.34C127.806 35.06 127.899 34.82 128.086 34.62C128.273 34.42 128.513 34.32 128.806 34.32C129.099 34.32 129.339 34.42 129.526 34.62C129.713 34.8067 129.806 35.0467 129.806 35.34V44.16C129.806 45.2933 129.566 46.2133 129.086 46.92C128.606 47.64 127.966 48.1667 127.166 48.5C126.379 48.8333 125.513 49 124.566 49C124.233 49 123.839 48.9533 123.386 48.86C122.933 48.78 122.513 48.68 122.126 48.56C121.753 48.44 121.493 48.32 121.346 48.2C121.039 48.04 120.833 47.8533 120.726 47.64C120.633 47.4267 120.633 47.2133 120.726 47C120.859 46.7067 121.039 46.5267 121.266 46.46C121.493 46.3933 121.753 46.4133 122.046 46.52C122.179 46.56 122.386 46.6333 122.666 46.74C122.946 46.8467 123.259 46.94 123.606 47.02C123.953 47.1133 124.279 47.16 124.586 47.16C125.653 47.16 126.453 46.9133 126.986 46.42C127.533 45.9267 127.806 45.2533 127.806 44.4V42.6L128.026 42.74C127.986 43.02 127.859 43.3067 127.646 43.6C127.446 43.88 127.179 44.14 126.846 44.38C126.513 44.62 126.126 44.82 125.686 44.98C125.259 45.1267 124.819 45.2 124.366 45.2C123.419 45.2 122.573 44.9667 121.826 44.5C121.079 44.02 120.486 43.3733 120.046 42.56C119.606 41.7333 119.386 40.7867 119.386 39.72C119.386 38.6533 119.606 37.7133 120.046 36.9C120.486 36.0733 121.073 35.4267 121.806 34.96C122.553 34.48 123.386 34.24 124.306 34.24ZM124.606 36.08C123.953 36.08 123.379 36.24 122.886 36.56C122.393 36.88 122.006 37.3133 121.726 37.86C121.446 38.4067 121.306 39.0267 121.306 39.72C121.306 40.4133 121.446 41.0333 121.726 41.58C122.006 42.1267 122.393 42.56 122.886 42.88C123.379 43.2 123.953 43.36 124.606 43.36C125.259 43.36 125.833 43.2067 126.326 42.9C126.819 42.58 127.206 42.1467 127.486 41.6C127.766 41.04 127.906 40.4133 127.906 39.72C127.906 39.0267 127.766 38.4067 127.486 37.86C127.206 37.3 126.819 36.8667 126.326 36.56C125.833 36.24 125.259 36.08 124.606 36.08ZM142.809 34.24C143.529 34.24 144.169 34.32 144.729 34.48C145.289 34.6267 145.722 34.84 146.029 35.12C146.349 35.3867 146.509 35.7 146.509 36.06C146.509 36.2867 146.442 36.5 146.309 36.7C146.175 36.8867 145.975 36.98 145.709 36.98C145.522 36.98 145.362 36.9467 145.229 36.88C145.109 36.8133 144.995 36.7333 144.889 36.64C144.782 36.5467 144.649 36.4533 144.489 36.36C144.342 36.28 144.122 36.2133 143.829 36.16C143.549 36.1067 143.295 36.08 143.069 36.08C142.362 36.08 141.749 36.24 141.229 36.56C140.722 36.88 140.322 37.3133 140.029 37.86C139.749 38.4067 139.609 39.0267 139.609 39.72C139.609 40.4133 139.749 41.0333 140.029 41.58C140.322 42.1267 140.715 42.56 141.209 42.88C141.715 43.2 142.302 43.36 142.969 43.36C143.369 43.36 143.695 43.3333 143.949 43.28C144.202 43.2133 144.422 43.1333 144.609 43.04C144.809 42.92 144.975 42.8 145.109 42.68C145.255 42.5467 145.455 42.48 145.709 42.48C146.002 42.48 146.222 42.5733 146.369 42.76C146.529 42.9333 146.609 43.1533 146.609 43.42C146.609 43.7133 146.429 44 146.069 44.28C145.722 44.5467 145.255 44.7667 144.669 44.94C144.082 45.1133 143.435 45.2 142.729 45.2C141.689 45.2 140.782 44.96 140.009 44.48C139.249 44 138.655 43.3467 138.229 42.52C137.815 41.6933 137.609 40.76 137.609 39.72C137.609 38.6667 137.829 37.7333 138.269 36.92C138.709 36.0933 139.322 35.44 140.109 34.96C140.895 34.48 141.795 34.24 142.809 34.24ZM153.82 34.3C154.74 34.3 155.453 34.5 155.96 34.9C156.466 35.2867 156.82 35.8133 157.02 36.48C157.233 37.1467 157.34 37.88 157.34 38.68V43.98C157.34 44.2733 157.24 44.52 157.04 44.72C156.853 44.9067 156.62 45 156.34 45C156.046 45 155.806 44.9067 155.62 44.72C155.433 44.52 155.34 44.2733 155.34 43.98V38.68C155.34 38.2133 155.273 37.7867 155.14 37.4C155.02 37.0133 154.8 36.7067 154.48 36.48C154.173 36.2533 153.74 36.14 153.18 36.14C152.66 36.14 152.193 36.2533 151.78 36.48C151.38 36.7067 151.066 37.0133 150.84 37.4C150.626 37.7867 150.52 38.2133 150.52 38.68V43.98C150.52 44.2733 150.42 44.52 150.22 44.72C150.033 44.9067 149.8 45 149.52 45C149.226 45 148.986 44.9067 148.8 44.72C148.613 44.52 148.52 44.2733 148.52 43.98V31.22C148.52 30.9267 148.613 30.6867 148.8 30.5C148.986 30.3 149.226 30.2 149.52 30.2C149.8 30.2 150.033 30.3 150.22 30.5C150.42 30.6867 150.52 30.9267 150.52 31.22V36.68L150.16 36.88C150.253 36.5867 150.406 36.2867 150.62 35.98C150.846 35.6733 151.12 35.3933 151.44 35.14C151.773 34.8867 152.14 34.6867 152.54 34.54C152.94 34.38 153.366 34.3 153.82 34.3ZM167.961 34.48C168.241 34.48 168.475 34.58 168.661 34.78C168.861 34.9667 168.961 35.2067 168.961 35.5V40.76C168.961 42.1467 168.575 43.2333 167.801 44.02C167.028 44.7933 165.935 45.18 164.521 45.18C163.121 45.18 162.035 44.7933 161.261 44.02C160.501 43.2333 160.121 42.1467 160.121 40.76V35.5C160.121 35.2067 160.215 34.9667 160.401 34.78C160.588 34.58 160.828 34.48 161.121 34.48C161.401 34.48 161.635 34.58 161.821 34.78C162.021 34.9667 162.121 35.2067 162.121 35.5V40.76C162.121 41.6267 162.321 42.2733 162.721 42.7C163.135 43.1267 163.735 43.34 164.521 43.34C165.321 43.34 165.928 43.1267 166.341 42.7C166.755 42.2733 166.961 41.6267 166.961 40.76V35.5C166.961 35.2067 167.055 34.9667 167.241 34.78C167.428 34.58 167.668 34.48 167.961 34.48ZM162.741 30.38C162.955 30.2067 163.181 30.0667 163.421 29.96C163.661 29.8533 163.955 29.8 164.301 29.8C164.808 29.8 165.201 29.8867 165.481 30.06C165.761 30.2333 165.948 30.4533 166.041 30.72C166.148 30.9733 166.201 31.2133 166.201 31.44C166.201 31.6667 166.161 31.8667 166.081 32.04C166.001 32.2 165.888 32.3733 165.741 32.56C165.621 32.6933 165.521 32.8133 165.441 32.92C165.375 33.0267 165.335 33.14 165.321 33.26C165.321 33.3933 165.261 33.5067 165.141 33.6C165.035 33.6933 164.901 33.74 164.741 33.74C164.581 33.74 164.441 33.6933 164.321 33.6C164.201 33.5067 164.141 33.3867 164.141 33.24C164.141 33.12 164.168 32.9933 164.221 32.86C164.275 32.7267 164.355 32.5933 164.461 32.46C164.581 32.3 164.695 32.1467 164.801 32C164.908 31.8533 164.961 31.7133 164.961 31.58C164.961 31.4067 164.888 31.2733 164.741 31.18C164.608 31.0733 164.448 31.02 164.261 31.02C164.088 31.02 163.928 31.06 163.781 31.14C163.648 31.2067 163.521 31.2867 163.401 31.38C163.295 31.4467 163.175 31.4867 163.041 31.5C162.908 31.5 162.768 31.4267 162.621 31.28C162.475 31.12 162.428 30.96 162.481 30.8C162.535 30.6267 162.621 30.4867 162.741 30.38Z" fill="#78B7EE"/>
<defs>
<clipPath id="clip0_1691_19584">
<rect width="32" height="32" fill="white" transform="translate(21.334 20.97)"/>
</clipPath>
</defs>
</svg>
