<svg width="75" height="75" viewBox="0 0 75 75" fill="none" xmlns="http://www.w3.org/2000/svg">
<circle cx="37.3334" cy="37.3332" r="30.6667" fill="white"/>
<g clip-path="url(#clip0_1691_19528)">
<path d="M52.1615 32.8953L42.0482 22.7806C40.7965 21.5326 39.1011 20.8318 37.3335 20.8318C35.566 20.8318 33.8705 21.5326 32.6188 22.7806L22.5055 32.8953C22.1327 33.2657 21.8372 33.7064 21.636 34.1918C21.4348 34.6773 21.332 35.1978 21.3335 35.7233V48.8126C21.3335 49.8735 21.7549 50.8909 22.5051 51.6411C23.2552 52.3912 24.2726 52.8126 25.3335 52.8126H49.3335C50.3944 52.8126 51.4118 52.3912 52.1619 51.6411C52.9121 50.8909 53.3335 49.8735 53.3335 48.8126V35.7233C53.335 35.1978 53.2322 34.6773 53.031 34.1918C52.8298 33.7064 52.5343 33.2657 52.1615 32.8953ZM41.3335 50.146H33.3335V44.9006C33.3335 43.8398 33.7549 42.8223 34.5051 42.0722C35.2552 41.3221 36.2726 40.9006 37.3335 40.9006C38.3944 40.9006 39.4118 41.3221 40.1619 42.0722C40.9121 42.8223 41.3335 43.8398 41.3335 44.9006V50.146ZM50.6668 48.8126C50.6668 49.1662 50.5264 49.5054 50.2763 49.7554C50.0263 50.0055 49.6871 50.146 49.3335 50.146H44.0002V44.9006C44.0002 43.1325 43.2978 41.4368 42.0476 40.1866C40.7973 38.9363 39.1016 38.234 37.3335 38.234C35.5654 38.234 33.8697 38.9363 32.6195 40.1866C31.3692 41.4368 30.6668 43.1325 30.6668 44.9006V50.146H25.3335C24.9799 50.146 24.6408 50.0055 24.3907 49.7554C24.1407 49.5054 24.0002 49.1662 24.0002 48.8126V35.7233C24.0014 35.3699 24.1418 35.0313 24.3908 34.7806L34.5042 24.67C35.2558 23.9219 36.2731 23.5019 37.3335 23.5019C38.394 23.5019 39.4112 23.9219 40.1628 24.67L50.2762 34.7846C50.5243 35.0343 50.6646 35.3713 50.6668 35.7233V48.8126Z" fill="#707386"/>
</g>
<defs>
<clipPath id="clip0_1691_19528">
<rect width="32" height="32" fill="white" transform="translate(21.3335 20.8032)"/>
</clipPath>
</defs>
</svg>
