<svg width="25" height="25" viewBox="0 0 25 25" fill="none" xmlns="http://www.w3.org/2000/svg">
<path d="M8.8444 25H3.1556C1.41219 25 0 23.5878 0 21.8444V16.1556C0 14.4122 1.41219 13 3.1556 13H8.8444C10.5878 13 12 14.4122 12 16.1556V21.8444C12 23.5878 10.5842 25 8.8444 25Z" fill="url(#paint0_linear_1760_20178)"/>
<path d="M21.8444 25H16.1556C14.4122 25 13 23.5878 13 21.8444V16.1556C13 14.4122 14.4122 13 16.1556 13H21.8444C23.5878 13 25 14.4122 25 16.1556V21.8444C25 23.5878 23.5842 25 21.8444 25Z" fill="#89B05F"/>
<path d="M8.8444 12H3.1556C1.41219 12 0 10.5878 0 8.8444V3.1556C0 1.41219 1.41219 0 3.1556 0H8.8444C10.5878 0 12 1.41219 12 3.1556V8.8444C12 10.5878 10.5878 12 8.8444 12Z" fill="#89B05F"/>
<path d="M21.8444 0H16.1556C14.4122 0 13 1.41219 13 3.1556V8.8444C13 10.5878 14.4122 12 16.1556 12H21.8444C23.5878 12 25 10.5878 25 8.8444V3.1556C25 1.41219 23.5878 0 21.8444 0ZM23.4459 5.69609C23.4459 6.21656 23.0237 6.63512 22.5068 6.63512C21.99 6.63512 21.5678 6.21292 21.5678 5.69609V4.70246C21.5678 3.99272 20.9891 3.41401 20.2793 3.41401H19.2857C18.7652 3.41401 18.3467 2.99181 18.3467 2.47498C18.3467 1.95814 18.7689 1.53594 19.2857 1.53594H20.2793C22.0264 1.53594 23.4459 2.95541 23.4459 4.70246V5.69609Z" fill="url(#paint1_linear_1760_20178)"/>
<defs>
<linearGradient id="paint0_linear_1760_20178" x1="0.06" y1="19.0232" x2="12.0972" y2="19.0232" gradientUnits="userSpaceOnUse">
<stop stop-color="#F6D365"/>
<stop offset="1" stop-color="#FDA085"/>
</linearGradient>
<linearGradient id="paint1_linear_1760_20178" x1="13.06" y1="6.02317" x2="25.0972" y2="6.02317" gradientUnits="userSpaceOnUse">
<stop stop-color="#F6D365"/>
<stop offset="1" stop-color="#FDA085"/>
</linearGradient>
</defs>
</svg>
