<svg width="67" height="66" viewBox="0 0 67 66" fill="none" xmlns="http://www.w3.org/2000/svg">
<rect x="0.93335" y="0.166534" width="65.3333" height="65.3333" rx="17.3333" fill="white"/>
<g clip-path="url(#clip0_1659_19321)">
<path d="M43.7474 41.0845C44.2191 41.5608 44.6884 42.0328 45.1559 42.5066C45.5057 42.8615 45.8873 43.1517 46.32 43.4176C47.2373 43.9817 48.0918 44.6598 48.9426 45.3298C49.6338 45.874 50.2896 46.4661 50.9478 47.052C52.1698 48.1398 52.2125 50.1118 51.0496 51.2998C49.8861 52.4891 47.94 52.4598 46.899 51.1846C45.7812 49.816 44.7073 48.4088 43.6346 47.0022C43.4274 46.7301 43.3159 46.3827 43.1544 46.0732C43.1074 45.9836 43.0507 45.8951 42.9813 45.8242C42.4023 45.227 41.8098 44.6436 41.2424 44.0353C41.0632 43.8435 40.9553 43.9039 40.7908 44.0303C38.7179 45.6237 36.4074 46.6679 33.8427 47.0801C29.2508 47.8173 25.0801 46.7613 21.4147 43.8404C18.1631 41.2495 16.2054 37.828 15.5216 33.6717C14.1996 25.6351 19.0932 17.7304 26.7611 15.4814C34.5814 13.1882 42.799 17.1371 45.8678 24.8213C48.1088 30.4327 47.4006 35.7838 43.9833 40.7489C43.9138 40.8497 43.8425 40.9494 43.7474 41.0845ZM43.2671 31.0703C43.2921 24.3113 37.9043 18.7784 31.2615 18.7423C24.6706 18.7062 19.2242 24.2073 19.1462 30.8754C19.0676 37.587 24.3164 43.346 31.1335 43.3852C37.8519 43.4232 43.2421 37.9332 43.2671 31.0703Z" fill="url(#paint0_linear_1659_19321)"/>
<path d="M31.2298 24.6544C33.6872 24.6544 36.1446 24.6544 38.6021 24.6544C39.4133 24.6544 39.9551 25.1525 40.4397 25.7235C40.6548 25.9769 40.5969 26.3106 40.5305 26.6207C40.2684 27.833 39.5718 28.7564 38.6508 29.5186C37.2947 30.6412 35.7186 31.2832 34.023 31.6119C31.3011 32.1399 28.6273 31.9693 26.0449 30.8809C24.7028 30.3149 23.5119 29.5235 22.6385 28.3044C22.2429 27.7527 21.9851 27.1394 21.8638 26.4644C21.8005 26.1101 21.8626 25.7988 22.1168 25.5491C22.6787 24.9974 23.2833 24.622 24.1323 24.6388C26.4971 24.6849 28.8638 24.655 31.2298 24.6544Z" fill="url(#paint1_linear_1659_19321)"/>
<path d="M21.3773 29.3063C21.4724 29.3804 21.5352 29.4122 21.5754 29.4626C22.8541 31.0728 24.5332 32.061 26.4318 32.688C27.115 32.9134 27.822 33.0684 28.5254 33.2204C28.7521 33.2696 28.7862 33.3586 28.7929 33.5653C28.8063 33.9862 28.788 34.4265 28.9045 34.8212C29.094 35.4657 29.5932 35.8206 30.2447 35.8617C30.8822 35.9022 31.5246 35.8891 32.1634 35.8667C32.9142 35.8399 33.5487 35.2216 33.6182 34.4501C33.6523 34.0709 33.6243 33.6855 33.6243 33.2826C36.5199 32.7714 39.0932 31.7017 41.0344 29.2553C41.0655 29.4396 41.0923 29.5236 41.0923 29.6083C41.0917 31.424 41.1081 33.2397 41.0777 35.0547C41.0539 36.4787 40.0202 37.4831 38.633 37.4837C33.6767 37.4862 28.7198 37.4868 23.7635 37.4837C22.4019 37.4831 21.3621 36.4576 21.345 35.0609C21.3225 33.2453 21.3383 31.429 21.3396 29.6133C21.3396 29.5268 21.3603 29.4402 21.3773 29.3063Z" fill="url(#paint2_linear_1659_19321)"/>
<path d="M26.8416 23.6332C26.8458 22.2204 27.9782 20.7883 29.4367 20.533C30.6453 20.3213 31.8923 20.3063 33.1016 20.5548C34.4893 20.8399 35.6236 22.3051 35.5913 23.6506C34.9666 23.6506 34.3412 23.6506 33.7025 23.6506C33.6544 23.5199 33.6135 23.3823 33.5538 23.254C33.3045 22.7216 32.8974 22.4165 32.3111 22.4084C31.59 22.3985 30.869 22.3997 30.148 22.4078C29.5129 22.4146 29.0077 22.7789 28.8236 23.4009C28.7541 23.6357 28.6475 23.6799 28.439 23.6737C27.9319 23.66 27.4236 23.6662 26.9159 23.6625C26.8976 23.6625 26.88 23.6488 26.8416 23.6332Z" fill="url(#paint3_linear_1659_19321)"/>
<path d="M30.0039 33.4371C30.8267 33.4371 31.6044 33.4371 32.4236 33.4371C32.4236 33.7254 32.4467 34.0124 32.4162 34.2926C32.3931 34.5043 32.2499 34.6369 32.0158 34.6351C31.4801 34.6313 30.9443 34.6369 30.4086 34.6338C30.1715 34.6326 30.0198 34.5112 30.0076 34.2633C29.9942 33.9975 30.0039 33.7303 30.0039 33.4371Z" fill="url(#paint4_linear_1659_19321)"/>
</g>
<defs>
<linearGradient id="paint0_linear_1659_19321" x1="15.3064" y1="33.5001" x2="51.8939" y2="33.5001" gradientUnits="userSpaceOnUse">
<stop stop-color="#16D9E3"/>
<stop offset="0.47" stop-color="#30C7EC"/>
<stop offset="1" stop-color="#46AEF7"/>
</linearGradient>
<linearGradient id="paint1_linear_1659_19321" x1="21.8408" y1="28.2693" x2="40.591" y2="28.2693" gradientUnits="userSpaceOnUse">
<stop stop-color="#16D9E3"/>
<stop offset="0.47" stop-color="#30C7EC"/>
<stop offset="1" stop-color="#46AEF7"/>
</linearGradient>
<linearGradient id="paint2_linear_1659_19321" x1="21.333" y1="33.3705" x2="41.0962" y2="33.3705" gradientUnits="userSpaceOnUse">
<stop stop-color="#16D9E3"/>
<stop offset="0.47" stop-color="#30C7EC"/>
<stop offset="1" stop-color="#46AEF7"/>
</linearGradient>
<linearGradient id="paint3_linear_1659_19321" x1="26.8416" y1="22.0228" x2="35.592" y2="22.0228" gradientUnits="userSpaceOnUse">
<stop stop-color="#16D9E3"/>
<stop offset="0.47" stop-color="#30C7EC"/>
<stop offset="1" stop-color="#46AEF7"/>
</linearGradient>
<linearGradient id="paint4_linear_1659_19321" x1="30.0005" y1="34.0361" x2="32.432" y2="34.0361" gradientUnits="userSpaceOnUse">
<stop stop-color="#16D9E3"/>
<stop offset="0.47" stop-color="#30C7EC"/>
<stop offset="1" stop-color="#46AEF7"/>
</linearGradient>
<clipPath id="clip0_1659_19321">
<rect width="36.5867" height="37.3333" fill="white" transform="translate(15.3064 14.8332)"/>
</clipPath>
</defs>
</svg>
