<svg width="33" height="32" viewBox="0 0 33 32" fill="none" xmlns="http://www.w3.org/2000/svg">
<path d="M9.85685 32.0003C10.0542 31.4076 10.2266 30.8548 10.3785 30.2951C10.4271 30.1171 10.409 30.0417 10.2291 29.9764C9.25423 29.6209 8.31668 29.1851 7.42706 28.646C6.68499 28.1959 5.98214 27.6954 5.32847 27.1226C3.04934 25.1267 1.46496 22.6839 0.605851 19.7791C-0.0166933 17.6737 -0.134354 15.5302 0.13832 13.3551C0.432161 11.0106 1.28193 8.87524 2.55379 6.90489C3.23485 5.84968 4.06719 4.90901 4.99727 4.06111C5.97342 3.17087 7.03735 2.39892 8.21209 1.79131C11.6747 0.000253987 15.3116 -0.449223 19.101 0.449731C21.5451 1.02932 23.7053 2.17667 25.5985 3.83077C26.0131 4.19309 26.3866 4.59338 26.7813 4.97438C26.9351 5.12317 26.9183 5.20161 26.716 5.26698C25.7971 5.56393 24.9056 5.92687 24.0552 6.38693C23.9214 6.45915 23.8342 6.42491 23.7278 6.32966C22.5331 5.26137 21.1952 4.42467 19.6881 3.87248C18.1211 3.29849 16.5019 3.04512 14.8347 3.12916C13.1931 3.21134 11.618 3.59109 10.1358 4.30079C8.61488 5.02916 7.28948 6.03084 6.177 7.30269C3.90658 9.89808 2.92234 12.9386 3.14956 16.3576C3.32076 18.9343 4.27014 21.2253 5.90121 23.233C7.09836 24.7059 8.5713 25.8184 10.2858 26.6184C10.4003 26.6719 10.5417 26.8114 10.6481 26.7198C10.7409 26.6402 10.6736 26.4646 10.6518 26.3326C10.457 25.1398 9.96829 24.0647 9.34076 23.0437C8.60678 21.8509 7.73522 20.754 6.94584 19.6004C5.96969 18.1729 5.16785 16.6577 4.71028 14.9787C4.65488 14.7757 4.55963 14.5678 4.66359 14.3069C4.87463 14.6138 5.07323 14.894 5.26248 15.1791C5.85576 16.0737 6.54803 16.8656 7.41461 17.5186C8.69768 18.4848 10.3169 18.6137 11.7021 17.7988C12.4522 17.3574 13.0922 16.7896 13.6469 16.1254C13.81 15.9299 13.8828 15.928 13.9868 16.1733C14.3578 17.0455 14.6405 17.942 14.7806 18.8808C15.0053 20.3892 14.9667 21.8939 14.6579 23.3849C14.4624 24.3299 14.267 25.2768 13.8617 26.1658C12.9453 28.176 11.7892 30.0262 10.2702 31.6398C10.1712 31.7444 10.0735 31.8502 9.97202 31.9517C9.9521 31.9716 9.91599 31.976 9.85685 32.0003Z" fill="url(#paint0_linear_1760_20307)"/>
<path d="M8.68848 8.44466C12.8589 8.8101 16.1534 10.3845 17.9719 14.3096C20.9955 8.13339 26.2467 5.61333 32.8027 5.23047C32.3595 5.38548 31.9143 5.53489 31.4736 5.69738C30.5086 6.05347 29.591 6.50544 28.7138 7.04394C28.5265 7.15911 28.5034 7.24502 28.6155 7.42992C29.3183 8.58723 29.8674 9.81301 30.2385 11.1172C30.7328 12.856 30.9612 14.6284 30.8212 16.4319C30.757 17.2543 30.6251 18.076 30.4607 18.8853C30.1395 20.4666 29.5232 21.9402 28.6958 23.3228C27.6568 25.0585 26.3532 26.5663 24.719 27.7634C21.0721 30.4354 17.0119 31.3817 12.5545 30.606C12.4748 30.5923 12.397 30.563 12.298 30.535C12.5644 30.1092 12.8222 29.7002 13.0774 29.2893C14.6599 26.74 15.806 24.035 16.0027 20.9983C16.1235 19.1269 15.8309 17.3209 15.0963 15.5921C14.2932 13.702 13.1129 12.0809 11.6095 10.6858C10.7559 9.89394 9.84765 9.17802 8.84287 8.58723C8.80987 8.56793 8.78559 8.53493 8.69034 8.44529L8.68848 8.44466ZM15.7002 27.7342C16.8183 27.7466 17.8878 27.5705 18.9169 27.2772C19.6091 27.0799 20.2933 26.7979 20.9457 26.4524C24.3809 24.6345 26.5891 21.8617 27.4451 18.0686C28.1218 15.0698 27.6798 12.2036 26.2143 9.49614C26.0873 9.26144 26.0201 9.19794 25.7979 9.43451C24.1823 11.154 23.1209 13.2121 22.2176 15.3537C21.8982 16.1107 21.643 16.9032 21.3865 17.6894C20.5591 20.2226 19.4958 22.6436 17.9737 24.8462C17.5728 25.4264 17.1713 26.0085 16.7 26.5321C16.3582 26.9124 15.9673 27.248 15.6996 27.7342H15.7002Z" fill="#89B05F"/>
<path d="M20.1419 8.35942C20.1282 9.67236 19.0674 10.7519 17.8111 10.7319C16.4073 10.7095 15.3471 9.65307 15.3695 8.29966C15.3913 6.98609 16.4683 5.95702 17.8086 5.96885C19.1278 5.98068 20.1562 7.03402 20.1419 8.35942Z" fill="#89B05F"/>
<path d="M8.48699 15.4264C8.49321 14.2822 9.35045 13.4443 10.509 13.4492C11.5817 13.4536 12.4682 14.3638 12.4588 15.4507C12.4495 16.5657 11.5723 17.4298 10.4536 17.4254C9.33115 17.4217 8.48014 16.5564 8.48636 15.4264H8.48699Z" fill="url(#paint1_linear_1760_20307)"/>
<defs>
<linearGradient id="paint0_linear_1760_20307" x1="0.13442" y1="16.0619" x2="27.1017" y2="16.0619" gradientUnits="userSpaceOnUse">
<stop stop-color="#F6D365"/>
<stop offset="1" stop-color="#FDA085"/>
</linearGradient>
<linearGradient id="paint1_linear_1760_20307" x1="8.50619" y1="15.445" x2="12.4911" y2="15.445" gradientUnits="userSpaceOnUse">
<stop stop-color="#F6D365"/>
<stop offset="1" stop-color="#FDA085"/>
</linearGradient>
</defs>
</svg>
