<svg width="37" height="32" viewBox="0 0 37 32" fill="none" xmlns="http://www.w3.org/2000/svg">
<path d="M18.7289 30.1279C18.6053 30.0214 18.4851 29.915 18.3615 29.8085C18.2378 29.7055 18.1108 29.6025 17.9872 29.4995C17.4824 29.0908 16.9638 28.7028 16.4384 28.3285L16.3251 28.2461L16.2049 28.3079C15.7414 28.5448 15.2812 28.7921 14.8314 29.0531C14.718 29.1183 14.6047 29.187 14.4948 29.2522C14.3849 29.3209 14.2716 29.3862 14.1617 29.4583C14.0519 29.5304 13.9385 29.5956 13.8321 29.6712C13.7222 29.7433 13.6123 29.8188 13.5059 29.8944C13.6329 29.8566 13.7565 29.8154 13.8802 29.7708C14.0038 29.7296 14.1274 29.6815 14.251 29.6368C14.3746 29.5922 14.4948 29.5441 14.6185 29.496C14.7386 29.448 14.8623 29.3999 14.9825 29.3484C15.422 29.1664 15.8547 28.9707 16.2839 28.7681C16.7681 29.1252 17.2626 29.472 17.7674 29.8017C17.9047 29.891 18.0387 29.9768 18.176 30.0626C18.3134 30.1485 18.4542 30.2309 18.5915 30.3168C18.7323 30.3992 18.8731 30.4816 19.0139 30.5606C19.1581 30.6395 19.2989 30.7185 19.4466 30.7906C19.3333 30.6739 19.2131 30.5606 19.0963 30.4473C18.9761 30.3374 18.8559 30.2275 18.7323 30.121L18.7289 30.1279Z" fill="#89B05F"/>
<path d="M10.8645 27.3212C10.6859 27.9839 10.4181 28.9935 10.3254 29.4399C10.3116 29.6047 10.3013 29.6975 10.2944 29.6666C10.2876 29.646 10.2979 29.5635 10.3254 29.4399C10.3528 29.0381 10.3906 28.1968 10.4078 27.6817L10.3975 27.692C10.3975 27.692 5.51097 29.4021 5.45946 29.4193C5.00618 29.5773 4.51169 31.5175 4.41211 31.9982C4.41211 31.9982 5.37361 31.6995 6.4244 30.8444C7.47862 29.9928 9.28487 30.1233 10.0266 30.5456C10.7649 30.968 12.269 31.9982 12.269 31.9982C12.8562 28.9935 13.6116 25.1406 13.6116 25.1406L10.8645 27.3212Z" fill="#89B05F"/>
<path d="M32.5227 27.3177C30.8091 26.4455 28.7968 26.1124 27.0524 25.2539L25.3011 27.9083L26.6678 25.0513C26.6334 25.0341 26.5991 25.017 26.5648 24.9963C24.549 23.8563 23.5326 22.5273 23.5326 22.5273C23.5326 22.5273 21.2593 28.4372 19.6729 31.9981H19.7072C19.7072 31.9981 23.5566 27.0224 25.6822 29.0999C27.8113 31.1809 30.7061 30.1129 32.5055 30.3979C34.037 30.6417 36.0115 31.6925 36.5644 31.9981H36.6022C36.0081 30.058 34.2637 28.2071 32.5227 27.3177Z" fill="#89B05F"/>
<path d="M5.42861 20.5256C5.42861 20.5256 5.46295 21.1643 5.51102 21.6417C5.5591 22.1155 5.93683 22.0331 6.14973 21.9507C6.36264 21.8683 7.50271 20.9446 7.50271 20.9446C7.50271 20.9446 6.57898 21.573 6.34203 21.7138C6.10509 21.8546 5.92653 21.8443 5.82007 21.6176C5.71362 21.391 5.67928 20.3711 5.67928 20.3711L5.33589 20.3814L4.61133 20.4054H4.98906C5.20197 20.4054 5.42861 20.5256 5.42861 20.5256Z" fill="#89B05F"/>
<path d="M4.00679 22.6418C3.97588 22.5971 3.94841 22.549 3.92437 22.5044C3.90377 22.4563 3.8866 22.4151 3.87286 22.3705C3.84539 22.2846 3.82822 22.2125 3.82135 22.161C3.81105 22.1095 3.80762 22.082 3.80762 22.082C3.80762 22.082 3.80762 22.0889 3.80762 22.1026C3.80762 22.1164 3.81105 22.137 3.81449 22.161C3.82135 22.2125 3.83509 22.2881 3.85913 22.3739C3.86599 22.3945 3.87286 22.4186 3.87973 22.4392C3.8866 22.4632 3.8969 22.4838 3.9072 22.5078C3.92781 22.5559 3.95528 22.604 3.98618 22.6486C4.01709 22.6933 4.05486 22.7413 4.09607 22.7826C4.13728 22.8238 4.18192 22.865 4.22999 22.9027C4.27807 22.9371 4.32958 22.9714 4.38452 22.9955C4.43946 23.0195 4.49441 23.0401 4.54935 23.0504C4.60429 23.0641 4.65923 23.0676 4.71074 23.0676C4.76225 23.0676 4.81033 23.0676 4.85497 23.0607C4.94425 23.0538 5.01636 23.0401 5.06787 23.0298C5.11938 23.0195 5.14685 23.0126 5.14685 23.0126C5.14685 23.0126 5.11938 23.0195 5.06787 23.0264C5.04384 23.0298 5.0095 23.0367 4.97516 23.0401C4.94082 23.0435 4.89961 23.047 4.85497 23.0504C4.81033 23.0504 4.76225 23.0538 4.71074 23.0504C4.65923 23.0504 4.60773 23.0435 4.55278 23.0298C4.49784 23.0195 4.44633 22.9989 4.39139 22.9749C4.33988 22.9508 4.28837 22.9199 4.24029 22.8856C4.19222 22.8512 4.14758 22.8135 4.10637 22.7688C4.06516 22.7276 4.03082 22.683 3.99648 22.6383L4.00679 22.6418Z" fill="#89B05F"/>
<path d="M4.47771 22.9022C4.45367 22.8884 4.42964 22.8781 4.4056 22.8644C4.385 22.8507 4.36439 22.8369 4.34379 22.8266C4.32662 22.8129 4.30945 22.8026 4.29571 22.7888C4.28198 22.7785 4.26824 22.7682 4.26137 22.7579C4.24077 22.7408 4.23047 22.7305 4.23047 22.7305C4.23047 22.7305 4.23047 22.7305 4.23734 22.7373C4.24077 22.7442 4.24764 22.7511 4.25794 22.7614C4.26824 22.7717 4.27854 22.782 4.29228 22.7957C4.30602 22.8094 4.31975 22.8232 4.34035 22.8369C4.37469 22.8644 4.41934 22.8953 4.47084 22.9193C4.49488 22.9331 4.52235 22.9434 4.55326 22.9537C4.58073 22.964 4.61164 22.9708 4.64254 22.9777C4.65628 22.9777 4.67345 22.9811 4.68718 22.9846C4.70092 22.9846 4.71809 22.9846 4.73182 22.9846C4.76273 22.9846 4.7902 22.9846 4.81767 22.9846C4.87262 22.9846 4.92756 22.9743 4.9722 22.9674C5.01684 22.9605 5.05461 22.9502 5.07865 22.9468C5.10269 22.9399 5.11986 22.9365 5.11986 22.9365C5.11986 22.9365 5.06148 22.9468 4.9722 22.9571C4.92756 22.964 4.87605 22.9674 4.82111 22.9674C4.79363 22.9674 4.76273 22.9674 4.73526 22.9674C4.72152 22.9674 4.70779 22.9674 4.69062 22.964C4.67688 22.964 4.66315 22.9605 4.64598 22.9571C4.6185 22.9537 4.5876 22.9468 4.56013 22.9365C4.53266 22.9262 4.50518 22.9159 4.48115 22.9056L4.47771 22.9022Z" fill="#89B05F"/>
<path d="M3.79395 20.2695V20.2901C4.08926 20.3142 5.66201 20.3142 5.67918 20.3142V20.2936C5.67918 20.2936 4.08926 20.2936 3.79395 20.2695Z" fill="#89B05F"/>
<path d="M4.86607 23.2984H4.87294H4.87637H4.88324H4.90041H4.93131C4.97252 23.2984 5.01716 23.2984 5.0618 23.2881C5.15109 23.2812 5.23693 23.264 5.32278 23.2469C5.49448 23.2091 5.66618 23.1507 5.83101 23.0786C6.16066 22.9344 6.47315 22.7421 6.76847 22.5326C6.91613 22.4261 7.06036 22.3163 7.20458 22.2098C7.34881 22.1033 7.49303 21.9935 7.63382 21.887C7.91884 21.6741 8.19699 21.4578 8.45797 21.2449C8.72238 21.032 8.96963 20.8156 9.19627 20.5993C9.25121 20.5443 9.30959 20.4928 9.3611 20.4379C9.38857 20.4104 9.41604 20.3864 9.44008 20.3589C9.46755 20.3349 9.49159 20.3108 9.52249 20.2902C9.63581 20.2009 9.74913 20.1185 9.86245 20.043C9.97577 19.9674 10.0857 19.9022 10.1921 19.8404C10.2058 19.8335 10.2196 19.8266 10.2368 19.8198C10.12 20.0258 9.98607 20.2799 9.94487 20.4516C9.86932 20.771 10.3775 21.0491 10.3775 21.0491C10.3775 21.0491 9.9689 21.6157 9.95173 22.069C9.93456 22.5223 10.2333 23.1816 10.4909 23.2537C10.7484 23.3293 12.2456 23.058 12.2456 23.058L13.475 23.1026C13.475 23.1026 13.6604 23.3705 14.0347 23.7722C14.409 24.174 16.4831 25.9322 16.4831 25.9322C16.4831 25.9322 17.2008 25.7639 18.2584 25.1527C19.3161 24.5414 22.7947 21.4303 22.7947 21.4303C22.7947 21.4303 22.1903 20.2422 22.1834 18.6248C22.18 17.4778 22.7294 16.2554 23.0488 15.6372C22.75 15.2561 22.156 14.6586 20.9781 13.9065C21.2563 14.0542 22.4616 14.7066 23.3578 15.2458C23.8489 15.3316 26.4621 15.7918 26.754 15.7437C27.2931 15.6578 27.1661 15.3179 26.8192 14.9333C26.3316 14.401 25.401 13.7829 25.2328 13.6559C25.6002 13.9649 25.9333 14.3117 26.232 14.686C26.3007 14.7753 26.3728 14.9024 26.311 14.9951C26.2904 15.0226 26.2629 15.0432 26.2355 15.0603C26.0569 15.1668 25.8337 15.1599 25.638 15.0912C25.2774 14.9676 24.9065 14.7444 24.5769 14.5349C23.6566 13.9443 22.7569 13.3468 21.7542 12.8901C19.8758 12.035 17.8429 11.5474 15.8066 11.2418C9.9586 10.3627 9.60491 10.1429 9.60491 10.1429C9.60491 10.1429 13.6741 10.2357 17.6712 10.998C18.8353 11.2212 19.8346 11.4684 20.6931 11.7191C20.7412 10.9327 20.9747 7.45073 21.2597 5.86768C21.5825 4.07173 22.3448 1.52031 22.3448 1.52031C22.5509 1.52718 23.6119 2.08348 23.6119 2.08348C23.6119 2.08348 23.1655 3.04498 22.3689 5.13282C21.658 6.99058 20.8751 10.8984 20.7137 11.726C22.3311 12.1999 23.4334 12.6875 24.1442 13.0446C23.7836 12.8351 23.5158 12.6978 23.4505 12.6978C23.4849 12.4677 23.4986 10.8091 24.0275 8.71785C24.6318 6.34157 25.7513 3.98588 25.7513 3.98588C25.7513 3.98588 27.1867 3.7146 23.114 1.75726C21.3902 0.922808 19.4363 0.565679 17.551 0.318435C15.7757 0.0883609 13.9111 -0.131411 12.1289 0.0952288C11.9846 0.115832 11.8301 0.136436 11.7065 0.218851C11.3184 0.472962 11.4318 1.43447 11.394 1.8328C11.3287 2.52989 11.2498 3.22698 11.1193 3.9172C10.7999 5.65134 9.28211 10.0021 9.28211 10.0021C8.88721 10.1807 6.37013 9.96094 5.08927 9.59351C3.80842 9.22264 4.86607 10.4245 5.69365 10.7782C6.52466 11.1319 8.84257 11.4753 8.84257 11.4753C8.84257 11.4753 10.4565 11.3517 11.1502 11.4375C11.8438 11.5199 12.1872 11.5886 12.1872 11.5886C12.1872 11.5886 9.83841 11.6436 8.83227 11.7603C8.82883 11.8805 8.82197 12.0282 8.8151 12.1861C8.80136 12.5742 8.40303 12.8832 8.2588 13.2678C8.11458 13.649 8.93872 14.1984 8.93872 14.1984C8.93872 14.1984 8.93872 14.2087 8.94215 14.2259C8.93185 14.3358 8.89065 14.4937 8.81167 14.6723C8.73268 14.8509 8.61593 15.0432 8.48201 15.2492C8.34808 15.4552 8.21073 15.6784 8.08367 15.912C7.96005 16.142 7.85016 16.3858 7.78492 16.6365C7.75745 16.7601 7.73684 16.8872 7.74714 17.0108C7.79522 17.5499 8.34465 17.6255 8.78076 17.6564C8.99366 17.6736 9.20657 17.6873 9.41604 17.7045C9.44351 17.7045 9.47098 17.7079 9.49159 17.7216C9.50876 17.7319 9.51906 17.7491 9.53279 17.7663C9.69762 18.0135 9.72509 18.4119 9.61864 18.69C9.47442 19.0746 9.72509 19.3425 9.72509 19.3425L9.99981 19.4008C9.94143 19.4214 9.88649 19.4386 9.82468 19.4592C9.62894 19.5279 9.42634 19.6069 9.2203 19.6962C9.01427 19.7854 8.80136 19.885 8.59533 20.0052C8.38929 20.1254 8.18669 20.2559 7.98409 20.3864C7.8845 20.4516 7.78492 20.5203 7.68533 20.5855C7.63726 20.6199 7.58575 20.6542 7.53767 20.6851L7.4999 20.7092L7.46213 20.7366C7.43809 20.7538 7.41405 20.771 7.39001 20.7881C7.19771 20.9255 7.00885 21.0594 6.82341 21.1899C6.63798 21.3204 6.46285 21.4475 6.29459 21.5677C6.28429 21.5745 6.27398 21.5814 6.26368 21.5917L6.24651 21.602L6.23964 21.6089H6.23278C6.21217 21.626 6.19157 21.6363 6.16753 21.6466C6.12289 21.6638 6.07825 21.6741 6.03361 21.6672C5.98897 21.6604 5.95119 21.6363 5.92372 21.602C5.89625 21.5677 5.87565 21.5264 5.86191 21.4887C5.84818 21.4475 5.83787 21.4063 5.83101 21.3616C5.82414 21.3204 5.81727 21.2792 5.8104 21.238C5.79667 21.1556 5.78293 21.08 5.77263 21.0079C5.75203 20.8637 5.73142 20.7366 5.71769 20.6336C5.70395 20.5306 5.69365 20.4482 5.68678 20.3932C5.67991 20.3383 5.67648 20.3074 5.67648 20.3074C5.67648 20.3074 5.67648 20.3383 5.68335 20.3932C5.68678 20.4482 5.69365 20.5306 5.70738 20.6371C5.71769 20.7401 5.73142 20.8671 5.74859 21.0148C5.75889 21.0869 5.7692 21.1659 5.7795 21.2449C5.78636 21.2861 5.79323 21.3273 5.8001 21.3685C5.80697 21.4097 5.81384 21.4543 5.83101 21.499C5.84474 21.5436 5.86535 21.5883 5.89625 21.626C5.92716 21.6638 5.97523 21.6947 6.02674 21.705C6.13319 21.7222 6.23964 21.6707 6.31862 21.6089C6.48689 21.4921 6.66889 21.3685 6.85089 21.238C7.03632 21.1075 7.22518 20.9736 7.42092 20.8397C7.44496 20.8225 7.46899 20.8053 7.49303 20.7881L7.51364 20.7744L7.54798 20.8191L8.01843 21.5024C8.01843 21.5024 8.01156 21.5093 8.00469 21.5127C7.86733 21.6192 7.72654 21.7256 7.58231 21.8321C7.43809 21.9385 7.2973 22.045 7.14964 22.1514C7.02602 22.2441 6.89896 22.3369 6.7719 22.4296C5.37429 23.3087 4.75618 23.1782 4.62569 23.1576C3.79468 22.9412 3.69166 22.2201 3.66419 21.8973C3.63672 21.5711 3.78438 20.2834 3.78438 20.2834L3.77408 20.3246C3.78094 20.2971 3.78438 20.2834 3.78438 20.2834C3.78438 20.2834 3.77064 20.328 3.75004 20.4104C3.72943 20.4928 3.69853 20.613 3.66762 20.7675C3.63672 20.9221 3.59895 21.1109 3.57147 21.3307C3.544 21.5505 3.51996 21.8012 3.56117 22.0724C3.57147 22.1411 3.58521 22.2098 3.60581 22.2785C3.62642 22.3472 3.64702 22.4158 3.67793 22.4845C3.7363 22.6219 3.81185 22.7558 3.9183 22.876C4.02132 22.9962 4.15181 23.1026 4.3029 23.1747C4.454 23.2503 4.62226 23.2881 4.79739 23.2984C4.81799 23.2984 4.84203 23.2984 4.86263 23.2984H4.86607ZM12.2971 8.06884C12.2971 8.06884 12.3177 7.50224 12.3692 6.00847C12.4242 4.51471 13.0801 0.617188 13.0801 0.617188C13.0801 0.617188 13.5436 0.634357 15.8066 0.768281C17.9185 0.895337 19.8724 1.59586 20.1265 1.68858C19.9582 1.65767 19.1066 1.48254 18.0078 1.25933C16.7784 1.00866 14.9241 0.943412 14.9241 0.943412C14.9241 0.943412 14.409 2.3685 14.1961 3.95841C13.9866 5.55176 13.6295 8.32295 13.6295 8.32295L14.7592 8.46717C15.2297 8.52555 16.1878 8.71098 17.1493 8.90672C18.8491 9.18143 19.7041 9.43554 19.814 9.46988C19.6595 9.43554 18.4061 9.16426 17.1493 8.90672C16.7406 8.84147 16.2874 8.77623 15.7791 8.71098C13.0079 8.35385 10.4394 8.10661 10.4394 8.10661L12.2971 8.06884ZM10.0719 18.896L10.3501 17.7732C10.484 17.9655 11.0163 17.653 11.0163 17.653L11.8644 18.9613L10.0719 18.896ZM10.3123 20.1323C10.3123 20.1323 10.4634 19.806 10.6591 19.6721C10.8514 19.5382 11.9366 19.624 11.9366 19.624C11.2635 19.9297 11.291 20.4997 11.054 20.4894C10.8171 20.4825 10.3123 20.1323 10.3123 20.1323ZM15.3465 20.7401C14.8588 21.1453 11.6309 22.8245 11.6309 22.8245C11.6309 22.8245 10.7793 22.8897 10.6042 22.5532C10.4531 22.2716 10.278 21.8183 10.2264 21.681C10.3295 21.8836 10.8411 22.8039 11.6927 22.4983C12.6439 22.1549 15.0855 21.0217 16.6342 18.8171C16.5449 18.9853 15.8032 20.3555 15.3465 20.7401ZM18.6087 16.5026C18.8113 16.6125 18.801 16.9215 19.2337 16.3206C19.6698 15.7162 20.0956 15.2664 19.6286 15.4037C19.1581 15.5445 19.1101 15.4896 19.0688 15.1256C19.0311 14.765 19.2165 13.8962 18.6396 14.1847C18.6396 14.1847 18.7048 13.7726 19.1238 13.6318C19.5427 13.4945 20.1093 13.5151 20.257 13.7245C20.4012 13.9374 20.621 15.0294 20.3943 15.6407C20.1643 16.2485 19.6835 16.7498 19.3127 16.9936C18.9418 17.2375 18.6156 17.7422 18.4198 17.4263C18.2275 17.107 18.1382 16.6915 18.1382 16.6915C18.1382 16.6915 18.4061 16.3927 18.6087 16.5026ZM8.73955 17.337C8.60906 17.3542 8.52321 17.3817 8.46827 17.416C8.44423 17.4126 8.41676 17.4126 8.38242 17.4057C8.33091 17.3954 8.2691 17.3817 8.20386 17.3576C8.14205 17.3336 8.0768 17.2924 8.02529 17.234C7.97378 17.1756 7.93601 17.0967 7.92228 16.9971C7.90854 16.8975 7.91884 16.7876 7.93944 16.6709C7.98409 16.4408 8.0768 16.2004 8.18669 15.9669C8.29657 15.73 8.42363 15.5033 8.54382 15.2904C8.62623 15.1428 8.71208 14.9951 8.78076 14.8406C8.82197 14.7547 8.85631 14.662 8.88721 14.5727C8.89751 14.5384 8.91125 14.504 8.93872 14.48C9.06921 14.3632 9.54653 15.1118 9.66672 15.1943C9.94143 15.3934 11.1261 15.2938 11.1261 15.2938L10.5252 14.9436C10.5252 14.9436 10.6763 14.6654 10.824 14.5281C10.9716 14.3907 12.5306 14.401 12.5306 14.401C12.5306 14.401 11.6481 13.8962 10.9888 13.8722C10.3295 13.8482 9.87619 13.2678 9.87619 13.2678L11.3459 13.1305C11.3459 13.1305 9.42291 12.9656 9.41604 12.9656C9.3714 12.9622 9.70449 12.6222 9.72853 12.6051C9.9277 12.4574 10.223 12.3647 10.4634 12.3098C11.2601 12.1209 12.0636 12.0179 12.8706 12.1552C14.2167 12.3853 15.5594 12.6119 16.9055 12.842C16.5106 12.8764 16.1191 12.9107 15.7276 12.9485C15.5971 12.9588 15.4632 12.9725 15.3465 13.024C15.1954 13.0893 15.0786 13.2094 14.9687 13.3331C14.6597 13.6833 14.4639 14.1572 14.1514 14.4869C13.8802 14.7753 13.4818 14.8474 13.1007 15.002C12.7847 15.1256 11.7133 15.4381 11.6721 15.8811C11.5932 16.7773 12.8603 19.6103 12.3727 18.7896C11.8816 17.9689 10.4703 16.4545 10.4703 16.4545C10.4703 16.4545 10.5046 16.8803 10.7244 17.2649C10.9476 17.653 10.4325 17.5396 10.4325 17.5396C10.4325 17.5396 9.59117 17.2237 8.73955 17.337ZM7.7128 21.0251L7.60292 20.8809L7.63382 20.9186C7.63382 20.9186 8.77733 20.1288 9.43664 19.7751C9.74226 19.6103 9.99637 19.5176 10.2196 19.4592L10.3226 19.4833C10.12 19.5554 9.88305 19.6618 9.55683 19.8198C8.93872 20.1185 7.83299 20.9461 7.71624 21.032L7.7128 21.0251Z" fill="url(#paint0_linear_1760_20329)"/>
<path d="M3.79102 20.2437C3.79102 20.2437 4.21339 20.2609 4.73535 20.2609C5.25731 20.2609 5.67968 20.254 5.67968 20.2437C5.67968 20.2334 5.25731 20.2266 4.73535 20.2266C4.21339 20.2266 3.79102 20.2334 3.79102 20.2437Z" fill="#89B05F"/>
<path d="M5.75515 18.5323C5.67273 18.9993 5.05806 18.8791 4.72153 19.0954C4.70093 19.1092 4.64599 19.1572 4.66659 19.2328C4.69406 19.3015 4.7387 19.3083 4.75931 19.3186C4.98595 19.4079 5.32934 19.3324 5.51477 19.4457C5.56628 19.5247 5.31904 19.6037 5.24692 19.614C5.04432 19.6723 4.33693 19.717 4.77991 20.0466C4.32319 19.638 5.31217 19.7651 5.49417 19.6243C5.58345 19.5934 5.68304 19.4663 5.59719 19.3736C5.39115 19.2122 5.14047 19.2637 4.90697 19.2019C5.15077 19.1229 5.44953 19.1401 5.6899 18.9959C6.08137 18.7933 6.08824 18.3194 5.78605 18.0481C5.44609 17.6978 4.94817 17.5605 4.51206 17.4162C3.24494 16.9904 1.85419 16.8359 0.642012 16.3071C0.332957 16.1045 0.435975 15.8057 0.731294 15.5482C2.15981 14.4459 4.17554 14.597 5.81696 13.9754C6.41103 13.7316 7.30729 13.2303 7.08752 12.4508C6.95016 12.0421 6.64454 11.8464 6.37669 11.6644C5.56285 11.2111 4.67002 10.9776 3.83558 10.6033C-0.151228 8.96875 2.61653 7.5883 5.08896 6.55469C2.13921 7.42691 -0.446547 9.06146 3.67418 10.9639C4.68376 11.5339 8.37181 12.389 5.63496 13.5118C4.50519 13.9342 3.26211 13.9342 2.11861 14.3394C1.32537 14.6176 -0.209605 15.1052 0.0239025 16.2384C0.14409 16.6264 0.535559 16.7947 0.87552 16.9011C1.47646 17.0934 2.07053 17.2033 2.6646 17.3304C3.25867 17.454 3.84931 17.5776 4.42621 17.7322C4.9001 17.8833 5.62466 17.9966 5.75858 18.5357L5.75515 18.5323Z" fill="#89B05F"/>
<defs>
<linearGradient id="paint0_linear_1760_20329" x1="3.65696" y1="13.0162" x2="27.3102" y2="13.0162" gradientUnits="userSpaceOnUse">
<stop stop-color="#F6D365"/>
<stop offset="1" stop-color="#FDA085"/>
</linearGradient>
</defs>
</svg>
