<svg xmlns="http://www.w3.org/2000/svg" width="16" height="17" viewBox="0 0 16 17" fill="none">
  <g clip-path="url(#clip0_336_225)">
    <path d="M13.7867 1.48792L13.7727 1.48326L11.9627 0.883257C11.3375 0.675694 10.6649 0.657373 10.0293 0.830591L6.312 1.90992C5.85684 2.03055 5.37381 1.98809 4.94667 1.78992L4.61333 1.63526C4.10706 1.42471 3.55667 1.3423 3.01093 1.39533C2.46519 1.44836 1.94096 1.6352 1.4847 1.93929C1.02844 2.24337 0.654237 2.65532 0.395256 3.13861C0.136274 3.6219 0.000511524 4.16162 0 4.70992L0 12.7599C0.00140106 13.4808 0.235861 14.1819 0.668394 14.7586C1.10093 15.3353 1.70834 15.7567 2.4 15.9599L4.31267 16.5599C4.63534 16.6602 4.97142 16.7108 5.30933 16.7099C5.61054 16.7137 5.91067 16.6731 6.2 16.5893L10.0667 15.5226C10.42 15.4268 10.7929 15.4298 11.1447 15.5313L12.7067 15.9819C13.0988 16.0767 13.5074 16.0813 13.9015 15.9954C14.2957 15.9094 14.6653 15.7351 14.9823 15.4856C15.2994 15.2362 15.5557 14.918 15.732 14.5551C15.9083 14.1922 15.9999 13.794 16 13.3906V4.62726C15.999 3.93982 15.7859 3.26943 15.3898 2.70759C14.9937 2.14574 14.4338 1.71982 13.7867 1.48792ZM2.784 14.6826C2.36687 14.562 2.00006 14.3094 1.73853 13.9628C1.477 13.6162 1.33483 13.1941 1.33333 12.7599V4.70992C1.33009 4.37971 1.40997 4.05399 1.56562 3.76274C1.72126 3.47149 1.94767 3.22407 2.224 3.04326C2.5528 2.82515 2.93877 2.70918 3.33333 2.70992C3.58778 2.70999 3.8397 2.76029 4.07467 2.85792C4.07467 2.85792 4.57133 3.07059 4.666 3.10459V15.2713L2.784 14.6826ZM6 15.2613V3.29592C6.22644 3.28391 6.45111 3.24929 6.67067 3.19259L10 2.22526V14.1766L6 15.2613ZM14.6667 13.3906C14.6668 13.5903 14.6221 13.7875 14.5358 13.9676C14.4496 14.1477 14.3239 14.3061 14.1682 14.4311C14.0125 14.5562 13.8307 14.6446 13.6363 14.69C13.4418 14.7354 13.2396 14.7365 13.0447 14.6933L11.3333 14.2113V2.09326L13.3453 2.74592C13.732 2.88603 14.0662 3.14171 14.3026 3.47827C14.539 3.81484 14.6661 4.21598 14.6667 4.62726V13.3906Z" fill="currentColor"/>
  </g>
  <defs>
    <clipPath id="clip0_336_225">
      <rect width="16" height="16" fill="currentColor" transform="translate(0 0.708984)"/>
    </clipPath>
  </defs>
</svg>