<svg width="17" height="17" viewBox="0 0 17 17" fill="none" xmlns="http://www.w3.org/2000/svg">
<g clip-path="url(#clip0_2551_2306)">
<path d="M14.6591 7.57085C14.6591 12.2729 8.61369 16.3032 8.61369 16.3032C8.61369 16.3032 2.56824 12.2729 2.56824 7.57085C2.56824 5.96749 3.20517 4.42981 4.33891 3.29606C5.47265 2.16232 7.01034 1.52539 8.61369 1.52539C10.217 1.52539 11.7547 2.16232 12.8885 3.29606C14.0222 4.42981 14.6591 5.96749 14.6591 7.57085Z" stroke="#F9B946" stroke-width="1.23148" stroke-linecap="round" stroke-linejoin="round"/>
<path d="M8.61366 9.58597C9.7266 9.58597 10.6288 8.68375 10.6288 7.57082C10.6288 6.45788 9.7266 5.55566 8.61366 5.55566C7.50072 5.55566 6.59851 6.45788 6.59851 7.57082C6.59851 8.68375 7.50072 9.58597 8.61366 9.58597Z" stroke="#F9B946" stroke-width="1.23148" stroke-linecap="round" stroke-linejoin="round"/>
</g>
<defs>
<clipPath id="clip0_2551_2306">
<rect width="16.1212" height="16.1212" fill="white" transform="translate(0.552979 0.853638)"/>
</clipPath>
</defs>
</svg>
