<svg width="66" height="66" viewBox="0 0 66 66" fill="none" xmlns="http://www.w3.org/2000/svg">
<rect x="0.333252" width="65.3333" height="65.3333" rx="17.3333" fill="white"/>
<path fill-rule="evenodd" clip-rule="evenodd" d="M25.6665 21.3333V22.6667H21.6665C17.9846 22.6667 14.9999 25.6514 14.9999 29.3333V45.3333C14.9999 49.0152 17.9846 52 21.6665 52H45.6665C49.3484 52 52.3332 49.0152 52.3332 45.3333V29.3333C52.3332 25.6514 49.3484 22.6667 45.6665 22.6667H41.6665V21.3333C41.6665 17.6514 38.6818 14.6667 34.9999 14.6667H32.3332C28.6513 14.6667 25.6665 17.6514 25.6665 21.3333ZM34.9999 17.3333H32.3332C30.1241 17.3333 28.3332 19.1242 28.3332 21.3333V22.6667H38.9999V21.3333C38.9999 19.1242 37.209 17.3333 34.9999 17.3333ZM33.6665 46.6667C38.8212 46.6667 42.9999 42.488 42.9999 37.3333C42.9999 32.1787 38.8212 28 33.6665 28C28.5119 28 24.3332 32.1787 24.3332 37.3333C24.3332 42.488 28.5119 46.6667 33.6665 46.6667Z" fill="url(#paint0_linear_1659_19096)"/>
<path d="M32.3332 33.3333C32.3332 32.597 32.9302 32 33.6665 32C34.4029 32 34.9999 32.597 34.9999 33.3333V41.3333C34.9999 42.0697 34.4029 42.6667 33.6665 42.6667C32.9302 42.6667 32.3332 42.0697 32.3332 41.3333V33.3333Z" fill="url(#paint1_linear_1659_19096)"/>
<path d="M37.6665 36C38.4029 36 38.9999 36.597 38.9999 37.3333C38.9999 38.0697 38.4029 38.6667 37.6665 38.6667H29.6665C28.9302 38.6667 28.3332 38.0697 28.3332 37.3333C28.3332 36.597 28.9302 36 29.6665 36H37.6665Z" fill="url(#paint2_linear_1659_19096)"/>
<defs>
<linearGradient id="paint0_linear_1659_19096" x1="14.9999" y1="33.3333" x2="52.3332" y2="33.3333" gradientUnits="userSpaceOnUse">
<stop stop-color="#F78CA0"/>
<stop offset="0.19" stop-color="#F9748F"/>
<stop offset="0.6" stop-color="#FD868C"/>
</linearGradient>
<linearGradient id="paint1_linear_1659_19096" x1="14.9999" y1="33.3333" x2="52.3332" y2="33.3333" gradientUnits="userSpaceOnUse">
<stop stop-color="#F78CA0"/>
<stop offset="0.19" stop-color="#F9748F"/>
<stop offset="0.6" stop-color="#FD868C"/>
</linearGradient>
<linearGradient id="paint2_linear_1659_19096" x1="14.9999" y1="33.3333" x2="52.3332" y2="33.3333" gradientUnits="userSpaceOnUse">
<stop stop-color="#F78CA0"/>
<stop offset="0.19" stop-color="#F9748F"/>
<stop offset="0.6" stop-color="#FD868C"/>
</linearGradient>
</defs>
</svg>
