<svg width="16" height="16" viewBox="0 0 16 16" fill="none" xmlns="http://www.w3.org/2000/svg">
<path d="M13.7867 0.778268L13.7727 0.773602L11.9627 0.173601C11.3375 -0.0339614 10.6649 -0.0522831 10.0293 0.120935L6.312 1.20027C5.85684 1.32089 5.37381 1.27844 4.94667 1.08027L4.61333 0.925602C4.10706 0.715051 3.55667 0.63264 3.01093 0.685673C2.46519 0.738706 1.94096 0.925544 1.4847 1.22963C1.02844 1.53372 0.654237 1.94566 0.395256 2.42895C0.136274 2.91224 0.000511524 3.45196 0 4.00027L0 12.0503C0.00140106 12.7712 0.235861 13.4723 0.668394 14.049C1.10093 14.6257 1.70834 15.0471 2.4 15.2503L4.31267 15.8503C4.63534 15.9506 4.97142 16.0012 5.30933 16.0003C5.61054 16.0041 5.91067 15.9634 6.2 15.8796L10.0667 14.8129C10.42 14.7171 10.7929 14.7201 11.1447 14.8216L12.7067 15.2723C13.0988 15.3671 13.5074 15.3717 13.9015 15.2857C14.2957 15.1997 14.6653 15.0255 14.9823 14.776C15.2994 14.5265 15.5557 14.2083 15.732 13.8454C15.9083 13.4825 15.9999 13.0844 16 12.6809V3.9176C15.999 3.23016 15.7859 2.55977 15.3898 1.99793C14.9937 1.43609 14.4338 1.01016 13.7867 0.778268ZM2.784 13.9729C2.36687 13.8523 2.00006 13.5998 1.73853 13.2531C1.477 12.9065 1.33483 12.4845 1.33333 12.0503V4.00027C1.33009 3.67005 1.40997 3.34433 1.56562 3.05308C1.72126 2.76183 1.94767 2.51441 2.224 2.3336C2.5528 2.1155 2.93877 1.99952 3.33333 2.00027C3.58778 2.00034 3.8397 2.05063 4.07467 2.14827C4.07467 2.14827 4.57133 2.36094 4.666 2.39494V14.5616L2.784 13.9729ZM6 14.5516V2.58627C6.22644 2.57425 6.45111 2.53964 6.67067 2.48294L10 1.5156V13.4669L6 14.5516ZM14.6667 12.6809C14.6668 12.8806 14.6221 13.0778 14.5358 13.2579C14.4496 13.438 14.3239 13.5964 14.1682 13.7215C14.0125 13.8465 13.8307 13.935 13.6363 13.9804C13.4418 14.0257 13.2396 14.0268 13.0447 13.9836L11.3333 13.5016V1.3836L13.3453 2.03627C13.732 2.17637 14.0662 2.43205 14.3026 2.76862C14.539 3.10518 14.6661 3.50632 14.6667 3.9176V12.6809Z" fill="#707386"/>
</svg>
