<svg width="31" height="26" viewBox="0 0 31 26" fill="none" xmlns="http://www.w3.org/2000/svg">
<g clip-path="url(#clip0_1760_20276)">
<path d="M19.2686 7.37891H2.03413C1.60791 7.37891 1.26074 7.72527 1.26074 8.15117V17.0923C1.26074 17.5182 1.60791 17.8646 2.03413 17.8646H19.2686C19.6949 17.8646 20.042 17.5182 20.042 17.0923V8.15117C20.042 7.72527 19.6949 7.37891 19.2686 7.37891Z" fill="url(#paint0_linear_1760_20276)"/>
<path d="M21.303 8.34779C21.303 7.16015 20.336 6.19531 19.1456 6.19531H2.15744C0.967062 6.19531 0 7.16015 0 8.34779V19.0458H21.303V8.34779ZM20.3057 17.0911C20.3057 17.6616 19.8406 18.1263 19.2688 18.1263H2.03426C1.46245 18.1263 0.997365 17.6616 0.997365 17.0911V8.14996C0.997365 7.57947 1.46245 7.1148 2.03426 7.1148H19.2688C19.8406 7.1148 20.3057 7.57947 20.3057 8.14996V17.0911Z" fill="#89B05F"/>
<path d="M28.8873 0H19.5078C18.3418 0 17.3945 0.94512 17.3945 2.10779V5.20605H19.1455C20.1126 5.20605 20.9789 5.64443 21.5572 6.33125H28.1877C28.4617 6.33125 28.6837 6.55274 28.6837 6.82616C28.6837 7.09957 28.4617 7.32106 28.1877 7.32106H22.1192C22.2312 7.64377 22.2951 7.98817 22.2951 8.34834V9.64509H28.1877C28.4617 9.64509 28.6837 9.86658 28.6837 10.14C28.6837 10.4134 28.4617 10.6349 28.1877 10.6349H22.2951V12.9596H28.1877C28.4617 12.9596 28.6837 13.1811 28.6837 13.4545C28.6837 13.7279 28.4617 13.9494 28.1877 13.9494H22.2951V20.3635C22.2951 22.1006 20.8814 23.511 19.1455 23.511H17.3945V23.8922C17.3945 25.0549 18.3418 26 19.5078 26H28.8873C30.0526 26 30.9999 25.0549 30.9999 23.8922V2.10779C30.9999 0.94512 30.0526 0 28.8873 0ZM24.1989 21.6773C23.245 21.6773 22.4716 20.9057 22.4716 19.9579C22.4716 19.0102 23.245 18.2346 24.1989 18.2346C25.1528 18.2346 25.9222 19.0062 25.9222 19.9579C25.9222 20.9096 25.1528 21.6773 24.1989 21.6773ZM28.1877 4.00723H20.3952C20.1211 4.00723 19.8991 3.78574 19.8991 3.51232C19.8991 3.23891 20.1211 3.01742 20.3952 3.01742H28.1877C28.4617 3.01742 28.6837 3.23891 28.6837 3.51232C28.6837 3.78574 28.4617 4.00723 28.1877 4.00723Z" fill="url(#paint1_linear_1760_20276)"/>
<path d="M16.1304 24.9925H14.247C12.5573 24.8538 12.4921 23.5045 12.4921 23.5031V22.5199H19.1449C20.3353 22.5199 21.3024 21.5551 21.3024 20.3622V19.4453H0V20.3622C0 20.9609 0.243083 21.4959 0.629776 21.8863C1.02174 22.2774 1.56192 22.5199 2.15744 22.5199H8.80896V23.5025C8.80896 23.5025 8.7444 24.8531 7.05402 24.9918H5.17062C4.89196 24.9918 4.66601 25.2172 4.66601 25.4953C4.66601 25.7733 4.89196 25.9987 5.17062 25.9987H16.1304C16.4091 25.9987 16.635 25.7733 16.635 25.4953C16.635 25.2172 16.4091 24.9918 16.1304 24.9918V24.9925ZM9.74638 19.9225H11.5567C11.8294 19.9225 12.0527 20.1453 12.0527 20.4174C12.0527 20.6895 11.8294 20.9123 11.5567 20.9123H9.74638C9.47365 20.9123 9.25033 20.6895 9.25033 20.4174C9.25033 20.1453 9.47365 19.9225 9.74638 19.9225Z" fill="#89B05F"/>
</g>
<defs>
<linearGradient id="paint0_linear_1760_20276" x1="1.35465" y1="12.642" x2="20.1941" y2="12.642" gradientUnits="userSpaceOnUse">
<stop stop-color="#F6D365"/>
<stop offset="1" stop-color="#FDA085"/>
</linearGradient>
<linearGradient id="paint1_linear_1760_20276" x1="17.4626" y1="13.0502" x2="31.1101" y2="13.0502" gradientUnits="userSpaceOnUse">
<stop stop-color="#F6D365"/>
<stop offset="1" stop-color="#FDA085"/>
</linearGradient>
<clipPath id="clip0_1760_20276">
<rect width="31" height="26" fill="white"/>
</clipPath>
</defs>
</svg>
