<svg width="29" height="32" viewBox="0 0 29 32" fill="none" xmlns="http://www.w3.org/2000/svg">
<g clip-path="url(#clip0_1760_20237)">
<path d="M25.6796 22.2784C25.8296 22.8884 25.8396 23.5284 25.8496 24.1684C25.8596 24.7584 25.8496 25.3484 25.7496 25.9384C25.7196 26.1284 25.6696 26.3184 25.6196 26.4984C24.9596 28.7284 23.2396 30.7284 20.2896 31.9484H13.8296C13.3096 31.9484 12.8696 31.5884 12.7596 31.0884C12.6296 30.4884 12.7296 29.7284 13.8496 29.2684C14.8796 28.8584 15.9496 28.5684 15.9496 28.5684C15.9496 28.5684 12.7496 24.6184 17.9296 22.3184C15.8096 22.2584 14.5396 23.6884 14.2296 24.9584C13.9396 26.1684 14.2796 27.2984 14.6596 28.0684C14.3096 28.1884 13.9196 28.3284 13.5296 28.4784C13.2496 28.5984 13.0096 28.7284 12.8096 28.8684C12.8096 28.6784 12.8096 28.3884 12.7796 27.9484C12.6896 26.4084 11.7596 25.3584 11.7596 25.3584C11.5996 25.9084 12.9296 31.9484 10.9996 31.9984C10.9196 32.0084 9.97957 32.0084 9.89957 31.9984C8.88957 31.9084 8.82957 31.7784 8.64957 31.2384C8.36957 30.3784 9.10957 29.7984 9.14957 29.4284C9.38957 27.3784 8.86957 25.5084 8.45957 24.4584C8.45957 24.4584 6.37957 22.9284 5.36957 21.7084C5.20957 21.5184 4.65957 20.6984 4.52957 20.5284C5.00957 23.0684 7.63957 24.8384 7.63957 24.8384C7.97957 25.9184 8.71957 28.7984 8.05957 31.0184C7.95957 31.3484 7.99957 31.6984 7.56957 31.8384C7.28957 31.9284 5.81957 32.0484 5.39957 31.8384C4.92957 31.5884 4.87957 30.7584 5.43957 29.8484C6.19957 28.6284 4.62957 24.2484 4.41957 22.8484C4.34957 22.4184 3.86957 21.1384 3.58957 18.4484C3.55957 18.3084 3.55957 18.1984 3.54957 18.1284C3.54957 18.0884 3.54957 18.0384 3.53957 17.9984C3.50957 17.8184 3.48957 17.6184 3.47957 17.3984V17.3484C3.44957 16.6184 3.49957 15.6884 3.46957 14.7984C3.45957 14.4084 3.43957 14.3484 3.30957 14.1484C4.32957 14.6384 6.38957 15.5884 7.65957 17.3384C7.74957 17.4684 7.94957 17.4484 8.00957 17.3084C8.19957 16.8384 8.82957 16.1284 10.2496 15.5984C10.5096 15.5084 10.7796 15.4184 11.0396 15.3284C11.5996 15.1584 12.1596 14.9884 12.7296 14.8484C13.2796 14.7084 13.8396 14.5984 14.3996 14.4784C14.4696 14.4784 14.5496 14.4484 14.6296 14.4284C14.6996 14.4184 14.7596 14.3984 14.8296 14.4084C14.8996 14.4084 14.9596 14.4684 15.0196 14.4984C15.0796 14.5384 15.1496 14.5684 15.2096 14.5984C15.7096 14.8284 16.2096 15.0284 16.7096 15.2484C17.5896 15.6284 18.4496 16.0484 19.2896 16.5084C20.2496 17.0284 21.1796 17.5884 22.0796 18.2184C22.9196 18.8084 23.7296 19.4484 24.4296 20.1884C24.8196 20.6084 25.2196 21.0684 25.4596 21.5984C25.5596 21.8284 25.6396 22.0584 25.6896 22.2884L25.6796 22.2784Z" fill="#89B05F"/>
<path d="M28.1596 21.2498C27.9596 23.3498 27.0096 24.8898 26.2396 25.8098C26.3096 25.0998 26.4396 22.9498 25.9396 21.1198C25.9496 21.0798 25.9596 21.0398 25.9596 20.9998C26.1796 18.5998 25.0196 15.9498 22.5296 13.1298C20.1296 10.3998 19.3596 7.56984 20.4196 5.35984C21.2496 3.64984 23.0996 2.58984 25.1996 2.58984C25.2996 2.58984 25.4096 2.58984 25.5096 2.58984C26.1196 2.61984 26.5896 3.13984 26.5596 3.74984C26.5296 4.33984 26.0496 4.79984 25.4496 4.79984H25.1796C23.9296 4.79984 22.8796 5.36984 22.4196 6.30984C21.7596 7.67984 22.4096 9.62984 24.1896 11.6498C27.1196 14.9598 28.4596 18.1898 28.1596 21.2398V21.2498Z" fill="url(#paint0_linear_1760_20237)"/>
<path d="M18.7904 3.7C18.5804 3.46 18.2904 3.33 17.9304 3.22C16.5504 2.82 15.4504 3.22 14.3504 3.7C13.9104 3.27 13.4404 2.91 13.0104 2.66C12.2504 2.22 11.4104 1.9 10.5204 1.71C10.4204 1.68 10.3304 1.66 10.2304 1.65C10.1304 1.62 10.0304 1.6 9.94039 1.58C9.29039 1.43 8.64039 1.36 7.99039 1.36C7.75039 1.36 7.51039 1.37 7.27039 1.39C6.78039 1.43 6.20039 1.57 5.62039 1.77C5.05039 1.23 3.91039 0.26 2.94039 0.05C2.80039 0.02 2.67039 0 2.54039 0C2.33039 0 2.14039 0.04 1.96039 0.12C0.830389 0.62 1.01039 2.94 1.38039 4.87C0.700389 5.83 -0.339611 7.98 0.110389 9.99V10.06C0.270389 10.74 0.520389 11.89 1.84039 12.85C2.57039 13.38 3.38039 13.69 4.18039 14.09C4.71039 14.35 5.23039 14.65 5.72039 14.98C6.40039 15.43 7.09039 15.96 7.58039 16.63C7.58039 16.63 7.59039 16.65 7.60039 16.66C7.68039 16.78 7.85039 16.76 7.93039 16.64C8.10039 16.36 8.36039 16.15 8.62039 15.97C8.96039 15.74 9.33039 15.56 9.70039 15.4C10.1204 15.22 10.5604 15.07 11.0004 14.93C11.4404 14.79 11.8804 14.67 12.3304 14.56C12.7204 14.46 13.1204 14.37 13.5204 14.29C13.7204 14.25 13.9204 14.2 14.1304 14.17C14.3204 14.14 14.5104 14.12 14.6904 14.06C14.8604 14.01 14.9804 13.88 15.1204 13.77C15.2704 13.66 15.4104 13.54 15.5504 13.42C15.9604 13.05 16.2904 12.61 16.5604 12.14C16.6004 12.07 16.6404 12 16.6704 11.93C17.3204 10.68 17.0304 9.14 16.8804 8.32C18.0304 6.74 19.6104 4.65 18.7904 3.72V3.7ZM6.63039 6.17C6.73039 6.03 6.97039 6.03 7.41039 6.17C7.82039 6.29 8.01039 6.41 8.00039 6.56C8.00039 6.62 8.00039 6.79 7.31039 6.97C7.27039 6.98 7.23039 6.98 7.19039 6.98C7.03039 6.98 6.88039 6.91 6.79039 6.77C6.59039 6.49 6.54039 6.29 6.63039 6.17ZM2.92039 8.03H1.73039C1.55039 8.03 1.40039 7.88 1.40039 7.69C1.40039 7.51 1.55039 7.36 1.73039 7.36H2.92039C3.11039 7.36 3.26039 7.51 3.26039 7.69C3.26039 7.88 3.11039 8.03 2.92039 8.03ZM3.67039 6.43C3.61039 6.52 3.51039 6.57 3.40039 6.57C3.34039 6.57 3.26039 6.55 3.21039 6.5L2.06039 5.64C1.91039 5.53 1.88039 5.32 1.99039 5.18C2.10039 5.03 2.31039 5 2.46039 5.11L3.60039 5.97C3.75039 6.08 3.78039 6.29 3.67039 6.43ZM2.24039 4.03C1.96039 2.56 1.98039 1.66 2.13039 1.2C2.73039 1.14 4.11039 2.65 4.11039 2.65C2.80039 3.41 2.24039 4.03 2.24039 4.03ZM4.65039 5.23C4.58039 5.27 4.49039 5.29 4.40039 5.27C4.32039 5.25 4.24039 5.19 4.20039 5.12C4.15039 5.04 4.13039 4.95 4.15039 4.87C4.18039 4.78 4.23039 4.71 4.30039 4.66C4.59039 4.48 4.90039 4.43 5.19039 4.52C5.77039 4.69 6.09039 5.31 6.13039 5.38C6.21039 5.55 6.14039 5.75 5.98039 5.83C5.93039 5.85 5.88039 5.86 5.83039 5.86C5.70039 5.86 5.59039 5.79 5.53039 5.68C5.47039 5.56 5.26039 5.23 5.01039 5.16C4.90039 5.13 4.78039 5.16 4.65039 5.23ZM8.43039 9.67C8.08039 9.9 7.68039 10.02 7.23039 10.02C7.03039 10.02 6.82039 10 6.60039 9.95C5.17039 9.66 5.14039 7.16 5.20039 7.24C5.46039 7.59 5.79039 7.73 6.16039 7.67C6.46039 7.62 6.68039 7.46 6.68039 7.46C6.73039 7.42 6.79039 7.4 6.86039 7.42C6.92039 7.43 6.97039 7.47 7.00039 7.52C7.67039 8.65 9.23039 7.89 9.30039 7.95C9.37039 8 9.21039 9.14 8.43039 9.67ZM11.2604 6.45C10.8004 6.42 10.3904 6.77 10.3804 6.77C10.3204 6.83 10.2404 6.86 10.1404 6.86C10.0604 6.85 9.97039 6.81 9.92039 6.75C9.86039 6.68 9.83039 6.6 9.83039 6.51C9.84039 6.42 9.88039 6.34 9.94039 6.28C9.97039 6.26 10.5604 5.74 11.3104 5.78C11.7504 5.81 12.1404 6.03 12.4804 6.42C12.5904 6.56 12.5804 6.77 12.4404 6.89C12.3804 6.94 12.3004 6.97 12.2204 6.97C12.1204 6.97 12.0304 6.93 11.9704 6.85C11.7604 6.6 11.5204 6.47 11.2604 6.45ZM13.9504 10.93C13.8804 11.03 13.7804 11.08 13.6704 11.08C13.6104 11.08 13.5404 11.06 13.4904 11.02L12.1204 10.07C11.9704 9.97 11.9404 9.76 12.0404 9.61C12.1504 9.46 12.3504 9.42 12.5004 9.53L13.8604 10.47C14.0204 10.57 14.0504 10.78 13.9504 10.93ZM14.6404 8.92H12.7104C12.5204 8.92 12.3704 8.77 12.3704 8.58C12.3704 8.4 12.5204 8.25 12.7104 8.25H14.6404C14.8304 8.25 14.9804 8.4 14.9804 8.58C14.9804 8.77 14.8304 8.92 14.6404 8.92ZM16.6504 7.29C16.6504 7.29 16.1304 5.98 15.4504 5.25C15.4504 5.25 16.7804 4.3 17.6904 4.52C17.9004 4.57 18.0104 4.78 17.9404 4.98C17.7504 5.53 17.3104 6.37 16.6504 7.29Z" fill="url(#paint1_linear_1760_20237)"/>
</g>
<defs>
<linearGradient id="paint0_linear_1760_20237" x1="19.9953" y1="14.2447" x2="28.2676" y2="14.2447" gradientUnits="userSpaceOnUse">
<stop stop-color="#F6D365"/>
<stop offset="1" stop-color="#FDA085"/>
</linearGradient>
<linearGradient id="paint1_linear_1760_20237" x1="0.0960583" y1="8.40263" x2="19.1713" y2="8.40263" gradientUnits="userSpaceOnUse">
<stop stop-color="#F6D365"/>
<stop offset="1" stop-color="#FDA085"/>
</linearGradient>
<clipPath id="clip0_1760_20237">
<rect width="28.2" height="32" fill="white"/>
</clipPath>
</defs>
</svg>
