<svg width="16" height="16" viewBox="0 0 16 16" fill="none" xmlns="http://www.w3.org/2000/svg">
<path d="M8.66662 0.66645C8.66662 0.489639 8.73686 0.320069 8.86188 0.195045C8.9869 0.0700208 9.15647 -0.000217093 9.33328 -0.000217093C11.1008 0.00172397 12.7954 0.704726 14.0452 1.95455C15.295 3.20437 15.998 4.89894 16 6.66645C16 6.84326 15.9297 7.01283 15.8047 7.13785C15.6797 7.26288 15.5101 7.33312 15.3333 7.33312C15.1565 7.33312 14.9869 7.26288 14.8619 7.13785C14.7369 7.01283 14.6666 6.84326 14.6666 6.66645C14.665 5.25245 14.1026 3.89682 13.1028 2.89697C12.1029 1.89712 10.7473 1.3347 9.33328 1.33312C9.15647 1.33312 8.9869 1.26288 8.86188 1.13785C8.73686 1.01283 8.66662 0.843261 8.66662 0.66645ZM9.33328 3.99978C10.0405 3.99978 10.7188 4.28073 11.2189 4.78083C11.719 5.28093 12 5.95921 12 6.66645C12 6.84326 12.0702 7.01283 12.1952 7.13785C12.3202 7.26288 12.4898 7.33312 12.6666 7.33312C12.8434 7.33312 13.013 7.26288 13.138 7.13785C13.263 7.01283 13.3333 6.84326 13.3333 6.66645C13.3322 5.60591 12.9105 4.58911 12.1605 3.83919C11.4106 3.08928 10.3938 2.66751 9.33328 2.66645C9.15647 2.66645 8.9869 2.73669 8.86188 2.86171C8.73686 2.98674 8.66662 3.15631 8.66662 3.33312C8.66662 3.50993 8.73686 3.6795 8.86188 3.80452C8.9869 3.92954 9.15647 3.99978 9.33328 3.99978ZM15.3953 11.1591C15.7816 11.5465 15.9986 12.0713 15.9986 12.6184C15.9986 13.1656 15.7816 13.6904 15.3953 14.0778L14.7886 14.7771C9.32862 20.0044 -3.95805 6.72112 1.18862 1.24378L1.95528 0.577116C2.34313 0.201568 2.86324 -0.00618437 3.40309 -0.00119387C3.94293 0.00379664 4.45911 0.221129 4.83995 0.603783C4.86062 0.62445 6.09595 2.22912 6.09595 2.22912C6.4625 2.6142 6.66655 3.12574 6.66568 3.65738C6.66482 4.18903 6.45909 4.6999 6.09128 5.08378L5.31928 6.05445C5.74652 7.09252 6.37466 8.03595 7.16762 8.83051C7.96059 9.62508 8.90274 10.2551 9.93995 10.6845L10.9166 9.90778C11.3006 9.54026 11.8113 9.33478 12.3428 9.33403C12.8743 9.33329 13.3857 9.53734 13.7706 9.90378C13.7706 9.90378 15.3746 11.1384 15.3953 11.1591ZM14.478 12.1285C14.478 12.1285 12.8826 10.9011 12.8619 10.8804C12.7246 10.7443 12.539 10.6679 12.3456 10.6679C12.1522 10.6679 11.9666 10.7443 11.8293 10.8804C11.8113 10.8991 10.4666 11.9704 10.4666 11.9704C10.376 12.0426 10.2682 12.0899 10.1537 12.1076C10.0393 12.1254 9.92217 12.113 9.81395 12.0718C8.47026 11.5715 7.24977 10.7883 6.23517 9.77517C5.22057 8.76206 4.43555 7.54274 3.93328 6.19978C3.88875 6.09009 3.87423 5.97051 3.89122 5.85334C3.90821 5.73618 3.95609 5.62565 4.02995 5.53312C4.02995 5.53312 5.10128 4.18778 5.11928 4.17045C5.25546 4.03311 5.33187 3.84753 5.33187 3.65412C5.33187 3.46071 5.25546 3.27513 5.11928 3.13778C5.09862 3.11778 3.87128 1.52112 3.87128 1.52112C3.73188 1.39612 3.54995 1.32918 3.36278 1.33401C3.17561 1.33885 2.99738 1.41509 2.86462 1.54712L2.09795 2.21378C-1.66338 6.73645 9.85062 17.6118 13.814 13.8664L14.4213 13.1664C14.5636 13.0346 14.6491 12.8526 14.6597 12.6589C14.6702 12.4652 14.6051 12.275 14.478 12.1285Z" fill="#707386"/>
</svg>
