<svg xmlns="http://www.w3.org/2000/svg" width="16" height="17" viewBox="0 0 16 17" fill="none">
  <g clip-path="url(#clip0_336_221)">
    <path d="M8.6665 1.37476C8.6665 1.19795 8.73673 1.02838 8.86176 0.903358C8.98678 0.778334 9.15635 0.708096 9.33316 0.708096C11.1007 0.710037 12.7952 1.41304 14.0451 2.66286C15.2949 3.91268 15.9979 5.60725 15.9998 7.37476C15.9998 7.55157 15.9296 7.72114 15.8046 7.84617C15.6795 7.97119 15.51 8.04143 15.3332 8.04143C15.1564 8.04143 14.9868 7.97119 14.8618 7.84617C14.7367 7.72114 14.6665 7.55157 14.6665 7.37476C14.6649 5.96076 14.1025 4.60513 13.1026 3.60528C12.1028 2.60543 10.7472 2.04302 9.33316 2.04143C9.15635 2.04143 8.98678 1.97119 8.86176 1.84617C8.73673 1.72114 8.6665 1.55157 8.6665 1.37476ZM9.33316 4.7081C10.0404 4.7081 10.7187 4.98905 11.2188 5.48914C11.7189 5.98924 11.9998 6.66752 11.9998 7.37476C11.9998 7.55157 12.0701 7.72114 12.1951 7.84617C12.3201 7.97119 12.4897 8.04143 12.6665 8.04143C12.8433 8.04143 13.0129 7.97119 13.1379 7.84617C13.2629 7.72114 13.3332 7.55157 13.3332 7.37476C13.3321 6.31422 12.9103 5.29742 12.1604 4.54751C11.4105 3.79759 10.3937 3.37582 9.33316 3.37476C9.15635 3.37476 8.98678 3.445 8.86176 3.57002C8.73673 3.69505 8.6665 3.86462 8.6665 4.04143C8.6665 4.21824 8.73673 4.38781 8.86176 4.51283C8.98678 4.63786 9.15635 4.7081 9.33316 4.7081ZM15.3952 11.8674C15.7815 12.2548 15.9985 12.7796 15.9985 13.3268C15.9985 13.8739 15.7815 14.3987 15.3952 14.7861L14.7885 15.4854C9.3285 20.7128 -3.95817 7.42943 1.18849 1.9521L1.95516 1.28543C2.34301 0.909881 2.86312 0.702129 3.40296 0.707119C3.94281 0.71211 4.45899 0.929441 4.83983 1.3121C4.8605 1.33276 6.09583 2.93743 6.09583 2.93743C6.46238 3.32251 6.66643 3.83405 6.66556 4.3657C6.66469 4.89735 6.45897 5.40821 6.09116 5.7921L5.31916 6.76276C5.74639 7.80084 6.37454 8.74426 7.1675 9.53883C7.96046 10.3334 8.90262 10.9634 9.93983 11.3928L10.9165 10.6161C11.3004 10.2486 11.8112 10.0431 12.3427 10.0423C12.8742 10.0416 13.3855 10.2456 13.7705 10.6121C13.7705 10.6121 15.3745 11.8468 15.3952 11.8674ZM14.4778 12.8368C14.4778 12.8368 12.8825 11.6094 12.8618 11.5888C12.7245 11.4526 12.5389 11.3762 12.3455 11.3762C12.1521 11.3762 11.9665 11.4526 11.8292 11.5888C11.8112 11.6074 10.4665 12.6788 10.4665 12.6788C10.3759 12.7509 10.268 12.7982 10.1536 12.8159C10.0391 12.8337 9.92205 12.8214 9.81383 12.7801C8.47013 12.2798 7.24965 11.4966 6.23505 10.4835C5.22045 9.47038 4.43543 8.25105 3.93316 6.9081C3.88863 6.7984 3.87411 6.67882 3.8911 6.56166C3.90809 6.44449 3.95597 6.33396 4.02983 6.24143C4.02983 6.24143 5.10116 4.8961 5.11916 4.87876C5.25534 4.74142 5.33175 4.55584 5.33175 4.36243C5.33175 4.16902 5.25534 3.98344 5.11916 3.8461C5.0985 3.8261 3.87116 2.22943 3.87116 2.22943C3.73176 2.10443 3.54983 2.03749 3.36266 2.04233C3.17549 2.04716 2.99726 2.1234 2.86449 2.25543L2.09783 2.9221C-1.66351 7.44476 9.8505 18.3201 13.8138 14.5748L14.4212 13.8748C14.5635 13.7429 14.649 13.5609 14.6595 13.3672C14.6701 13.1735 14.605 12.9833 14.4778 12.8368Z" fill="currentColor"/>
  </g>
  <defs>
    <clipPath id="clip0_336_221">
      <rect width="16" height="16" fill="currentColor" transform="translate(0 0.708984)"/>
    </clipPath>
  </defs>
</svg>