<svg width="79" height="79" viewBox="0 0 79 79" fill="none" xmlns="http://www.w3.org/2000/svg">
<rect x="1.33366" y="1.33341" width="76" height="76" rx="20.7891" fill="url(#paint0_linear_1659_19254)" stroke="url(#paint1_linear_1659_19254)" stroke-width="2.66667"/>
<path fill-rule="evenodd" clip-rule="evenodd" d="M40.4308 38.2361H50.2147C55.6201 38.2361 60.0002 33.856 60.0002 28.4522C60.0002 23.0468 55.6201 18.6667 50.2147 18.6667C44.8109 18.6667 40.4293 23.0468 40.4293 28.4522V38.2361H40.4308ZM38.2363 38.2361H28.4508C23.047 38.2361 18.6654 33.856 18.6654 28.4507C18.6669 23.0468 23.0485 18.6667 28.4524 18.6667C33.8562 18.6667 38.2378 23.0468 38.2378 28.4522V38.2361H38.2363ZM28.4504 40.4309H38.2358V50.2164C38.2358 55.6217 33.8542 60.0018 28.4504 60.0018C23.0451 60.0018 18.665 55.6202 18.665 50.2164C18.665 44.811 23.0466 40.4309 28.4504 40.4309ZM53.6496 56.478C52.3024 57.3169 50.7117 57.8014 49.0078 57.8014C44.151 57.8014 40.2137 53.8642 40.2137 49.0074C40.2137 44.1505 44.151 40.2133 49.0078 40.2133C53.8646 40.2133 57.8019 44.1505 57.8019 49.0074C57.8019 50.7114 57.3172 52.3023 56.4781 53.6496L60.0403 57.2118C60.8214 57.9928 60.8214 59.2592 60.0403 60.0402C59.2593 60.8213 57.9929 60.8213 57.2119 60.0402L53.6496 56.478ZM52.8551 49.0075C52.8551 51.1324 51.1326 52.8549 49.0077 52.8549C46.8829 52.8549 45.1603 51.1324 45.1603 49.0075C45.1603 46.8826 46.8829 45.1601 49.0077 45.1601C51.1326 45.1601 52.8551 46.8826 52.8551 49.0075Z" fill="url(#paint2_linear_1659_19254)"/>
<defs>
<linearGradient id="paint0_linear_1659_19254" x1="39.3337" y1="2.66675" x2="39.3337" y2="76.0001" gradientUnits="userSpaceOnUse">
<stop offset="0.0885417" stop-color="#F4F6FF"/>
<stop offset="0.526042" stop-color="white"/>
<stop offset="0.875" stop-color="#F4F6FF"/>
</linearGradient>
<linearGradient id="paint1_linear_1659_19254" x1="77.3337" y1="66.6667" x2="2.66699" y2="-7.99992" gradientUnits="userSpaceOnUse">
<stop stop-color="#7028E4"/>
<stop offset="1" stop-color="#D7AEFF"/>
</linearGradient>
<linearGradient id="paint2_linear_1659_19254" x1="62.0004" y1="61.3334" x2="18.6671" y2="15.3334" gradientUnits="userSpaceOnUse">
<stop stop-color="#7028E4"/>
<stop offset="1" stop-color="#D7AEFF"/>
</linearGradient>
</defs>
</svg>
