<svg width="66" height="66" viewBox="0 0 66 66" fill="none" xmlns="http://www.w3.org/2000/svg">
<rect x="0.333252" width="65.3333" height="65.3333" rx="17.3333" fill="white"/>
<g clip-path="url(#clip0_1659_19105)">
<path d="M53.0723 49.1905H52.2214V48.6673C52.2214 48.247 51.9236 47.8954 51.5255 47.8072V17.5637C51.5255 17.0769 51.1262 16.6818 50.6341 16.6818H43.4995V15.1439C43.6183 14.9934 43.6891 14.8917 43.7723 14.8024C44.341 14.1916 44.8764 13.5443 45.495 12.987C45.9876 12.5431 46.3846 12.8094 46.4678 13.3097C46.5201 13.6243 46.696 13.7442 47.0038 13.6489C47.3669 13.5372 47.7431 13.4044 48.0485 13.1898C48.4728 12.8912 48.8228 12.492 49.2293 12.1657C49.5876 11.8777 49.965 11.6066 50.3608 11.3733C50.6359 11.2104 50.9615 11.1857 51.2795 11.298C51.595 11.4091 51.7899 11.6366 51.9011 11.9547C52.1584 11.4761 52.2796 10.7319 52.2368 10.0823C52.2053 9.60138 51.9854 9.24512 51.5724 9.00409C51.2914 8.84007 50.996 8.70016 50.7179 8.53202C50.0607 8.13402 49.861 7.51263 50.1528 6.81247C50.1664 6.77955 50.1813 6.7478 50.1956 6.71488C50.173 6.69901 50.1504 6.68254 50.1278 6.66667C49.9923 6.83539 49.8414 6.99412 49.7231 7.17343C49.2186 7.93944 48.5917 8.58375 47.8061 9.06758C47.5814 9.20632 47.3402 9.33154 47.09 9.41502C46.7221 9.5373 46.4987 9.37328 46.4512 8.99233C46.4256 8.78834 46.4137 8.58199 46.3721 8.38094C46.3151 8.10639 46.1421 7.95002 45.8462 7.97236C45.6697 7.98529 45.4754 7.97706 45.3221 8.04819C44.7872 8.29628 44.2649 8.57082 43.7425 8.84419C43.6576 8.88887 43.5779 8.94471 43.4995 9.00174V8.80539C43.572 8.75718 43.6195 8.67546 43.6195 8.58258C43.6195 8.43384 43.4977 8.31392 43.348 8.31392C43.1982 8.31392 43.0764 8.43443 43.0764 8.58258C43.0764 8.67546 43.1239 8.75718 43.1964 8.80539V16.6818H36.0618C35.5698 16.6818 35.1704 17.0769 35.1704 17.5637V29.4253H32.7524C32.3109 25.4795 28.9296 22.4101 24.8227 22.4101C20.7158 22.4101 17.3345 25.4795 16.893 29.4253H15.3515C14.8672 29.4253 14.4749 29.8139 14.4749 30.2925V47.8072C14.0768 47.8954 13.7791 48.2464 13.7791 48.6673V49.1905H12.9275C12.5995 49.1905 12.3333 49.4539 12.3333 49.7784V51.4121C12.3333 51.7366 12.5995 52 12.9275 52H53.0723C53.4004 52 53.6666 51.7366 53.6666 51.4121V49.7784C53.6666 49.4539 53.4004 49.1905 53.0723 49.1905ZM24.8209 23.9904C26.8039 23.9904 28.289 25.2261 28.4114 27.1838C28.4964 28.5371 26.59 28.0697 24.2843 26.8016C22.5509 25.8487 21.2304 29.1455 21.2304 27.1838C21.2304 25.222 22.8379 23.9904 24.8209 23.9904ZM16.6327 33.0761C16.6327 32.5911 17.0338 32.1943 17.5241 32.1943H24.0329V36.2207H17.5241C17.0338 36.2207 16.6327 35.8238 16.6327 35.3388V33.0761ZM16.6327 38.594C16.6327 38.1089 17.0338 37.7121 17.5241 37.7121H24.0329V41.7385H17.5241C17.0338 41.7385 16.6327 41.3417 16.6327 40.8567V38.594ZM16.6327 46.3746V44.1118C16.6327 43.6268 17.0338 43.23 17.5241 43.23H24.0329V47.2564H17.5241C17.0338 47.2564 16.6327 46.8596 16.6327 46.3746ZM33.0115 46.3746C33.0115 46.8596 32.6104 47.2564 32.1201 47.2564H25.6113V43.23H32.1201C32.6104 43.23 33.0115 43.6268 33.0115 44.1118V46.3746ZM33.0115 40.8567C33.0115 41.3417 32.6104 41.7385 32.1201 41.7385H25.6113V37.7121H32.1201C32.6104 37.7121 33.0115 38.1089 33.0115 38.594V40.8567ZM33.0115 35.3388C33.0115 35.8238 32.6104 36.2207 32.1201 36.2207H25.6113V32.1943H32.1201C32.6104 32.1943 33.0115 32.5911 33.0115 33.0761V35.3388ZM41.6383 19.0627C41.6383 18.8823 41.7875 18.7347 41.9699 18.7347H44.726C44.9085 18.7347 45.0576 18.8823 45.0576 19.0627V21.0739C45.0576 21.2544 44.9085 21.4019 44.726 21.4019H41.9699C41.7875 21.4019 41.6383 21.2544 41.6383 21.0739V19.0627ZM41.6383 22.5542C41.6383 22.3737 41.7875 22.2261 41.9699 22.2261H44.726C44.9085 22.2261 45.0576 22.3737 45.0576 22.5542V24.5653C45.0576 24.7458 44.9085 24.8934 44.726 24.8934H41.9699C41.7875 24.8934 41.6383 24.7458 41.6383 24.5653V22.5542ZM41.6383 26.0456C41.6383 25.8651 41.7875 25.7176 41.9699 25.7176H44.726C44.9085 25.7176 45.0576 25.8651 45.0576 26.0456V28.0568C45.0576 28.2372 44.9085 28.3848 44.726 28.3848H41.9699C41.7875 28.3848 41.6383 28.2372 41.6383 28.0568V26.0456ZM37.4292 19.0627C37.4292 18.8823 37.5784 18.7347 37.7608 18.7347H40.5169C40.6994 18.7347 40.8485 18.8823 40.8485 19.0627V21.0739C40.8485 21.2544 40.6994 21.4019 40.5169 21.4019H37.7608C37.5784 21.4019 37.4292 21.2544 37.4292 21.0739V19.0627ZM37.4292 22.5542C37.4292 22.3737 37.5784 22.2261 37.7608 22.2261H40.5169C40.6994 22.2261 40.8485 22.3737 40.8485 22.5542V24.5653C40.8485 24.7458 40.6994 24.8934 40.5169 24.8934H37.7608C37.5784 24.8934 37.4292 24.7458 37.4292 24.5653V22.5542ZM37.4292 28.0568V26.0456C37.4292 25.8651 37.5784 25.7176 37.7608 25.7176H40.5169C40.6994 25.7176 40.8485 25.8651 40.8485 26.0456V28.0568C40.8485 28.2372 40.6994 28.3848 40.5169 28.3848H37.7608C37.5784 28.3848 37.4292 28.2372 37.4292 28.0568ZM48.0247 46.9084C48.0247 47.3922 47.6284 47.7849 47.1387 47.7849H39.5566C39.0675 47.7849 38.6706 47.3928 38.6706 46.9084V36.7927C38.6706 34.253 40.7517 32.1943 43.3188 32.1943H43.3759C45.9431 32.1943 48.0241 34.253 48.0241 36.7927V46.9084H48.0247ZM49.2667 28.0568C49.2667 28.2372 49.1176 28.3848 48.9351 28.3848H46.179C45.9966 28.3848 45.8474 28.2372 45.8474 28.0568V26.0456C45.8474 25.8651 45.9966 25.7176 46.179 25.7176H48.9351C49.1176 25.7176 49.2667 25.8651 49.2667 26.0456V28.0568ZM49.2667 24.5653C49.2667 24.7458 49.1176 24.8934 48.9351 24.8934H46.179C45.9966 24.8934 45.8474 24.7458 45.8474 24.5653V22.5542C45.8474 22.3737 45.9966 22.2261 46.179 22.2261H48.9351C49.1176 22.2261 49.2667 22.3737 49.2667 22.5542V24.5653ZM49.2667 21.0739C49.2667 21.2544 49.1176 21.4019 48.9351 21.4019H46.179C45.9966 21.4019 45.8474 21.2544 45.8474 21.0739V19.0627C45.8474 18.8823 45.9966 18.7347 46.179 18.7347H48.9351C49.1176 18.7347 49.2667 18.8823 49.2667 19.0627V21.0739Z" fill="url(#paint0_linear_1659_19105)"/>
</g>
<defs>
<linearGradient id="paint0_linear_1659_19105" x1="16.3333" y1="6.66667" x2="53.6666" y2="53.3333" gradientUnits="userSpaceOnUse">
<stop stop-color="#72EDF2"/>
<stop offset="1" stop-color="#518CE5"/>
</linearGradient>
<clipPath id="clip0_1659_19105">
<rect width="41.3333" height="45.3333" fill="white" transform="translate(12.3333 6.66667)"/>
</clipPath>
</defs>
</svg>
