<svg width="22" height="22" viewBox="0 0 22 22" fill="none" xmlns="http://www.w3.org/2000/svg">
<path fill-rule="evenodd" clip-rule="evenodd" d="M2.23186 9.56001C2.23186 5.54933 5.60947 2.23235 9.85842 2.23235C14.1074 2.23235 17.485 5.54933 17.485 9.56001C17.485 11.5162 16.6815 13.3073 15.3652 14.6291C15.3178 14.6646 15.2726 14.7043 15.2301 14.7483C15.2059 14.7734 15.1831 14.7993 15.1617 14.8259C13.7948 16.0991 11.9302 16.8877 9.85842 16.8877C5.60947 16.8877 2.23186 13.5707 2.23186 9.56001ZM15.9969 17.0406C14.3077 18.3442 12.1705 19.1199 9.85842 19.1199C4.45045 19.1199 -0.000411391 14.8761 -0.000411391 9.56001C-0.000411391 4.24393 4.45045 7.689e-05 9.85842 7.689e-05C15.2664 7.689e-05 19.7172 4.24393 19.7172 9.56001C19.7172 11.8055 18.9231 13.8598 17.5981 15.4836L21.5622 19.3122C22.0056 19.7404 22.0179 20.447 21.5896 20.8904C21.1614 21.3338 20.4548 21.3461 20.0114 20.9178L15.9969 17.0406Z" fill="#878A9C"/>
</svg>
