<svg width="73" height="73" viewBox="0 0 73 73" fill="none" xmlns="http://www.w3.org/2000/svg">
<rect x="1.78182" y="1.78182" width="69.4365" height="69.4365" rx="18.9937" fill="url(#paint0_linear_1659_19257)" stroke="url(#paint1_linear_1659_19257)" stroke-width="2.43637"/>
<g clip-path="url(#clip0_1659_19257)">
<path d="M36.5298 17.6208C41.1722 17.6208 45.8159 17.6154 50.4583 17.6235C52.5827 17.6276 54.3041 18.7595 55.0371 20.6797C55.2413 21.2138 55.3603 21.8156 55.3616 22.3863C55.3833 29.4397 55.3792 36.4919 55.3738 43.5454C55.3724 46.1201 53.4725 48.1972 50.8829 48.2743C47.7077 48.3676 44.5285 48.3284 41.3507 48.3189C40.6908 48.3176 40.1539 48.469 39.6157 48.8855C37.0694 50.8558 34.4919 52.7828 31.9226 54.7246C31.7076 54.8869 31.4912 55.0532 31.2586 55.1898C30.4756 55.6483 29.5493 55.2574 29.502 54.3676C29.4155 52.7057 29.4317 51.037 29.4155 49.371C29.4046 48.3297 29.4128 48.3284 28.3999 48.3284C26.5067 48.3284 24.6135 48.3419 22.7203 48.323C20.4945 48.3 18.7798 47.421 17.9495 45.2546C17.7304 44.6826 17.6331 44.0295 17.6317 43.4128C17.6128 36.45 17.6182 29.4871 17.6222 22.5242C17.6236 19.6979 19.6858 17.6317 22.5337 17.6249C27.1991 17.6127 31.8644 17.6222 36.5298 17.6222V17.6208ZM41.2276 41.2871V41.2898C42.9856 41.2898 44.7449 41.3019 46.5028 41.2844C47.5049 41.2749 48.1783 40.7123 48.3325 39.8225C48.5461 38.5906 47.7023 37.6278 46.3122 37.6183C42.9301 37.5953 39.5481 37.5764 36.1687 37.6427C35.6035 37.6535 34.949 37.9848 34.5108 38.3688C33.9659 38.8462 33.978 39.5954 34.2688 40.2539C34.5825 40.9598 35.187 41.283 35.9524 41.2857C37.7103 41.2911 39.4696 41.2871 41.2276 41.2871ZM31.7914 31.763C29.9888 31.763 28.1849 31.7427 26.3823 31.7697C25.1396 31.7887 24.3593 32.9476 24.7406 34.1362C25.0314 35.0395 25.6467 35.4087 26.9394 35.4114C30.1633 35.4182 33.3858 35.4141 36.6096 35.4114C36.8111 35.4114 37.0126 35.3871 37.2127 35.356C38.3892 35.1721 38.9639 34.4973 38.8895 33.3952C38.8233 32.4134 38.0687 31.7724 36.9328 31.7657C35.2194 31.7562 33.5061 31.763 31.7941 31.7657L31.7914 31.763ZM28.1889 41.2911C28.7731 41.2911 29.3573 41.2911 29.9415 41.2911C30.0091 41.2911 30.0767 41.2857 30.143 41.2789C31.0666 41.1897 31.7197 40.5487 31.8293 39.6278C31.9145 38.9165 31.3776 37.9212 30.6028 37.8455C29.0787 37.6954 27.5209 37.6278 26.0023 37.7738C24.9611 37.8739 24.5148 38.7989 24.669 39.8388C24.7947 40.6934 25.4993 41.2587 26.5027 41.2884C27.0639 41.3046 27.6264 41.2911 28.1876 41.2911H28.1889ZM44.849 31.7657V31.763C44.2405 31.763 43.632 31.763 43.0234 31.763C42.9788 31.763 42.9328 31.7643 42.8882 31.767C41.9687 31.8265 41.2371 32.5486 41.1681 33.4628C41.1032 34.3323 41.7766 35.2559 42.6894 35.3086C44.0782 35.3898 45.4792 35.3911 46.868 35.314C47.824 35.26 48.4028 34.4432 48.3568 33.4682C48.3122 32.5338 47.6104 31.8076 46.6759 31.7684C46.0688 31.7427 45.4589 31.7643 44.8504 31.7643L44.849 31.7657Z" fill="url(#paint2_linear_1659_19257)"/>
</g>
<defs>
<linearGradient id="paint0_linear_1659_19257" x1="36.5001" y1="3" x2="36.5001" y2="70.0001" gradientUnits="userSpaceOnUse">
<stop offset="0.0885417" stop-color="#F4F6FF"/>
<stop offset="0.526042" stop-color="white"/>
<stop offset="0.875" stop-color="#F4F6FF"/>
</linearGradient>
<linearGradient id="paint1_linear_1659_19257" x1="3" y1="36.5001" x2="70.0001" y2="36.5001" gradientUnits="userSpaceOnUse">
<stop stop-color="#F6D365"/>
<stop offset="1" stop-color="#FDA085"/>
</linearGradient>
<linearGradient id="paint2_linear_1659_19257" x1="16.4001" y1="17.6181" x2="55.382" y2="55.3818" gradientUnits="userSpaceOnUse">
<stop stop-color="#F6D365"/>
<stop offset="1" stop-color="#FDA085"/>
</linearGradient>
<clipPath id="clip0_1659_19257">
<rect width="37.761" height="37.7637" fill="white" transform="translate(17.6182 17.6182)"/>
</clipPath>
</defs>
</svg>
