<svg width="67" height="66" viewBox="0 0 67 66" fill="none" xmlns="http://www.w3.org/2000/svg">
<g id="Frame 11665">
<rect id="Rectangle 2544" x="0.733398" y="0.166534" width="65.3333" height="65.3333" rx="17.3333" fill="white"/>
<g id="Frame" clip-path="url(#clip0_1659_19315)">
<g id="Group">
<path id="Union" fill-rule="evenodd" clip-rule="evenodd" d="M18.2963 52.1665H33.7663H49.2386C50.6112 52.1665 51.1715 51.58 51.1715 50.1385V18.2947C51.1715 18.1345 51.1716 17.9744 51.1718 17.8144C51.172 17.4944 51.1723 17.1746 51.1715 16.8543C51.1682 15.4139 50.6112 14.8332 49.2309 14.8332H18.4013C16.9502 14.8332 16.4131 15.3967 16.4131 16.9189C16.4131 20.1999 16.4134 23.4809 16.4136 26.7621C16.4139 30.0435 16.4142 33.3251 16.4142 36.607C16.4142 37.7397 16.4141 38.8724 16.4141 40.0052C16.4138 43.4038 16.4136 46.8028 16.4153 50.2019C16.4164 51.5673 16.9922 52.1665 18.2963 52.1665ZM36.9205 41.7763C35.8768 41.7757 34.8331 41.7751 33.7895 41.7751C32.7882 41.7751 31.7866 41.7716 30.7849 41.7681C28.3806 41.7597 25.9759 41.7514 23.5723 41.7912C21.6703 41.8223 20.3342 40.3946 20.3828 38.4599C20.4407 36.1349 20.4288 33.8076 20.4169 31.4805C20.4115 30.4306 20.4061 29.3808 20.4071 28.3312C20.4082 26.4703 21.5841 25.2304 23.3833 25.2281C30.3249 25.22 37.2653 25.2212 44.2057 25.2269C45.9916 25.2281 47.1731 26.4772 47.1753 28.3393C47.1786 31.7916 47.1786 35.2439 47.1753 38.6962C47.1731 40.5168 45.9839 41.7682 44.2278 41.7728C41.7923 41.7792 39.3563 41.7778 36.9205 41.7763ZM44.2919 21.3679V19.871C44.2923 19.6855 44.2912 19.4999 44.2901 19.3144C44.2878 18.9435 44.2856 18.5727 44.2952 18.2025C44.3184 17.3682 44.8655 16.8071 45.6612 16.7863C46.1029 16.776 46.5435 16.7806 46.9853 16.7852L46.9863 16.7852C47.8461 16.7956 48.4075 17.2864 48.4407 18.1668C48.4827 19.2972 48.4816 20.4311 48.4396 21.5615C48.4097 22.3911 47.8616 22.8947 47.0769 22.9166C46.5984 22.9292 46.1198 22.9292 45.6413 22.9143C44.8456 22.8889 44.3228 22.3266 44.293 21.4831C44.2919 21.4451 44.2919 21.4059 44.2919 21.3679ZM23.2905 46.3693V47.1748C23.2905 47.3471 23.2914 47.5196 23.2922 47.6922C23.2939 48.0377 23.2957 48.3834 23.2905 48.7292C23.275 49.6303 22.7324 50.2007 21.8781 50.2168C21.436 50.2249 20.994 50.2249 20.553 50.2168C19.7396 50.2019 19.1683 49.6879 19.1395 48.8491C19.1008 47.7187 19.1008 46.5848 19.1428 45.4544C19.1749 44.6005 19.7253 44.1016 20.5486 44.0843C21.0083 44.0739 21.4692 44.0728 21.9289 44.0866C22.7291 44.1108 23.2596 44.6674 23.2883 45.5062C23.2952 45.7058 23.2936 45.9059 23.2919 46.1062C23.2912 46.1939 23.2905 46.2816 23.2905 46.3693ZM35.7763 47.6632C35.7776 47.492 35.7788 47.3207 35.7788 47.1494C35.7792 46.9685 35.778 46.7876 35.7769 46.6067C35.7745 46.2311 35.7721 45.8554 35.7833 45.4797C35.8076 44.6708 36.3392 44.112 37.1072 44.0878C37.6211 44.0705 38.1384 44.0693 38.6523 44.0901C39.3087 44.1177 39.8547 44.5706 39.8834 45.2504C39.9365 46.5122 39.9409 47.7797 39.8834 49.0415C39.8502 49.7444 39.2822 50.1938 38.5992 50.2134C38.103 50.2272 37.6057 50.2284 37.1094 50.2134C36.3502 50.1903 35.8054 49.6188 35.7821 48.8179C35.7707 48.4335 35.7735 48.0484 35.7763 47.6632ZM23.4982 19.3585C23.4971 19.5205 23.4961 19.6825 23.4961 19.8445C23.4961 20.0116 23.4976 20.1787 23.4991 20.3459C23.5024 20.7162 23.5057 21.0867 23.4928 21.4566C23.4618 22.3566 22.917 22.9016 22.0505 22.9177C21.6085 22.9258 21.1664 22.9258 20.7254 22.9166C19.9264 22.8981 19.3517 22.3531 19.3307 21.528C19.3031 20.4161 19.3053 19.3018 19.3307 18.1898C19.3495 17.359 19.9198 16.8025 20.7122 16.7852C21.1539 16.7748 21.5945 16.7794 22.0362 16.784L22.0373 16.784C22.9269 16.7944 23.4684 17.3498 23.4939 18.2901C23.503 18.6465 23.5006 19.0024 23.4982 19.3585ZM31.805 19.3691C31.8043 19.5326 31.8036 19.6961 31.8036 19.8595C31.8032 20.0451 31.8046 20.2306 31.8059 20.4161C31.8086 20.7871 31.8113 21.1578 31.8003 21.528C31.7748 22.3312 31.2355 22.8912 30.4685 22.9143C29.9723 22.9292 29.475 22.9292 28.9788 22.912C28.2836 22.8878 27.731 22.451 27.6979 21.7401C27.6382 20.4783 27.636 19.2096 27.699 17.949C27.7344 17.2415 28.3013 16.8048 28.9898 16.7863C29.4684 16.7737 29.9469 16.776 30.4254 16.7863C31.2477 16.8048 31.7848 17.374 31.8014 18.2475C31.8083 18.621 31.8066 18.9952 31.805 19.3691ZM48.2616 45.6422V47.139C48.2613 47.3185 48.2624 47.4979 48.2635 47.6771C48.2657 48.0352 48.2679 48.3929 48.2583 48.75C48.2329 49.6395 47.6737 50.203 46.8172 50.2157C46.3751 50.2226 45.9331 50.2238 45.4921 50.2157C44.6942 50.2007 44.1195 49.658 44.0963 48.8249C44.0664 47.7129 44.0698 46.5986 44.0963 45.4866C44.1162 44.6501 44.6798 44.1027 45.4766 44.0843C45.9364 44.0739 46.3972 44.0739 46.857 44.0843C47.6814 44.1016 48.2207 44.6616 48.2605 45.527C48.2616 45.5649 48.2616 45.604 48.2616 45.642V45.6422ZM40.1133 19.3343C40.1122 19.5043 40.1111 19.6744 40.1111 19.8445C40.1116 19.9838 40.1127 20.123 40.1137 20.2622C40.1168 20.6794 40.1199 21.0963 40.11 21.5119C40.0901 22.3324 39.5762 22.8832 38.8003 22.9108C38.2853 22.9292 37.7692 22.9327 37.2553 22.9097C36.5359 22.8762 36.0076 22.3347 35.9932 21.5822C35.9711 20.4322 35.9722 19.2811 35.9932 18.1311C36.0076 17.3567 36.5536 16.8105 37.2973 16.7863C37.7935 16.7702 38.2909 16.7714 38.7871 16.7863C39.5585 16.8094 40.0856 17.3636 40.1078 18.176C40.1185 18.5617 40.1159 18.9479 40.1133 19.3343ZM31.5947 46.3198V47.1252C31.5943 47.3116 31.5954 47.4982 31.5964 47.6848C31.5986 48.0738 31.6007 48.4632 31.5903 48.8525C31.5704 49.6269 31.0421 50.1857 30.3005 50.2134C29.7855 50.233 29.2694 50.233 28.7555 50.2122C28.0361 50.1834 27.4956 49.6476 27.4791 48.8986C27.4525 47.729 27.4548 46.5583 27.4791 45.3887C27.4945 44.6628 28.0195 44.1269 28.7102 44.0935C29.2429 44.067 29.7778 44.0693 30.3105 44.0889C31.0543 44.1177 31.566 44.6731 31.5925 45.4567C31.5987 45.6575 31.5973 45.8589 31.5959 46.0604C31.5953 46.1468 31.5947 46.2333 31.5947 46.3198ZM29.8957 34.7641C29.8914 35.4219 29.8872 36.0796 29.8872 36.7371C29.7126 38.5647 31.3217 39.0959 32.4954 38.393C33.8978 37.5522 35.3452 36.7933 36.7928 36.0344C37.3986 35.7168 38.0044 35.3991 38.6069 35.0755C39.2214 34.746 39.6325 34.2631 39.6435 33.5095C39.6546 32.7444 39.228 32.2893 38.6102 31.9574C38.171 31.7209 37.7312 31.4853 37.2915 31.2497C35.6379 30.3639 33.9843 29.478 32.3561 28.5431C31.2134 27.8875 29.8242 28.5535 29.8706 30.131C29.9156 31.6739 29.9056 33.2191 29.8957 34.7641Z" fill="url(#paint0_linear_1659_19315)"/>
</g>
</g>
</g>
<defs>
<linearGradient id="paint0_linear_1659_19315" x1="15.1064" y1="13.4999" x2="52.4586" y2="51.4123" gradientUnits="userSpaceOnUse">
<stop stop-color="#8DAAFF"/>
<stop offset="0.466329" stop-color="#6E7FF3"/>
</linearGradient>
<clipPath id="clip0_1659_19315">
<rect width="34.7573" height="37.3333" fill="white" transform="translate(16.4131 14.8332)"/>
</clipPath>
</defs>
</svg>
