<svg width="73" height="73" viewBox="0 0 73 73" fill="none" xmlns="http://www.w3.org/2000/svg">
<rect x="1.78182" y="1.78191" width="69.4364" height="69.4364" rx="18.9937" fill="url(#paint0_linear_1659_19254)" stroke="url(#paint1_linear_1659_19254)" stroke-width="2.43636"/>
<path fill-rule="evenodd" clip-rule="evenodd" d="M48.2859 41.8806L57.4451 56.8951C57.9913 57.7905 57.3323 58.9274 56.2667 58.9274H16.4473C15.3816 58.9274 14.7226 57.7905 15.2688 56.8951L24.428 41.8806C24.6758 41.4747 25.1234 41.226 25.6064 41.226H26.8845C27.1425 41.565 27.4011 41.8973 27.6586 42.2235H26.2791C25.8713 42.2235 25.4902 42.437 25.2841 42.7816L17.2446 56.2322V56.2333C17.0339 56.5868 17.0328 57.0094 17.2407 57.364C17.4491 57.7186 17.8222 57.9299 18.2402 57.9299H54.4743C54.8918 57.9299 55.2654 57.7186 55.4733 57.364C55.6812 57.0094 55.68 56.5868 55.4693 56.2322L47.4299 42.781C47.2243 42.437 46.8427 42.2235 46.4349 42.2235H45.0554C45.3128 41.8973 45.5714 41.565 45.8294 41.226H47.1081C47.5911 41.226 48.0382 41.4747 48.2859 41.8806ZM30.9645 46.1446L29.6169 48.7634H22.8897L26.1642 43.2856C26.1875 43.246 26.2314 43.2209 26.2792 43.2209H28.4601C29.3309 44.2864 30.1796 45.2688 30.9645 46.1446ZM42.6425 45.2211H42.5655L42.6043 45.1765L42.6425 45.2211ZM42.3709 47.7506C41.9995 48.1576 41.8224 48.7012 41.8851 49.2426L42.6973 56.9322H36.2475L37.5541 50.4903C37.938 50.1291 39.7948 48.3555 42.1277 45.72H47.9509L48.8594 47.1105H43.8318C43.2742 47.1105 42.7423 47.3436 42.3709 47.7506ZM23.7122 53.2593L25.516 49.5109H29.4181L27.755 56.9318H18.2409C18.1772 56.9318 18.143 56.8967 18.1253 56.8666C18.1077 56.8364 18.0934 56.7896 18.1253 56.735L22.4432 49.5109H24.9516L23.2503 53.0469C23.1449 53.266 23.1609 53.5185 23.2941 53.7237C23.4268 53.9283 23.6535 54.0504 23.9013 54.0504H26.9097C27.0498 54.0504 27.1643 53.9389 27.1643 53.8012C27.1643 53.6635 27.0498 53.552 26.9097 53.552H23.9013C23.7971 53.552 23.7429 53.4856 23.7242 53.4566C23.7065 53.4277 23.6672 53.3513 23.7122 53.2593ZM36.9831 50.8632L35.7323 56.9326H28.5359L30.1882 49.5117H34.1535C34.702 50.0581 35.0699 50.4066 35.1901 50.5192C35.5051 50.8175 35.9191 50.9814 36.3571 50.9814C36.5753 50.9814 36.7872 50.9407 36.9831 50.8632ZM33.4133 48.763C32.8665 48.2027 32.2206 47.5247 31.5103 46.7469L30.4726 48.763H33.4133ZM47.7077 45.2214H43.3067L42.9387 44.7898C43.3676 44.2908 43.8079 43.7667 44.2539 43.2209H46.4347C46.4826 43.2209 46.5264 43.246 46.5503 43.285L47.7077 45.2214ZM45.3428 47.6092H49.135L54.5897 56.7356C54.6216 56.7902 54.6074 56.837 54.5897 56.8671C54.5715 56.8973 54.5379 56.9324 54.4741 56.9324H53.2068C53.2068 56.8761 53.1954 56.8186 53.1561 56.7724L45.3428 47.6092ZM44.679 47.6092H43.8668C43.0016 47.6092 42.3295 48.3457 42.4264 49.187L43.3177 56.9324H45.5533L48.3333 51.895L44.679 47.6092ZM52.6283 56.9322H46.1313L48.684 52.3063L52.6283 56.9322Z" fill="url(#paint2_linear_1659_19254)"/>
<path d="M36.358 13.8546C28.8335 13.8642 22.7367 19.8328 22.7264 27.1984C22.7264 36.7778 35.4264 48.776 35.9658 49.2821C36.1841 49.4896 36.5315 49.4896 36.7498 49.2821C37.2892 48.776 49.9892 36.7783 49.9892 27.1984C49.9794 19.8328 43.8821 13.8642 36.358 13.8546ZM36.358 33.3139C32.9076 33.3139 30.1102 30.576 30.1102 27.198C30.1102 23.8199 32.9071 21.082 36.358 21.082C39.809 21.082 42.6059 23.8199 42.6059 27.198C42.604 30.5746 39.808 33.3115 36.358 33.3139Z" fill="url(#paint3_linear_1659_19254)"/>
<defs>
<linearGradient id="paint0_linear_1659_19254" x1="36.5" y1="3.00009" x2="36.5" y2="70.0001" gradientUnits="userSpaceOnUse">
<stop offset="0.0885417" stop-color="#F4F6FF"/>
<stop offset="0.526042" stop-color="white"/>
<stop offset="0.875" stop-color="#F4F6FF"/>
</linearGradient>
<linearGradient id="paint1_linear_1659_19254" x1="71.2182" y1="61.4728" x2="3" y2="-6.74536" gradientUnits="userSpaceOnUse">
<stop stop-color="#7028E4"/>
<stop offset="1" stop-color="#D7AEFF"/>
</linearGradient>
<linearGradient id="paint2_linear_1659_19254" x1="13.6784" y1="59.2258" x2="26.1178" y2="27.4716" gradientUnits="userSpaceOnUse">
<stop stop-color="#7028E4"/>
<stop offset="1" stop-color="#D7AEFF"/>
</linearGradient>
<linearGradient id="paint3_linear_1659_19254" x1="21.8335" y1="50.0377" x2="57.8749" y2="20.7258" gradientUnits="userSpaceOnUse">
<stop stop-color="#7028E4"/>
<stop offset="1" stop-color="#D7AEFF"/>
</linearGradient>
</defs>
</svg>
