<svg width="66" height="66" viewBox="0 0 66 66" fill="none" xmlns="http://www.w3.org/2000/svg">
<g id="Frame 11666">
<rect id="Rectangle 2546" x="0.199951" y="0.166534" width="65.3333" height="65.3333" rx="17.3333" fill="white"/>
<g id="Group 11799">
<path id="Union" fill-rule="evenodd" clip-rule="evenodd" d="M25.3075 30.8059C25.246 30.8059 25.1845 30.8059 25.1231 30.8059H25.1213C25.06 30.8059 24.9987 30.8059 24.9374 30.8059C22.8573 30.8056 20.7412 30.8054 18.7118 31.0977C17.7433 31.2332 17.1196 31.8205 16.6723 32.4967C15.6531 34.0356 14.9973 35.6623 14.42 37.3082H11.8621C11.1502 37.3082 10.7252 37.8773 10.9096 38.5864C11.1119 39.3659 11.3426 39.7511 12.4599 40.0191L12.8876 40.1198C12.5534 40.7721 12.3102 41.462 12.3102 42.0795V47.1381C12.3102 47.9853 12.8822 48.6972 13.546 48.9643V51.333C13.546 51.7951 13.9059 52.1665 14.3567 52.1665H16.6608C17.1098 52.1665 17.4733 51.7951 17.4733 51.333V49.0787H32.772V51.3321C32.772 51.7942 33.1319 52.1656 33.5827 52.1656H35.8868C36.3376 52.1656 36.7011 51.7942 36.7011 51.3321V48.9634C37.3649 48.6962 37.9342 47.9817 37.9342 47.1372V42.0786C37.9342 41.462 37.6883 40.7712 37.356 40.1189L37.7809 40.0182C38.9018 39.7511 39.1325 39.365 39.3348 38.5855C39.5219 37.8764 39.0951 37.3073 38.3815 37.3073H35.8235C35.2497 35.6623 34.5913 34.0346 33.5712 32.4957C33.1239 31.8196 32.5002 31.2322 31.5335 31.0968C29.5025 30.8054 27.3875 30.8056 25.3075 30.8059ZM19.6072 32.3118C21.2911 32.1938 23.2806 32.1279 25.1231 32.1252H25.124C26.9629 32.1289 28.9524 32.1938 30.6355 32.3118C31.2743 32.3567 31.8605 32.7135 32.2534 33.3649C33.0981 34.7712 33.8491 36.0896 34.3231 37.558C34.3231 37.558 29.0424 38.0996 25.124 38.0996C21.2055 38.0996 15.9248 37.558 15.9248 37.558C16.4006 36.0868 17.1481 34.7712 17.9945 33.3649C18.3839 32.7135 18.9692 32.3567 19.6072 32.3118ZM31.5879 43.7694C32.1421 42.3284 33.3983 42.0256 34.5762 41.8151H34.5771C35.7549 41.6065 36.1772 41.8261 36.31 42.2479C36.4891 42.8078 36.6904 43.9149 35.7237 44.279C35.055 44.5307 33.7709 44.7212 32.8479 44.8582C32.6703 44.8845 32.506 44.9089 32.3621 44.9313C31.505 45.0649 31.2912 44.5434 31.5879 43.7694ZM14.5234 44.279C13.5531 43.9149 13.7589 42.8078 13.9371 42.2479H13.938C14.0716 41.827 14.4895 41.6074 15.6682 41.8151C16.8488 42.0256 18.105 42.3284 18.6592 43.7694C18.9577 44.5434 18.742 45.0649 17.8849 44.9313C17.7411 44.9089 17.577 44.8846 17.3996 44.8583C16.4756 44.7213 15.1901 44.5308 14.5234 44.279ZM20.2121 42.2863H30.0314C30.4439 42.3476 30.5428 42.7804 30.353 43.2616C29.9494 44.2726 28.9097 44.9515 27.853 44.9515H22.3923C21.3383 44.9515 20.2986 44.2726 19.8941 43.2616C19.7034 42.7813 19.7961 42.2863 20.2121 42.2863ZM51.2014 35.3233C51.7645 35.3178 52.0015 35.5008 52.0906 35.7854C52.2527 36.2904 52.4345 37.295 51.5605 37.6234C50.9523 37.8525 49.7754 38.026 48.9385 38.1493L48.9384 38.1493C48.786 38.1718 48.6449 38.1926 48.5205 38.2117C47.7463 38.3325 47.5529 37.8613 47.8211 37.1586C48.3236 35.8567 49.4614 35.585 50.527 35.3947C50.7916 35.3471 51.0143 35.327 51.2014 35.3242V35.3233ZM41.9711 25.4358L41.7869 25.4358C39.9115 25.4355 38.0008 25.4352 36.1727 25.6965C35.2942 25.8237 34.7312 26.3516 34.3275 26.9619C33.6896 27.9262 33.2156 28.9308 32.8067 29.9482C33.2486 30.1504 33.6317 30.4166 33.9587 30.7167C34.3748 29.7085 34.92 28.7505 35.5197 27.7514C35.8751 27.1586 36.407 26.8374 36.9835 26.7999C38.5061 26.6929 40.3041 26.6297 41.9711 26.627C43.6363 26.6297 45.436 26.692 46.9604 26.7999C47.5342 26.8374 48.0661 27.1577 48.4216 27.7514C49.187 29.0195 49.865 30.2126 50.2926 31.5401C50.2926 31.5401 45.5162 32.0324 41.972 32.0324C39.1138 32.0324 36.0614 31.7597 34.7499 31.6389L34.7574 31.6486C34.7593 31.6511 34.7612 31.6536 34.7628 31.6558C34.7636 31.657 34.7644 31.6581 34.765 31.6591V31.6655C35.6667 33.0275 36.1943 34.424 36.7148 35.8017L36.7148 35.8017L36.7224 35.822H46.4125C46.7885 35.8787 46.8767 36.2703 46.7012 36.703C46.3377 37.6189 45.3959 38.2328 44.4399 38.2328H40.8155C40.8209 38.4853 40.7932 38.7341 40.7326 38.9711H40.7291C40.6079 39.4386 40.4119 40.0443 39.9148 40.5484C39.7602 40.7053 39.56 40.7797 39.3606 40.8538C39.2623 40.8903 39.1642 40.9267 39.0719 40.973C39.1056 41.1008 39.1511 41.2211 39.1964 41.3408C39.2719 41.5408 39.347 41.7393 39.3659 41.9693H48.892V44.0041C48.892 44.424 49.2181 44.7598 49.6253 44.7598H51.7102C52.1173 44.7598 52.4461 44.424 52.4461 44.0041V41.8623C53.0475 41.6225 53.5616 40.9748 53.5616 40.2117V35.6326C53.5616 35.0754 53.3424 34.4532 53.0386 33.8631L53.4252 33.7716C54.4365 33.5282 54.6468 33.1787 54.8285 32.4733C54.9969 31.8329 54.612 31.3205 53.9652 31.3205H51.6522C51.1319 29.832 50.5376 28.3571 49.6128 26.9646C49.2083 26.3544 48.6461 25.8255 47.7677 25.6993C45.9392 25.4361 44.0289 25.4364 42.1541 25.4367L41.9711 25.4367V25.4358ZM31.366 25.8545H24.944H24.9431C24.6731 25.8545 24.609 26.1774 24.7364 26.4913C24.9992 27.1518 25.6808 27.5965 26.3713 27.5965H29.9422C30.6327 27.5965 31.3108 27.1518 31.5772 26.4913C31.701 26.1765 31.6377 25.8956 31.366 25.8545ZM23.9283 26.8252C23.5648 25.881 22.7424 25.6825 21.9708 25.5461C21.9254 25.5409 21.8813 25.5352 21.8386 25.5297C21.4443 25.4793 21.1592 25.4427 20.8384 25.8307C20.7235 26.1957 20.5899 26.9194 21.2224 27.1591C21.6665 27.3265 22.5327 27.4532 23.1393 27.5418C23.2422 27.5569 23.3376 27.5708 23.4222 27.5837C23.9826 27.6733 24.1243 27.3321 23.9283 26.8252ZM31.7607 19.3311C30.6604 19.2542 29.3596 19.2103 28.155 19.2103C26.9513 19.2103 25.6487 19.2542 24.5484 19.3311C24.1323 19.3613 23.7483 19.5918 23.4917 20.0191C22.9402 20.9386 22.4484 21.7986 22.1401 22.7584C22.1401 22.7584 25.5908 23.1143 28.155 23.1143C30.7192 23.1143 34.1725 22.7584 34.1725 22.7584C33.8634 21.8014 33.3715 20.9377 32.8209 20.0191C32.5608 19.5918 32.1794 19.3604 31.7607 19.3311ZM28.0262 18.3475L28.155 18.3475H28.1559L28.2504 18.3475C29.6198 18.3474 31.0128 18.3473 32.3505 18.5369C32.9831 18.6257 33.3903 19.0081 33.6825 19.45C34.3498 20.4574 34.7793 21.5232 35.1552 22.5983H36.8294C37.2953 22.5983 37.5742 22.9706 37.453 23.4354C37.3381 23.8856 37.1831 24.2259 36.6512 24.3009C36.5506 24.3143 36.4496 24.3233 36.349 24.3323L36.3489 24.3323C36.2294 24.3429 36.1103 24.3535 35.9927 24.3714C34.5423 24.6029 33.2504 25.7804 32.4966 27.5471C32.4144 27.7381 32.3317 27.9269 32.2496 28.1144L32.2496 28.1145L32.2494 28.1149C32.0285 28.6198 31.8117 29.115 31.6181 29.6166C29.4914 29.3224 27.3461 29.3227 25.3008 29.3229H25.3007L25.1213 29.3229C23.4231 29.3229 21.651 29.3229 19.8717 29.4803C19.8165 29.3403 19.7764 29.1903 19.7764 29.0265V25.7181C19.7764 25.3147 19.9377 24.8636 20.1542 24.4363L19.8744 24.3714C19.1429 24.1966 18.9924 23.945 18.8605 23.4354C18.7393 22.9697 19.0164 22.5983 19.4842 22.5983H21.1583C21.5334 21.5232 21.9637 20.4583 22.6284 19.45C22.9224 19.0081 23.3295 18.6257 23.9621 18.5369C25.2886 18.3471 26.6696 18.3473 28.0262 18.3475ZM45.892 21.6021C45.8341 21.4155 45.6782 21.2975 45.3111 21.3002L45.312 21.2993C45.1881 21.2993 45.0438 21.3176 44.8674 21.3469C44.1724 21.4713 43.4267 21.6488 43.0997 22.5006C42.9215 22.9599 43.048 23.2682 43.5568 23.1914C43.6485 23.1767 43.7542 23.1608 43.8686 23.1436C44.413 23.0616 45.1559 22.9497 45.5454 22.8053C46.1174 22.5902 45.9989 21.9342 45.892 21.6021ZM39.144 14.8335L39.2704 14.8335L39.3801 14.8335H39.3802C40.6126 14.8334 41.8641 14.8332 43.0668 15.0074C43.6388 15.0879 44.0103 15.4337 44.274 15.8345C44.8763 16.7448 45.2665 17.7082 45.6042 18.6835H47.1197C47.5412 18.6835 47.7951 19.0193 47.6855 19.4374C47.5643 19.9004 47.4253 20.1282 46.7642 20.2856L46.513 20.345C46.7099 20.7302 46.8542 21.1401 46.8542 21.5042V24.2554C45.2024 24.098 43.5505 24.0953 41.9718 24.0953C40.744 24.0953 39.4771 24.1017 38.1968 24.1731C38.2743 24.0038 38.3251 23.8345 38.3678 23.6836C38.4079 23.5326 38.4168 23.3698 38.4133 23.206H40.8884C41.512 23.206 42.1268 22.8034 42.3665 22.2042C42.4796 21.9224 42.4226 21.6643 42.1794 21.6287H35.744C35.4108 20.754 34.9742 19.7695 34.4441 18.883C35.2174 18.958 37.3397 19.1501 39.2713 19.1501C41.5904 19.1501 44.7177 18.8299 44.7177 18.8299C44.4371 17.9608 43.9916 17.1776 43.4926 16.3477C43.2583 15.9616 42.9117 15.7512 42.534 15.7283C41.5397 15.6561 40.3618 15.6186 39.2704 15.6149C38.1816 15.6186 37.0038 15.6561 36.0077 15.7283C35.6326 15.7512 35.2851 15.9616 35.0517 16.3477C34.6436 17.0294 34.2783 17.678 34.003 18.3661C33.7937 18.1584 33.5504 17.9681 33.2618 17.8263C33.5308 17.1446 33.8471 16.4777 34.2721 15.8336C34.5385 15.4328 34.9047 15.0861 35.4794 15.0065C36.674 14.8331 37.9202 14.8333 39.144 14.8335Z" fill="url(#paint0_linear_1659_19324)"/>
</g>
</g>
<defs>
<linearGradient id="paint0_linear_1659_19324" x1="10.8666" y1="33.5" x2="54.868" y2="33.5" gradientUnits="userSpaceOnUse">
<stop stop-color="#F78CA0"/>
<stop offset="0.19" stop-color="#F9748F"/>
<stop offset="0.6" stop-color="#FD868C"/>
</linearGradient>
</defs>
</svg>
