<svg width="73" height="73" viewBox="0 0 73 73" fill="none" xmlns="http://www.w3.org/2000/svg">
<rect x="1.78182" y="1.78182" width="69.4364" height="69.4364" rx="16.9213" stroke="url(#paint0_linear_1650_18252)" stroke-width="2.43636"/>
<g clip-path="url(#clip0_1650_18252)">
<path fill-rule="evenodd" clip-rule="evenodd" d="M39.167 36.6225C39.167 36.6226 39.167 36.6226 39.167 36.6227L39.1677 36.6234C39.1675 36.6231 39.1672 36.6228 39.167 36.6225ZM39.167 36.6225C33.2989 29.1151 34.7732 23.7101 35.1938 22.168C35.2313 22.0304 35.2605 21.9236 35.2752 21.8488C34.404 23.3588 33.9531 25.072 33.9659 26.8144C33.9901 30.1584 35.5654 32.9063 37.2659 35.6584C39.1035 38.6315 38.746 39.7787 38.5504 40.4065C38.5316 40.4668 38.5143 40.5224 38.5006 40.5743C38.6862 39.8722 38.1009 39.0159 37.7197 38.4858C37.3644 37.9917 36.9651 37.5406 36.5642 37.0876C36.4145 36.9185 36.2645 36.7491 36.1166 36.5772C34.7703 35.0125 33.5456 33.3184 32.6779 31.4389C29.8807 25.3835 34.4136 19.3179 35.5995 17.7311C35.6655 17.6427 35.7211 17.5683 35.7646 17.5085C35.4666 18.072 35.7269 18.8437 35.9253 19.3944C36.2517 20.3018 36.7226 21.1581 37.209 21.9873C37.6265 22.699 38.1076 23.3989 38.5918 24.1034C40.088 26.2804 41.6151 28.5023 41.3959 31.2563C41.2878 32.6121 40.8376 33.9281 40.1812 35.1141C40.1508 35.169 39.8167 35.6613 39.5401 36.0688C39.3398 36.364 39.1696 36.6148 39.167 36.6225ZM36.9058 49.7502L36.9056 49.7487C23.9313 44.4714 21.8533 36.5066 21.2604 34.2339L21.2604 34.2339C21.2075 34.0312 21.1665 33.8738 21.1305 33.7676C21.1263 36.3286 21.8062 38.8405 23.0977 41.0519C25.5763 45.2955 29.596 47.6461 33.7772 49.9101C38.2949 52.356 38.6794 54.0792 38.8897 55.0219C38.91 55.1126 38.9286 55.196 38.9491 55.2722C38.6717 54.2426 37.2991 53.5789 36.4257 53.1824C35.6153 52.8143 34.7803 52.5328 33.9422 52.2502L33.9419 52.2501C33.6232 52.1426 33.304 52.035 32.9856 51.9225C30.1252 50.912 27.3244 49.6479 24.8423 47.8877C16.8433 42.2145 18.1807 31.169 18.5301 28.2838L18.5302 28.2831C18.5495 28.1236 18.5658 27.9891 18.5773 27.8818C18.61 28.8176 19.5068 29.6099 20.1626 30.167C21.2422 31.0851 22.469 31.8319 23.6966 32.5333C24.7491 33.1345 25.8739 33.6744 27.0061 34.2179L27.0061 34.2179C30.507 35.8984 34.0803 37.6136 35.8177 41.2835C36.6725 43.0898 37.0616 45.0958 37.0936 47.0869C37.0952 47.1803 37.0279 48.0799 36.9733 48.8082L36.9733 48.8083L36.9733 48.8087C36.9362 49.3045 36.905 49.7208 36.9056 49.7487L36.9058 49.7488V49.7502ZM39.8806 46.453L39.8807 46.4526L39.8799 46.453H39.8806ZM39.8807 46.4526C39.8813 46.4395 39.8322 46.0917 39.7741 45.6805C39.6923 45.1013 39.5927 44.3962 39.589 44.322C39.5101 42.7196 39.717 41.0866 40.3095 39.5887C41.5132 36.5465 44.2958 34.9794 47.0217 33.4442C47.9034 32.9476 48.7791 32.4544 49.5936 31.9158C50.5437 31.2876 51.4904 30.6218 52.3104 29.8273C52.8082 29.3448 53.4874 28.6605 53.4647 27.9066C53.4796 27.9925 53.4999 28.1001 53.5239 28.2277C53.9569 30.5296 55.6139 39.3391 49.4819 44.3212C47.5794 45.8675 45.3939 47.0307 43.1472 47.9936C42.8978 48.1005 42.6476 48.2035 42.3979 48.3064C41.7379 48.5781 41.0807 48.8487 40.4482 49.1874C39.7668 49.5526 38.6979 50.158 38.5293 51.0008C38.5418 50.9385 38.5523 50.8706 38.5638 50.7967L38.5638 50.7967C38.6832 50.0276 38.9013 48.6218 42.4047 46.4175C45.6471 44.3774 48.7551 42.2762 50.5238 38.7339C51.4456 36.8878 51.8602 34.8327 51.7215 32.7741C51.6982 32.8614 51.6735 32.9901 51.6417 33.1559C51.2847 35.0142 50.0338 41.527 39.8807 46.4526Z" fill="url(#paint1_linear_1650_18252)"/>
</g>
<defs>
<linearGradient id="paint0_linear_1650_18252" x1="3" y1="36.5" x2="70" y2="36.5" gradientUnits="userSpaceOnUse">
<stop stop-color="#9BE15D"/>
<stop offset="1" stop-color="#00E3AE"/>
</linearGradient>
<linearGradient id="paint1_linear_1650_18252" x1="54.0544" y1="36.3903" x2="18.2276" y2="36.3903" gradientUnits="userSpaceOnUse">
<stop stop-color="#9BE15D"/>
<stop offset="1" stop-color="#00E3AE"/>
</linearGradient>
<clipPath id="clip0_1650_18252">
<rect width="35.827" height="37.7636" fill="white" transform="matrix(-1 0 0 1 54.0544 17.5091)"/>
</clipPath>
</defs>
</svg>
