<svg width="66" height="66" viewBox="0 0 66 66" fill="none" xmlns="http://www.w3.org/2000/svg">
<g id="Frame 11661">
<rect id="Rectangle 2542" x="0.666626" width="65.3333" height="65.3333" rx="17.3333" fill="white"/>
<path id="Union" fill-rule="evenodd" clip-rule="evenodd" d="M23.6149 15.9612C23.6191 16.7058 23.0585 17.2853 22.3351 17.282C21.6319 17.2798 21.0745 16.708 21.0703 15.9864C21.066 15.2396 21.6224 14.6645 22.349 14.6667C23.0532 14.6689 23.6106 15.2396 23.6149 15.9612ZM35.0931 22.8418L35.0931 22.8421L35.0931 22.8424L35.0931 22.8427L35.0931 22.8431C35.0949 22.9533 35.0967 23.064 35.098 23.1753L36.0098 23.1755H36.0118H36.0121H36.0124H36.0127C36.603 23.1758 37.1814 23.176 37.7597 23.1753C38.515 23.1742 39.2341 22.996 39.899 22.6363C42.0841 21.4554 42.9989 19.3923 42.6894 16.6315C42.4097 16.6315 42.1296 16.6313 41.8491 16.631H41.849H41.8489H41.8488H41.8486H41.8486C41.2864 16.6305 40.723 16.6301 40.1596 16.6315C38.0362 16.637 36.1671 17.9829 35.4033 20.0209C35.0621 20.9296 35.0773 21.8638 35.0931 22.8418ZM18.3131 22.7029C18.0248 23.0298 17.7599 23.3305 17.4748 23.6541C20.3556 26.3667 22.2418 29.6457 22.9801 33.6529C22.8789 33.6529 22.78 33.6541 22.6828 33.6554C22.4389 33.6584 22.2057 33.6614 21.9737 33.6442C21.8769 33.6365 21.7673 33.537 21.6971 33.4506C19.4737 30.761 17.5451 27.8646 15.8642 24.7923C15.7164 24.5211 15.5962 24.2292 15.4919 23.9373C15.1813 23.0626 15.3153 22.5946 16.0132 21.9911C16.5844 21.498 17.277 21.3001 17.9833 21.1886C20.1035 20.8529 21.9684 21.3241 23.3503 23.1369C24.0492 24.0532 24.4556 25.1159 24.68 26.2497C25.0481 28.1041 24.9758 29.9311 24.3279 31.7177C24.2789 31.8526 24.22 31.9832 24.1458 32.1478L24.1457 32.148L24.1456 32.1481L24.1456 32.1482L24.1456 32.1482C24.1086 32.2301 24.0678 32.3205 24.0226 32.424C23.0588 28.5283 21.1556 25.3379 18.3131 22.7029ZM15.3424 34.9876H51.062C51.0209 35.2946 50.9868 35.5999 50.953 35.9029L50.9529 35.9032L50.9529 35.9034L50.9529 35.9036L50.9529 35.9038L50.9529 35.904L50.9528 35.9042L50.9528 35.9044C50.8796 36.5596 50.8076 37.2045 50.6694 37.8337C49.3471 43.8559 45.9302 48.1342 40.4302 50.6227C38.3952 51.5433 36.242 51.9512 34.0165 51.9916C31.8995 52.0299 29.7953 51.9544 27.7602 51.2908C21.6614 49.3041 17.7051 45.1461 15.9073 38.8352C15.553 37.5931 15.3934 36.3117 15.3424 34.9876ZM26.4305 47.476C23.5954 46.0317 21.3572 43.9456 19.6987 41.1837C19.5202 41.2961 19.3474 41.4047 19.1755 41.5127L19.1749 41.5131L19.1728 41.5144L19.1716 41.5152L19.165 41.5193L19.1649 41.5194L19.1627 41.5208C18.9844 41.6328 18.8067 41.7445 18.6242 41.8594C20.4348 44.8563 22.8337 47.0977 25.8879 48.6372C26.0259 48.3408 26.1541 48.0668 26.2852 47.7866L26.4305 47.476ZM27.472 48.0741V49.35H28.6921V48.0741H27.472ZM44.1436 33.6336H50.4531C50.0999 32.9743 49.3074 32.362 48.5297 32.198C48.2551 32.1401 47.9753 32.1058 47.6954 32.0715L47.6954 32.0715C47.4093 32.0364 47.1232 32.0013 46.8425 31.941C45.9574 31.7508 45.6372 30.9537 46.1096 30.1654C46.1793 30.0486 46.2647 29.9415 46.35 29.8345C46.4507 29.7081 46.5512 29.582 46.6255 29.4405C46.6732 29.3494 46.7234 29.2581 46.7738 29.1663L46.7738 29.1663L46.7738 29.1663C46.9731 28.8036 47.1759 28.4346 47.2404 28.0454C47.3617 27.3161 47.384 26.5519 47.3308 25.8116C47.2287 24.3761 46.5138 23.5757 45.283 23.4839C44.8883 23.4544 44.4521 23.5353 44.0841 23.6894C42.3447 24.4154 41.3511 25.7362 41.9075 27.8508C42.0979 28.5713 42.2639 29.3038 42.366 30.0419C42.5086 31.0696 41.865 31.87 40.8639 31.9531C40.5347 31.9797 40.1964 31.9327 39.8657 31.8869L39.8657 31.8869L39.8384 31.8831C39.6166 31.8524 39.397 31.8002 39.1901 31.7509L39.19 31.7509L39.19 31.7509L39.1899 31.7509L39.1899 31.7509L39.1899 31.7509C39.1021 31.73 39.0165 31.7097 38.9342 31.6918C38.8873 32.3751 38.8448 33.0027 38.8033 33.6259H42.8532C43.2905 31.1145 43.8798 28.6686 44.6936 26.2534L45.1658 26.4203L45.1692 26.4215L45.1725 26.4226C45.4055 26.5049 45.6336 26.5855 45.8713 26.6699C45.1404 28.9693 44.533 31.2599 44.1436 33.6336ZM29.3433 25.8867C28.921 25.8364 28.5285 25.7894 28.1008 25.738C27.8295 28.0319 27.054 30.1093 25.6253 31.9986C25.6734 31.7655 25.7222 31.5422 25.7697 31.3252L25.7697 31.3252L25.7697 31.3252L25.7697 31.3252L25.7697 31.3251C25.8659 30.8848 25.9566 30.4703 26.0243 30.0514C26.3583 27.9958 26.0966 26.007 25.3179 24.0914C25.1966 23.794 25.2296 23.6027 25.4445 23.3742C26.2157 22.5542 27.154 22.3421 28.1838 22.6198C30.3348 23.2003 31.7869 24.5616 32.4167 26.7877C32.4465 26.8929 32.4604 27.0021 32.4753 27.1196C32.4823 27.1743 32.4895 27.2308 32.4986 27.2895C31.1635 27.6886 30.1252 28.4682 29.4327 29.6873C28.7423 30.9031 28.5434 32.2075 28.8806 33.619H25.9328C27.8912 31.429 29.0019 28.8683 29.3433 25.8867ZM37.4793 31.2717C37.2581 31.3504 37.0428 31.4271 36.8275 31.5039C36.612 31.5807 36.3965 31.6576 36.1751 31.7363C36.3091 32.1475 36.4336 32.5301 36.5687 32.9467C36.7314 32.8938 36.8884 32.8426 37.0508 32.7896L37.0521 32.7892C37.2385 32.7284 37.4321 32.6652 37.6495 32.5946C37.63 32.6913 37.6124 32.7841 37.5953 32.8739C37.551 33.1074 37.5105 33.3207 37.4506 33.5284C37.4336 33.5896 37.2846 33.6454 37.1963 33.6465C34.9421 33.653 32.6868 33.6541 30.4326 33.6421C30.3337 33.641 30.1656 33.5087 30.1475 33.4136C30.0807 33.0725 30.0359 32.7273 29.9866 32.347C29.9692 32.2128 29.9513 32.0742 29.9316 31.9299L30.2494 32.0308L30.2519 32.0316L30.2534 32.0321L30.2588 32.0338C30.5447 32.1246 30.7945 32.2039 31.0592 32.2874C31.116 32.1131 31.1715 31.9437 31.227 31.774C31.3014 31.5467 31.3759 31.3191 31.4539 31.0792L31.1362 30.9648L31.1345 30.9642C30.8842 30.874 30.6425 30.7869 30.4018 30.6998C30.6709 29.6765 32.1007 28.5459 33.1794 28.5153V29.7049H34.4325V28.5481C35.5581 28.4333 37.058 29.7738 37.4793 31.2717ZM33.1932 32.3235H34.4262V31.0639H33.1932V32.3235ZM15.3719 33.6366H20.1793C19.4825 32.6996 18.8176 31.8074 18.1006 30.8464C17.9012 30.947 17.6986 31.0437 17.4955 31.1407C17.0213 31.367 16.5445 31.5946 16.1006 31.8763C15.4975 32.2579 15.2262 32.8658 15.3719 33.6366ZM29.3543 17.9731C29.366 18.6904 29.933 19.2523 30.6404 19.2469C31.3425 19.2414 31.8968 18.6685 31.8989 17.9447C31.901 17.2045 31.3351 16.6261 30.6117 16.6316C29.8915 16.637 29.3426 17.222 29.3543 17.9731Z" fill="url(#paint0_linear_1659_19093)"/>
</g>
<defs>
<linearGradient id="paint0_linear_1659_19093" x1="15.3333" y1="33.3332" x2="51.062" y2="33.3332" gradientUnits="userSpaceOnUse">
<stop stop-color="#9BE15D"/>
<stop offset="1" stop-color="#00E3AE"/>
</linearGradient>
</defs>
</svg>
