<svg xmlns="http://www.w3.org/2000/svg" width="73" height="73" viewBox="0 0 73 73" fill="none">
  <rect x="1.78182" y="1.78182" width="69.4365" height="69.4365" rx="18.9937" fill="url(#paint0_linear_1650_18255)" stroke="url(#paint1_linear_1650_18255)" stroke-width="2.43637"/>
  <path fill-rule="evenodd" clip-rule="evenodd" d="M22.6935 46.7324C22.9722 46.2111 23.0802 45.6153 23.0021 45.0293C25.2592 46.7057 29.6987 48.9844 37.1044 48.8807L37.0961 47.473C37.0394 47.4751 36.9832 47.4789 36.927 47.4826C36.8429 47.4883 36.7589 47.4939 36.6729 47.4939C34.5297 47.4924 32.4385 46.8337 30.6814 45.6066C28.9242 44.3796 27.5856 42.6432 26.846 40.6316C23.9441 39.974 18.8507 38.2895 23.8747 35.1927C23.8747 35.1927 24.0523 31.5981 24.4897 28.3886C24.4897 28.3886 14.7657 34.2985 20.6085 42.6095C20.0233 42.5251 19.4265 42.6266 18.9022 42.8997C18.3778 43.1728 17.9525 43.6037 17.6863 44.1316C17.4202 44.6594 17.3265 45.2576 17.4186 45.8416C17.5107 46.4255 17.784 46.9658 18.1997 47.3861C18.6155 47.8064 19.1527 48.0855 19.7357 48.1839C20.3186 48.2824 20.9177 48.1952 21.4485 47.9347C21.9792 47.6743 22.4147 47.2537 22.6935 46.7324ZM30.8108 18.9916C31.0463 19.4822 31.134 20.0307 31.0631 20.5702H31.0639C39.2554 15.0514 45.0653 24.6052 45.0653 24.6052C41.8529 24.1678 38.2598 23.9902 38.2598 23.9902C35.0428 18.7647 33.3485 24.4813 32.7514 27.2959C30.8148 28.0771 29.1557 29.4191 27.9868 31.1496C26.818 32.8801 26.1928 34.9204 26.1914 37.0087C26.1914 37.0427 26.1941 37.076 26.1967 37.1092C26.1993 37.1423 26.2019 37.1752 26.2019 37.2087L24.5718 37.2199C24.4665 29.7239 26.8012 25.271 28.4843 23.0385C27.9699 23.0801 27.4538 22.9803 26.9919 22.7499C26.5301 22.5196 26.1399 22.1674 25.8636 21.7314C25.5873 21.2954 25.4354 20.7923 25.4243 20.2762C25.4132 19.7602 25.5433 19.251 25.8005 18.8035C26.0578 18.356 26.4324 17.9873 26.8839 17.7373C27.3354 17.4872 27.8467 17.3653 28.3625 17.3847C28.8783 17.404 29.379 17.564 29.8105 17.8472C30.242 18.1304 30.5879 18.5261 30.8108 18.9916ZM54.9272 29.5667C54.6423 30.0068 54.2408 30.3591 53.7674 30.5845H53.7704C53.3218 30.7981 52.8243 30.8883 52.3292 30.8457C58.6324 39.3135 48.6719 45.3712 48.6719 45.3712C49.11 42.1595 49.2846 38.5671 49.2846 38.5671C54.2556 35.5099 49.3324 33.8246 46.414 33.1528C45.6418 31.1995 44.3002 29.5234 42.5634 28.342C40.8267 27.1607 38.7749 26.5286 36.6744 26.5279C36.5298 26.5279 36.3874 26.5375 36.2454 26.5471C36.1859 26.5512 36.1264 26.5552 36.0669 26.5585L36.0564 24.8791C43.0434 24.7799 47.3806 26.8048 49.7489 28.4424C49.6721 27.9238 49.7408 27.394 49.9474 26.9121C50.1539 26.4303 50.4901 26.0152 50.9186 25.7131C51.3471 25.4111 51.8511 25.2339 52.3743 25.2014C52.8976 25.1688 53.4196 25.2822 53.8822 25.5288C54.3449 25.7754 54.73 26.1456 54.9946 26.5981C55.2593 27.0507 55.3931 27.5678 55.3812 28.092C55.3693 28.6161 55.2122 29.1266 54.9272 29.5667ZM48.5898 36.5414C48.6853 43.2567 46.8201 47.5282 45.2206 49.951V49.9555C45.7279 49.9511 46.227 50.0831 46.6658 50.3376C47.1046 50.5922 47.467 50.96 47.715 51.4026C47.9629 51.8452 48.0874 52.3462 48.0754 52.8534C48.0634 53.3606 47.9154 53.8552 47.6467 54.2856C47.3781 54.7159 46.9987 55.0662 46.5484 55.2997C46.098 55.5332 45.5932 55.6414 45.0866 55.613C44.5801 55.5846 44.0906 55.4206 43.6691 55.1382C43.2477 54.8558 42.9099 54.4653 42.6911 54.0076C42.5335 53.6802 42.4413 53.3253 42.4194 52.9627C34.0613 58.9591 28.0962 49.1561 28.0962 49.1561C31.3109 49.595 34.9025 49.7696 34.9025 49.7696C37.9873 54.7831 39.6734 49.7293 40.334 46.8221C42.3356 46.0772 44.0617 44.7382 45.2809 42.9846C46.5 41.231 47.154 39.1467 47.1552 37.0109C47.1552 36.9161 47.1491 36.8233 47.143 36.7304C47.139 36.6711 47.1351 36.6118 47.1328 36.5519L48.5898 36.5414ZM36.8863 43.9809C40.7777 43.9809 43.9324 40.8262 43.9324 36.9348C43.9324 33.0433 40.7777 29.8887 36.8863 29.8887C32.9948 29.8887 29.8402 33.0433 29.8402 36.9348C29.8402 40.8262 32.9948 43.9809 36.8863 43.9809Z" fill="url(#paint2_linear_1650_18255)"/>
  <defs>
    <linearGradient id="paint0_linear_1650_18255" x1="36.5001" y1="3" x2="36.5001" y2="70.0001" gradientUnits="userSpaceOnUse">
      <stop offset="0.0885417" stop-color="#F4F6FF"/>
      <stop offset="0.526042" stop-color="white"/>
      <stop offset="0.875" stop-color="#F4F6FF"/>
    </linearGradient>
    <linearGradient id="paint1_linear_1650_18255" x1="3" y1="36.5001" x2="70.0001" y2="36.5001" gradientUnits="userSpaceOnUse">
      <stop stop-color="#F9748F"/>
      <stop offset="1" stop-color="#FD868C"/>
    </linearGradient>
    <linearGradient id="paint2_linear_1650_18255" x1="55.3822" y1="55.6163" x2="13.964" y2="14.198" gradientUnits="userSpaceOnUse">
      <stop stop-color="#F78CA0"/>
      <stop offset="1" stop-color="#FD868C"/>
    </linearGradient>
  </defs>
</svg>