<svg width="66" height="66" viewBox="0 0 66 66" fill="none" xmlns="http://www.w3.org/2000/svg">
<g id="Frame 11669">
<rect id="Rectangle 2541" x="0.466675" y="0.166534" width="65.3333" height="65.3333" rx="17.3333" fill="white"/>
<g id="Frame" clip-path="url(#clip0_1659_19318)">
<g id="Group">
<path id="Vector" d="M31.2174 14.8332C32.0692 14.8332 32.9189 14.8332 33.7707 14.8332C33.9831 14.8636 34.1955 14.9 34.41 14.9203C35.1626 14.9952 35.5166 15.3595 35.5612 16.1125C35.5713 16.2825 35.5713 16.4525 35.5773 16.6226C35.6704 18.6406 37.4872 20.3794 39.5063 20.3814C40.7404 20.3834 41.8026 19.9644 42.6887 19.092C43.1541 18.6325 43.6963 18.5799 44.1616 18.9524C45.2561 19.8288 46.2394 20.8206 47.1012 21.9279C47.427 22.3448 47.4007 22.859 47.0628 23.2678C46.9536 23.3994 46.8362 23.5209 46.7209 23.6463C44.9729 25.5227 45.4524 28.6581 47.6758 29.9354C48.301 30.2936 48.9727 30.4556 49.6828 30.5183C50.6863 30.6054 51.008 30.9454 51.0606 31.9312C51.0666 32.0486 51.1071 32.1619 51.1334 32.2773C51.1334 33.1295 51.1334 33.9796 51.1334 34.8318C51.101 35.0686 51.0666 35.3054 51.0343 35.5423C50.9351 36.2669 50.5487 36.6049 49.8143 36.611C49.6322 36.613 49.4501 36.6353 49.2701 36.6474C47.3501 36.7628 45.6385 38.5461 45.5717 40.467C45.5272 41.7584 45.9602 42.8393 46.8706 43.7481C47.3541 44.2319 47.3825 44.7805 46.9738 45.2804C46.1099 46.339 45.1469 47.3005 44.0746 48.1466C43.6032 48.519 43.0671 48.5049 42.6179 48.1142C42.4905 48.0029 42.3691 47.8814 42.2396 47.7721C40.4309 46.25 37.3395 46.3451 35.9435 48.8672C35.5935 49.4987 35.4418 50.1687 35.4256 50.8893C35.4094 51.6929 34.9987 52.0795 34.1996 52.122C34.0175 52.1321 33.8354 52.1686 33.6553 52.1645C32.5264 52.1382 31.3975 52.1301 30.2726 52.0613C29.7527 52.0289 29.429 51.6362 29.3743 51.118C29.348 50.8772 29.3501 50.6323 29.3379 50.3894C29.2368 48.3895 27.42 46.6568 25.4191 46.6528C24.1829 46.6487 23.1208 47.0637 22.2326 47.9381C21.7511 48.4118 21.2129 48.4563 20.7294 48.0677C19.647 47.1932 18.6739 46.2095 17.816 45.1124C17.4883 44.6934 17.5105 44.1813 17.8464 43.7724C17.9536 43.6409 18.073 43.5194 18.1883 43.3939C19.7643 41.7017 19.556 38.9044 17.7533 37.451C16.9845 36.8316 16.1085 36.5503 15.1313 36.5078C14.3585 36.4734 13.8972 36.0544 13.8668 35.3661C13.8264 34.4553 13.798 33.5444 13.796 32.6336C13.796 32.1984 13.8426 31.7591 13.9174 31.33C14.0186 30.743 14.3099 30.5001 14.8986 30.4313C15.2709 30.3888 15.6513 30.3746 16.0174 30.3017C18.0042 29.9091 19.3354 28.2857 19.3375 26.2696C19.3375 25.0855 18.864 24.1099 18.0386 23.282C17.5611 22.8023 17.5368 22.2517 17.9455 21.7477C18.8094 20.687 19.7745 19.7317 20.8467 18.8835C21.3181 18.5111 21.8522 18.5293 22.3014 18.926C22.4207 19.0313 22.534 19.1406 22.6534 19.2438C24.0838 20.4948 26.6188 20.7457 28.2292 19.1406C29.0304 18.3411 29.4553 17.3836 29.4816 16.2441C29.5018 15.321 29.8821 14.9506 30.7966 14.9081C30.9382 14.9 31.0778 14.8595 31.2174 14.8332ZM38.2095 42.5944C38.1629 42.5377 38.1225 42.479 38.0719 42.4284C36.6031 40.9568 35.1302 39.4893 33.6675 38.0097C33.5036 37.8437 33.3721 37.872 33.186 37.9409C32.0328 38.3761 30.8391 38.4671 29.6394 38.2283C25.9775 37.5016 23.667 33.927 24.4742 30.2896C24.5532 29.9293 24.6543 29.6034 25.0529 29.484C25.4454 29.3646 25.6942 29.6034 25.939 29.8483C26.8535 30.7572 27.77 31.662 28.6784 32.5769C28.8908 32.7914 29.1133 32.9068 29.4229 32.8542C30.044 32.751 30.6671 32.6538 31.2923 32.5688C31.5654 32.5323 31.6929 32.3907 31.7293 32.1255C31.8102 31.5365 31.8932 30.9474 31.9984 30.3625C32.0611 30.0082 31.9842 29.7431 31.7172 29.482C30.7703 28.5549 29.8397 27.6117 28.9131 26.6644C28.4356 26.1745 28.5833 25.4843 29.2145 25.3648C29.866 25.2414 30.5397 25.122 31.1972 25.1523C35.6623 25.3487 38.6181 29.7836 37.1089 33.9918C37.0239 34.2306 37.0401 34.3763 37.2262 34.5605C38.6444 35.9633 40.0505 37.3761 41.4607 38.787C41.5335 38.8598 41.6144 38.9226 41.6933 38.9914C44.2344 34.85 43.6619 28.8423 39.2878 25.2029C35.0675 21.693 28.6946 22.0108 24.8303 25.9215C20.9398 29.8605 20.6485 36.1616 24.1505 40.3617C27.7983 44.7319 33.9062 45.3857 38.2095 42.5944Z" fill="url(#paint0_linear_1659_19318)"/>
</g>
</g>
</g>
<defs>
<linearGradient id="paint0_linear_1659_19318" x1="12.5731" y1="52.7942" x2="51.127" y2="11.8633" gradientUnits="userSpaceOnUse">
<stop stop-color="#7028E4"/>
<stop offset="1" stop-color="#D7AEFF"/>
</linearGradient>
<clipPath id="clip0_1659_19318">
<rect width="37.3333" height="37.3333" fill="white" transform="translate(13.8 14.8332)"/>
</clipPath>
</defs>
</svg>
