<svg width="79" height="79" viewBox="0 0 79 79" fill="none" xmlns="http://www.w3.org/2000/svg">
<rect x="1.66667" y="1.33348" width="76" height="76" rx="20.7891" fill="url(#paint0_linear_1650_18255)" stroke="url(#paint1_linear_1650_18255)" stroke-width="2.66667"/>
<path fill-rule="evenodd" clip-rule="evenodd" d="M24.5547 50.533C24.8598 49.9624 24.978 49.3104 24.8925 48.669C27.363 50.5038 32.2221 52.9979 40.3278 52.8844L40.3188 51.3436C40.2567 51.3459 40.1952 51.35 40.1337 51.3542C40.0416 51.3603 39.9496 51.3665 39.8556 51.3665C37.5098 51.3649 35.2209 50.6439 33.2977 49.3009C31.3744 47.9578 29.9092 46.0573 29.0998 43.8556C25.9235 43.1358 20.3487 41.292 25.8475 37.9025C25.8475 37.9025 26.042 33.9681 26.5207 30.4553C26.5207 30.4553 15.8776 36.9238 22.2726 46.0204C21.6322 45.928 20.9789 46.0391 20.405 46.338C19.8311 46.637 19.3656 47.1086 19.0743 47.6864C18.7829 48.2641 18.6804 48.9188 18.7812 49.558C18.8821 50.1971 19.1811 50.7885 19.6362 51.2485C20.0912 51.7085 20.6793 52.014 21.3173 52.1217C21.9554 52.2295 22.6111 52.1341 23.192 51.849C23.7729 51.564 24.2496 51.1036 24.5547 50.533ZM33.4394 20.17C33.6971 20.707 33.793 21.3073 33.7155 21.8979H33.7163C42.6822 15.8574 49.0413 26.3142 49.0413 26.3142C45.5252 25.8355 41.5924 25.6411 41.5924 25.6411C38.0714 19.9217 36.2169 26.1786 35.5634 29.2593C33.4437 30.1144 31.6277 31.5831 30.3484 33.4773C29.0692 35.3714 28.3849 37.6045 28.3833 39.8901C28.3833 39.9274 28.3862 39.9639 28.3891 40.0002C28.3919 40.0364 28.3948 40.0724 28.3948 40.1091L26.6106 40.1213C26.4954 31.9168 29.0508 27.043 30.893 24.5995C30.3299 24.645 29.765 24.5358 29.2595 24.2836C28.754 24.0315 28.3269 23.646 28.0245 23.1688C27.7221 22.6916 27.5559 22.1409 27.5437 21.5761C27.5315 21.0113 27.6739 20.4539 27.9555 19.9641C28.237 19.4744 28.647 19.0708 29.1412 18.7971C29.6355 18.5234 30.1951 18.39 30.7596 18.4112C31.3241 18.4324 31.8721 18.6074 32.3444 18.9174C32.8167 19.2274 33.1953 19.6605 33.4394 20.17ZM59.8354 31.7448C59.5235 32.2264 59.084 32.6121 58.5659 32.8587H58.5692C58.0781 33.0926 57.5336 33.1913 56.9917 33.1447C63.8908 42.4128 52.9887 49.0431 52.9887 49.0431C53.4683 45.5278 53.6594 41.5959 53.6594 41.5959C59.1002 38.2497 53.7117 36.4051 50.5175 35.6698C49.6722 33.5319 48.2038 31.6973 46.3029 30.4043C44.4019 29.1113 42.1562 28.4195 39.8572 28.4187C39.6989 28.4187 39.543 28.4292 39.3876 28.4397C39.3225 28.4442 39.2574 28.4486 39.1922 28.4522L39.1808 26.6141C46.8282 26.5054 51.5754 28.7218 54.1675 30.5141C54.0835 29.9465 54.1587 29.3667 54.3848 28.8393C54.6108 28.3118 54.9788 27.8575 55.4479 27.5269C55.9169 27.1963 56.4684 27.0024 57.0412 26.9668C57.6139 26.9311 58.1852 27.0552 58.6916 27.3251C59.198 27.595 59.6195 28.0002 59.9091 28.4956C60.1988 28.9909 60.3453 29.5569 60.3323 30.1306C60.3192 30.7043 60.1472 31.2631 59.8354 31.7448ZM52.8988 39.3787C53.0034 46.7287 50.9619 51.4041 49.2112 54.0559V54.0608C49.7664 54.0559 50.3128 54.2004 50.7931 54.479C51.2733 54.7577 51.6699 55.1603 51.9414 55.6447C52.2128 56.1291 52.349 56.6775 52.3359 57.2326C52.3228 57.7877 52.1607 58.3291 51.8667 58.8001C51.5726 59.2712 51.1574 59.6545 50.6645 59.9101C50.1716 60.1657 49.619 60.2842 49.0646 60.2531C48.5102 60.222 47.9743 60.0425 47.5131 59.7334C47.0518 59.4243 46.6821 58.9969 46.4426 58.4959C46.2702 58.1376 46.1692 57.7491 46.1452 57.3522C36.9971 63.9155 30.4682 53.1858 30.4682 53.1858C33.9867 53.6662 37.9178 53.8573 37.9178 53.8573C41.2942 59.3447 43.1397 53.8132 43.8627 50.6313C46.0535 49.8159 47.9428 48.3503 49.2772 46.431C50.6116 44.5116 51.3274 42.2302 51.3287 39.8926C51.3287 39.7888 51.322 39.6872 51.3153 39.5855C51.311 39.5206 51.3067 39.4557 51.3042 39.3902L52.8988 39.3787ZM40.0889 47.5214C44.3482 47.5214 47.801 44.0685 47.801 39.8093C47.801 35.55 44.3482 32.0971 40.0889 32.0971C35.8297 32.0971 32.3768 35.55 32.3768 39.8093C32.3768 44.0685 35.8297 47.5214 40.0889 47.5214Z" fill="url(#paint2_linear_1650_18255)"/>
<defs>
<linearGradient id="paint0_linear_1650_18255" x1="39.6667" y1="2.66681" x2="39.6667" y2="76.0001" gradientUnits="userSpaceOnUse">
<stop offset="0.0885417" stop-color="#F4F6FF"/>
<stop offset="0.526042" stop-color="white"/>
<stop offset="0.875" stop-color="#F4F6FF"/>
</linearGradient>
<linearGradient id="paint1_linear_1650_18255" x1="3" y1="39.3335" x2="76.3333" y2="39.3335" gradientUnits="userSpaceOnUse">
<stop stop-color="#F9748F"/>
<stop offset="1" stop-color="#FD868C"/>
</linearGradient>
<linearGradient id="paint2_linear_1650_18255" x1="60.3334" y1="60.2567" x2="15" y2="14.9233" gradientUnits="userSpaceOnUse">
<stop stop-color="#F78CA0"/>
<stop offset="1" stop-color="#FD868C"/>
</linearGradient>
</defs>
</svg>
