<svg width="171" height="75" viewBox="0 0 171 75" fill="none" xmlns="http://www.w3.org/2000/svg">
<circle cx="37.3333" cy="37.5001" r="37.3333" fill="white"/>
<circle cx="37.3334" cy="37.4999" r="30.6667" fill="white"/>
<g clip-path="url(#clip0_1691_19574)">
<path d="M37.3339 31.637C36.2791 31.637 35.248 31.9498 34.3709 32.5358C33.4938 33.1218 32.8103 33.9548 32.4066 34.9293C32.0029 35.9039 31.8973 36.9762 32.1031 38.0108C32.3089 39.0453 32.8168 39.9957 33.5627 40.7415C34.3086 41.4874 35.2589 41.9954 36.2935 42.2012C37.328 42.4069 38.4004 42.3013 39.3749 41.8977C40.3495 41.494 41.1824 40.8104 41.7685 39.9333C42.3545 39.0563 42.6673 38.0251 42.6673 36.9703C42.6673 35.5558 42.1054 34.1993 41.1052 33.1991C40.105 32.1989 38.7484 31.637 37.3339 31.637ZM37.3339 39.637C36.8065 39.637 36.291 39.4806 35.8524 39.1875C35.4139 38.8945 35.0721 38.4781 34.8703 37.9908C34.6684 37.5035 34.6156 36.9673 34.7185 36.4501C34.8214 35.9328 35.0754 35.4576 35.4483 35.0847C35.8213 34.7117 36.2964 34.4578 36.8137 34.3549C37.331 34.252 37.8672 34.3048 38.3544 34.5066C38.8417 34.7085 39.2582 35.0502 39.5512 35.4888C39.8442 35.9273 40.0006 36.4429 40.0006 36.9703C40.0006 37.6775 39.7197 38.3558 39.2196 38.8559C38.7195 39.356 38.0412 39.637 37.3339 39.637Z" fill="#707386"/>
<path d="M49.726 39.5035L49.134 39.1622C49.4006 37.7121 49.4006 36.2256 49.134 34.7755L49.726 34.4342C50.1813 34.1716 50.5804 33.8218 50.9004 33.405C51.2205 32.9881 51.4554 32.5123 51.5916 32.0046C51.7278 31.497 51.7626 30.9675 51.6942 30.4464C51.6258 29.9253 51.4554 29.4228 51.1927 28.9675C50.9301 28.5123 50.5803 28.1132 50.1635 27.7932C49.7466 27.4731 49.2708 27.2382 48.7631 27.102C48.2555 26.9658 47.726 26.931 47.2049 26.9994C46.6838 27.0678 46.1813 27.2382 45.726 27.5009L45.1327 27.8435C44.0121 26.8861 42.7243 26.1439 41.334 25.6542V24.9702C41.334 23.9093 40.9126 22.8919 40.1625 22.1418C39.4123 21.3916 38.3949 20.9702 37.334 20.9702C36.2732 20.9702 35.2558 21.3916 34.5056 22.1418C33.7555 22.8919 33.334 23.9093 33.334 24.9702V25.6542C31.9439 26.1456 30.6565 26.8897 29.5367 27.8489L28.9407 27.5035C28.0213 26.9731 26.9288 26.8296 25.9036 27.1047C24.8784 27.3798 24.0045 28.0508 23.474 28.9702C22.9436 29.8896 22.8001 30.9821 23.0752 32.0073C23.3502 33.0325 24.0213 33.9064 24.9407 34.4369L25.5327 34.7782C25.2662 36.2283 25.2662 37.7148 25.5327 39.1649L24.9407 39.5062C24.0213 40.0366 23.3502 40.9106 23.0752 41.9358C22.8001 42.961 22.9436 44.0535 23.474 44.9729C24.0045 45.8923 24.8784 46.5633 25.9036 46.8384C26.9288 47.1135 28.0213 46.97 28.9407 46.4395L29.534 46.0969C30.6551 47.0545 31.9433 47.7967 33.334 48.2862V48.9702C33.334 50.0311 33.7555 51.0485 34.5056 51.7986C35.2558 52.5488 36.2732 52.9702 37.334 52.9702C38.3949 52.9702 39.4123 52.5488 40.1625 51.7986C40.9126 51.0485 41.334 50.0311 41.334 48.9702V48.2862C42.7242 47.7948 44.0116 47.0507 45.1314 46.0915L45.7274 46.4356C46.6468 46.966 47.7393 47.1095 48.7645 46.8344C49.7897 46.5593 50.6636 45.8883 51.194 44.9689C51.7245 44.0495 51.8679 42.957 51.5929 41.9318C51.3178 40.9066 50.6468 40.0326 49.7274 39.5022L49.726 39.5035ZM46.3287 34.4689C46.7802 36.105 46.7802 37.8328 46.3287 39.4689C46.2499 39.7536 46.2679 40.0565 46.3798 40.33C46.4918 40.6034 46.6914 40.8319 46.9474 40.9795L48.3927 41.8142C48.6991 41.991 48.9228 42.2823 49.0144 42.624C49.106 42.9657 49.0582 43.3298 48.8814 43.6362C48.7046 43.9426 48.4133 44.1663 48.0716 44.2579C47.7299 44.3495 47.3658 44.3017 47.0594 44.1249L45.6114 43.2875C45.3552 43.1392 45.057 43.0803 44.7637 43.1201C44.4704 43.16 44.1987 43.2963 43.9914 43.5075C42.8046 44.7191 41.3095 45.5835 39.6674 46.0075C39.3808 46.0812 39.1268 46.2482 38.9455 46.4821C38.7642 46.716 38.6659 47.0036 38.666 47.2995V48.9702C38.666 49.3238 38.5256 49.663 38.2755 49.913C38.0255 50.1631 37.6863 50.3035 37.3327 50.3035C36.9791 50.3035 36.6399 50.1631 36.3899 49.913C36.1399 49.663 35.9994 49.3238 35.9994 48.9702V47.3009C35.9995 47.0049 35.9012 46.7174 35.7199 46.4834C35.5386 46.2495 35.2847 46.0826 34.998 46.0089C33.3558 45.5831 31.8611 44.7168 30.6754 43.5035C30.4681 43.2923 30.1964 43.156 29.903 43.1161C29.6097 43.0763 29.3115 43.1352 29.0554 43.2836L27.61 44.1195C27.4583 44.2085 27.2906 44.2665 27.1163 44.2903C26.9421 44.3142 26.7649 44.3033 26.5949 44.2583C26.4249 44.2134 26.2655 44.1353 26.1258 44.0285C25.9861 43.9217 25.8689 43.7883 25.781 43.636C25.6931 43.4837 25.6362 43.3155 25.6135 43.1412C25.5908 42.9668 25.6029 42.7897 25.649 42.62C25.695 42.4503 25.7742 42.2914 25.882 42.1524C25.9897 42.0134 26.1238 41.8971 26.2767 41.8102L27.722 40.9755C27.978 40.8279 28.1776 40.5994 28.2896 40.326C28.4016 40.0525 28.4195 39.7496 28.3407 39.4649C27.8892 37.8288 27.8892 36.101 28.3407 34.4649C28.4181 34.1807 28.3993 33.8789 28.2871 33.6066C28.175 33.3343 27.9758 33.1068 27.7207 32.9595L26.2754 32.1249C25.969 31.9481 25.7453 31.6568 25.6537 31.3151C25.5621 30.9734 25.6099 30.6093 25.7867 30.3029C25.9635 29.9965 26.2548 29.7728 26.5965 29.6812C26.9382 29.5896 27.3023 29.6374 27.6087 29.8142L29.0567 30.6515C29.3121 30.8002 29.6097 30.8598 29.9027 30.821C30.1957 30.7821 30.4675 30.647 30.6754 30.4369C31.8622 29.2253 33.3573 28.3609 34.9994 27.9369C35.2869 27.863 35.5415 27.6952 35.7229 27.4602C35.9043 27.2252 36.002 26.9364 36.0007 26.6395V24.9702C36.0007 24.6166 36.1412 24.2775 36.3912 24.0274C36.6413 23.7774 36.9804 23.6369 37.334 23.6369C37.6877 23.6369 38.0268 23.7774 38.2769 24.0274C38.5269 24.2775 38.6674 24.6166 38.6674 24.9702V26.6395C38.6672 26.9355 38.7655 27.2231 38.9468 27.457C39.1281 27.6909 39.3821 27.8579 39.6687 27.9315C41.3114 28.3571 42.8066 29.2234 43.9927 30.4369C44.2 30.6482 44.4717 30.7845 44.765 30.8243C45.0583 30.8641 45.3566 30.8052 45.6127 30.6569L47.058 29.8209C47.2097 29.732 47.3775 29.6739 47.5517 29.6501C47.726 29.6263 47.9032 29.6371 48.0732 29.6821C48.2432 29.727 48.4026 29.8052 48.5423 29.912C48.682 30.0188 48.7991 30.1522 48.8871 30.3044C48.975 30.4567 49.0319 30.6249 49.0546 30.7993C49.0772 30.9736 49.0652 31.1508 49.0191 31.3205C48.9731 31.4902 48.8939 31.6491 48.7861 31.788C48.6784 31.927 48.5442 32.0433 48.3914 32.1302L46.946 32.9649C46.6914 33.1125 46.4928 33.3402 46.3812 33.6125C46.2695 33.8848 46.2511 34.1863 46.3287 34.4702V34.4689Z" fill="#707386"/>
</g>
<path d="M86.3106 31.8C86.6039 31.9467 86.7706 32.1733 86.8106 32.48C86.8639 32.7867 86.7906 33.0667 86.5906 33.32C86.4439 33.52 86.2506 33.6333 86.0106 33.66C85.7839 33.6867 85.5573 33.64 85.3306 33.52C84.9439 33.32 84.5373 33.16 84.1106 33.04C83.6839 32.92 83.2306 32.86 82.7506 32.86C81.9906 32.86 81.3039 32.9867 80.6906 33.24C80.0906 33.48 79.5706 33.8333 79.1306 34.3C78.6906 34.7533 78.3506 35.2933 78.1106 35.92C77.8839 36.5467 77.7706 37.24 77.7706 38C77.7706 38.84 77.8973 39.5867 78.1506 40.24C78.4039 40.88 78.7506 41.4267 79.1906 41.88C79.6439 42.32 80.1706 42.6533 80.7706 42.88C81.3839 43.0933 82.0439 43.2 82.7506 43.2C83.2039 43.2 83.6439 43.1467 84.0706 43.04C84.5106 42.9333 84.9239 42.7733 85.3106 42.56C85.5506 42.44 85.7839 42.4 86.0106 42.44C86.2506 42.4667 86.4439 42.58 86.5906 42.78C86.8173 43.06 86.8973 43.3467 86.8306 43.64C86.7773 43.92 86.6106 44.1333 86.3306 44.28C85.9973 44.4667 85.6306 44.6267 85.2306 44.76C84.8306 44.8933 84.4239 45 84.0106 45.08C83.5973 45.16 83.1773 45.2 82.7506 45.2C81.7906 45.2 80.8839 45.04 80.0306 44.72C79.1773 44.4 78.4173 43.9333 77.7506 43.32C77.0839 42.7067 76.5573 41.9533 76.1706 41.06C75.7973 40.1667 75.6106 39.1467 75.6106 38C75.6106 36.9733 75.7839 36.0267 76.1306 35.16C76.4906 34.28 76.9906 33.5267 77.6306 32.9C78.2839 32.26 79.0439 31.7667 79.9106 31.42C80.7773 31.06 81.7239 30.88 82.7506 30.88C83.3906 30.88 84.0106 30.96 84.6106 31.12C85.2239 31.28 85.7906 31.5067 86.3106 31.8ZM97.4855 34.32C97.7788 34.32 98.0188 34.42 98.2055 34.62C98.3921 34.8067 98.4855 35.0467 98.4855 35.34V43.98C98.4855 44.2733 98.3921 44.52 98.2055 44.72C98.0188 44.9067 97.7788 45 97.4855 45C97.2055 45 96.9655 44.9067 96.7655 44.72C96.5788 44.52 96.4855 44.2733 96.4855 43.98V42.54L96.9055 42.6C96.9055 42.84 96.8055 43.1067 96.6055 43.4C96.4188 43.6933 96.1588 43.98 95.8255 44.26C95.4921 44.5267 95.0988 44.7533 94.6455 44.94C94.1921 45.1133 93.7055 45.2 93.1855 45.2C92.2655 45.2 91.4388 44.9667 90.7055 44.5C89.9721 44.02 89.3921 43.3667 88.9655 42.54C88.5388 41.7133 88.3255 40.7733 88.3255 39.72C88.3255 38.64 88.5388 37.6933 88.9655 36.88C89.3921 36.0533 89.9655 35.4067 90.6855 34.94C91.4188 34.4733 92.2321 34.24 93.1255 34.24C93.6988 34.24 94.2255 34.3333 94.7055 34.52C95.1988 34.7067 95.6255 34.9467 95.9855 35.24C96.3455 35.5333 96.6188 35.8467 96.8055 36.18C97.0055 36.5 97.1055 36.8067 97.1055 37.1L96.4855 37.16V35.34C96.4855 35.06 96.5788 34.82 96.7655 34.62C96.9655 34.42 97.2055 34.32 97.4855 34.32ZM93.4055 43.36C94.0321 43.36 94.5855 43.2 95.0655 42.88C95.5455 42.56 95.9188 42.1267 96.1855 41.58C96.4521 41.02 96.5855 40.4 96.5855 39.72C96.5855 39.0267 96.4521 38.4067 96.1855 37.86C95.9188 37.3133 95.5455 36.88 95.0655 36.56C94.5855 36.24 94.0321 36.08 93.4055 36.08C92.7921 36.08 92.2455 36.24 91.7655 36.56C91.2988 36.88 90.9255 37.3133 90.6455 37.86C90.3788 38.4067 90.2455 39.0267 90.2455 39.72C90.2455 40.4 90.3788 41.02 90.6455 41.58C90.9255 42.1267 91.2988 42.56 91.7655 42.88C92.2455 43.2 92.7921 43.36 93.4055 43.36ZM93.5855 33.68C93.5188 33.68 93.4388 33.6667 93.3455 33.64C93.2655 33.6 93.1921 33.56 93.1255 33.52L91.2655 32.32C91.0788 32.2133 90.9321 32.0867 90.8255 31.94C90.7188 31.78 90.6655 31.6133 90.6655 31.44C90.6655 31.1733 90.7655 30.9667 90.9655 30.82C91.1655 30.6733 91.3721 30.6 91.5855 30.6C91.7588 30.6 91.9188 30.64 92.0655 30.72C92.2121 30.8 92.3388 30.8933 92.4455 31L94.0455 32.6C94.2055 32.76 94.2855 32.92 94.2855 33.08C94.2855 33.2533 94.2188 33.4 94.0855 33.52C93.9655 33.6267 93.7988 33.68 93.5855 33.68ZM103.167 43.98C103.167 44.2733 103.074 44.52 102.887 44.72C102.701 44.9067 102.461 45 102.167 45C101.887 45 101.647 44.9067 101.447 44.72C101.261 44.52 101.167 44.2733 101.167 43.98V35.42C101.167 35.1267 101.261 34.8867 101.447 34.7C101.647 34.5 101.887 34.4 102.167 34.4C102.461 34.4 102.701 34.5 102.887 34.7C103.074 34.8867 103.167 35.1267 103.167 35.42V43.98ZM102.147 33.08C101.761 33.08 101.481 33.0133 101.307 32.88C101.134 32.7333 101.047 32.4933 101.047 32.16V31.84C101.047 31.5067 101.141 31.2733 101.327 31.14C101.514 31.0067 101.794 30.94 102.167 30.94C102.567 30.94 102.854 31.0133 103.027 31.16C103.201 31.2933 103.287 31.52 103.287 31.84V32.16C103.287 32.5067 103.194 32.7467 103.007 32.88C102.834 33.0133 102.547 33.08 102.147 33.08ZM120.044 30.2C120.337 30.2 120.577 30.2933 120.764 30.48C120.951 30.6667 121.044 30.9133 121.044 31.22V43.98C121.044 44.2733 120.951 44.52 120.764 44.72C120.577 44.9067 120.337 45 120.044 45C119.764 45 119.524 44.9067 119.324 44.72C119.137 44.52 119.044 44.2733 119.044 43.98V42.54L119.464 42.56C119.464 42.8 119.364 43.0733 119.164 43.38C118.977 43.6733 118.717 43.96 118.384 44.24C118.051 44.52 117.657 44.7533 117.204 44.94C116.751 45.1133 116.264 45.2 115.744 45.2C114.824 45.2 113.997 44.9667 113.264 44.5C112.531 44.02 111.951 43.3733 111.524 42.56C111.097 41.7333 110.884 40.7867 110.884 39.72C110.884 38.6533 111.097 37.7133 111.524 36.9C111.951 36.0733 112.524 35.4267 113.244 34.96C113.977 34.48 114.791 34.24 115.684 34.24C116.244 34.24 116.764 34.3333 117.244 34.52C117.737 34.7067 118.164 34.9467 118.524 35.24C118.884 35.5333 119.164 35.8467 119.364 36.18C119.564 36.5 119.664 36.8067 119.664 37.1L119.044 37.16V31.22C119.044 30.9267 119.137 30.6867 119.324 30.5C119.524 30.3 119.764 30.2 120.044 30.2ZM115.964 43.36C116.604 43.36 117.157 43.2 117.624 42.88C118.104 42.56 118.477 42.1267 118.744 41.58C119.011 41.0333 119.144 40.4133 119.144 39.72C119.144 39.0267 119.011 38.4067 118.744 37.86C118.477 37.3133 118.104 36.88 117.624 36.56C117.144 36.24 116.591 36.08 115.964 36.08C115.351 36.08 114.804 36.24 114.324 36.56C113.857 36.88 113.484 37.3133 113.204 37.86C112.937 38.4067 112.804 39.0267 112.804 39.72C112.804 40.4133 112.937 41.0333 113.204 41.58C113.484 42.1267 113.857 42.56 114.324 42.88C114.804 43.2 115.351 43.36 115.964 43.36ZM118.044 33.6C117.751 33.6 117.504 33.52 117.304 33.36C117.117 33.1867 117.024 32.9533 117.024 32.66C117.024 32.4067 117.117 32.1933 117.304 32.02C117.504 31.8467 117.751 31.76 118.044 31.76H121.444C121.737 31.76 121.977 31.8467 122.164 32.02C122.364 32.1933 122.464 32.4133 122.464 32.68C122.464 32.96 122.364 33.1867 122.164 33.36C121.977 33.52 121.737 33.6 121.444 33.6H118.044ZM132.466 34.32C132.759 34.32 132.999 34.42 133.186 34.62C133.373 34.8067 133.466 35.0467 133.466 35.34V43.98C133.466 44.2733 133.373 44.52 133.186 44.72C132.999 44.9067 132.759 45 132.466 45C132.186 45 131.946 44.9067 131.746 44.72C131.559 44.52 131.466 44.2733 131.466 43.98V42.54L131.886 42.6C131.886 42.84 131.786 43.1067 131.586 43.4C131.399 43.6933 131.139 43.98 130.806 44.26C130.473 44.5267 130.079 44.7533 129.626 44.94C129.173 45.1133 128.686 45.2 128.166 45.2C127.246 45.2 126.419 44.9667 125.686 44.5C124.953 44.02 124.373 43.3667 123.946 42.54C123.519 41.7133 123.306 40.7733 123.306 39.72C123.306 38.64 123.519 37.6933 123.946 36.88C124.373 36.0533 124.946 35.4067 125.666 34.94C126.399 34.4733 127.213 34.24 128.106 34.24C128.679 34.24 129.206 34.3333 129.686 34.52C130.179 34.7067 130.606 34.9467 130.966 35.24C131.326 35.5333 131.599 35.8467 131.786 36.18C131.986 36.5 132.086 36.8067 132.086 37.1L131.466 37.16V35.34C131.466 35.06 131.559 34.82 131.746 34.62C131.946 34.42 132.186 34.32 132.466 34.32ZM128.386 43.36C129.013 43.36 129.566 43.2 130.046 42.88C130.526 42.56 130.899 42.1267 131.166 41.58C131.433 41.02 131.566 40.4 131.566 39.72C131.566 39.0267 131.433 38.4067 131.166 37.86C130.899 37.3133 130.526 36.88 130.046 36.56C129.566 36.24 129.013 36.08 128.386 36.08C127.773 36.08 127.226 36.24 126.746 36.56C126.279 36.88 125.906 37.3133 125.626 37.86C125.359 38.4067 125.226 39.0267 125.226 39.72C125.226 40.4 125.359 41.02 125.626 41.58C125.906 42.1267 126.279 42.56 126.746 42.88C127.226 43.2 127.773 43.36 128.386 43.36ZM128.586 48.12C128.199 48.12 127.919 48.0467 127.746 47.9C127.573 47.7667 127.486 47.5333 127.486 47.2V46.88C127.486 46.5467 127.579 46.3133 127.766 46.18C127.953 46.0467 128.226 45.98 128.586 45.98C128.999 45.98 129.293 46.0467 129.466 46.18C129.639 46.3133 129.726 46.5467 129.726 46.88V47.2C129.726 47.5467 129.633 47.7867 129.446 47.92C129.273 48.0533 128.986 48.12 128.586 48.12ZM128.466 33.58C127.986 33.58 127.539 33.5 127.126 33.34C126.726 33.1667 126.379 32.9267 126.086 32.62C125.806 32.3 125.606 31.94 125.486 31.54C125.379 31.26 125.386 31.04 125.506 30.88C125.626 30.7067 125.793 30.62 126.006 30.62C126.259 30.62 126.459 30.68 126.606 30.8C126.753 30.9067 126.893 31.06 127.026 31.26C127.146 31.5267 127.326 31.74 127.566 31.9C127.806 32.0467 128.106 32.12 128.466 32.12C128.813 32.12 129.106 32.0467 129.346 31.9C129.586 31.74 129.773 31.5267 129.906 31.26C130.053 31.06 130.193 30.9067 130.326 30.8C130.473 30.68 130.666 30.62 130.906 30.62C131.133 30.62 131.306 30.7 131.426 30.86C131.546 31.02 131.553 31.2333 131.446 31.5C131.326 31.9133 131.119 32.28 130.826 32.6C130.546 32.9067 130.206 33.1467 129.806 33.32C129.406 33.4933 128.959 33.58 128.466 33.58ZM136.128 34.6H140.828C141.094 34.6 141.314 34.6933 141.488 34.88C141.674 35.0533 141.768 35.2733 141.768 35.54C141.768 35.7933 141.674 36.0067 141.488 36.18C141.314 36.3533 141.094 36.44 140.828 36.44H136.128C135.861 36.44 135.634 36.3533 135.448 36.18C135.274 35.9933 135.188 35.7733 135.188 35.52C135.188 35.2533 135.274 35.0333 135.448 34.86C135.634 34.6867 135.861 34.6 136.128 34.6ZM138.228 32C138.521 32 138.761 32.1 138.948 32.3C139.134 32.4867 139.228 32.7267 139.228 33.02V42.3C139.228 42.54 139.268 42.7333 139.348 42.88C139.428 43.0267 139.534 43.1267 139.668 43.18C139.814 43.2333 139.961 43.26 140.108 43.26C140.254 43.26 140.381 43.2333 140.488 43.18C140.608 43.1267 140.748 43.1 140.908 43.1C141.068 43.1 141.214 43.1733 141.348 43.32C141.481 43.4667 141.548 43.6667 141.548 43.92C141.548 44.24 141.374 44.5 141.028 44.7C140.681 44.9 140.308 45 139.908 45C139.681 45 139.414 44.98 139.108 44.94C138.801 44.9 138.501 44.8 138.208 44.64C137.928 44.48 137.694 44.2267 137.508 43.88C137.321 43.52 137.228 43.02 137.228 42.38V33.02C137.228 32.7267 137.321 32.4867 137.508 32.3C137.708 32.1 137.948 32 138.228 32Z" fill="#707386"/>
<defs>
<clipPath id="clip0_1691_19574">
<rect width="32" height="32" fill="white" transform="translate(21.334 20.9702)"/>
</clipPath>
</defs>
</svg>
