<svg width="22" height="22" viewBox="0 0 22 22" fill="none" xmlns="http://www.w3.org/2000/svg">
<g clip-path="url(#clip0_2516_28418)">
<path d="M0.917538 4.35484H3.42529C3.92024 6.17593 5.79774 7.25098 7.61883 6.75603C8.78846 6.43814 9.70214 5.52446 10.02 4.35484H21.0822C21.5884 4.35484 21.9987 3.94448 21.9987 3.43827C21.9987 2.93207 21.5884 2.52171 21.0822 2.52171H10.02C9.52508 0.700578 7.64758 -0.374479 5.82649 0.120472C4.65686 0.438366 3.74318 1.35205 3.42529 2.52167H0.917538C0.41133 2.52167 0.000976562 2.93202 0.000976562 3.43823C0.000976562 3.94444 0.41133 4.35484 0.917538 4.35484Z" fill="#707386"/>
<path d="M21.0822 10.0836H18.5744C18.0805 8.26277 16.204 7.18712 14.3832 7.68103C13.2126 7.99859 12.2981 8.913 11.9806 10.0836H0.917538C0.41133 10.0836 0.000976562 10.494 0.000976562 11.0002C0.000976562 11.5064 0.41133 11.9167 0.917538 11.9167H11.9806C12.4746 13.7376 14.351 14.8132 16.1719 14.3193C17.3424 14.0018 18.2569 13.0873 18.5744 11.9167H21.0822C21.5884 11.9167 21.9987 11.5064 21.9987 11.0002C21.9987 10.494 21.5884 10.0836 21.0822 10.0836Z" fill="#707386"/>
<path d="M21.0822 17.6452H10.02C9.52508 15.8241 7.64758 14.7491 5.82649 15.244C4.65686 15.5619 3.74318 16.4756 3.42529 17.6452H0.917538C0.41133 17.6452 0.000976562 18.0556 0.000976562 18.5618C0.000976562 19.068 0.41133 19.4783 0.917538 19.4783H3.42529C3.92024 21.2994 5.79774 22.3745 7.61883 21.8795C8.78846 21.5616 9.70214 20.6479 10.02 19.4783H21.0822C21.5884 19.4783 21.9987 19.068 21.9987 18.5618C21.9987 18.0556 21.5884 17.6452 21.0822 17.6452Z" fill="#707386"/>
</g>
<defs>
<clipPath id="clip0_2516_28418">
<rect width="22" height="22" fill="white"/>
</clipPath>
</defs>
</svg>
