<svg width="75" height="75" viewBox="0 0 75 75" fill="none" xmlns="http://www.w3.org/2000/svg">
<circle cx="37.3333" cy="37.5001" r="37.3333" fill="white"/>
<circle cx="37.3334" cy="37.4999" r="30.6667" fill="white"/>
<g clip-path="url(#clip0_1691_19700)">
<path d="M23.4768 44.9702C24.5797 46.8843 27.0255 47.542 28.9396 46.4391C28.9409 46.4383 28.9422 46.4376 28.9435 46.4368L29.5368 46.0942C30.6568 47.0524 31.9442 47.7955 33.3341 48.2862V48.9702C33.3341 51.1793 35.125 52.9702 37.3341 52.9702C39.5432 52.9702 41.3341 51.1793 41.3341 48.9702V48.2862C42.7242 47.7948 44.0117 47.0508 45.1314 46.0915L45.7274 46.4355C47.642 47.5401 50.0895 46.8835 51.1941 44.9688C52.2987 43.0543 51.642 40.6067 49.7274 39.5022L49.1354 39.1608C49.4019 37.7108 49.4019 36.2243 49.1354 34.7742L49.7274 34.4328C51.642 33.3283 52.2987 30.8808 51.1941 28.9662C50.0895 27.0516 47.642 26.3949 45.7274 27.4995L45.1341 27.8422C44.013 26.8851 42.7247 26.1433 41.3341 25.6542V24.9702C41.3341 22.7611 39.5432 20.9702 37.3341 20.9702C35.125 20.9702 33.3341 22.7611 33.3341 24.9702V25.6542C31.944 26.1457 30.6565 26.8897 29.5368 27.8489L28.9408 27.5036C27.0262 26.399 24.5787 27.0557 23.4741 28.9702C22.3695 30.8848 23.0262 33.3323 24.9408 34.4369L25.5328 34.7782C25.2663 36.2283 25.2663 37.7148 25.5328 39.1649L24.9408 39.5062C23.0315 40.6137 22.377 43.0565 23.4768 44.9702ZM37.3341 31.6369C40.2796 31.6369 42.6674 34.0247 42.6674 36.9702C42.6674 39.9157 40.2796 42.3035 37.3341 42.3035C34.3886 42.3035 32.0008 39.9157 32.0008 36.9702C32.0008 34.0247 34.3886 31.6369 37.3341 31.6369Z" fill="#78B7EE"/>
</g>
<defs>
<clipPath id="clip0_1691_19700">
<rect width="32" height="32" fill="white" transform="translate(21.334 20.9702)"/>
</clipPath>
</defs>
</svg>
