<svg width="75" height="75" viewBox="0 0 75 75" fill="none" xmlns="http://www.w3.org/2000/svg">
<circle cx="37.3333" cy="37.5" r="37.3333" fill="white"/>
<circle cx="37.3334" cy="37.4998" r="30.6667" fill="white"/>
<g clip-path="url(#clip0_2591_4883)">
<path d="M37.334 31.6367C36.2792 31.6367 35.248 31.9495 34.371 32.5355C33.4939 33.1216 32.8103 33.9545 32.4066 34.929C32.003 35.9036 31.8974 36.9759 32.1032 38.0105C32.3089 39.0451 32.8169 39.9954 33.5628 40.7413C34.3087 41.4871 35.259 41.9951 36.2935 42.2009C37.3281 42.4067 38.4004 42.301 39.375 41.8974C40.3495 41.4937 41.1825 40.8101 41.7685 39.9331C42.3545 39.056 42.6673 38.0249 42.6673 36.97C42.6673 35.5555 42.1054 34.199 41.1052 33.1988C40.1051 32.1986 38.7485 31.6367 37.334 31.6367ZM37.334 39.6367C36.8066 39.6367 36.291 39.4803 35.8525 39.1873C35.414 38.8943 35.0722 38.4778 34.8703 37.9905C34.6685 37.5032 34.6157 36.9671 34.7186 36.4498C34.8215 35.9325 35.0755 35.4573 35.4484 35.0844C35.8213 34.7115 36.2965 34.4575 36.8138 34.3546C37.331 34.2517 37.8672 34.3045 38.3545 34.5063C38.8418 34.7082 39.2582 35.05 39.5513 35.4885C39.8443 35.927 40.0007 36.4426 40.0007 36.97C40.0007 37.6773 39.7197 38.3555 39.2196 38.8556C38.7195 39.3557 38.0413 39.6367 37.334 39.6367Z" fill="#707386"/>
<path d="M49.726 39.5034L49.134 39.162C49.4006 37.712 49.4006 36.2254 49.134 34.7754L49.726 34.434C50.1813 34.1714 50.5804 33.8216 50.9004 33.4048C51.2205 32.9879 51.4554 32.5121 51.5916 32.0045C51.7278 31.4968 51.7626 30.9673 51.6942 30.4462C51.6258 29.9251 51.4554 29.4226 51.1927 28.9674C50.9301 28.5121 50.5803 28.1131 50.1635 27.793C49.7466 27.4729 49.2708 27.238 48.7631 27.1018C48.2555 26.9657 47.726 26.9308 47.2049 26.9992C46.6838 27.0677 46.1813 27.2381 45.726 27.5007L45.1327 27.8434C44.0121 26.8859 42.7243 26.1437 41.334 25.654V24.97C41.334 23.9092 40.9126 22.8918 40.1625 22.1416C39.4123 21.3915 38.3949 20.97 37.334 20.97C36.2732 20.97 35.2558 21.3915 34.5056 22.1416C33.7555 22.8918 33.334 23.9092 33.334 24.97V25.654C31.9439 26.1455 30.6565 26.8895 29.5367 27.8487L28.9407 27.5034C28.0213 26.9729 26.9288 26.8295 25.9036 27.1045C24.8784 27.3796 24.0045 28.0506 23.474 28.97C22.9436 29.8894 22.8001 30.9819 23.0752 32.0071C23.3502 33.0323 24.0213 33.9063 24.9407 34.4367L25.5327 34.778C25.2662 36.2281 25.2662 37.7146 25.5327 39.1647L24.9407 39.506C24.0213 40.0365 23.3502 40.9104 23.0752 41.9356C22.8001 42.9608 22.9436 44.0533 23.474 44.9727C24.0045 45.8921 24.8784 46.5632 25.9036 46.8382C26.9288 47.1133 28.0213 46.9698 28.9407 46.4394L29.534 46.0967C30.6551 47.0543 31.9433 47.7965 33.334 48.286V48.97C33.334 50.0309 33.7555 51.0483 34.5056 51.7985C35.2558 52.5486 36.2732 52.97 37.334 52.97C38.3949 52.97 39.4123 52.5486 40.1625 51.7985C40.9126 51.0483 41.334 50.0309 41.334 48.97V48.286C42.7242 47.7946 44.0116 47.0506 45.1314 46.0914L45.7274 46.4354C46.6468 46.9658 47.7393 47.1093 48.7645 46.8342C49.7897 46.5592 50.6636 45.8881 51.194 44.9687C51.7245 44.0493 51.8679 42.9568 51.5929 41.9316C51.3178 40.9064 50.6468 40.0325 49.7274 39.502L49.726 39.5034ZM46.3287 34.4687C46.7802 36.1048 46.7802 37.8326 46.3287 39.4687C46.2499 39.7535 46.2679 40.0563 46.3798 40.3298C46.4918 40.6032 46.6914 40.8317 46.9474 40.9794L48.3927 41.814C48.6991 41.9908 48.9227 42.2821 49.0144 42.6238C49.106 42.9655 49.0582 43.3296 48.8814 43.636C48.7046 43.9424 48.4133 44.1661 48.0716 44.2577C47.7299 44.3494 47.3658 44.3015 47.0594 44.1247L45.6114 43.2874C45.3552 43.139 45.057 43.0801 44.7637 43.1199C44.4704 43.1598 44.1987 43.2961 43.9914 43.5074C42.8046 44.7189 41.3095 45.5833 39.6674 46.0074C39.3808 46.0811 39.1268 46.248 38.9455 46.4819C38.7642 46.7158 38.6659 47.0034 38.666 47.2994V48.97C38.666 49.3237 38.5256 49.6628 38.2755 49.9128C38.0255 50.1629 37.6863 50.3034 37.3327 50.3034C36.9791 50.3034 36.6399 50.1629 36.3899 49.9128C36.1399 49.6628 35.9994 49.3237 35.9994 48.97V47.3007C35.9995 47.0048 35.9012 46.7172 35.7199 46.4833C35.5386 46.2493 35.2847 46.0824 34.998 46.0087C33.3558 45.5829 31.8611 44.7166 30.6754 43.5034C30.4681 43.2921 30.1964 43.1558 29.903 43.1159C29.6097 43.0761 29.3115 43.135 29.0554 43.2834L27.61 44.1194C27.4583 44.2083 27.2906 44.2663 27.1163 44.2902C26.9421 44.314 26.7649 44.3031 26.5949 44.2582C26.4249 44.2132 26.2655 44.1351 26.1258 44.0283C25.9861 43.9215 25.8689 43.7881 25.781 43.6358C25.6931 43.4835 25.6362 43.3154 25.6135 43.141C25.5908 42.9666 25.6029 42.7895 25.649 42.6198C25.695 42.4501 25.7742 42.2912 25.882 42.1522C25.9897 42.0132 26.1238 41.8969 26.2767 41.81L27.722 40.9754C27.978 40.8277 28.1776 40.5992 28.2896 40.3258C28.4016 40.0523 28.4195 39.7495 28.3407 39.4647C27.8892 37.8286 27.8892 36.1008 28.3407 34.4647C28.4181 34.1805 28.3993 33.8787 28.2871 33.6064C28.175 33.3341 27.9758 33.1066 27.7207 32.9594L26.2754 32.1247C25.969 31.9479 25.7453 31.6566 25.6537 31.3149C25.5621 30.9732 25.6099 30.6091 25.7867 30.3027C25.9635 29.9963 26.2548 29.7727 26.5965 29.681C26.9382 29.5894 27.3023 29.6372 27.6087 29.814L29.0567 30.6514C29.3121 30.8001 29.6097 30.8596 29.9027 30.8208C30.1957 30.7819 30.4675 30.6468 30.6754 30.4367C31.8622 29.2252 33.3573 28.3607 34.9994 27.9367C35.2869 27.8628 35.5415 27.695 35.7229 27.46C35.9043 27.225 36.002 26.9362 36.0007 26.6394V24.97C36.0007 24.6164 36.1412 24.2773 36.3912 24.0272C36.6413 23.7772 36.9804 23.6367 37.334 23.6367C37.6877 23.6367 38.0268 23.7772 38.2769 24.0272C38.5269 24.2773 38.6674 24.6164 38.6674 24.97V26.6394C38.6672 26.9353 38.7655 27.2229 38.9468 27.4568C39.1281 27.6907 39.3821 27.8577 39.6687 27.9314C41.3114 28.3569 42.8066 29.2232 43.9927 30.4367C44.2 30.648 44.4717 30.7843 44.765 30.8241C45.0583 30.864 45.3566 30.8051 45.6127 30.6567L47.058 29.8207C47.2097 29.7318 47.3775 29.6737 47.5517 29.6499C47.726 29.6261 47.9032 29.637 48.0732 29.6819C48.2432 29.7268 48.4026 29.805 48.5423 29.9118C48.682 30.0186 48.7991 30.152 48.8871 30.3043C48.975 30.4565 49.0319 30.6247 49.0546 30.7991C49.0772 30.9735 49.0652 31.1506 49.0191 31.3203C48.9731 31.49 48.8939 31.6489 48.7861 31.7879C48.6784 31.9268 48.5442 32.0431 48.3914 32.13L46.946 32.9647C46.6914 33.1123 46.4928 33.34 46.3812 33.6123C46.2695 33.8846 46.2511 34.1862 46.3287 34.47V34.4687Z" fill="#707386"/>
</g>
<defs>
<clipPath id="clip0_2591_4883">
<rect width="32" height="32" fill="white" transform="translate(21.334 20.97)"/>
</clipPath>
</defs>
</svg>
