<svg width="171" height="75" viewBox="0 0 171 75" fill="none" xmlns="http://www.w3.org/2000/svg">
<circle cx="37.3333" cy="37.5001" r="37.3333" fill="white"/>
<circle cx="37.3334" cy="37.4999" r="30.6667" fill="white"/>
<g clip-path="url(#clip0_1691_19699)">
<path d="M23.4768 44.9702C24.5797 46.8843 27.0255 47.542 28.9396 46.4391C28.9409 46.4383 28.9422 46.4376 28.9435 46.4368L29.5368 46.0942C30.6568 47.0524 31.9442 47.7955 33.3341 48.2862V48.9702C33.3341 51.1793 35.125 52.9702 37.3341 52.9702C39.5432 52.9702 41.3341 51.1793 41.3341 48.9702V48.2862C42.7242 47.7948 44.0117 47.0508 45.1314 46.0915L45.7274 46.4355C47.642 47.5401 50.0895 46.8835 51.1941 44.9688C52.2987 43.0543 51.642 40.6067 49.7274 39.5022L49.1354 39.1608C49.4019 37.7108 49.4019 36.2243 49.1354 34.7742L49.7274 34.4328C51.642 33.3283 52.2987 30.8808 51.1941 28.9662C50.0895 27.0516 47.642 26.3949 45.7274 27.4995L45.1341 27.8422C44.013 26.8851 42.7247 26.1433 41.3341 25.6542V24.9702C41.3341 22.7611 39.5432 20.9702 37.3341 20.9702C35.125 20.9702 33.3341 22.7611 33.3341 24.9702V25.6542C31.944 26.1457 30.6565 26.8897 29.5368 27.8489L28.9408 27.5036C27.0262 26.399 24.5787 27.0557 23.4741 28.9702C22.3695 30.8848 23.0262 33.3323 24.9408 34.4369L25.5328 34.7782C25.2663 36.2283 25.2663 37.7148 25.5328 39.1649L24.9408 39.5062C23.0315 40.6137 22.377 43.0565 23.4768 44.9702ZM37.3341 31.6369C40.2796 31.6369 42.6674 34.0247 42.6674 36.9702C42.6674 39.9157 40.2796 42.3035 37.3341 42.3035C34.3886 42.3035 32.0008 39.9157 32.0008 36.9702C32.0008 34.0247 34.3886 31.6369 37.3341 31.6369Z" fill="#78B7EE"/>
</g>
<path d="M86.3106 31.8C86.6039 31.9467 86.7706 32.1733 86.8106 32.48C86.8639 32.7867 86.7906 33.0667 86.5906 33.32C86.4439 33.52 86.2506 33.6333 86.0106 33.66C85.7839 33.6867 85.5573 33.64 85.3306 33.52C84.9439 33.32 84.5373 33.16 84.1106 33.04C83.6839 32.92 83.2306 32.86 82.7506 32.86C81.9906 32.86 81.3039 32.9867 80.6906 33.24C80.0906 33.48 79.5706 33.8333 79.1306 34.3C78.6906 34.7533 78.3506 35.2933 78.1106 35.92C77.8839 36.5467 77.7706 37.24 77.7706 38C77.7706 38.84 77.8973 39.5867 78.1506 40.24C78.4039 40.88 78.7506 41.4267 79.1906 41.88C79.6439 42.32 80.1706 42.6533 80.7706 42.88C81.3839 43.0933 82.0439 43.2 82.7506 43.2C83.2039 43.2 83.6439 43.1467 84.0706 43.04C84.5106 42.9333 84.9239 42.7733 85.3106 42.56C85.5506 42.44 85.7839 42.4 86.0106 42.44C86.2506 42.4667 86.4439 42.58 86.5906 42.78C86.8173 43.06 86.8973 43.3467 86.8306 43.64C86.7773 43.92 86.6106 44.1333 86.3306 44.28C85.9973 44.4667 85.6306 44.6267 85.2306 44.76C84.8306 44.8933 84.4239 45 84.0106 45.08C83.5973 45.16 83.1773 45.2 82.7506 45.2C81.7906 45.2 80.8839 45.04 80.0306 44.72C79.1773 44.4 78.4173 43.9333 77.7506 43.32C77.0839 42.7067 76.5573 41.9533 76.1706 41.06C75.7973 40.1667 75.6106 39.1467 75.6106 38C75.6106 36.9733 75.7839 36.0267 76.1306 35.16C76.4906 34.28 76.9906 33.5267 77.6306 32.9C78.2839 32.26 79.0439 31.7667 79.9106 31.42C80.7773 31.06 81.7239 30.88 82.7506 30.88C83.3906 30.88 84.0106 30.96 84.6106 31.12C85.2239 31.28 85.7906 31.5067 86.3106 31.8ZM97.4855 34.32C97.7788 34.32 98.0188 34.42 98.2055 34.62C98.3921 34.8067 98.4855 35.0467 98.4855 35.34V43.98C98.4855 44.2733 98.3921 44.52 98.2055 44.72C98.0188 44.9067 97.7788 45 97.4855 45C97.2055 45 96.9655 44.9067 96.7655 44.72C96.5788 44.52 96.4855 44.2733 96.4855 43.98V42.54L96.9055 42.6C96.9055 42.84 96.8055 43.1067 96.6055 43.4C96.4188 43.6933 96.1588 43.98 95.8255 44.26C95.4921 44.5267 95.0988 44.7533 94.6455 44.94C94.1921 45.1133 93.7055 45.2 93.1855 45.2C92.2655 45.2 91.4388 44.9667 90.7055 44.5C89.9721 44.02 89.3921 43.3667 88.9655 42.54C88.5388 41.7133 88.3255 40.7733 88.3255 39.72C88.3255 38.64 88.5388 37.6933 88.9655 36.88C89.3921 36.0533 89.9655 35.4067 90.6855 34.94C91.4188 34.4733 92.2321 34.24 93.1255 34.24C93.6988 34.24 94.2255 34.3333 94.7055 34.52C95.1988 34.7067 95.6255 34.9467 95.9855 35.24C96.3455 35.5333 96.6188 35.8467 96.8055 36.18C97.0055 36.5 97.1055 36.8067 97.1055 37.1L96.4855 37.16V35.34C96.4855 35.06 96.5788 34.82 96.7655 34.62C96.9655 34.42 97.2055 34.32 97.4855 34.32ZM93.4055 43.36C94.0321 43.36 94.5855 43.2 95.0655 42.88C95.5455 42.56 95.9188 42.1267 96.1855 41.58C96.4521 41.02 96.5855 40.4 96.5855 39.72C96.5855 39.0267 96.4521 38.4067 96.1855 37.86C95.9188 37.3133 95.5455 36.88 95.0655 36.56C94.5855 36.24 94.0321 36.08 93.4055 36.08C92.7921 36.08 92.2455 36.24 91.7655 36.56C91.2988 36.88 90.9255 37.3133 90.6455 37.86C90.3788 38.4067 90.2455 39.0267 90.2455 39.72C90.2455 40.4 90.3788 41.02 90.6455 41.58C90.9255 42.1267 91.2988 42.56 91.7655 42.88C92.2455 43.2 92.7921 43.36 93.4055 43.36ZM93.5855 33.68C93.5188 33.68 93.4388 33.6667 93.3455 33.64C93.2655 33.6 93.1921 33.56 93.1255 33.52L91.2655 32.32C91.0788 32.2133 90.9321 32.0867 90.8255 31.94C90.7188 31.78 90.6655 31.6133 90.6655 31.44C90.6655 31.1733 90.7655 30.9667 90.9655 30.82C91.1655 30.6733 91.3721 30.6 91.5855 30.6C91.7588 30.6 91.9188 30.64 92.0655 30.72C92.2121 30.8 92.3388 30.8933 92.4455 31L94.0455 32.6C94.2055 32.76 94.2855 32.92 94.2855 33.08C94.2855 33.2533 94.2188 33.4 94.0855 33.52C93.9655 33.6267 93.7988 33.68 93.5855 33.68ZM103.167 43.98C103.167 44.2733 103.074 44.52 102.887 44.72C102.701 44.9067 102.461 45 102.167 45C101.887 45 101.647 44.9067 101.447 44.72C101.261 44.52 101.167 44.2733 101.167 43.98V35.42C101.167 35.1267 101.261 34.8867 101.447 34.7C101.647 34.5 101.887 34.4 102.167 34.4C102.461 34.4 102.701 34.5 102.887 34.7C103.074 34.8867 103.167 35.1267 103.167 35.42V43.98ZM102.147 33.08C101.761 33.08 101.481 33.0133 101.307 32.88C101.134 32.7333 101.047 32.4933 101.047 32.16V31.84C101.047 31.5067 101.141 31.2733 101.327 31.14C101.514 31.0067 101.794 30.94 102.167 30.94C102.567 30.94 102.854 31.0133 103.027 31.16C103.201 31.2933 103.287 31.52 103.287 31.84V32.16C103.287 32.5067 103.194 32.7467 103.007 32.88C102.834 33.0133 102.547 33.08 102.147 33.08ZM120.044 30.2C120.337 30.2 120.577 30.2933 120.764 30.48C120.951 30.6667 121.044 30.9133 121.044 31.22V43.98C121.044 44.2733 120.951 44.52 120.764 44.72C120.577 44.9067 120.337 45 120.044 45C119.764 45 119.524 44.9067 119.324 44.72C119.137 44.52 119.044 44.2733 119.044 43.98V42.54L119.464 42.56C119.464 42.8 119.364 43.0733 119.164 43.38C118.977 43.6733 118.717 43.96 118.384 44.24C118.051 44.52 117.657 44.7533 117.204 44.94C116.751 45.1133 116.264 45.2 115.744 45.2C114.824 45.2 113.997 44.9667 113.264 44.5C112.531 44.02 111.951 43.3733 111.524 42.56C111.097 41.7333 110.884 40.7867 110.884 39.72C110.884 38.6533 111.097 37.7133 111.524 36.9C111.951 36.0733 112.524 35.4267 113.244 34.96C113.977 34.48 114.791 34.24 115.684 34.24C116.244 34.24 116.764 34.3333 117.244 34.52C117.737 34.7067 118.164 34.9467 118.524 35.24C118.884 35.5333 119.164 35.8467 119.364 36.18C119.564 36.5 119.664 36.8067 119.664 37.1L119.044 37.16V31.22C119.044 30.9267 119.137 30.6867 119.324 30.5C119.524 30.3 119.764 30.2 120.044 30.2ZM115.964 43.36C116.604 43.36 117.157 43.2 117.624 42.88C118.104 42.56 118.477 42.1267 118.744 41.58C119.011 41.0333 119.144 40.4133 119.144 39.72C119.144 39.0267 119.011 38.4067 118.744 37.86C118.477 37.3133 118.104 36.88 117.624 36.56C117.144 36.24 116.591 36.08 115.964 36.08C115.351 36.08 114.804 36.24 114.324 36.56C113.857 36.88 113.484 37.3133 113.204 37.86C112.937 38.4067 112.804 39.0267 112.804 39.72C112.804 40.4133 112.937 41.0333 113.204 41.58C113.484 42.1267 113.857 42.56 114.324 42.88C114.804 43.2 115.351 43.36 115.964 43.36ZM118.044 33.6C117.751 33.6 117.504 33.52 117.304 33.36C117.117 33.1867 117.024 32.9533 117.024 32.66C117.024 32.4067 117.117 32.1933 117.304 32.02C117.504 31.8467 117.751 31.76 118.044 31.76H121.444C121.737 31.76 121.977 31.8467 122.164 32.02C122.364 32.1933 122.464 32.4133 122.464 32.68C122.464 32.96 122.364 33.1867 122.164 33.36C121.977 33.52 121.737 33.6 121.444 33.6H118.044ZM132.466 34.32C132.759 34.32 132.999 34.42 133.186 34.62C133.373 34.8067 133.466 35.0467 133.466 35.34V43.98C133.466 44.2733 133.373 44.52 133.186 44.72C132.999 44.9067 132.759 45 132.466 45C132.186 45 131.946 44.9067 131.746 44.72C131.559 44.52 131.466 44.2733 131.466 43.98V42.54L131.886 42.6C131.886 42.84 131.786 43.1067 131.586 43.4C131.399 43.6933 131.139 43.98 130.806 44.26C130.473 44.5267 130.079 44.7533 129.626 44.94C129.173 45.1133 128.686 45.2 128.166 45.2C127.246 45.2 126.419 44.9667 125.686 44.5C124.953 44.02 124.373 43.3667 123.946 42.54C123.519 41.7133 123.306 40.7733 123.306 39.72C123.306 38.64 123.519 37.6933 123.946 36.88C124.373 36.0533 124.946 35.4067 125.666 34.94C126.399 34.4733 127.213 34.24 128.106 34.24C128.679 34.24 129.206 34.3333 129.686 34.52C130.179 34.7067 130.606 34.9467 130.966 35.24C131.326 35.5333 131.599 35.8467 131.786 36.18C131.986 36.5 132.086 36.8067 132.086 37.1L131.466 37.16V35.34C131.466 35.06 131.559 34.82 131.746 34.62C131.946 34.42 132.186 34.32 132.466 34.32ZM128.386 43.36C129.013 43.36 129.566 43.2 130.046 42.88C130.526 42.56 130.899 42.1267 131.166 41.58C131.433 41.02 131.566 40.4 131.566 39.72C131.566 39.0267 131.433 38.4067 131.166 37.86C130.899 37.3133 130.526 36.88 130.046 36.56C129.566 36.24 129.013 36.08 128.386 36.08C127.773 36.08 127.226 36.24 126.746 36.56C126.279 36.88 125.906 37.3133 125.626 37.86C125.359 38.4067 125.226 39.0267 125.226 39.72C125.226 40.4 125.359 41.02 125.626 41.58C125.906 42.1267 126.279 42.56 126.746 42.88C127.226 43.2 127.773 43.36 128.386 43.36ZM128.586 48.12C128.199 48.12 127.919 48.0467 127.746 47.9C127.573 47.7667 127.486 47.5333 127.486 47.2V46.88C127.486 46.5467 127.579 46.3133 127.766 46.18C127.953 46.0467 128.226 45.98 128.586 45.98C128.999 45.98 129.293 46.0467 129.466 46.18C129.639 46.3133 129.726 46.5467 129.726 46.88V47.2C129.726 47.5467 129.633 47.7867 129.446 47.92C129.273 48.0533 128.986 48.12 128.586 48.12ZM128.466 33.58C127.986 33.58 127.539 33.5 127.126 33.34C126.726 33.1667 126.379 32.9267 126.086 32.62C125.806 32.3 125.606 31.94 125.486 31.54C125.379 31.26 125.386 31.04 125.506 30.88C125.626 30.7067 125.793 30.62 126.006 30.62C126.259 30.62 126.459 30.68 126.606 30.8C126.753 30.9067 126.893 31.06 127.026 31.26C127.146 31.5267 127.326 31.74 127.566 31.9C127.806 32.0467 128.106 32.12 128.466 32.12C128.813 32.12 129.106 32.0467 129.346 31.9C129.586 31.74 129.773 31.5267 129.906 31.26C130.053 31.06 130.193 30.9067 130.326 30.8C130.473 30.68 130.666 30.62 130.906 30.62C131.133 30.62 131.306 30.7 131.426 30.86C131.546 31.02 131.553 31.2333 131.446 31.5C131.326 31.9133 131.119 32.28 130.826 32.6C130.546 32.9067 130.206 33.1467 129.806 33.32C129.406 33.4933 128.959 33.58 128.466 33.58ZM136.128 34.6H140.828C141.094 34.6 141.314 34.6933 141.488 34.88C141.674 35.0533 141.768 35.2733 141.768 35.54C141.768 35.7933 141.674 36.0067 141.488 36.18C141.314 36.3533 141.094 36.44 140.828 36.44H136.128C135.861 36.44 135.634 36.3533 135.448 36.18C135.274 35.9933 135.188 35.7733 135.188 35.52C135.188 35.2533 135.274 35.0333 135.448 34.86C135.634 34.6867 135.861 34.6 136.128 34.6ZM138.228 32C138.521 32 138.761 32.1 138.948 32.3C139.134 32.4867 139.228 32.7267 139.228 33.02V42.3C139.228 42.54 139.268 42.7333 139.348 42.88C139.428 43.0267 139.534 43.1267 139.668 43.18C139.814 43.2333 139.961 43.26 140.108 43.26C140.254 43.26 140.381 43.2333 140.488 43.18C140.608 43.1267 140.748 43.1 140.908 43.1C141.068 43.1 141.214 43.1733 141.348 43.32C141.481 43.4667 141.548 43.6667 141.548 43.92C141.548 44.24 141.374 44.5 141.028 44.7C140.681 44.9 140.308 45 139.908 45C139.681 45 139.414 44.98 139.108 44.94C138.801 44.9 138.501 44.8 138.208 44.64C137.928 44.48 137.694 44.2267 137.508 43.88C137.321 43.52 137.228 43.02 137.228 42.38V33.02C137.228 32.7267 137.321 32.4867 137.508 32.3C137.708 32.1 137.948 32 138.228 32Z" fill="#78B7EE"/>
<defs>
<clipPath id="clip0_1691_19699">
<rect width="32" height="32" fill="white" transform="translate(21.334 20.9702)"/>
</clipPath>
</defs>
</svg>
