<svg width="40" height="32" viewBox="0 0 40 32" fill="none" xmlns="http://www.w3.org/2000/svg">
<g clip-path="url(#clip0_1760_20286)">
<path d="M22.0957 16.8541L22.4606 17.1655C22.6563 17.3483 22.8546 17.5263 23.0564 17.699C23.3637 17.4201 23.7421 17.1181 24.193 16.8311C25.1787 16.2035 26.6647 15.5637 28.5955 15.5942C28.6612 15.5956 28.6916 15.513 28.6415 15.4703C28.4933 15.3444 28.3484 15.2165 28.2062 15.0865C27.8731 14.7825 27.4351 14.6187 26.9849 14.6383C25.7298 14.6925 24.5518 15.0635 23.4659 15.7486C22.8776 16.1196 22.4193 16.5244 22.0957 16.8527V16.8541Z" fill="#ACC981"/>
<path d="M1.95074 13.1687C3.34331 12.2622 4.95996 11.4715 6.76211 10.8155C9.00363 9.99974 11.6073 9.15959 14.1332 9.52111C15.8291 9.76347 16.9312 10.6943 17.8553 11.7938C18.1857 11.4065 18.7963 10.779 19.6872 10.2116C20.4752 9.70999 21.5841 9.20021 22.9835 9.03164C22.974 9.01675 22.9652 9.00185 22.9557 8.98696L22.9517 8.98967C22.9124 8.92468 22.8745 8.85901 22.8359 8.79402C21.9321 7.32901 21.3926 6.27968 21.3926 6.27968C21.1664 5.87822 20.9403 5.47676 20.7135 5.07734C20.4312 4.58043 19.9303 4.24532 19.3629 4.17559C17.7869 3.98129 14.7147 3.82829 14.5204 5.54785C14.3356 7.18007 11.981 7.01218 10.822 6.88423C8.75382 6.65676 7.8893 5.16873 7.43369 3.23186C7.2922 2.62866 7.58059 1.99297 8.14453 1.73639C8.63061 1.51569 9.27646 1.59355 9.94532 2.73834C9.94938 2.74578 9.95345 2.75323 9.95751 2.76068C10.0882 2.98815 10.1985 3.22577 10.2933 3.47084C10.5763 4.2047 11.0712 4.74088 11.6798 5.13082C12.1672 5.44291 12.7284 5.66091 13.3134 5.81052C13.5171 5.87213 13.7107 5.91681 13.8766 5.93238L13.9477 5.84437C14.0066 5.74011 14.0431 5.62435 14.058 5.49504C14.0892 5.22086 14.1752 4.97308 14.3153 4.75374L14.1528 4.68739L14.1562 4.68536C13.8164 4.56824 13.484 4.43352 13.1685 4.27104C12.9437 4.15528 12.7596 4.03681 12.6045 3.91224C12.0474 3.46542 11.8619 2.94414 11.4794 2.1981C11.3697 1.98349 11.2567 1.77701 11.1361 1.58204C10.6934 0.865103 10.1484 0.303878 9.26562 0.0723471C8.55411 -0.115179 4.76905 -0.614798 2.13285 8.82245C2.04958 9.12168 1.91553 9.40466 1.73816 9.65989C1.6163 9.83455 1.46263 10.0668 1.29677 10.3409C0.89734 11.0017 0.93796 11.8378 1.39357 12.4606C1.54996 12.6745 1.73546 12.9135 1.95006 13.1694L1.95074 13.1687Z" fill="url(#paint0_linear_1760_20286)"/>
<path d="M23.8906 11.4126C22.9475 11.5656 22.0525 11.9075 21.2124 12.4375C20.3397 12.9886 19.7528 13.6121 19.4678 13.9533C19.7135 14.2586 19.983 14.5829 20.2714 14.9167C20.6234 14.5315 21.1792 14.0041 21.9401 13.5194C22.7904 12.9785 24.0124 12.4274 25.5715 12.3062C25.627 12.3021 25.6561 12.2385 25.623 12.1938C25.5993 12.162 25.5756 12.1302 25.5526 12.0984C25.1694 11.5778 24.529 11.309 23.8912 11.4126H23.8906Z" fill="#ACC981"/>
<path d="M25.2552 13.0332C24.2154 13.1659 23.2324 13.524 22.3151 14.1082C21.5778 14.5774 21.0505 15.0926 20.7363 15.4433C21.0105 15.7472 21.2982 16.0553 21.5981 16.3599C21.9481 16.0052 22.4369 15.5746 23.0665 15.1738C23.9554 14.6078 25.2512 14.0317 26.9125 13.9464C26.9721 13.9437 27.0012 13.8733 26.9613 13.8293C26.8936 13.7542 26.8272 13.6797 26.7609 13.6045C26.3851 13.176 25.8199 12.9614 25.2546 13.0332H25.2552Z" fill="#ACC981"/>
<path d="M20.0872 10.7859C19.134 11.3871 18.522 12.0756 18.2715 12.3884C18.4644 12.6558 18.7203 13.0017 19.027 13.3978C19.3662 13.0078 19.9613 12.4107 20.8143 11.8678C21.6639 11.3269 22.8852 10.7771 24.4423 10.6546C24.4951 10.6505 24.5248 10.5923 24.4964 10.547C24.1281 9.9661 23.4505 9.65063 22.7714 9.75962C21.8257 9.91194 20.9287 10.2538 20.0865 10.7853L20.0872 10.7859Z" fill="#ACC981"/>
<path d="M37.0356 29.5955C36.5366 29.7492 36.0072 29.8974 35.4473 30.0254C34.8875 30.1513 34.2985 30.2617 33.6838 30.3456C33.0684 30.4282 32.4273 30.481 31.7652 30.4952C31.6826 30.4966 31.5993 30.4986 31.5161 30.5C31.4328 30.5013 31.3488 30.4979 31.2649 30.4973C31.0963 30.4932 30.9284 30.4946 30.7551 30.4817C30.6691 30.477 30.5825 30.4715 30.4958 30.4668L30.3658 30.4587L30.2392 30.4458C30.1546 30.4377 30.0707 30.4289 29.9854 30.4201L29.8581 30.4072L29.8419 30.4059L29.8202 30.4032L29.7884 30.3984L29.7241 30.3896C29.3822 30.3409 29.0356 30.2976 28.6869 30.2427C28.5129 30.2136 28.3383 30.1838 28.1622 30.154C27.9869 30.1236 27.8095 30.0972 27.6335 30.0592C27.4575 30.024 27.2801 29.9882 27.1021 29.953C27.0134 29.9347 26.924 29.9178 26.8347 29.8988C26.746 29.8778 26.6573 29.8575 26.5679 29.8365C26.3899 29.7952 26.2112 29.7532 26.0317 29.7113C25.8523 29.6686 25.675 29.6178 25.4949 29.5711C24.7766 29.3843 24.059 29.1548 23.3427 28.9002C23.1647 28.8339 22.986 28.7675 22.8072 28.7012C22.6292 28.6322 22.4532 28.5577 22.2751 28.4859C22.1864 28.4487 22.0971 28.4148 22.0091 28.3756L21.7457 28.2578C21.5704 28.1786 21.393 28.1027 21.2204 28.0161C21.0471 27.9308 20.8717 27.8496 20.6998 27.7602C20.5285 27.6701 20.3565 27.5794 20.1846 27.4887L19.6775 27.2003C19.5096 27.1015 19.3444 26.9979 19.1779 26.8963C18.5172 26.4814 17.8794 26.0237 17.2803 25.518C16.6805 25.013 16.1159 24.4653 15.6102 23.8553C15.4836 23.703 15.361 23.5459 15.2432 23.3821C15.1837 23.3002 15.1261 23.2169 15.0686 23.1269C15.0543 23.1045 15.0401 23.0835 15.0232 23.0551L14.9995 23.0158C14.9995 23.0158 14.9839 22.9888 15.0009 23.0179L14.9954 23.0091L14.9277 22.9089C14.7335 22.6313 14.5148 22.3578 14.2866 22.1012C13.829 21.5881 13.3273 21.1291 12.7925 20.7621C12.2584 20.3945 11.6924 20.119 11.1224 19.9687C11.0506 19.9518 10.9795 19.9355 10.9085 19.9186C10.8719 19.9091 10.8414 19.9057 10.8083 19.8996L10.7115 19.8827L10.6634 19.8739L10.6011 19.8665L10.4752 19.8523C10.3946 19.8428 10.3141 19.8333 10.2335 19.8238C10.1428 19.813 10.0521 19.8015 9.96202 19.7907L9.82662 19.7737C9.78126 19.7683 9.73658 19.7622 9.69326 19.7534C9.51791 19.7196 9.34393 19.6857 9.1713 19.6525C9.08396 19.6377 9.00137 19.6126 8.91743 19.5923C8.83348 19.5706 8.75021 19.5496 8.66694 19.528C8.58367 19.5063 8.5004 19.486 8.41848 19.463C8.33792 19.4373 8.25736 19.4122 8.1768 19.3872C8.01703 19.335 7.8559 19.289 7.7002 19.2335C7.54584 19.1759 7.39216 19.1191 7.24052 19.0629C7.08684 19.0094 6.94129 18.9431 6.79506 18.8821C6.64951 18.8192 6.5026 18.761 6.36179 18.6953C6.22165 18.6283 6.08219 18.5619 5.94476 18.4962C5.87638 18.4631 5.80665 18.4313 5.73963 18.3974C5.67261 18.3622 5.60626 18.327 5.5406 18.2925C4.4811 17.7394 3.56378 17.1335 2.79201 16.5282C2.70468 16.4592 2.61938 16.3908 2.53543 16.3224C2.2423 16.0923 1.97082 15.8628 1.72304 15.6353C1.56327 15.4985 1.40892 15.3367 1.26201 15.1912C1.18958 15.1181 1.11511 15.0443 1.04944 14.9759C0.991217 14.9102 0.93435 14.8466 0.878837 14.785C0.823324 14.7227 0.769841 14.6624 0.717713 14.6035C0.70485 14.5887 0.691988 14.5744 0.678448 14.5602L0.659492 14.5386L0.654753 14.5331L0.629704 14.5027L0.617518 14.4878C0.586377 14.4478 0.554558 14.4093 0.525448 14.3693C0.406974 14.2116 0.30678 14.0532 0.224864 13.9008C0.152426 13.7661 0.0935277 13.6375 0.0441074 13.5156C-0.078428 14.3801 0.0265056 15.2467 0.566067 15.9711C2.42441 18.4644 6.31507 20.794 9.30399 21.083C12.2929 21.3721 14.1783 24.6162 14.1783 24.6162C14.1783 24.6162 14.1824 24.6244 14.1905 24.6386H4.3606C4.07017 24.6386 3.83458 24.8742 3.83458 25.1646C3.83458 25.455 4.07017 25.6906 4.3606 25.6906H16.2046C16.495 25.6906 16.7306 25.9262 16.7306 26.2166C16.7306 26.5071 16.495 26.7427 16.2046 26.7427H11.3383C11.0479 26.7427 10.8123 26.9783 10.8123 27.2687C10.8123 27.5591 11.0479 27.7947 11.3383 27.7947H19.8542C20.1446 27.7947 20.3802 28.0303 20.3802 28.3207C20.3802 28.6112 20.1446 28.8468 19.8542 28.8468H9.5653C9.27488 28.8468 9.03928 29.0824 9.03928 29.3728C9.03928 29.6632 9.27488 29.8988 9.5653 29.8988H23.3326C23.623 29.8988 23.8586 30.1344 23.8586 30.4248C23.8586 30.6462 23.7219 30.8351 23.5282 30.9129C23.5702 30.9258 23.6135 30.9387 23.6555 30.9508H16.9242C16.6338 30.9508 16.3982 31.1864 16.3982 31.4769C16.3982 31.7673 16.6338 32.0029 16.9242 32.0029H30.2034C30.2406 32.0029 30.2765 31.9988 30.311 31.9914C32.4144 31.9115 34.6065 31.3916 36.4418 30.6584C37.6773 30.1649 38.6163 29.5312 39.1897 28.7669C38.9521 28.884 38.6996 28.9964 38.4315 29.102C37.9996 29.2746 37.5325 29.4405 37.0349 29.5996L37.0356 29.5955Z" fill="url(#paint1_linear_1760_20286)"/>
<path d="M38.8313 24.1171C37.3487 21.9156 35.2494 20.2718 33.0376 18.8204C32.8487 19.1176 32.3444 19.8108 31.4541 20.3422C30.4935 20.9156 28.8992 21.3943 26.6191 20.6083C26.418 20.5392 26.2129 20.46 26.001 20.3707C23.4602 19.2943 21.3873 17.1644 19.5256 15.0238C19.0923 14.5255 18.7017 13.9948 18.3246 13.4823C17.1845 11.932 16.1074 10.4676 14.0406 10.1732C11.665 9.83331 9.15474 10.6464 6.98837 11.4351C5.26814 12.0613 3.72392 12.8121 2.3916 13.6691C2.71791 14.0239 3.09567 14.3989 3.52759 14.7787C3.59665 14.8424 3.66705 14.906 3.73949 14.9703C3.79162 15.0143 3.84375 15.0583 3.89791 15.1023C4.32441 15.4517 4.80981 15.8071 5.34937 16.1537C5.39135 16.1808 5.43468 16.2079 5.47733 16.2349C5.48206 16.2383 5.4868 16.241 5.49222 16.2444C5.59512 16.3094 5.70006 16.3737 5.80702 16.4367C5.81447 16.4414 5.82259 16.4462 5.83004 16.4509C5.86321 16.4705 5.89638 16.4902 5.93023 16.5098C6.06495 16.589 6.20238 16.6669 6.34252 16.744C6.40142 16.7772 6.46099 16.8104 6.52125 16.8435C6.5815 16.8754 6.64378 16.9052 6.70471 16.937C6.82792 16.9993 6.95249 17.0615 7.07841 17.1252C7.20433 17.1875 7.33499 17.2416 7.46497 17.3019C7.59563 17.3594 7.72629 17.4231 7.86169 17.4731C7.99641 17.5266 8.13248 17.5801 8.26991 17.6343C8.40734 17.6871 8.54816 17.7304 8.68897 17.7791C8.75938 17.8028 8.83046 17.8272 8.90155 17.8516C8.97263 17.8732 9.04507 17.8922 9.11683 17.9125C9.18927 17.9328 9.2617 17.9531 9.33414 17.9734C9.40726 17.9924 9.4797 18.0174 9.55349 18.031C9.56026 18.0323 9.5677 18.0344 9.57515 18.0357L14.4055 13.8729L16.0357 15.7644L12.5356 18.7811C12.9235 18.9679 13.2925 19.192 13.6405 19.4418C13.6594 19.4554 13.677 19.4696 13.6953 19.4831L16.9198 16.7041L18.55 18.5956L15.5009 21.2237C15.6924 21.4599 15.8752 21.7043 16.0499 21.965C16.0783 22.0076 16.1054 22.0496 16.1352 22.097L16.1481 22.118C16.1718 22.1572 16.1596 22.1376 16.167 22.1498L16.1792 22.1701C16.1853 22.1816 16.1968 22.1999 16.207 22.2168C16.2483 22.2838 16.295 22.3549 16.343 22.4247C16.4392 22.5648 16.5434 22.7049 16.6531 22.8424C17.0904 23.3941 17.6002 23.912 18.1479 24.392C18.6949 24.874 19.2852 25.3174 19.9026 25.7236C20.0584 25.8225 20.2134 25.9247 20.3704 26.0215L20.847 26.3058C21.0088 26.3959 21.1713 26.4853 21.3331 26.5753C21.4956 26.664 21.6621 26.7452 21.8267 26.8312C21.9905 26.9178 22.1591 26.9943 22.3263 27.0736L22.5768 27.192C22.66 27.232 22.746 27.2665 22.8306 27.3037C23.0006 27.3762 23.1684 27.452 23.3391 27.5224C23.5103 27.5901 23.6816 27.6578 23.8529 27.7255C24.5407 27.9861 25.2326 28.2238 25.9292 28.4208C26.1032 28.4702 26.2758 28.5237 26.4498 28.569C26.6245 28.6137 26.7978 28.6577 26.9711 28.7024C27.0578 28.7247 27.1444 28.7464 27.2304 28.7687C27.317 28.7897 27.4044 28.808 27.4904 28.8276C27.6637 28.8662 27.8363 28.9048 28.0083 28.9427C28.1795 28.9833 28.3528 29.0131 28.5248 29.047C28.6968 29.0795 28.868 29.1126 29.038 29.1451C29.3792 29.2061 29.719 29.2562 30.0548 29.311L30.1178 29.3212L30.1489 29.3259C30.1489 29.3259 30.1651 29.3286 30.1591 29.3279L30.1753 29.33L30.3026 29.3455C30.3872 29.3557 30.4718 29.3658 30.5558 29.3767L30.6817 29.3922L30.8042 29.4017C30.8855 29.4078 30.9667 29.4146 31.0479 29.4207C31.2091 29.4363 31.3736 29.439 31.5361 29.4457C31.6173 29.4484 31.6985 29.4539 31.7791 29.4539C31.8597 29.4539 31.9409 29.4539 32.0208 29.4539C32.6639 29.4539 33.2908 29.4153 33.8947 29.3476C34.4986 29.2778 35.0794 29.1817 35.6339 29.0693C36.1877 28.9556 36.713 28.8195 37.2099 28.678C37.7048 28.5318 38.1699 28.3774 38.6011 28.215C38.7717 28.1513 38.9362 28.0857 39.0947 28.0173C39.5333 27.8277 39.8272 27.3999 39.8326 26.9219C39.8326 26.9192 39.8326 26.9165 39.8326 26.9138C39.8393 26.0777 39.5225 25.1448 38.832 24.1198L38.8313 24.1171Z" fill="#89B05F"/>
<path d="M24.5673 17.4192C24.1896 17.6595 23.868 17.912 23.6006 18.1476C24.4319 18.8043 25.3134 19.3635 26.2571 19.7636C28.1371 20.5611 29.7626 20.5699 31.0881 19.792C31.5593 19.5158 31.9086 19.1834 32.1462 18.9092C32.3419 18.6838 32.2871 18.3372 32.0345 18.1787C31.432 17.8003 30.8261 17.432 30.2276 17.0664C29.8391 16.8295 29.4667 16.5777 29.1086 16.3143C27.4662 16.1735 25.943 16.5431 24.5673 17.4185V17.4192Z" fill="#ACC981"/>
<path d="M6.65191 28.8438H5.99184C5.70141 28.8438 5.46582 29.0793 5.46582 29.3698C5.46582 29.6602 5.70141 29.8958 5.99184 29.8958H6.65191C6.94234 29.8958 7.17793 29.6602 7.17793 29.3698C7.17793 29.0793 6.94234 28.8438 6.65191 28.8438Z" fill="url(#paint2_linear_1760_20286)"/>
<path d="M14.0118 30.9492H8.63442C8.34399 30.9492 8.1084 31.1848 8.1084 31.4752C8.1084 31.7657 8.34399 32.0013 8.63442 32.0013H14.0111C14.3015 32.0013 14.5371 31.7657 14.5371 31.4752C14.5371 31.1848 14.3015 30.9492 14.0111 30.9492H14.0118Z" fill="url(#paint3_linear_1760_20286)"/>
</g>
<defs>
<linearGradient id="paint0_linear_1760_20286" x1="1.13227" y1="6.61013" x2="23.1613" y2="6.61013" gradientUnits="userSpaceOnUse">
<stop stop-color="#F6D365"/>
<stop offset="1" stop-color="#FDA085"/>
</linearGradient>
<linearGradient id="paint1_linear_1760_20286" x1="0.194005" y1="22.7949" x2="39.5071" y2="22.7949" gradientUnits="userSpaceOnUse">
<stop stop-color="#F6D365"/>
<stop offset="1" stop-color="#FDA085"/>
</linearGradient>
<linearGradient id="paint2_linear_1760_20286" x1="5.47438" y1="29.3718" x2="7.1918" y2="29.3718" gradientUnits="userSpaceOnUse">
<stop stop-color="#F6D365"/>
<stop offset="1" stop-color="#FDA085"/>
</linearGradient>
<linearGradient id="paint3_linear_1760_20286" x1="8.14054" y1="31.4773" x2="14.5892" y2="31.4773" gradientUnits="userSpaceOnUse">
<stop stop-color="#F6D365"/>
<stop offset="1" stop-color="#FDA085"/>
</linearGradient>
<clipPath id="clip0_1760_20286">
<rect width="39.8314" height="32" fill="white"/>
</clipPath>
</defs>
</svg>
