<svg width="32" height="31" viewBox="0 0 32 31" fill="none" xmlns="http://www.w3.org/2000/svg">
<path d="M16.9105 12.2224C17.5972 12.9482 18.2977 12.9496 18.9819 12.233C19.6186 11.5672 20.2453 10.8921 20.8745 10.2183C21.4186 9.6365 21.9765 9.06542 22.5007 8.46232C22.8797 8.026 22.9885 7.51897 22.7233 6.94789C22.4644 6.39148 22.0478 6.07525 21.4899 6.19401C21.1147 6.27406 20.7444 6.5129 20.433 6.76509C20.064 7.0653 19.76 7.45625 19.4285 7.80718C19.3847 7.78316 19.3409 7.76047 19.2972 7.73646C19.2872 7.54699 19.2684 7.35752 19.2684 7.16805C19.2659 5.43079 19.2696 3.69353 19.2659 1.95627C19.2646 1.33048 19.0895 0.792762 18.5104 0.520565C17.5935 0.0882521 16.7066 0.699361 16.6978 1.78415C16.6841 3.54009 16.6966 5.29469 16.6928 7.05063C16.6928 7.2828 16.6641 7.5163 16.6378 7.92059C16.3263 7.60703 16.1287 7.41222 15.9361 7.21341C15.7259 6.99859 15.532 6.76375 15.3081 6.56628C14.6877 6.01655 13.8859 6.03389 13.4105 6.59296C12.9165 7.17205 12.9565 7.99264 13.5319 8.61309C14.6514 9.8233 15.7785 11.0255 16.9105 12.2224Z" fill="#707386"/>
<path d="M26.0491 25.3679C24.548 25.3706 23.4423 26.5675 23.4435 28.1886C23.3259 29.6711 24.6106 31.0174 26.0629 31C27.5564 30.9827 28.746 29.7338 28.7335 28.1513C28.721 26.6022 27.5289 25.3666 26.0491 25.3679Z" fill="#707386"/>
<path d="M9.91795 25.3626C8.38187 25.3452 7.24733 26.5261 7.22732 28.1633C7.2073 29.7724 8.32433 30.992 9.82413 30.9973C11.3214 31.004 12.4772 29.8071 12.4998 28.2313C12.521 26.6422 11.384 25.3786 9.91795 25.3626Z" fill="#707386"/>
<path d="M31.179 2.02834C30.4285 0.991585 29.2939 0.396488 28.0656 0.396488H23.7251C23.0033 0.396488 22.4166 1.02094 22.4166 1.79217C22.4166 2.56339 23.002 3.18784 23.7251 3.18784H28.0656C28.4771 3.18784 28.8561 3.38665 29.1076 3.7349C29.359 4.08182 29.4428 4.52481 29.339 4.94912L28.7636 7.29215H28.7511C28.2307 9.33763 27.7103 11.3844 27.1887 13.4299C26.9385 14.412 26.5258 14.7856 25.5776 14.7869C20.2101 14.7962 14.8426 14.7896 9.47509 14.7949C9.16987 14.7949 9.01727 14.7002 8.95847 14.3493C8.73207 12.9829 8.47314 11.6219 8.22921 10.2596C7.82768 8.01801 7.40239 5.78039 7.03588 3.53209C6.75819 1.81618 5.82503 0.644668 4.23767 0.417837C3.24448 0.276401 2.21876 0.345785 1.21056 0.388482C0.761492 0.407162 0.362462 0.655342 0.148563 1.14103C-0.286742 2.12974 0.267396 3.07309 1.38193 3.15715C2.0649 3.20919 2.75288 3.17316 3.43836 3.1745C4.23392 3.17583 4.26519 3.22387 4.41655 4.08049C4.80182 6.27007 5.2096 8.45432 5.60113 10.6426C5.99265 12.8308 6.37417 15.0217 6.76444 17.21C6.94331 18.2147 7.08591 19.2301 7.33359 20.2162C7.80016 22.0628 9.4263 23.3451 11.2363 23.3504C13.8769 23.3584 16.5175 23.3531 19.1581 23.3531C20.6329 23.3531 22.1077 23.3531 23.5825 23.3531C24.7996 23.3531 26.0179 23.3691 27.235 23.3478C28.4283 23.3264 29.0613 22.2617 28.5184 21.2169C28.2069 20.6151 27.654 20.5417 27.0949 20.5351C25.8778 20.5217 24.6595 20.5311 23.4424 20.5311C19.4295 20.5311 15.4167 20.5324 11.4039 20.5297C10.4258 20.5297 9.9917 20.1681 9.77154 19.1594C9.68648 18.7685 9.61769 18.3708 9.59142 17.9719C9.58391 17.8545 9.72401 17.665 9.83784 17.6156C9.98544 17.5516 10.1743 17.5903 10.3457 17.5903C15.2841 17.5903 20.2226 17.5729 25.1611 17.5983C27.1337 17.6076 28.6973 16.9285 29.5066 14.891C29.7655 14.2412 29.8969 13.5327 30.0695 12.8468C30.3647 11.6727 30.6574 10.4985 30.9501 9.32428C30.9751 9.26024 30.9976 9.19486 31.0151 9.12681L31.8682 5.65496C32.181 4.38738 31.9295 3.06509 31.179 2.02834Z" fill="#707386"/>
</svg>
