<svg width="32" height="32" viewBox="0 0 32 32" fill="none" xmlns="http://www.w3.org/2000/svg">
<path d="M15.3067 4.66529C15.3631 4.52774 15.4591 4.41006 15.5826 4.32724C15.7061 4.24442 15.8514 4.2002 16 4.2002C16.1487 4.2002 16.294 4.24442 16.4175 4.32724C16.5409 4.41006 16.637 4.52774 16.6934 4.66529L19.5267 11.48C19.5797 11.6075 19.6669 11.7179 19.7787 11.799C19.8904 11.8802 20.0224 11.929 20.16 11.94L27.5174 12.5293C28.1827 12.5826 28.452 13.4133 27.9454 13.8466L22.34 18.6493C22.2353 18.7389 22.1573 18.8556 22.1145 18.9866C22.0717 19.1176 22.0657 19.2578 22.0974 19.392L23.8107 26.572C23.8451 26.716 23.8361 26.867 23.7848 27.006C23.7334 27.1449 23.6421 27.2655 23.5222 27.3525C23.4024 27.4395 23.2594 27.4891 23.1114 27.4949C22.9634 27.5008 22.817 27.4626 22.6907 27.3853L16.3907 23.5386C16.273 23.4669 16.1379 23.429 16 23.429C15.8622 23.429 15.7271 23.4669 15.6094 23.5386L9.30937 27.3866C9.18305 27.464 9.03664 27.5021 8.88865 27.4963C8.74065 27.4904 8.59771 27.4409 8.47786 27.3538C8.35802 27.2668 8.26665 27.1462 8.21531 27.0073C8.16396 26.8684 8.15494 26.7173 8.18937 26.5733L9.90271 19.392C9.93448 19.2578 9.92864 19.1175 9.88583 18.9865C9.84301 18.8555 9.76488 18.7388 9.66004 18.6493L4.05471 13.8466C3.94246 13.7501 3.86125 13.6226 3.8213 13.48C3.78136 13.3375 3.78445 13.1863 3.83019 13.0455C3.87594 12.9047 3.96229 12.7806 4.07839 12.6887C4.19449 12.5969 4.33516 12.5414 4.48271 12.5293L11.84 11.94C11.9777 11.929 12.1097 11.8802 12.2214 11.799C12.3331 11.7179 12.4203 11.6075 12.4734 11.48L15.3067 4.66529Z" stroke="#78B7EE" stroke-width="2" stroke-linecap="round" stroke-linejoin="round"/>
</svg>
