<svg width="18" height="18" viewBox="0 0 18 18" fill="none" xmlns="http://www.w3.org/2000/svg">
<g clip-path="url(#clip0_2715_29063)">
<path d="M18 9C18 11.3869 17.0518 13.6761 15.364 15.364C13.6761 17.0518 11.3869 18 9 18C6.61305 18 4.32387 17.0518 2.63604 15.364C0.948212 13.6761 0 11.3869 0 9C0 6.61305 0.948212 4.32387 2.63604 2.63604C4.32387 0.948212 6.61305 0 9 0C11.3869 0 13.6761 0.948212 15.364 2.63604C17.0518 4.32387 18 6.61305 18 9ZM9.5625 5.0625C9.5625 4.91332 9.50324 4.77024 9.39775 4.66475C9.29226 4.55926 9.14918 4.5 9 4.5C8.85082 4.5 8.70774 4.55926 8.60225 4.66475C8.49676 4.77024 8.4375 4.91332 8.4375 5.0625V8.4375H5.0625C4.91332 8.4375 4.77024 8.49676 4.66475 8.60225C4.55926 8.70774 4.5 8.85082 4.5 9C4.5 9.14918 4.55926 9.29226 4.66475 9.39775C4.77024 9.50324 4.91332 9.5625 5.0625 9.5625H8.4375V12.9375C8.4375 13.0867 8.49676 13.2298 8.60225 13.3352C8.70774 13.4407 8.85082 13.5 9 13.5C9.14918 13.5 9.29226 13.4407 9.39775 13.3352C9.50324 13.2298 9.5625 13.0867 9.5625 12.9375V9.5625H12.9375C13.0867 9.5625 13.2298 9.50324 13.3352 9.39775C13.4407 9.29226 13.5 9.14918 13.5 9C13.5 8.85082 13.4407 8.70774 13.3352 8.60225C13.2298 8.49676 13.0867 8.4375 12.9375 8.4375H9.5625V5.0625Z" fill="#878A9C"/>
</g>
<defs>
<clipPath id="clip0_2715_29063">
<rect width="18" height="18" fill="white"/>
</clipPath>
</defs>
</svg>
