<svg width="32" height="32" viewBox="0 0 32 32" fill="none" xmlns="http://www.w3.org/2000/svg">
<path d="M17.9998 28V18C17.9998 17.7348 18.1052 17.4804 18.2927 17.2929C18.4803 17.1054 18.7346 17 18.9998 17H22.9998C23.265 17 23.5194 17.1054 23.7069 17.2929C23.8945 17.4804 23.9998 17.7348 23.9998 18V28M17.9998 28H3.14649M17.9998 28H23.9998M23.9998 28H28.8532M26.9998 28V12.4653C27.5313 12.1585 27.985 11.7336 28.326 11.2234C28.6669 10.7131 28.8858 10.1313 28.9659 9.52287C29.0459 8.91446 28.9849 8.29579 28.7876 7.71473C28.5902 7.13368 28.2618 6.60582 27.8278 6.172L26.2412 4.58667C25.8664 4.21149 25.3581 4.00047 24.8278 4H7.17049C6.64024 4.00047 6.13187 4.21149 5.75716 4.58667L4.17182 6.17067C3.73881 6.60498 3.41131 7.13294 3.21458 7.71383C3.01786 8.29472 2.95715 8.91303 3.03715 9.52109C3.11715 10.1291 3.33572 10.7107 3.67601 11.221C4.01629 11.7312 4.4692 12.1565 4.99982 12.464M4.99982 27.9987V12.4667C5.79985 12.928 6.73482 13.0984 7.64615 12.9489C8.55748 12.7994 9.38905 12.3393 9.99982 11.6467C10.3749 12.0726 10.8365 12.4136 11.3538 12.647C11.8711 12.8804 12.4323 13.0007 12.9998 13C14.1945 13 15.2665 12.476 15.9998 11.6453C16.3748 12.0715 16.8363 12.4128 17.3536 12.6464C17.871 12.88 18.4322 13.0005 18.9998 13C20.1945 13 21.2665 12.476 21.9998 11.6453C22.6108 12.3378 23.4424 12.7976 24.3537 12.9468C25.2651 13.0961 26.1999 12.9255 26.9998 12.464M8.99982 23.9987H13.9998C14.265 23.9987 14.5194 23.8933 14.7069 23.7058C14.8945 23.5182 14.9998 23.2639 14.9998 22.9987V18C14.9998 17.7348 14.8945 17.4804 14.7069 17.2929C14.5194 17.1054 14.265 17 13.9998 17H8.99982C8.73461 17 8.48025 17.1054 8.29272 17.2929C8.10518 17.4804 7.99982 17.7348 7.99982 18V23C7.99982 23.5533 8.44782 23.9987 8.99982 23.9987Z" stroke="#78B7EE" stroke-width="2" stroke-linecap="round" stroke-linejoin="round"/>
</svg>
