<svg width="24" height="24" viewBox="0 0 24 24" fill="none" xmlns="http://www.w3.org/2000/svg">
<path fill-rule="evenodd" clip-rule="evenodd" d="M3.09552 4.29965C2.65012 4.74788 2.3999 5.35581 2.3999 5.9897V10.7699C2.3999 11.4038 2.65012 12.0117 3.09552 12.4599C3.54092 12.9082 4.14501 13.16 4.7749 13.16H7.1499V16.7451L10.7124 13.16H13.0874C13.7173 13.16 14.3214 12.9082 14.7668 12.4599C15.2122 12.0117 15.4624 11.4038 15.4624 10.7699V5.9897C15.4624 5.35581 15.2122 4.74788 14.7668 4.29965C14.3214 3.85142 13.7173 3.59961 13.0874 3.59961H4.7749C4.14501 3.59961 3.54092 3.85142 3.09552 4.29965ZM17.8374 10.8442V8.4541H19.0249C19.6548 8.4541 20.2589 8.70591 20.7043 9.15414C21.1497 9.60237 21.3999 10.2103 21.3999 10.8442V15.6244C21.3999 16.2583 21.1497 16.8662 20.7043 17.3144C20.2589 17.7626 19.6548 18.0145 19.0249 18.0145H16.6499V21.5996L13.0874 18.0145H10.7124C10.3098 18.0145 9.93104 17.9141 9.59854 17.736L11.6957 15.6244H13.0874C14.3472 15.6244 15.5554 15.1207 16.4462 14.2243C17.337 13.3278 17.8374 12.112 17.8374 10.8442Z" fill="#78B7EE"/>
</svg>
