<svg width="79" height="79" viewBox="0 0 79 79" fill="none" xmlns="http://www.w3.org/2000/svg">
<rect x="1.33366" y="1.33341" width="76" height="76" rx="20.7891" fill="url(#paint0_linear_1650_18252)" stroke="url(#paint1_linear_1650_18252)" stroke-width="2.66667"/>
<g clip-path="url(#clip0_1650_18252)">
<path fill-rule="evenodd" clip-rule="evenodd" d="M29.1518 41.4259C29.2031 41.6497 29.255 41.8759 29.3078 42.1052C29.2356 42.1196 29.1767 42.132 29.1254 42.1428L29.1248 42.1429L29.1248 42.143L29.1246 42.143L29.1241 42.1431C29.0533 42.158 28.9969 42.1699 28.9397 42.1798C27.0784 42.4864 25.5898 44.1835 25.5553 46.0367C25.5093 48.4939 27.3349 50.3528 29.8036 50.3551C32.417 50.3576 35.0304 50.3571 37.6437 50.3566C38.6896 50.3564 39.7355 50.3563 40.7814 50.3563C41.8 50.3563 42.8186 50.356 43.8373 50.3558H43.8402C46.8956 50.3552 49.9515 50.3545 53.0073 50.3597C53.6538 50.3608 54.1197 50.091 54.3774 49.5123C54.7973 48.5696 54.0864 47.604 52.9878 47.604C45.3678 47.6028 37.7479 47.6028 30.128 47.6028C30.0869 47.6028 30.0457 47.6033 30.0045 47.6038H30.0045H30.0044C29.8877 47.6051 29.7708 47.6064 29.6552 47.5971C28.6923 47.5156 28.0723 46.5775 28.4105 45.7163C28.6337 45.1468 29.1467 44.8437 29.9013 44.8437C37.5351 44.8425 45.17 44.8425 52.8037 44.8425C54.9342 44.8425 56.4872 43.6783 57.029 41.6298C57.9838 38.0199 58.9305 34.4064 59.8542 30.7884C60.556 28.043 58.6084 25.5583 55.7866 25.556C54.0741 25.5553 52.3616 25.5555 50.6491 25.5558L48.0804 25.556H47.611V28.5402C47.7031 28.585 47.7928 28.6286 47.8825 28.67C50.5329 29.8951 51.1783 33.2146 49.1606 35.3204C48.238 36.2838 47.2947 37.2287 46.3284 38.1496C44.7317 39.671 42.2377 39.6963 40.6353 38.1898C39.6011 37.2161 38.5969 36.208 37.6329 35.1654C36.7828 34.2457 36.4457 33.1239 36.6367 31.8677C36.8667 30.3578 37.7019 29.3084 39.0685 28.6539C39.1755 28.6022 39.3147 28.4713 39.317 28.3749C39.3321 27.658 39.3307 26.9412 39.3293 26.208V26.2078V26.2077C39.3289 25.992 39.3285 25.775 39.3285 25.556H38.8177C38.0428 25.556 37.2679 25.5557 36.493 25.5553C33.9101 25.5541 31.3271 25.5528 28.7441 25.5652C28.3714 25.5675 28.2345 25.4573 28.154 25.0944C27.83 23.6487 27.4862 22.2077 27.1424 20.7662C27.0712 20.4675 26.9999 20.1688 26.9288 19.8701C26.731 19.0399 26.2547 18.669 25.3966 18.6679C23.6319 18.6667 21.8661 18.6656 20.1015 18.669C19.2617 18.6702 18.6647 19.25 18.667 20.048C18.6693 20.8415 19.2709 21.4167 20.113 21.419L20.7216 21.4208C21.8385 21.4243 22.9561 21.4278 24.0737 21.4133C24.3785 21.4098 24.4797 21.5017 24.5499 21.8014C25.6405 26.4786 26.741 31.1537 27.8414 35.8284L27.8417 35.8298L27.8436 35.8379C28.1423 37.1068 28.441 38.3757 28.7395 39.6446C28.8781 40.2322 29.0129 40.8204 29.1518 41.4257L29.1518 41.4259ZM33.8383 51.7367C31.5422 51.7322 29.6936 53.559 29.6878 55.837C29.6821 58.138 31.5019 59.9912 33.775 60.0004C36.0942 60.0096 37.9474 58.1794 37.9497 55.8783C37.952 53.5877 36.1195 51.7413 33.8383 51.7367ZM48.9449 60.0005C46.6661 59.9947 44.8393 58.1472 44.8428 55.8508C44.8462 53.5498 46.6995 51.7264 49.0232 51.7368C51.294 51.7471 53.115 53.6084 53.1058 55.9071C53.0966 58.1817 51.2422 60.0062 48.9449 60.0005ZM42.0882 31.2935V31.7516C42.0717 31.7587 42.0553 31.7659 42.0387 31.7732C42.0148 31.7837 41.9907 31.7943 41.9663 31.8045C41.9352 31.7678 41.9051 31.7299 41.875 31.6919C41.8069 31.606 41.7385 31.5198 41.658 31.4474C41.0909 30.9387 40.2833 30.9548 39.7542 31.4761C39.2124 32.01 39.1824 32.8482 39.7277 33.4097C40.6365 34.3466 41.5614 35.2686 42.4955 36.1791C43.0315 36.7016 43.8345 36.7406 44.3636 36.2354C45.3495 35.295 46.3135 34.3305 47.2533 33.3454C47.7595 32.8137 47.6939 31.9882 47.1774 31.4784C46.6597 30.9674 45.866 30.9399 45.3046 31.4164C45.2164 31.4911 45.132 31.5701 45.0295 31.6661C44.973 31.719 44.911 31.777 44.8399 31.8423V31.3004C44.8399 30.836 44.8399 30.3717 44.84 29.9074C44.8402 28.0481 44.8403 26.1892 44.8376 24.3296C44.8376 24.1447 44.833 23.9518 44.7812 23.7785C44.5799 23.1102 43.9472 22.7164 43.2512 22.8082C42.5932 22.8955 42.0905 23.4834 42.0894 24.1941C42.0869 25.8844 42.0874 27.5748 42.0879 29.2651C42.088 29.9412 42.0882 30.6174 42.0882 31.2935Z" fill="url(#paint2_linear_1650_18252)"/>
</g>
<defs>
<linearGradient id="paint0_linear_1650_18252" x1="39.3337" y1="2.66675" x2="39.3337" y2="76.0001" gradientUnits="userSpaceOnUse">
<stop offset="0.0885417" stop-color="#F4F6FF"/>
<stop offset="0.526042" stop-color="white"/>
<stop offset="0.875" stop-color="#F4F6FF"/>
</linearGradient>
<linearGradient id="paint1_linear_1650_18252" x1="2.66699" y1="39.3334" x2="76.0003" y2="39.3334" gradientUnits="userSpaceOnUse">
<stop stop-color="#4FACFE"/>
<stop offset="1" stop-color="#00F2FE"/>
</linearGradient>
<linearGradient id="paint2_linear_1650_18252" x1="18.667" y1="39.3336" x2="59.9981" y2="39.3336" gradientUnits="userSpaceOnUse">
<stop stop-color="#16D9E3"/>
<stop offset="0.47" stop-color="#30C7EC"/>
<stop offset="1" stop-color="#46AEF7"/>
</linearGradient>
<clipPath id="clip0_1650_18252">
<rect width="41.3333" height="41.3333" fill="white" transform="translate(18.667 18.6667)"/>
</clipPath>
</defs>
</svg>
