<svg width="32" height="32" viewBox="0 0 32 32" fill="none" xmlns="http://www.w3.org/2000/svg">
<path d="M23.9762 24.9663C23.0445 23.7328 21.8392 22.7324 20.4551 22.0441C19.071 21.3558 17.546 20.9982 16.0002 20.9996C14.4544 20.9982 12.9294 21.3558 11.5453 22.0441C10.1612 22.7324 8.95583 23.7328 8.02418 24.9663M23.9762 24.9663C25.7942 23.3492 27.0763 21.2177 27.6551 18.8544C28.2338 16.4911 28.0805 14.0077 27.2155 11.7336C26.3504 9.45943 24.8145 7.50198 22.8114 6.1208C20.8083 4.73963 18.4326 4 15.9995 4C13.5664 4 11.1908 4.73963 9.18765 6.1208C7.18455 7.50198 5.64862 9.45943 4.78356 11.7336C3.9185 14.0077 3.76518 16.4911 4.34394 18.8544C4.9227 21.2177 6.20618 23.3492 8.02418 24.9663M23.9762 24.9663C21.7815 26.9238 18.941 28.0038 16.0002 27.9996C13.0589 28.0041 10.2192 26.9242 8.02418 24.9663M20.0002 12.9996C20.0002 14.0605 19.5788 15.0779 18.8286 15.828C18.0785 16.5782 17.061 16.9996 16.0002 16.9996C14.9393 16.9996 13.9219 16.5782 13.1718 15.828C12.4216 15.0779 12.0002 14.0605 12.0002 12.9996C12.0002 11.9387 12.4216 10.9213 13.1718 10.1712C13.9219 9.42103 14.9393 8.99961 16.0002 8.99961C17.061 8.99961 18.0785 9.42103 18.8286 10.1712C19.5788 10.9213 20.0002 11.9387 20.0002 12.9996Z" stroke="#78B7EE" stroke-width="2" stroke-linecap="round" stroke-linejoin="round"/>
</svg>
