<svg width="66" height="66" viewBox="0 0 66 66" fill="none" xmlns="http://www.w3.org/2000/svg">
<rect x="0.666748" y="0.166534" width="65.3333" height="65.3333" rx="17.3333" fill="white"/>
<path d="M32.6813 52.1666C22.4393 52.1727 14.0711 43.8404 14.0009 33.6969C13.9307 23.4984 22.0639 14.8363 32.6539 14.8333C43.3201 14.8302 51.4075 23.5595 51.3343 33.6694C51.258 43.8343 42.9264 52.1605 32.6813 52.1666ZM32.0038 23.474C32.0038 22.8204 31.9947 22.1698 32.0099 21.5192C32.016 21.2718 31.9428 21.1191 31.7383 20.9725C30.1147 19.8088 28.5003 18.6359 26.892 17.4539C26.6844 17.3012 26.5227 17.292 26.2908 17.3867C23.5288 18.4863 21.2033 20.1784 19.3203 22.4783C19.2257 22.5944 19.1677 22.8173 19.2105 22.9517C19.8269 24.9034 20.4587 26.8521 21.1026 28.7947C21.1453 28.926 21.2918 29.0726 21.42 29.1154C22.6774 29.5369 23.9408 29.9462 25.2104 30.331C25.3752 30.3799 25.6254 30.3432 25.7658 30.2455C27.7709 28.81 29.7699 27.3591 31.7566 25.8992C31.8848 25.8045 31.9886 25.5937 31.9977 25.4319C32.0191 24.7782 32.0038 24.1246 32.0038 23.474ZM33.3314 23.4282C33.3314 24.094 33.3161 24.7629 33.3436 25.4257C33.3497 25.5876 33.4565 25.7984 33.5847 25.89C35.5714 27.3561 37.5674 28.8069 39.5755 30.2425C39.7159 30.3432 39.9661 30.383 40.1309 30.331C41.3761 29.9523 42.6121 29.5522 43.845 29.1337C44.0068 29.0787 44.1868 28.8985 44.2418 28.7367C44.8735 26.8338 45.49 24.9218 46.0912 23.0067C46.14 22.8448 46.1034 22.5852 45.9966 22.46C44.1227 20.1692 41.8033 18.4832 39.0567 17.3836C38.8308 17.292 38.663 17.289 38.4524 17.4447C36.8319 18.6359 35.1991 19.8088 33.5786 21.003C33.4504 21.0977 33.3466 21.3085 33.3405 21.4704C33.3161 22.1209 33.3314 22.7746 33.3314 23.4282ZM43.7413 42.8203C44.7941 42.8203 45.8501 42.8081 46.903 42.8264C47.1776 42.8325 47.3211 42.7347 47.4584 42.5057C48.9508 40.0408 49.7778 37.3683 49.9579 34.4972C49.967 34.3475 49.848 34.1306 49.7229 34.036C48.1146 32.8539 46.491 31.6902 44.8796 30.5082C44.6599 30.3463 44.4768 30.3402 44.2357 30.4227C43.018 30.8319 41.7972 31.2382 40.5704 31.6261C40.3293 31.7024 40.2133 31.8154 40.137 32.0567C39.3893 34.3903 38.6263 36.7177 37.8847 39.0512C37.8329 39.2161 37.8634 39.4696 37.961 39.6101C38.6599 40.612 39.3771 41.5985 40.1096 42.5729C40.2042 42.7011 40.4147 42.805 40.5734 42.8081C41.6324 42.8294 42.6853 42.8203 43.7413 42.8203ZM21.5695 42.8203C22.6377 42.8203 23.7058 42.8294 24.7709 42.8111C24.9174 42.8081 25.1158 42.7134 25.2043 42.5942C25.9398 41.6046 26.66 40.6028 27.365 39.5918C27.4505 39.4696 27.4901 39.2497 27.4474 39.1092C26.6936 36.736 25.9276 34.3689 25.1494 32.0048C25.1036 31.8643 24.9449 31.7055 24.8045 31.6597C23.5227 31.226 22.2318 30.8075 20.9378 30.4013C20.8188 30.3646 20.6326 30.386 20.5319 30.4563C18.8656 31.6536 17.2084 32.86 15.5574 34.0757C15.4506 34.1551 15.3621 34.3475 15.3712 34.4819C15.5513 37.3683 16.3814 40.05 17.8829 42.5271C18.0263 42.7653 18.185 42.8325 18.4475 42.8294C19.4882 42.8111 20.5289 42.8203 21.5695 42.8203ZM32.6752 40.1508C31.4545 40.1508 30.2337 40.1416 29.013 40.1599C28.8482 40.163 28.6224 40.2455 28.5308 40.3707C27.7923 41.342 27.0751 42.3285 26.3701 43.3242C26.2816 43.4464 26.2419 43.6694 26.2877 43.8099C26.9469 45.8807 27.6183 47.9455 28.3019 50.0072C28.3447 50.1324 28.4942 50.2821 28.6193 50.3126C31.2897 50.9693 33.9662 50.9662 36.6457 50.3492C36.9082 50.2882 37.0058 50.1568 37.0791 49.9308C37.7352 47.9027 38.4005 45.8807 39.0445 43.8496C39.0963 43.6877 39.0597 43.4342 38.9621 43.2937C38.2723 42.3224 37.5643 41.3603 36.838 40.4134C36.7342 40.276 36.5084 40.1599 36.3375 40.1569C35.1167 40.1385 33.896 40.1508 32.6752 40.1508Z" fill="url(#paint0_linear_1659_19327)"/>
<defs>
<linearGradient id="paint0_linear_1659_19327" x1="48.0005" y1="50.1666" x2="18.0005" y2="14.8333" gradientUnits="userSpaceOnUse">
<stop offset="0.536458" stop-color="#7AD704"/>
<stop offset="1" stop-color="#B4FF55"/>
</linearGradient>
</defs>
</svg>
