<svg width="75" height="76" viewBox="0 0 75 76" fill="none" xmlns="http://www.w3.org/2000/svg">
<circle cx="37.5191" cy="38.1846" r="37.3565" fill="#89B05F"/>
<path fill-rule="evenodd" clip-rule="evenodd" d="M48.8049 73.8094C63.9203 69.025 74.8759 54.8859 74.8759 38.1879C74.8759 35.3862 74.5675 32.6565 73.9827 30.031L62.983 19.0312L28.5049 53.5094L48.8049 73.8094Z" fill="#00202C" fill-opacity="0.19"/>
<path fill-rule="evenodd" clip-rule="evenodd" d="M57.4624 18.5627C58.9731 17.052 61.4225 17.052 62.9332 18.5627C64.444 20.0735 64.444 22.5229 62.9332 24.0336L33.9081 53.0588C33.1044 53.8625 32.035 54.2386 30.9827 54.1872C29.9298 54.2391 28.8597 53.863 28.0556 53.0588L12.2815 37.2847C10.7708 35.774 10.7708 33.3246 12.2815 31.8138C13.7922 30.3031 16.2416 30.3031 17.7524 31.8138L30.9818 45.0433L57.4624 18.5627Z" fill="white"/>
</svg>
