<svg width="32" height="32" viewBox="0 0 32 32" fill="none" xmlns="http://www.w3.org/2000/svg">
<g clip-path="url(#clip0_1760_20316)">
<path d="M29.9504 15.2179C31.1181 14.4852 31.7761 13.4515 31.9341 12.1275C31.985 11.704 32.0704 11.1998 31.894 10.8486C30.6408 8.35471 29.3195 5.89331 28.0305 3.41722C27.8617 3.09225 27.6334 3 27.2654 3C19.7613 3.01048 12.2583 3.01153 4.75427 3C4.36359 3 4.13849 3.10378 3.95776 3.45182C2.68833 5.89855 1.39724 8.33375 0.119149 10.7773C0.0477224 10.9126 0.00010495 11.0761 0.00010495 11.2271C-0.00855276 12.8414 0.517403 14.2199 1.96432 15.1383C2.29332 15.3479 2.41128 15.5555 2.40911 15.9308C2.39396 19.5841 2.40046 23.2364 2.40046 26.8886V27.4432C2.12882 27.4767 1.93078 27.4872 1.73922 27.5281C0.898343 27.7084 0.469786 28.5921 0.866959 29.3301C1.14076 29.8386 1.6007 30 2.17103 30C11.3882 29.9948 20.6055 29.9969 29.8227 29.9969C29.9125 29.9969 30.0034 29.999 30.0932 29.9927C30.7512 29.9455 31.235 29.4738 31.2761 28.8427C31.3183 28.2011 30.9233 27.6717 30.2848 27.5313C30.0922 27.4893 29.893 27.4788 29.6474 27.4484C29.6311 27.3499 29.6117 27.2839 29.6117 27.2168C29.6095 23.3894 29.6041 19.561 29.6225 15.7347C29.6225 15.5586 29.7891 15.3186 29.9504 15.2179ZM16.9151 4.61438H21.0708C21.6163 6.77283 22.258 8.90193 22.6725 11.0709C23.1011 13.309 21.0124 15.0209 18.8566 14.3363C17.7008 13.9694 17.0255 12.9526 17.0147 11.66C16.9984 9.51518 16.9497 7.37141 16.9151 5.22659C16.913 5.03789 16.9151 4.8492 16.9151 4.61438ZM3.40475 14.047C2.07363 13.4348 1.46867 11.8267 2.13423 10.5572C3.11905 8.67654 4.13525 6.81162 5.1482 4.94564C5.22287 4.80727 5.37979 4.61543 5.50208 4.61228C6.68603 4.58713 7.86997 4.59761 9.10153 4.59761C8.74115 6.082 8.38618 7.5014 8.05178 8.92709C7.8256 9.89467 7.60483 10.8643 7.41977 11.8403C7.05939 13.7419 5.10166 14.8269 3.40475 14.047ZM11.3298 23.8528V27.4432H4.56164V15.9109C6.02155 15.8322 7.28665 15.328 8.27039 14.2105C9.01387 15.1089 9.93592 15.6718 11.0549 15.9559C11.1837 15.9895 11.3168 16.2893 11.319 16.4665C11.3352 18.9289 11.3298 21.3903 11.3298 23.8528ZM12.1166 14.4705C10.5907 14.4076 9.32663 13.3048 9.32987 11.876C9.33096 11.0195 9.53658 10.1525 9.73679 9.30971C10.1102 7.7488 10.5463 6.20255 10.9651 4.61857H15.0992C15.0992 4.84606 15.1046 5.04943 15.0992 5.2528C15.0505 7.01499 14.9974 8.77718 14.9541 10.5383C14.9412 11.0771 15.0126 11.6244 14.9422 12.1548C14.7485 13.6245 13.6111 14.5323 12.1166 14.4705ZM27.4267 27.4516H13.2648V26.9023C13.2648 26.0343 13.2648 25.1652 13.2659 24.2962V21.6891C13.2659 20.82 13.2659 19.951 13.2637 19.082C13.2626 18.2129 13.2605 17.3439 13.2561 16.4748C13.2561 16.4046 13.2594 16.3417 13.2681 16.2841C13.2713 16.2652 13.2745 16.2474 13.2778 16.2295C13.2854 16.1949 13.2962 16.1624 13.3092 16.132C13.373 15.9811 13.5051 15.892 13.7475 15.8291C13.8589 15.7997 13.9682 15.7672 14.0754 15.7295C14.1825 15.6918 14.2864 15.6498 14.3881 15.6037C14.4899 15.5576 14.5894 15.5073 14.6858 15.4527C14.7345 15.4255 14.7832 15.3972 14.8297 15.3678C14.9725 15.2798 15.11 15.1823 15.242 15.0764C15.3308 15.0062 15.4173 14.9317 15.5017 14.8531C15.6717 14.6969 15.834 14.525 15.9898 14.3384C16.0526 14.4107 16.1175 14.481 16.1835 14.5502C16.3156 14.6864 16.4519 14.8143 16.5915 14.9328C16.6619 14.9915 16.7333 15.0481 16.8058 15.1026C16.9497 15.2116 17.0991 15.3112 17.2517 15.4024C17.3285 15.4475 17.4054 15.4905 17.4844 15.5314C17.6413 15.6121 17.8036 15.6844 17.9692 15.7473C18.1348 15.8092 18.3047 15.8626 18.4789 15.9067C18.915 16.0157 19.3772 16.0671 19.8674 16.0587C20.0633 16.0545 20.2548 16.0419 20.4421 16.0209C20.6293 15.9989 20.8122 15.9675 20.9907 15.9276C21.258 15.8679 21.5156 15.7872 21.7634 15.6865C21.929 15.6194 22.0892 15.5419 22.2461 15.4569C22.324 15.414 22.4019 15.3689 22.4777 15.3207C22.6303 15.2263 22.7786 15.1225 22.9225 15.0083C23.2104 14.7818 23.4809 14.5187 23.7352 14.2189C24.535 15.09 25.4906 15.6226 26.6183 15.8113C26.7914 15.8406 26.9689 15.8616 27.1507 15.8742C27.2416 15.8815 27.3336 15.8857 27.4267 15.8878V27.4516ZM27.2329 14.2891C25.8737 14.155 24.8824 13.2052 24.588 11.8298C24.2201 10.1075 23.8153 8.3935 23.4181 6.67743C23.2623 6.00023 23.087 5.32722 22.9063 4.59551C24.1302 4.59551 25.299 4.58713 26.4667 4.60704C26.5869 4.60914 26.7524 4.74752 26.8152 4.86492C27.9039 6.87032 29.0197 8.86209 30.0445 10.8989C30.8151 12.4316 29.0857 14.4715 27.2329 14.2891Z" fill="#89B05F"/>
<path d="M17.665 11.6546C17.6726 12.6998 18.1812 13.4588 19.0589 13.7376C19.3121 13.8183 19.5708 13.8592 19.8251 13.8592C20.4993 13.8592 21.1302 13.573 21.5588 13.0751C22.0003 12.5604 22.1692 11.8895 22.0339 11.1839C21.7504 9.69956 21.3489 8.1963 20.9603 6.7423C20.8283 6.2517 20.6941 5.74747 20.5632 5.24219H17.5654C17.5752 5.89528 17.5871 6.54732 17.599 7.19936C17.626 8.6586 17.6531 10.1681 17.665 11.6546Z" fill="url(#paint0_linear_1760_20316)"/>
<path d="M14.3148 11.1658C14.3073 10.9572 14.2997 10.7413 14.3051 10.5222C14.3332 9.38373 14.3657 8.24528 14.3982 7.10683C14.4155 6.48623 14.4328 5.86564 14.4501 5.24609H11.4686C11.3864 5.55534 11.303 5.86249 11.2208 6.16965C10.9178 7.29552 10.631 8.35849 10.3702 9.44977C10.1786 10.2517 9.98058 11.082 9.9795 11.8755C9.97733 12.928 10.9286 13.7908 12.145 13.8411C12.1829 13.8421 12.2208 13.8432 12.2586 13.8432C13.3722 13.8432 14.1547 13.1649 14.2986 12.0737C14.3354 11.7917 14.3257 11.4877 14.3148 11.1658Z" fill="url(#paint1_linear_1760_20316)"/>
<path d="M7.41869 8.78478C7.65244 7.7868 7.89161 6.81083 8.14485 5.77721C8.19031 5.59271 8.23576 5.40821 8.28121 5.22266C8.01499 5.22266 7.74984 5.22266 7.48687 5.22266C6.96416 5.22266 6.35379 5.22266 5.72394 5.23524C5.72286 5.23628 5.48369 5.67762 5.48369 5.67762C4.56597 7.36538 3.61795 9.11185 2.71322 10.8405C2.47838 11.2871 2.44699 11.8091 2.62339 12.3092C2.80521 12.8249 3.19156 13.2505 3.68288 13.477C3.96426 13.6059 4.25862 13.6709 4.55948 13.6709C5.63195 13.6709 6.56698 12.8522 6.78126 11.7242C6.97173 10.7168 7.20008 9.71672 7.41869 8.78583V8.78478Z" fill="url(#paint2_linear_1760_20316)"/>
<path d="M27.0009 6.54904C26.7607 6.1098 26.5204 5.66952 26.2812 5.22923C25.6482 5.22085 25.0335 5.21875 24.5075 5.21875C24.2499 5.21875 23.9913 5.2198 23.7305 5.2198C23.8441 5.67057 23.9502 6.09932 24.0519 6.53646C24.1309 6.87716 24.2099 7.21786 24.2889 7.55855C24.6027 8.91296 24.9285 10.3135 25.2239 11.6983C25.4642 12.8221 26.239 13.5548 27.2985 13.6597C27.3537 13.6649 27.41 13.668 27.4652 13.668C28.1567 13.668 28.871 13.2519 29.2866 12.6082C29.6069 12.1124 29.6697 11.5882 29.4597 11.171C28.6784 9.61637 27.8256 8.05754 27.0009 6.54904Z" fill="url(#paint3_linear_1760_20316)"/>
<path d="M9.18934 20.4649C8.69801 20.4597 8.30301 20.8475 8.31166 21.3287C8.32032 21.8015 8.67853 22.1411 9.17094 22.1422C9.68932 22.1432 10.0627 21.7858 10.054 21.2941C10.0454 20.8433 9.65794 20.4712 9.18934 20.4649Z" fill="url(#paint4_linear_1760_20316)"/>
<path d="M19.8791 16.6856C19.8391 16.6867 19.799 16.6867 19.7601 16.6867C18.3023 16.6867 17.0404 16.2076 15.9994 15.261C15.3803 15.848 14.6931 16.2349 13.9139 16.4361C13.9118 16.4361 13.9085 16.4372 13.9064 16.4382C13.9053 16.4477 13.9053 16.4592 13.9053 16.4718C13.9172 19.1607 13.9161 21.8936 13.915 24.5374V26.8216H26.7771V16.4697C25.6289 16.3282 24.6159 15.8784 23.7545 15.1289C22.6961 16.1363 21.3953 16.6594 19.8791 16.6856Z" fill="url(#paint5_linear_1760_20316)"/>
</g>
<defs>
<linearGradient id="paint0_linear_1760_20316" x1="17.588" y1="9.56733" x2="22.1159" y2="9.56733" gradientUnits="userSpaceOnUse">
<stop stop-color="#F6D365"/>
<stop offset="1" stop-color="#FDA085"/>
</linearGradient>
<linearGradient id="paint1_linear_1760_20316" x1="10.0018" y1="9.56124" x2="14.4863" y2="9.56124" gradientUnits="userSpaceOnUse">
<stop stop-color="#F6D365"/>
<stop offset="1" stop-color="#FDA085"/>
</linearGradient>
<linearGradient id="paint2_linear_1760_20316" x1="2.53959" y1="9.46309" x2="8.32794" y2="9.46309" gradientUnits="userSpaceOnUse">
<stop stop-color="#F6D365"/>
<stop offset="1" stop-color="#FDA085"/>
</linearGradient>
<linearGradient id="paint3_linear_1760_20316" x1="23.7597" y1="9.45971" x2="29.6292" y2="9.45971" gradientUnits="userSpaceOnUse">
<stop stop-color="#F6D365"/>
<stop offset="1" stop-color="#FDA085"/>
</linearGradient>
<linearGradient id="paint4_linear_1760_20316" x1="8.32024" y1="21.3067" x2="10.0683" y2="21.3067" gradientUnits="userSpaceOnUse">
<stop stop-color="#F6D365"/>
<stop offset="1" stop-color="#FDA085"/>
</linearGradient>
<linearGradient id="paint5_linear_1760_20316" x1="13.9696" y1="20.9978" x2="26.8814" y2="20.9978" gradientUnits="userSpaceOnUse">
<stop stop-color="#F6D365"/>
<stop offset="1" stop-color="#FDA085"/>
</linearGradient>
<clipPath id="clip0_1760_20316">
<rect width="32" height="27" fill="white" transform="translate(0 3)"/>
</clipPath>
</defs>
</svg>
