<svg xmlns="http://www.w3.org/2000/svg" width="28" height="32" viewBox="0 0 28 32" fill="none">
  <path d="M24.5131 6.84366C24.2951 6.73203 24.0828 6.60966 23.8771 6.47701C23.279 6.08533 22.7306 5.62382 22.2437 5.10241C21.0256 3.72181 20.5706 2.32122 20.4031 1.3406H20.4098C20.2698 0.52664 20.3277 0 20.3364 0H14.7881V21.2509C14.7881 21.5363 14.7881 21.8182 14.776 22.0969C14.776 22.1316 14.7727 22.1636 14.7706 22.2009C14.7706 22.2162 14.7706 22.2322 14.7673 22.2482V22.2602C14.7088 23.0227 14.462 23.7593 14.0487 24.4051C13.6354 25.051 13.0682 25.5863 12.3969 25.964C11.6974 26.3583 10.9061 26.565 10.1013 26.564C7.51626 26.564 5.42117 24.4761 5.42117 21.8976C5.42117 19.319 7.51626 17.2311 10.1013 17.2311C10.5906 17.2307 11.0769 17.307 11.5422 17.4571L11.5489 11.8614C10.1365 11.6807 8.70164 11.7919 7.33479 12.188C5.96794 12.584 4.69879 13.2564 3.60741 14.1626C2.65111 14.9857 1.84714 15.9677 1.23168 17.0645C0.997477 17.4645 0.113814 19.0717 0.00680539 21.6803C-0.0604956 23.1608 0.388402 24.6948 0.602419 25.3287V25.3421C0.737022 25.7154 1.2586 26.9893 2.10862 28.0633C2.79404 28.9247 3.60383 29.6815 4.51194 30.3092V30.2958L4.5254 30.3092C7.21138 32.1171 10.1895 31.9984 10.1895 31.9984C10.705 31.9777 12.4319 31.9984 14.3931 31.0778C16.5682 30.0572 17.8066 28.5366 17.8066 28.5366C18.5977 27.628 19.2268 26.5926 19.6668 25.4747C20.1688 24.1675 20.3364 22.5995 20.3364 21.9729V10.6988C20.4037 10.7388 21.3002 11.3261 21.3002 11.3261C21.3002 11.3261 22.5917 12.1461 24.6067 12.68C26.0523 13.06 28 13.14 28 13.14V7.68428C27.3176 7.75761 25.9318 7.54429 24.5131 6.84366Z" fill="currentColor"/>
</svg>