<svg width="92" height="26" viewBox="0 0 92 26" fill="none" xmlns="http://www.w3.org/2000/svg">
<path d="M0 0.409546H76.7468C84.898 0.409546 91.5058 7.01737 91.5058 15.1685V25.4998H0V0.409546Z" fill="url(#paint0_linear_1729_19424)"/>
<path d="M11.9984 18.3615C11.8166 18.3615 11.6651 18.3009 11.544 18.1797C11.4228 18.0585 11.3622 17.9121 11.3622 17.7404V8.37932H12.6497V17.7404C12.6497 17.9121 12.5891 18.0585 12.4679 18.1797C12.3468 18.3009 12.1902 18.3615 11.9984 18.3615ZM8.48418 8.90948C8.31251 8.90948 8.16608 8.85899 8.0449 8.758C7.93382 8.64692 7.87828 8.50555 7.87828 8.33388C7.87828 8.16221 7.93382 8.02588 8.0449 7.9249C8.16608 7.81382 8.31251 7.75828 8.48418 7.75828H15.5277C15.6994 7.75828 15.8458 7.81382 15.967 7.9249C16.0882 8.02588 16.1488 8.16221 16.1488 8.33388C16.1488 8.51565 16.0882 8.65702 15.967 8.758C15.8458 8.85899 15.6994 8.90948 15.5277 8.90948H8.48418ZM23.0637 14.4231C23.0637 15.2108 22.887 15.9126 22.5335 16.5286C22.1902 17.1446 21.7206 17.6293 21.1248 17.9828C20.5391 18.3362 19.8777 18.5129 19.1405 18.5129C18.4033 18.5129 17.7369 18.3362 17.1411 17.9828C16.5453 17.6293 16.0706 17.1446 15.7172 16.5286C15.3739 15.9126 15.2022 15.2108 15.2022 14.4231C15.2022 13.6355 15.3739 12.9336 15.7172 12.3176C16.0706 11.7016 16.5453 11.2169 17.1411 10.8635C17.7369 10.5101 18.4033 10.3333 19.1405 10.3333C19.8777 10.3333 20.5391 10.5101 21.1248 10.8635C21.7206 11.2169 22.1902 11.7016 22.5335 12.3176C22.887 12.9336 23.0637 13.6355 23.0637 14.4231ZM21.8519 14.4231C21.8519 13.8374 21.7307 13.3224 21.4884 12.8781C21.2561 12.4338 20.933 12.0854 20.5189 11.8329C20.115 11.5805 19.6555 11.4542 19.1405 11.4542C18.6255 11.4542 18.161 11.5805 17.747 11.8329C17.343 12.0854 17.0199 12.4338 16.7775 12.8781C16.5352 13.3224 16.414 13.8374 16.414 14.4231C16.414 14.9987 16.5352 15.5087 16.7775 15.953C17.0199 16.3973 17.343 16.7508 17.747 17.0133C18.161 17.2658 18.6255 17.392 19.1405 17.392C19.6555 17.392 20.115 17.2658 20.5189 17.0133C20.933 16.7508 21.2561 16.3973 21.4884 15.953C21.7307 15.5087 21.8519 14.9987 21.8519 14.4231ZM28.4354 10.4091C29.122 10.4091 29.738 10.5807 30.2833 10.9241C30.8286 11.2674 31.2578 11.742 31.5709 12.3479C31.894 12.9538 32.0556 13.6506 32.0556 14.4383C32.0556 15.2158 31.894 15.9126 31.5709 16.5286C31.2578 17.1345 30.8286 17.6142 30.2833 17.9676C29.7481 18.311 29.1422 18.4826 28.4656 18.4826C28.092 18.4826 27.7386 18.4271 27.4053 18.316C27.0822 18.1948 26.7843 18.0434 26.5116 17.8616C26.2491 17.6697 26.0269 17.4577 25.8452 17.2254C25.6634 16.983 25.5321 16.7457 25.4513 16.5135L25.7846 16.3014V20.7699C25.7846 20.9416 25.729 21.088 25.6179 21.2092C25.5069 21.3303 25.3604 21.3909 25.1787 21.3909C25.007 21.3909 24.8606 21.3303 24.7394 21.2092C24.6283 21.0981 24.5728 20.9517 24.5728 20.7699V11.0907C24.5728 10.919 24.6283 10.7777 24.7394 10.6666C24.8606 10.5454 25.007 10.4848 25.1787 10.4848C25.3604 10.4848 25.5069 10.5454 25.6179 10.6666C25.729 10.7777 25.7846 10.919 25.7846 11.0907V12.4388L25.5573 12.3176C25.628 12.0652 25.7492 11.8228 25.9209 11.5906C26.1027 11.3583 26.3198 11.1563 26.5722 10.9847C26.8348 10.8029 27.1226 10.6615 27.4356 10.5605C27.7588 10.4596 28.092 10.4091 28.4354 10.4091ZM28.299 11.53C27.7941 11.53 27.3447 11.6562 26.9509 11.9087C26.5672 12.1611 26.2642 12.5045 26.0421 12.9387C25.83 13.3729 25.724 13.8728 25.724 14.4383C25.724 14.9937 25.83 15.4935 26.0421 15.9379C26.2642 16.3822 26.5672 16.7306 26.9509 16.983C27.3447 17.2355 27.7941 17.3617 28.299 17.3617C28.8039 17.3617 29.2483 17.2355 29.632 16.983C30.0157 16.7306 30.3187 16.3822 30.5408 15.9379C30.763 15.4935 30.8741 14.9937 30.8741 14.4383C30.8741 13.8728 30.763 13.3729 30.5408 12.9387C30.3187 12.5045 30.0157 12.1611 29.632 11.9087C29.2483 11.6562 28.8039 11.53 28.299 11.53ZM40.7236 18.5129C39.9763 18.5129 39.3199 18.4018 38.7544 18.1797C38.1889 17.9575 37.6436 17.6041 37.1185 17.1194C37.0478 17.0487 36.9873 16.9729 36.9368 16.8922C36.8964 16.8013 36.8762 16.7053 36.8762 16.6044C36.8762 16.4428 36.9317 16.3014 37.0428 16.1802C37.164 16.0489 37.3104 15.9833 37.4821 15.9833C37.6234 15.9833 37.7497 16.0389 37.8608 16.1499C38.2546 16.5337 38.6787 16.8265 39.1331 17.0285C39.5977 17.2304 40.1177 17.3314 40.6933 17.3314C41.1376 17.3314 41.5365 17.2607 41.89 17.1194C42.2535 16.978 42.5413 16.7811 42.7534 16.5286C42.9654 16.2762 43.0715 15.9833 43.0715 15.6501C43.0614 15.2461 42.9402 14.9129 42.7079 14.6503C42.4858 14.3878 42.1727 14.1707 41.7688 13.999C41.3749 13.8172 40.9155 13.6658 40.3904 13.5446C39.9258 13.4335 39.4967 13.2972 39.1028 13.1356C38.7191 12.974 38.3859 12.7771 38.1031 12.5449C37.8204 12.3025 37.5982 12.0147 37.4366 11.6815C37.2851 11.3381 37.2094 10.9392 37.2094 10.4848C37.2094 9.90921 37.3609 9.40429 37.6638 8.97007C37.9668 8.53584 38.3859 8.2026 38.9211 7.97034C39.4563 7.72798 40.0723 7.6068 40.769 7.6068C41.385 7.6068 41.9657 7.70778 42.511 7.90975C43.0664 8.11172 43.5107 8.38942 43.844 8.74286C44.0459 8.93472 44.1469 9.12154 44.1469 9.30331C44.1469 9.45478 44.0813 9.59616 43.95 9.72744C43.8288 9.84862 43.6874 9.90921 43.5259 9.90921C43.4148 9.90921 43.3138 9.86881 43.2229 9.78803C43.0513 9.59616 42.8341 9.42449 42.5716 9.27302C42.309 9.12154 42.0212 9.00036 41.7082 8.90948C41.3951 8.81859 41.0821 8.77315 40.769 8.77315C40.3045 8.77315 39.8956 8.84384 39.5421 8.98522C39.1887 9.11649 38.911 9.30836 38.709 9.56082C38.5171 9.80317 38.4212 10.096 38.4212 10.4394C38.4212 10.8231 38.5323 11.1412 38.7544 11.3937C38.9766 11.636 39.2745 11.838 39.6481 11.9995C40.0218 12.151 40.4358 12.2873 40.8902 12.4085C41.385 12.5297 41.8395 12.6711 42.2535 12.8327C42.6776 12.9841 43.0412 13.176 43.3441 13.4083C43.6471 13.6405 43.8793 13.9384 44.0409 14.3019C44.2126 14.6554 44.2984 15.0947 44.2984 15.6198C44.2984 16.1752 44.1419 16.67 43.8288 17.1042C43.5158 17.5384 43.0866 17.8818 42.5413 18.1342C42.0061 18.3766 41.4002 18.5028 40.7236 18.5129ZM49.426 18.5129C48.6182 18.5129 47.9113 18.3413 47.3054 17.9979C46.6995 17.6546 46.2249 17.185 45.8816 16.5892C45.5483 15.9833 45.3817 15.2865 45.3817 14.4989C45.3817 13.6203 45.5534 12.873 45.8967 12.2571C46.2501 11.631 46.7046 11.1563 47.26 10.8332C47.8255 10.5 48.4213 10.3333 49.0474 10.3333C49.5119 10.3333 49.9613 10.4192 50.3955 10.5908C50.8297 10.7625 51.2134 11.015 51.5467 11.3482C51.8799 11.6714 52.1475 12.0652 52.3495 12.5297C52.5515 12.9841 52.6575 13.4941 52.6676 14.0596C52.6676 14.2212 52.607 14.3575 52.4858 14.4686C52.3646 14.5797 52.2233 14.6352 52.0617 14.6352H46.0785L45.8058 13.59H51.6376L51.3952 13.8021V13.4688C51.3548 13.0548 51.2134 12.7014 50.9711 12.4085C50.7388 12.1056 50.451 11.8733 50.1077 11.7117C49.7744 11.5502 49.421 11.4694 49.0474 11.4694C48.7444 11.4694 48.4415 11.5249 48.1385 11.636C47.8457 11.737 47.5781 11.9087 47.3357 12.151C47.1034 12.3833 46.9116 12.6862 46.7601 13.0599C46.6187 13.4335 46.548 13.8829 46.548 14.408C46.548 14.9937 46.6642 15.5087 46.8964 15.953C47.1388 16.3973 47.472 16.7508 47.8962 17.0133C48.3203 17.2658 48.8151 17.392 49.3806 17.392C49.734 17.392 50.042 17.3466 50.3046 17.2557C50.5672 17.1648 50.7944 17.0537 50.9862 16.9224C51.1781 16.7811 51.3397 16.6397 51.4709 16.4983C51.6022 16.4074 51.7285 16.362 51.8496 16.362C52.0011 16.362 52.1223 16.4125 52.2132 16.5135C52.3141 16.6145 52.3646 16.7356 52.3646 16.877C52.3646 17.0487 52.2839 17.2002 52.1223 17.3314C51.8395 17.6445 51.4558 17.9222 50.9711 18.1645C50.4864 18.3968 49.9714 18.5129 49.426 18.5129ZM60.6873 10.4545C60.859 10.4545 61.0004 10.5151 61.1115 10.6363C61.2326 10.7474 61.2932 10.8887 61.2932 11.0604V17.7404C61.2932 17.9121 61.2326 18.0585 61.1115 18.1797C61.0004 18.3009 60.859 18.3615 60.6873 18.3615C60.5056 18.3615 60.3591 18.3009 60.2481 18.1797C60.137 18.0585 60.0814 17.9121 60.0814 17.7404V16.3014L60.3692 16.2711C60.3692 16.4933 60.2935 16.7356 60.142 16.9982C59.9905 17.2607 59.7835 17.5081 59.521 17.7404C59.2584 17.9626 58.9454 18.1494 58.5818 18.3009C58.2284 18.4422 57.8447 18.5129 57.4306 18.5129C56.744 18.5129 56.128 18.3362 55.5827 17.9828C55.0374 17.6192 54.6031 17.1295 54.28 16.5135C53.9669 15.8975 53.8104 15.1956 53.8104 14.408C53.8104 13.6102 53.9669 12.9084 54.28 12.3025C54.6031 11.6865 55.0374 11.2068 55.5827 10.8635C56.128 10.5101 56.7339 10.3333 57.4003 10.3333C57.8346 10.3333 58.2385 10.404 58.6121 10.5454C58.9858 10.6868 59.3089 10.8786 59.5816 11.121C59.8643 11.3634 60.0814 11.631 60.2329 11.9238C60.3945 12.2167 60.4753 12.5095 60.4753 12.8024L60.0814 12.7115V11.0604C60.0814 10.8887 60.137 10.7474 60.2481 10.6363C60.3591 10.5151 60.5056 10.4545 60.6873 10.4545ZM57.567 17.392C58.0719 17.392 58.5162 17.2607 58.8999 16.9982C59.2938 16.7356 59.5967 16.3822 59.8088 15.9379C60.0309 15.4834 60.142 14.9735 60.142 14.408C60.142 13.8526 60.0309 13.3527 59.8088 12.9084C59.5967 12.454 59.2938 12.1005 58.8999 11.8481C58.5162 11.5855 58.0719 11.4542 57.567 11.4542C57.0722 11.4542 56.6278 11.5805 56.234 11.8329C55.8503 12.0854 55.5473 12.4338 55.3252 12.8781C55.103 13.3224 54.9919 13.8324 54.9919 14.408C54.9919 14.9735 55.0979 15.4834 55.31 15.9379C55.5322 16.3822 55.8351 16.7356 56.2188 16.9982C56.6127 17.2607 57.0621 17.392 57.567 17.392ZM63.8313 18.3615C63.6596 18.3615 63.5132 18.3009 63.392 18.1797C63.2809 18.0585 63.2254 17.9121 63.2254 17.7404V11.1361C63.2254 10.9645 63.2809 10.8231 63.392 10.712C63.5132 10.5908 63.6596 10.5302 63.8313 10.5302C64.013 10.5302 64.1595 10.5908 64.2705 10.712C64.3816 10.8231 64.4372 10.9645 64.4372 11.1361V13.1356L64.2554 12.8175C64.316 12.5045 64.422 12.2015 64.5735 11.9087C64.7351 11.6057 64.937 11.3381 65.1794 11.1058C65.4217 10.8635 65.6994 10.6767 66.0125 10.5454C66.3255 10.404 66.6689 10.3333 67.0425 10.3333C67.2647 10.3333 67.4666 10.3889 67.6484 10.5C67.8403 10.6009 67.9362 10.7474 67.9362 10.9392C67.9362 11.1513 67.8807 11.3078 67.7696 11.4088C67.6585 11.5098 67.5323 11.5603 67.3909 11.5603C67.2596 11.5603 67.1334 11.535 67.0122 11.4845C66.891 11.4239 66.7396 11.3937 66.5578 11.3937C66.3053 11.3937 66.0529 11.4643 65.8004 11.6057C65.5581 11.737 65.3309 11.9289 65.1188 12.1813C64.9168 12.4338 64.7502 12.7216 64.6189 13.0447C64.4977 13.3578 64.4372 13.6961 64.4372 14.0596V17.7404C64.4372 17.9121 64.3766 18.0585 64.2554 18.1797C64.1443 18.3009 64.0029 18.3615 63.8313 18.3615ZM72.1351 10.3333C72.6501 10.3333 73.1147 10.3889 73.5287 10.5C73.9427 10.611 74.2709 10.7625 74.5133 10.9544C74.7556 11.1462 74.8768 11.3634 74.8768 11.6057C74.8768 11.737 74.8314 11.8632 74.7405 11.9844C74.6496 12.1056 74.5284 12.1662 74.377 12.1662C74.2356 12.1662 74.1194 12.1409 74.0286 12.0904C73.9478 12.0399 73.867 11.9743 73.7862 11.8935C73.7155 11.8127 73.6145 11.742 73.4833 11.6815C73.3621 11.6108 73.1854 11.5552 72.9531 11.5148C72.7208 11.4744 72.4886 11.4542 72.2563 11.4542C71.7009 11.4542 71.2111 11.5855 70.787 11.8481C70.373 12.1106 70.0448 12.4641 69.8024 12.9084C69.5601 13.3527 69.4389 13.8576 69.4389 14.4231C69.4389 14.9886 69.555 15.4935 69.7873 15.9379C70.0196 16.3822 70.3427 16.7356 70.7567 16.9982C71.1708 17.2607 71.6504 17.392 72.1957 17.392C72.5492 17.392 72.8319 17.3617 73.044 17.3011C73.256 17.2405 73.4328 17.1699 73.5741 17.0891C73.7559 16.9881 73.8922 16.8871 73.9831 16.7861C74.0841 16.6851 74.2154 16.6346 74.377 16.6346C74.5486 16.6346 74.6799 16.6902 74.7708 16.8013C74.8718 16.9123 74.9223 17.0487 74.9223 17.2102C74.9223 17.392 74.796 17.5839 74.5436 17.7858C74.2911 17.9878 73.9478 18.1595 73.5136 18.3009C73.0894 18.4422 72.6047 18.5129 72.0594 18.5129C71.2919 18.5129 70.6204 18.3362 70.0448 17.9828C69.4692 17.6192 69.0198 17.1295 68.6967 16.5135C68.3836 15.8874 68.2271 15.1906 68.2271 14.4231C68.2271 13.6557 68.3887 12.9639 68.7118 12.3479C69.0451 11.7319 69.5045 11.2422 70.0902 10.8786C70.6759 10.5151 71.3576 10.3333 72.1351 10.3333ZM79.9793 10.4091C80.6458 10.4091 81.1709 10.5555 81.5546 10.8483C81.9484 11.1311 82.2261 11.5148 82.3877 11.9995C82.5594 12.4742 82.6452 13.0043 82.6452 13.59V17.7404C82.6452 17.9121 82.5846 18.0585 82.4634 18.1797C82.3524 18.3009 82.211 18.3615 82.0393 18.3615C81.8676 18.3615 81.7212 18.3009 81.6 18.1797C81.489 18.0585 81.4334 17.9121 81.4334 17.7404V13.59C81.4334 13.2063 81.3779 12.8629 81.2668 12.56C81.1557 12.247 80.9689 11.9995 80.7063 11.8178C80.4539 11.6259 80.1055 11.53 79.6612 11.53C79.2471 11.53 78.8685 11.6259 78.5251 11.8178C78.1818 11.9995 77.9091 12.247 77.7072 12.56C77.5052 12.8629 77.4042 13.2063 77.4042 13.59V17.7404C77.4042 17.9121 77.3436 18.0585 77.2224 18.1797C77.1114 18.3009 76.97 18.3615 76.7983 18.3615C76.6266 18.3615 76.4802 18.3009 76.359 18.1797C76.248 18.0585 76.1924 17.9121 76.1924 17.7404V7.75828C76.1924 7.58661 76.248 7.44523 76.359 7.33415C76.4802 7.21297 76.6266 7.15238 76.7983 7.15238C76.9801 7.15238 77.1265 7.21297 77.2376 7.33415C77.3487 7.44523 77.4042 7.58661 77.4042 7.75828V12.2873L77.1013 12.6206C77.1518 12.358 77.2628 12.0955 77.4345 11.8329C77.6062 11.5603 77.8233 11.3179 78.0858 11.1058C78.3484 10.8938 78.6412 10.7272 78.9644 10.606C79.2875 10.4747 79.6258 10.4091 79.9793 10.4091Z" fill="white"/>
<defs>
<linearGradient id="paint0_linear_1729_19424" x1="93.7196" y1="-11.3977" x2="0" y2="-11.3977" gradientUnits="userSpaceOnUse">
<stop stop-color="#F6D365"/>
<stop offset="1" stop-color="#FDA085"/>
</linearGradient>
</defs>
</svg>
