<svg width="103" height="29" viewBox="0 0 103 29" fill="none" xmlns="http://www.w3.org/2000/svg">
<g clip-path="url(#clip0_2549_3822)">
<path fill-rule="evenodd" clip-rule="evenodd" d="M82.1589 12.0039C82.9287 10.5596 83.9254 9.41876 85.3739 8.72633C89.5561 6.72714 93.74 4.73297 97.9239 2.7388C99.3184 2.07413 100.713 1.40946 102.107 0.744609C102.134 0.732137 102.164 0.725937 102.213 0.715659L102.213 0.715656L102.213 0.715655L102.213 0.715654L102.213 0.715649C102.243 0.709579 102.279 0.702086 102.325 0.69104C102.308 0.783895 102.292 0.8729 102.277 0.959066C102.245 1.13894 102.215 1.30644 102.173 1.47076C101.353 4.71464 99.6192 7.28395 96.5942 8.90093C95.6752 9.39225 94.6724 9.57974 93.6704 9.76711C93.4484 9.80862 93.2264 9.85012 93.0054 9.89492C90.1974 10.4631 87.3867 11.0203 84.5761 11.5775L84.576 11.5775L84.5759 11.5775L84.5758 11.5775L84.5757 11.5776L84.5755 11.5776L82.5858 11.9722C82.5049 11.9888 82.4212 11.9921 82.3212 11.996C82.2717 11.9979 82.2182 12 82.1589 12.0039ZM81.6296 14.8907C82.5093 13.9562 83.502 13.3174 84.7196 13.119C88.5757 12.4878 92.4348 11.8726 96.2937 11.2575L96.294 11.2574C97.348 11.0894 98.4019 10.9214 99.4557 10.753C99.495 10.7465 99.5364 10.7511 99.5923 10.7572L99.5923 10.7572L99.5924 10.7573L99.5924 10.7573L99.5925 10.7573L99.5925 10.7573C99.622 10.7605 99.6554 10.7642 99.6947 10.7669C99.0969 12.494 98.1862 13.9275 96.5327 14.7776C94.7543 15.6913 92.8809 16.0008 90.8746 15.7786C88.8425 15.554 86.8046 15.381 84.7667 15.208L84.7666 15.208L84.7666 15.208L84.7664 15.2079C83.8509 15.1302 82.9355 15.0525 82.0205 14.9701C81.947 14.9628 81.8744 14.946 81.784 14.9252C81.738 14.9145 81.6873 14.9028 81.6296 14.8907ZM83.6574 16.592C82.6147 16.4631 81.642 16.6674 80.6304 17.2636C81.0335 17.4209 81.4269 17.5754 81.8138 17.7273L81.8154 17.7279C82.6233 18.0451 83.4034 18.3514 84.1872 18.6504C84.6763 18.837 85.1635 19.0299 85.6506 19.2229L85.6508 19.223L85.6509 19.223L85.651 19.2231L85.6512 19.2231C86.8635 19.7033 88.076 20.1836 89.3195 20.565C91.7497 21.311 94.2469 20.4529 95.5475 18.585C95.6127 18.4916 95.6657 18.3897 95.7208 18.2838C95.7476 18.2322 95.7749 18.1796 95.8044 18.1267C95.7652 18.1151 95.7365 18.1059 95.7142 18.0988L95.7142 18.0988C95.6792 18.0876 95.66 18.0815 95.6405 18.079L92.4678 17.6849C89.531 17.3201 86.5945 16.9552 83.6574 16.592ZM79.5967 19.0125C80.4454 18.8578 81.1682 18.8568 81.846 19.1752C84.0449 20.207 86.239 21.2484 88.4334 22.2901L88.44 22.2932C89.2162 22.6616 89.9925 23.0301 90.769 23.3982C90.7874 23.4066 90.8023 23.4219 90.8233 23.4434C90.8343 23.4547 90.8471 23.4678 90.863 23.4825C89.9393 24.4557 88.7917 24.6878 87.5281 24.4686C86.3455 24.2632 85.2788 23.8 84.3561 23.0034C83.3264 22.1147 82.2822 21.2429 81.2376 20.3707L81.2376 20.3706L81.2374 20.3705L81.2365 20.3697C80.8029 20.0077 80.3693 19.6457 79.9366 19.2824C79.8799 19.2347 79.8218 19.1892 79.7397 19.1249L79.7396 19.1248C79.6988 19.0929 79.6521 19.0563 79.5967 19.0125ZM80.05 21.2507C79.6312 20.8628 79.1094 20.6515 78.4196 20.6327C78.7147 21.0959 79.0055 21.5499 79.2924 21.9981C79.9414 23.0117 80.571 23.9951 81.1887 24.9856C81.9714 26.2445 83.13 26.7891 84.5756 26.799C84.8234 26.801 85.0716 26.7632 85.3345 26.7232C85.4608 26.7039 85.5905 26.6842 85.7252 26.6681C85.6946 26.6121 85.6742 26.5706 85.6587 26.5391L85.6586 26.539C85.6357 26.4923 85.6233 26.4672 85.6042 26.4488C85.2039 26.073 84.8038 25.697 84.4038 25.3211L84.4036 25.3209L84.4035 25.3208C82.9557 23.9602 81.5084 22.5999 80.05 21.2507ZM77.4263 21.7731C77.5174 21.8618 77.6168 21.9459 77.7163 22.03C77.9329 22.2133 78.1497 22.3967 78.282 22.6273C79.0382 23.9476 79.7695 25.2822 80.5129 26.6386L80.513 26.6387L80.513 26.6388C80.7711 27.1096 81.0305 27.5831 81.293 28.0595C81.2321 28.0595 81.1771 28.0627 81.1268 28.0656C81.0307 28.0711 80.9513 28.0757 80.8791 28.0556C79.4866 27.6707 78.4669 26.9276 78.156 25.4148C78.0031 24.6724 77.8078 23.9384 77.6125 23.2042L77.6125 23.2041C77.5231 22.868 77.4337 22.5318 77.3483 22.1947C77.3293 22.1187 77.3162 22.0406 77.3032 21.9627L77.3032 21.9626C77.2977 21.9298 77.2922 21.897 77.2863 21.8644C77.3149 21.8453 77.344 21.8265 77.3732 21.8076L77.4263 21.7731ZM76.0527 22.9476C75.9965 22.8612 75.9402 22.7748 75.8918 22.6868C75.8348 22.7126 75.7788 22.7384 75.7228 22.7642C75.7029 23.1059 75.6792 23.4474 75.6556 23.7889C75.5995 24.5973 75.5435 25.4054 75.5379 26.2144C75.5319 27.1906 76.3116 28.0874 77.2833 28.3423C77.2025 27.924 77.1228 27.5067 77.0433 27.0903C76.8152 25.895 76.5885 24.7069 76.3386 23.5231C76.2956 23.3204 76.1741 23.134 76.0527 22.9476Z" fill="url(#paint0_linear_2549_3822)"/>
</g>
<g clip-path="url(#clip1_2549_3822)">
<path fill-rule="evenodd" clip-rule="evenodd" d="M20.2123 12.0039C19.4425 10.5596 18.4458 9.41876 16.9973 8.72633C12.8154 6.72727 8.63175 4.73323 4.44813 2.7392L4.44581 2.73809C3.05179 2.07366 1.65777 1.40923 0.263805 0.744609C0.237411 0.732137 0.207464 0.725937 0.157822 0.71566C0.12849 0.709588 0.0922852 0.702093 0.0458775 0.69104C0.0636826 0.783882 0.0793915 0.872874 0.0945988 0.959028C0.12635 1.13891 0.155918 1.30642 0.197826 1.47076C1.01856 4.71464 2.75199 7.28395 5.777 8.90093C6.69602 9.39225 7.69879 9.57974 8.70084 9.76711L8.7009 9.76712L8.70095 9.76713L8.701 9.76714L8.70105 9.76714L8.7011 9.76715C8.92302 9.80865 9.1449 9.85014 9.36582 9.89492C12.1739 10.4631 14.9845 11.0203 17.7952 11.5775L17.7953 11.5775L17.7954 11.5775L17.7955 11.5776L17.7956 11.5776L17.7957 11.5776L19.7854 11.9722C19.8663 11.9888 19.95 11.9921 20.0501 11.996C20.0995 11.9979 20.1531 12 20.2123 12.0039ZM20.7416 14.8907C19.8619 13.9562 18.8692 13.3174 17.6516 13.119C13.7959 12.4879 9.93702 11.8727 6.07848 11.2576L6.07804 11.2575L6.07704 11.2574L6.07547 11.2571C5.02209 11.0892 3.96873 10.9213 2.91547 10.753C2.87621 10.7465 2.83482 10.7511 2.77895 10.7572L2.77892 10.7572L2.77887 10.7573C2.74939 10.7605 2.71589 10.7642 2.67655 10.7669C3.27435 12.494 4.18505 13.9275 5.83851 14.7776C7.61693 15.6913 9.49032 16.0008 11.4967 15.7786C13.5288 15.554 15.5666 15.381 17.6046 15.208L17.6048 15.2079L17.6049 15.2079L17.6051 15.2079L17.6053 15.2079L17.6054 15.2079C18.5207 15.1302 19.436 15.0525 20.3508 14.9701C20.4242 14.9628 20.4969 14.946 20.5872 14.9252C20.6332 14.9145 20.6839 14.9028 20.7416 14.8907ZM18.7138 16.592C19.7565 16.4631 20.7292 16.6674 21.7408 17.2636C21.3371 17.4212 20.9433 17.5758 20.5559 17.7279C19.7479 18.0451 18.9678 18.3514 18.184 18.6504C17.6949 18.837 17.2078 19.0299 16.7206 19.2229L16.7205 19.223L16.7203 19.223L16.7202 19.2231L16.7201 19.2231C15.5077 19.7033 14.2952 20.1836 13.0517 20.565C10.6215 21.311 8.1243 20.4529 6.82373 18.585C6.75853 18.4916 6.70554 18.3897 6.65047 18.2838C6.62363 18.2322 6.59629 18.1796 6.56681 18.1267C6.60604 18.1151 6.6347 18.1059 6.65697 18.0988L6.65699 18.0988C6.69202 18.0876 6.7112 18.0815 6.73076 18.079L9.90335 17.685L9.90985 17.6841C12.8445 17.3195 15.7789 16.955 18.7138 16.592ZM22.7745 19.0125C21.9258 18.8578 21.203 18.8568 20.5252 19.1752C18.3262 20.207 16.1321 21.2485 13.9377 22.2901L13.9374 22.2903L13.9371 22.2904L13.9369 22.2905C13.1588 22.6599 12.3806 23.0292 11.6022 23.3982C11.5838 23.4067 11.569 23.4219 11.548 23.4434L11.5479 23.4434C11.5369 23.4547 11.5241 23.4678 11.5082 23.4825C12.4319 24.4557 13.5795 24.6878 14.8431 24.4686C16.0257 24.2632 17.0924 23.8 18.0151 23.0034C19.0448 22.1147 20.089 21.2429 21.1336 20.3707L21.1337 20.3706L21.1338 20.3705L21.1348 20.3697C21.5683 20.0077 22.0019 19.6457 22.4346 19.2824C22.4914 19.2347 22.5494 19.1892 22.6315 19.1249L22.6316 19.1248C22.6724 19.0929 22.7191 19.0563 22.7745 19.0125ZM22.3212 21.2507C22.74 20.8628 23.2619 20.6515 23.9516 20.6327C23.6565 21.0959 23.3658 21.5499 23.0788 21.9981L23.0787 21.9983C22.4297 23.0118 21.8001 23.9951 21.1825 24.9856C20.3998 26.2445 19.2412 26.7891 17.7957 26.799C17.5479 26.801 17.2996 26.7632 17.0367 26.7232C16.9104 26.7039 16.7807 26.6842 16.646 26.6681C16.6767 26.6121 16.697 26.5706 16.7126 26.539C16.7356 26.4923 16.7479 26.4672 16.767 26.4488C17.1659 26.0744 17.5645 25.6997 17.9631 25.3251L17.9641 25.3242L17.9676 25.321C19.4154 23.9602 20.8628 22.6 22.3212 21.2507ZM24.945 21.7731C24.8538 21.8618 24.7544 21.9459 24.655 22.03C24.4383 22.2133 24.2215 22.3967 24.0892 22.6273C23.3331 23.9476 22.6017 25.2822 21.8583 26.6386L21.8582 26.6387L21.8582 26.6388C21.6002 27.1096 21.3407 27.5831 21.0782 28.0595C21.1391 28.0595 21.1941 28.0627 21.2445 28.0656C21.3405 28.0711 21.42 28.0757 21.4921 28.0556C22.8846 27.6707 23.9043 26.9276 24.2152 25.4148C24.3681 24.6724 24.5634 23.9384 24.7587 23.2042L24.7587 23.2041C24.8481 22.868 24.9375 22.5318 25.0229 22.1947C25.0419 22.1187 25.055 22.0406 25.068 21.9627C25.0735 21.9298 25.079 21.897 25.0849 21.8644C25.0563 21.8453 25.0272 21.8265 24.9981 21.8076L24.945 21.7731ZM26.3185 22.9476C26.3748 22.8612 26.431 22.7748 26.4795 22.6868C26.5364 22.7126 26.5924 22.7384 26.6484 22.7642C26.6683 23.1059 26.692 23.4474 26.7156 23.7889C26.7717 24.5973 26.8277 25.4054 26.8333 26.2144C26.8393 27.1906 26.0596 28.0874 25.0879 28.3423C25.1688 27.924 25.2484 27.5067 25.3279 27.0903C25.556 25.895 25.7828 24.7069 26.0326 23.5231C26.0756 23.3204 26.1971 23.134 26.3185 22.9476Z" fill="url(#paint1_linear_2549_3822)"/>
</g>
<path d="M45.157 11.6671C45.0864 11.7057 44.9772 11.7667 44.8295 11.8502C44.701 11.9208 44.5244 12.0236 44.2996 12.1585C44.0812 12.2869 43.7954 12.4539 43.4421 12.6595C43.5513 12.5182 43.5995 12.4186 43.5866 12.3608C43.5802 12.2966 43.5513 12.2548 43.4999 12.2355C43.4357 12.2099 43.349 12.2066 43.2398 12.2259C43.1756 12.2388 43.0375 12.2548 42.8255 12.2741C42.6136 12.2869 42.347 12.2998 42.0259 12.3126C41.7112 12.3255 41.3515 12.3383 40.9468 12.3512C40.5422 12.364 40.1151 12.3736 39.6655 12.3801C39.6398 13.4527 39.6173 14.4129 39.598 15.2607C39.5787 16.1086 39.5595 16.86 39.5402 17.5152C39.5274 18.1703 39.5145 18.7387 39.5017 19.2205C39.4952 19.7022 39.4888 20.1133 39.4824 20.4537C39.4631 21.2501 39.4535 21.8025 39.4535 22.1108C39.4471 22.3484 39.415 22.5829 39.3572 22.8141C39.3058 23.0132 39.2287 23.2284 39.1259 23.4596C39.0232 23.6844 38.8754 23.8899 38.6827 24.0762C38.8048 24.089 38.9204 24.0987 39.0296 24.1051C39.1388 24.1051 39.248 24.1051 39.3572 24.1051C39.659 24.1051 39.9288 24.0923 40.1664 24.0666C40.4105 24.0344 40.6193 24.0023 40.7927 23.9702C40.9661 23.9381 41.1042 23.906 41.207 23.8739C41.3161 23.8418 41.3836 23.8193 41.4093 23.8064C41.0689 24.0377 40.7863 24.2368 40.5615 24.4038C40.3366 24.5708 40.1343 24.7089 39.9545 24.818C39.7746 24.9208 39.598 24.9979 39.4246 25.0493C39.2512 25.1007 39.0489 25.1263 38.8176 25.1263C38.5093 25.1263 38.246 25.1135 38.0276 25.0878C37.8157 25.0621 37.6005 25.0493 37.3821 25.0493C37.2729 25.0493 37.1605 25.0557 37.0449 25.0685C36.9357 25.075 36.8105 25.0942 36.6692 25.1263C36.849 24.9722 37.0128 24.8052 37.1605 24.6254C37.3147 24.4391 37.4431 24.2143 37.5459 23.9509C37.6487 23.6876 37.7289 23.3729 37.7867 23.0068C37.8446 22.6407 37.8735 22.1975 37.8735 21.6772V12.4379C37.3147 12.4507 36.7655 12.4636 36.226 12.4764C35.6929 12.4892 35.2112 12.5021 34.7808 12.5149C34.3505 12.5214 33.9876 12.531 33.6921 12.5438C33.4031 12.5567 33.2201 12.5663 33.143 12.5727C32.9631 12.592 32.8347 12.5856 32.7576 12.5535C32.6805 12.5214 32.6452 12.4732 32.6516 12.409C32.658 12.3383 32.7062 12.2548 32.7961 12.1585C32.8796 12.0621 32.9953 11.9594 33.143 11.8502L34.4629 10.8964C34.3665 11.012 34.3344 11.0987 34.3665 11.1565C34.4051 11.2143 34.4629 11.2593 34.54 11.2914C34.6299 11.3235 34.7487 11.3428 34.8964 11.3492C34.9992 11.3492 35.2079 11.346 35.5227 11.3395C35.8374 11.3331 36.2196 11.3267 36.6692 11.3203C37.1252 11.3074 37.6294 11.2978 38.1818 11.2914C38.7341 11.2785 39.2961 11.2657 39.8678 11.2528C40.4394 11.2336 41.0014 11.2175 41.5538 11.2047C42.1062 11.1918 42.6072 11.1822 43.0568 11.1758C43.5128 11.1629 43.8982 11.1533 44.2129 11.1469C44.5276 11.134 44.7363 11.1244 44.8391 11.118C45.0382 11.1115 45.1827 11.1276 45.2727 11.1661C45.3626 11.2047 45.4108 11.256 45.4172 11.3203C45.43 11.3845 45.4075 11.4487 45.3497 11.513C45.2984 11.5772 45.2341 11.6286 45.157 11.6671ZM41.4093 23.8064V23.7968C41.4157 23.7904 41.4221 23.7872 41.4285 23.7872L41.4093 23.8064ZM58.0729 17.6501C58.0729 18.4658 57.9381 19.2205 57.6683 19.9141C57.3985 20.6078 57.0421 21.2405 56.5989 21.8121C56.1557 22.3838 55.6483 22.8912 55.0766 23.3343C54.5114 23.7711 53.9301 24.1404 53.3328 24.4423C52.7419 24.7378 52.1606 24.9626 51.589 25.1167C51.0174 25.2709 50.5035 25.3479 50.0475 25.3479C49.6621 25.3479 49.2543 25.2869 48.8239 25.1649C48.3936 25.0493 47.9665 24.8758 47.5426 24.6446C47.1251 24.407 46.7236 24.1147 46.3383 23.7679C45.9529 23.4146 45.6125 23.01 45.317 22.554C45.028 22.0915 44.7968 21.5777 44.6233 21.0125C44.4499 20.4408 44.3632 19.8178 44.3632 19.1434C44.3632 18.2442 44.4885 17.4221 44.739 16.677C44.9894 15.9319 45.3202 15.2639 45.7313 14.673C46.1488 14.0757 46.6209 13.5555 47.1475 13.1123C47.6806 12.6691 48.2234 12.303 48.7758 12.014C49.3346 11.7185 49.8837 11.5001 50.4232 11.3588C50.9628 11.2111 51.4477 11.1372 51.878 11.1372C52.3341 11.1372 52.8029 11.1854 53.2846 11.2817C53.7664 11.3781 54.2352 11.5322 54.6913 11.7442C55.1537 11.9561 55.5873 12.2323 55.9919 12.5727C56.403 12.9067 56.7627 13.3146 57.071 13.7963C57.3793 14.278 57.6233 14.84 57.8032 15.4823C57.983 16.1182 58.0729 16.8408 58.0729 17.6501ZM56.3195 18.2378C56.3195 17.5312 56.2328 16.8922 56.0593 16.3205C55.8859 15.7425 55.6515 15.2318 55.356 14.7887C55.067 14.339 54.7298 13.9537 54.3444 13.6325C53.9655 13.305 53.5673 13.0352 53.1498 12.8232C52.7387 12.6113 52.3212 12.4571 51.8973 12.3608C51.4734 12.258 51.072 12.2066 50.693 12.2066C50.0892 12.2066 49.5048 12.3223 48.9395 12.5535C48.3743 12.7783 47.8701 13.1348 47.4269 13.6229C46.9902 14.1046 46.6401 14.7276 46.3768 15.492C46.1135 16.2563 45.9818 17.1716 45.9818 18.2378C45.9818 18.9507 46.0846 19.593 46.2901 20.1646C46.4956 20.7299 46.7654 21.2276 47.0994 21.658C47.4334 22.0883 47.8091 22.4576 48.2266 22.7659C48.6505 23.0742 49.0776 23.3247 49.508 23.5174C49.9447 23.7101 50.3654 23.8514 50.7701 23.9413C51.1811 24.0312 51.5376 24.0762 51.8395 24.0762C52.1414 24.0762 52.4593 24.0312 52.7933 23.9413C53.1337 23.8514 53.4709 23.7101 53.8049 23.5174C54.1389 23.3183 54.4568 23.0646 54.7587 22.7563C55.0606 22.448 55.3271 22.0787 55.5584 21.6483C55.7896 21.218 55.9726 20.7202 56.1075 20.155C56.2488 19.5898 56.3195 18.9507 56.3195 18.2378ZM68.9271 14.7887C68.8821 15.219 68.7825 15.6172 68.6284 15.9833C68.4807 16.343 68.2976 16.6738 68.0792 16.9757C67.8609 17.2711 67.6232 17.5377 67.3663 17.7753C67.1158 18.0065 66.8653 18.2121 66.6148 18.3919C66.3707 18.5653 66.1395 18.7131 65.9211 18.8351C65.7028 18.9507 65.5261 19.0406 65.3912 19.1049C65.205 19.1884 65.0027 19.2622 64.7843 19.3264C64.598 19.3778 64.3796 19.426 64.1291 19.471C63.8851 19.5159 63.6217 19.532 63.3391 19.5191L64.3315 19.047C64.6976 19.0727 65.0637 18.9796 65.4298 18.7677C65.7959 18.5493 66.1202 18.2474 66.4029 17.862C66.6855 17.4702 66.9071 17.011 67.0676 16.4843C67.2346 15.9512 67.2956 15.3796 67.2507 14.7694C67.2121 14.3069 67.0837 13.8991 66.8653 13.5458C66.6533 13.1861 66.3964 12.8843 66.0946 12.6402C65.7927 12.3961 65.4651 12.2099 65.1118 12.0814C64.7586 11.9529 64.4182 11.8887 64.0906 11.8887C63.8658 11.8887 63.596 11.8983 63.2813 11.9176C62.9666 11.9305 62.6326 11.9529 62.2793 11.985C62.2601 13.199 62.2376 14.2845 62.2119 15.2415C62.1926 16.1921 62.1734 17.0367 62.1541 17.7753C62.1348 18.5075 62.1156 19.1434 62.0963 19.6829C62.0834 20.216 62.0674 20.6688 62.0481 21.0414C62.0096 21.9213 61.9742 22.5186 61.9421 22.8334C61.9229 22.9618 61.8908 23.0935 61.8458 23.2284C61.8073 23.344 61.7527 23.4692 61.682 23.6041C61.6178 23.739 61.5343 23.8707 61.4315 23.9991C61.7077 24.0312 61.955 24.0505 62.1734 24.0569C62.3982 24.0569 62.6037 24.0569 62.79 24.0569C63.2331 24.0569 63.5575 24.0441 63.763 24.0184C63.975 23.9927 64.097 23.9734 64.1291 23.9606C63.7951 24.1276 63.4804 24.2817 63.185 24.423C62.8895 24.5643 62.6069 24.6896 62.3371 24.7988C62.0674 24.908 61.8073 24.9947 61.5568 25.0589C61.3127 25.1167 61.0718 25.1456 60.8342 25.1456H59.1578L60.0056 24.5772C60.0506 24.4102 60.0923 24.2111 60.1309 23.9799C60.1758 23.7486 60.2144 23.5013 60.2465 23.238C60.2786 22.9682 60.3043 22.6921 60.3236 22.4094C60.3492 22.1204 60.3717 21.8378 60.391 21.5616C60.4295 20.9258 60.4584 20.2513 60.4777 19.5384C60.4906 18.5493 60.5034 17.5923 60.5162 16.6674C60.5227 16.2756 60.5291 15.8709 60.5355 15.4534C60.5419 15.0359 60.5451 14.6281 60.5451 14.2299C60.5516 13.8252 60.558 13.4463 60.5644 13.093C60.5708 12.7333 60.5773 12.4154 60.5837 12.1392L58.8399 12.3223L60.7186 11.195C60.8984 11.2143 61.075 11.2271 61.2485 11.2336C61.4283 11.2336 61.6114 11.2336 61.7976 11.2336C62.1123 11.2336 62.4174 11.2239 62.7129 11.2047C63.0083 11.179 63.3006 11.1533 63.5896 11.1276C63.8786 11.0955 64.1645 11.0666 64.4471 11.0409C64.7297 11.0152 65.0123 11.0023 65.2949 11.0023C65.8023 11.0023 66.2872 11.0891 66.7497 11.2625C67.2121 11.4359 67.6136 11.6864 67.954 12.014C68.3008 12.3415 68.5642 12.7397 68.744 13.2086C68.9238 13.6775 68.9849 14.2042 68.9271 14.7887Z" fill="#EA8E38"/>
<defs>
<linearGradient id="paint0_linear_2549_3822" x1="75.5378" y1="14.5167" x2="102.325" y2="14.5167" gradientUnits="userSpaceOnUse">
<stop stop-color="#A1C4FD"/>
<stop offset="1" stop-color="#C2E9FB"/>
</linearGradient>
<linearGradient id="paint1_linear_2549_3822" x1="26.8334" y1="14.5167" x2="0.046114" y2="14.5167" gradientUnits="userSpaceOnUse">
<stop stop-color="#A1C4FD"/>
<stop offset="1" stop-color="#C2E9FB"/>
</linearGradient>
<clipPath id="clip0_2549_3822">
<rect width="26.7872" height="27.6513" fill="white" transform="translate(75.5378 0.69104)"/>
</clipPath>
<clipPath id="clip1_2549_3822">
<rect width="26.7872" height="27.6513" fill="white" transform="matrix(-1 0 0 1 26.8334 0.69104)"/>
</clipPath>
</defs>
</svg>
