<svg width="66" height="66" viewBox="0 0 66 66" fill="none" xmlns="http://www.w3.org/2000/svg">
<rect x="0.666504" width="65.3333" height="65.3333" rx="17.3333" fill="white"/>
<g clip-path="url(#clip0_1659_19102)">
<path fill-rule="evenodd" clip-rule="evenodd" d="M30.006 18.5851C31.0305 19.0634 31.8582 19.826 32.5771 20.725C34.769 18.4035 37.0231 16.2051 40.2333 15.303C36.8128 13.8436 29.4156 15.0485 26.9813 17.3864C27.2785 17.5025 27.5814 17.6155 27.8867 17.7293C28.5934 17.9928 29.3131 18.2612 30.006 18.5851ZM33.0164 21.3952C35.169 21.7708 37.1423 22.3846 39.0742 23.2898C39.0453 23.3551 39.0192 23.4151 38.9945 23.4721L38.9945 23.4722C38.9589 23.554 38.9261 23.6294 38.8919 23.7044C38.5499 24.4326 38.2076 25.1607 37.8654 25.8888L37.8648 25.8901L37.8641 25.8915L37.8635 25.8929L37.8628 25.8943L37.8616 25.8969L37.8603 25.8996L37.8599 25.9006L37.8594 25.9017C37.2834 27.127 36.7075 28.3523 36.1324 29.578C35.9811 29.9003 35.8286 30.222 35.6762 30.5436L35.6762 30.5438C35.264 31.4137 34.852 32.2834 34.4625 33.163C34.0596 34.0723 34.4553 35.0852 35.3264 35.5142C36.1904 35.9402 37.2366 35.6415 37.7338 34.8348C37.8851 34.5885 37.9534 34.3484 37.6592 34.1739C37.3827 34.0107 37.2024 34.1739 37.0626 34.4079C36.872 34.7271 36.5892 34.9128 36.2152 34.9405C35.3606 35.0042 34.8437 34.141 35.2415 33.2984C36.7178 30.1751 38.1993 27.0539 39.6807 23.9326L39.6811 23.9319L39.6814 23.9313L39.682 23.9299L39.6827 23.9285L39.6833 23.9271C39.7117 23.8673 39.7484 23.8114 39.7867 23.753L39.7867 23.7529L39.7868 23.7529L39.7868 23.7528L39.7869 23.7528C39.8044 23.7261 39.8222 23.6989 39.8398 23.6705C41.751 24.6281 43.4829 25.8012 45.1466 27.1272C45.1592 27.0887 45.1713 27.0553 45.1822 27.025L45.1823 27.025C45.2038 26.9656 45.2208 26.9185 45.2284 26.8696C45.5081 25.0704 45.7308 23.2682 45.5537 21.4424C45.3682 19.5324 44.985 17.7117 43.2882 16.4524C43.3511 16.3235 43.4139 16.1954 43.4764 16.0677L43.4796 16.0612L43.4804 16.0596C43.5968 15.8219 43.7125 15.5857 43.8268 15.3492C43.9429 15.109 43.9304 14.877 43.6725 14.758C43.4229 14.642 43.226 14.757 43.108 15.0043C43.0753 15.073 43.0432 15.142 43.0111 15.211C42.8974 15.4554 42.7835 15.7 42.647 15.9321C42.5952 16.0204 42.4222 16.1107 42.3279 16.0912C41.3294 15.8798 40.3774 16.0409 39.4461 16.4022C37.7059 17.0775 36.2681 18.1972 34.9328 19.4565C34.4914 19.8727 34.0696 20.3092 33.6303 20.7638L33.6303 20.7638C33.4304 20.9706 33.227 21.1811 33.0164 21.3952ZM51.9693 29.3431C50.1575 28.0972 48.2805 27.1488 46.013 27.0616C46.446 23.9652 46.7505 20.8791 45.5106 17.8853C48.3572 19.1312 52.0262 25.6124 51.9693 29.3431ZM51.825 51.9316C51.8798 51.9309 51.9347 51.9303 51.9895 51.9303C51.9895 51.9293 51.9895 51.9282 51.9906 51.9272C52.0487 51.9272 52.1086 51.9317 52.1685 51.9362L52.1686 51.9362C52.3073 51.9466 52.4462 51.957 52.5634 51.9118C52.7074 51.8564 52.8897 51.6696 52.8897 51.5413C52.8897 51.413 52.697 51.1924 52.5655 51.1739C52.1988 51.1226 51.8165 51.1226 51.4498 51.1718C51.3121 51.1903 51.1256 51.3843 51.0935 51.528C51.0438 51.7455 51.1971 51.9149 51.4488 51.9282C51.5742 51.9347 51.6996 51.9331 51.825 51.9316ZM14.7257 51.1513C15.2591 51.1513 15.4725 51.2652 15.4363 51.5608C15.3889 51.949 15.1081 51.9433 14.8361 51.9377C14.7989 51.9369 14.7619 51.9361 14.7257 51.9364C14.1694 51.9405 13.9995 51.845 13.9995 51.5423C13.9995 51.2395 14.1642 51.1513 14.7257 51.1513ZM49.8311 51.1492C49.9286 51.1441 50.0314 51.1388 50.0822 51.1851C50.2034 51.2959 50.3494 51.4684 50.3401 51.6059C50.3318 51.7362 50.1536 51.8799 50.0179 51.9692C49.959 52.0084 49.8677 52.0012 49.7779 51.9942C49.7431 51.9914 49.7085 51.9887 49.6761 51.9887H17.0304C17.011 51.9887 16.9915 51.9888 16.9721 51.9888C16.9138 51.989 16.8556 51.9892 16.7974 51.9877C16.5322 51.9826 16.3416 51.8861 16.3364 51.5895C16.3312 51.2929 16.5187 51.181 16.7839 51.1769C17.0719 51.1717 17.36 51.1723 17.6477 51.1729C17.8122 51.1732 17.9766 51.1735 18.1409 51.1728C18.1951 51.1721 18.2489 51.1683 18.3232 51.163C18.368 51.1599 18.4204 51.1561 18.4848 51.1523C17.9658 50.6453 17.7421 50.1085 17.8146 49.4291C17.7446 49.4291 17.6792 49.4292 17.6167 49.4293C17.4996 49.4295 17.3926 49.4297 17.2853 49.4291C16.3716 49.425 16.0111 49.076 16.0091 48.177C16.0069 46.9417 16.0073 45.7065 16.0077 44.4713C16.0079 43.9772 16.008 43.483 16.008 42.9889V39.0273H16.007V30.9205H16.0184C16.0171 30.8193 16.0153 30.7181 16.0136 30.6169C16.0055 30.1545 15.9974 29.6923 16.0339 29.2342C16.0692 28.795 16.5301 28.4881 17.0253 28.484C17.6819 28.4789 18.3385 28.48 18.9952 28.481C19.2688 28.4815 19.5423 28.4819 19.8159 28.4819H20.2551V22.7869C19.5383 22.6391 19.5083 22.6022 19.5083 21.8776C19.5083 21.8042 19.5081 21.7309 19.5079 21.6576C19.5075 21.4744 19.5071 21.2914 19.5093 21.1089C19.5134 20.607 19.673 20.4459 20.1868 20.4448C21.4174 20.4418 22.6487 20.4421 23.8797 20.4425C24.2899 20.4427 24.7001 20.4428 25.1103 20.4428C25.3653 20.4428 25.6204 20.4427 25.8755 20.4427C26.6411 20.4425 27.407 20.4423 28.1723 20.4438C28.7535 20.4448 28.8861 20.5762 28.8892 21.1366C28.8912 21.4055 28.8902 21.6754 28.8892 21.9443C28.8892 22.6083 28.8457 22.6617 28.1806 22.7787V28.4819C28.5298 28.4819 28.8752 28.4817 29.218 28.4815C29.8962 28.481 30.5646 28.4806 31.2334 28.4819C32.0248 28.483 32.4319 28.8771 32.4381 29.6519C32.4416 30.0039 32.4408 30.3554 32.4399 30.7164C32.4395 30.8797 32.4391 31.0449 32.4391 31.213H32.4194V39.0273H32.3842V39.5446C32.1873 39.5446 31.9905 39.5445 31.7938 39.5444C31.4007 39.5441 31.0078 39.5439 30.6149 39.5446C29.5055 39.5456 28.971 40.0701 28.97 41.1611C28.9693 43.2622 28.9695 45.363 28.9697 47.4638C28.9698 48.5143 28.97 49.5648 28.97 50.6155V51.0619H29.7717V41.2524C29.7717 40.5063 29.9592 40.3215 30.7071 40.3205H34.9522C34.9522 40.2004 34.9517 40.0836 34.9513 39.9691C34.9505 39.7188 34.9496 39.4796 34.9532 39.2408C34.9656 38.3377 35.6255 37.6552 36.537 37.6418C37.6744 37.6254 38.8118 37.6254 39.9492 37.6418C40.8743 37.6562 41.5341 38.3489 41.5424 39.2757C41.5438 39.4939 41.5433 39.7116 41.5429 39.9409C41.5426 40.06 41.5424 40.1822 41.5424 40.3092H42.4063V40.3205H44.5692C44.6012 40.3201 44.633 40.3196 44.6648 40.3192C45.166 40.3123 45.649 40.3056 46.1282 40.3462C46.323 40.3626 46.5302 40.614 46.6659 40.8039C46.7309 40.8957 46.7251 41.0413 46.7196 41.1796C46.7181 41.2175 46.7166 41.2548 46.7166 41.2904C46.7187 44.5604 46.7187 47.8314 46.7187 51.133V51.1512C46.9726 51.1512 47.226 51.1512 47.479 51.1511C48.2365 51.1509 48.9905 51.1507 49.7445 51.1523C49.7717 51.1523 49.8011 51.1507 49.8311 51.1492ZM27.3105 22.7653H21.0683V28.4676H27.3105V22.7653ZM18.1533 31.213C18.0529 31.213 17.9617 31.254 17.8954 31.3197C17.8291 31.3864 17.7866 31.4767 17.7877 31.5763C17.7877 31.7754 17.9524 31.9386 18.1533 31.9386H30.4865C30.588 31.9386 30.6792 31.8975 30.7455 31.8318C30.8118 31.7661 30.8532 31.6758 30.8532 31.5763C30.8532 31.3772 30.6885 31.213 30.4865 31.213H18.1533ZM29.1202 33.5725V33.477C29.1202 33.2215 28.9099 33.0131 28.653 33.0141H20.0666C19.8097 33.0141 19.5994 33.2225 19.5994 33.477V33.5725C19.5994 33.827 19.8097 34.0353 20.0666 34.0353H28.653C28.9099 34.0353 29.1202 33.827 29.1202 33.5725ZM17.7877 35.3439C17.7877 35.544 17.9524 35.7072 18.1533 35.7072H30.4865C30.588 35.7072 30.6792 35.6662 30.7455 35.6005C30.8118 35.5348 30.8532 35.4445 30.8532 35.3439C30.8532 35.1448 30.6885 34.9816 30.4865 34.9816H18.1533C18.0529 34.9816 17.9617 35.0226 17.8954 35.0883C17.8291 35.154 17.7877 35.2443 17.7877 35.3439ZM21.6101 49.4003C21.6712 50.0787 21.406 50.6247 20.9191 51.1276H27.5954C27.065 50.6329 26.835 50.0736 26.8889 49.4003H21.6101ZM32.2485 50.1506C32.5572 50.1506 32.81 49.9002 32.81 49.5943V42.0601C32.81 41.9062 32.7468 41.7676 32.6453 41.667C32.5437 41.5665 32.4029 41.5038 32.2485 41.5038C31.9398 41.5038 31.6871 41.7532 31.6871 42.0601V49.5943C31.6871 49.7472 31.7503 49.8868 31.8518 49.9874C31.9533 50.088 32.0942 50.1506 32.2485 50.1506ZM40.7318 40.0865C40.7364 40.0028 40.7406 39.9271 40.7406 39.8515C40.7406 39.8031 40.7412 39.7547 40.7417 39.7062C40.7434 39.5498 40.7451 39.3931 40.7292 39.2388C40.6837 38.7697 40.3998 38.4875 39.9181 38.4813C38.7963 38.467 37.6744 38.467 36.5526 38.4824C36.1103 38.4885 35.8099 38.7584 35.7653 39.1803C35.7403 39.4131 35.7463 39.6489 35.7525 39.8894C35.7553 39.9975 35.7581 40.1066 35.7581 40.2168H40.7251C40.7271 40.1708 40.7295 40.1277 40.7318 40.0865ZM44.2295 50.1506C44.5382 50.1506 44.7909 49.9002 44.7909 49.5943V42.0601C44.7909 41.9062 44.7277 41.7676 44.6262 41.667C44.5247 41.5665 44.3838 41.5038 44.2295 41.5038C43.9208 41.5038 43.668 41.7532 43.668 42.0601V49.5943C43.668 49.7472 43.7312 49.8868 43.8327 49.9874C43.9342 50.088 44.0751 50.1506 44.2295 50.1506Z" fill="url(#paint0_linear_1659_19102)"/>
</g>
<defs>
<linearGradient id="paint0_linear_1659_19102" x1="13.9995" y1="33.3336" x2="52.8897" y2="33.3336" gradientUnits="userSpaceOnUse">
<stop stop-color="#F78CA0"/>
<stop offset="0.19" stop-color="#F9748F"/>
<stop offset="0.6" stop-color="#FD868C"/>
</linearGradient>
<clipPath id="clip0_1659_19102">
<rect width="38.8889" height="37.3333" fill="white" transform="translate(13.9998 14.6667)"/>
</clipPath>
</defs>
</svg>
