<svg width="29" height="32" viewBox="0 0 29 32" fill="none" xmlns="http://www.w3.org/2000/svg">
<path d="M8.60811 3.26441L14.3444 0.0406039C14.4408 -0.0135346 14.5593 -0.0135346 14.6559 0.0406039L20.4174 3.27837C20.625 3.39491 20.625 3.68669 20.4174 3.80323L14.6808 7.02675C14.5845 7.08088 14.4659 7.08088 14.3693 7.02675L8.60782 3.78898C8.40026 3.67244 8.40026 3.38066 8.60782 3.26412L8.60811 3.26441Z" fill="url(#paint0_linear_1760_20247)"/>
<path d="M16.1622 7.5105L21.8988 4.2867C21.9952 4.23256 22.1137 4.23256 22.2103 4.2867L27.947 7.5105C28.1545 7.62704 28.1545 7.91882 27.947 8.03536L22.2103 11.2592C22.114 11.3133 21.9954 11.3133 21.8988 11.2592L16.1625 8.03536C15.9549 7.91882 15.9549 7.62704 16.1625 7.5105H16.1622Z" fill="url(#paint1_linear_1760_20247)"/>
<path d="M7.56836 28.4796V22.0183C7.56836 21.7849 7.82773 21.6393 8.03529 21.7559L13.7596 24.9728C13.8559 25.027 13.9154 25.127 13.9154 25.2353V31.6965C13.9154 31.9299 13.656 32.0755 13.4484 31.959L7.7241 28.742C7.62779 28.6879 7.56836 28.5879 7.56836 28.4796Z" fill="#89B05F"/>
<path d="M15.2407 24.9673L20.9972 21.7324C21.2048 21.6159 21.4642 21.7615 21.4642 21.9949V28.4559C21.4642 28.5641 21.4047 28.6641 21.3084 28.7183L15.5519 31.9532C15.3443 32.0697 15.085 31.9241 15.085 31.6908V25.2295C15.085 25.1212 15.1444 25.0212 15.2407 24.9671V24.9673Z" fill="#89B05F"/>
<path d="M0 24.2257V17.7644C0 17.531 0.259372 17.3854 0.466928 17.502L6.24045 20.7463C6.33676 20.8004 6.39619 20.9004 6.39619 21.0087V27.47C6.39619 27.7034 6.13681 27.849 5.92926 27.7324L0.15574 24.4881C0.0594272 24.434 0 24.3339 0 24.2257Z" fill="#89B05F"/>
<path d="M8.35877 14.3456L13.125 17.0241V22.4083L8.35877 19.7299V14.3456ZM7.88013 13.2344C7.71737 13.2344 7.56836 13.3609 7.56836 13.5378V19.9988C7.56836 20.1071 7.62779 20.2071 7.7241 20.2613L13.4484 23.4782C13.4985 23.5064 13.5518 23.5193 13.6036 23.5193C13.7661 23.5193 13.9154 23.3927 13.9154 23.2158V16.7548C13.9154 16.6465 13.8559 16.5465 13.7596 16.4924L8.03529 13.2754C7.98523 13.2472 7.93195 13.2344 7.88013 13.2344Z" fill="url(#paint2_linear_1760_20247)"/>
<path d="M0 15.7452V9.28392C0 9.05056 0.259372 8.90495 0.466928 9.02149L6.24045 12.2658C6.33676 12.3199 6.39619 12.42 6.39619 12.5282V18.9895C6.39619 19.2229 6.13681 19.3685 5.92926 19.252L0.15574 16.0076C0.0594272 15.9535 0 15.8535 0 15.7452Z" fill="#89B05F"/>
<path d="M22.7915 20.7283L28.5328 17.502C28.7404 17.3854 28.9997 17.531 28.9997 17.7644V24.2257C28.9997 24.3339 28.9403 24.434 28.844 24.4881L23.1027 27.7145C22.8951 27.831 22.6357 27.6854 22.6357 27.452V20.991C22.6357 20.8828 22.6952 20.7828 22.7915 20.7286V20.7283Z" fill="#89B05F"/>
<path d="M1.06582 7.502L6.81475 4.27107C6.91106 4.21693 7.02962 4.21693 7.12623 4.27107L12.8877 7.50884C13.0953 7.62538 13.0953 7.91716 12.8877 8.0337L7.13882 11.2643C7.04251 11.3185 6.92394 11.3185 6.82763 11.2643L1.06582 8.02686C0.858267 7.91032 0.858267 7.61854 1.06582 7.502Z" fill="url(#paint3_linear_1760_20247)"/>
<path d="M15.2407 16.5064L20.9972 13.2715C21.2048 13.155 21.4642 13.3006 21.4642 13.5339V19.9812C21.4642 20.0895 21.4047 20.1895 21.3084 20.2437L15.5519 23.4786C15.3443 23.5951 15.085 23.4495 15.085 23.2162V16.7691C15.085 16.6608 15.1444 16.5608 15.2407 16.5067V16.5064Z" fill="#89B05F"/>
<path d="M22.7915 12.2635L28.5328 9.03712C28.7404 8.92058 28.9997 9.06618 28.9997 9.29955V15.7466C28.9997 15.8549 28.9403 15.9549 28.844 16.009L23.1027 19.2354C22.8951 19.3519 22.6357 19.2063 22.6357 18.9729V12.5256C22.6357 12.4174 22.6952 12.3173 22.7915 12.2632V12.2635Z" fill="#89B05F"/>
<path d="M14.5258 9.3219L19.3039 12.0072L14.5132 14.6993L9.7347 12.014L14.5255 9.3219M14.5255 8.48047C14.4716 8.48047 14.418 8.49415 14.3697 8.52093L8.62051 11.7516C8.41295 11.8681 8.41295 12.1599 8.62051 12.2764L14.3571 15.5002C14.4054 15.5273 14.459 15.5407 14.5129 15.5407C14.5667 15.5407 14.6203 15.527 14.6686 15.5002L20.4175 12.2696C20.6251 12.1531 20.6251 11.8613 20.4175 11.7447L14.6812 8.52093C14.6329 8.49387 14.5793 8.48019 14.5255 8.48047Z" fill="url(#paint4_linear_1760_20247)"/>
<defs>
<linearGradient id="paint0_linear_1760_20247" x1="8.51275" y1="3.54732" x2="20.6713" y2="3.54732" gradientUnits="userSpaceOnUse">
<stop stop-color="#F6D365"/>
<stop offset="1" stop-color="#FDA085"/>
</linearGradient>
<linearGradient id="paint1_linear_1760_20247" x1="16.0673" y1="7.78655" x2="28.2006" y2="7.78655" gradientUnits="userSpaceOnUse">
<stop stop-color="#F6D365"/>
<stop offset="1" stop-color="#FDA085"/>
</linearGradient>
<linearGradient id="paint2_linear_1760_20247" x1="7.60009" y1="18.3967" x2="13.9668" y2="18.3967" gradientUnits="userSpaceOnUse">
<stop stop-color="#F6D365"/>
<stop offset="1" stop-color="#FDA085"/>
</linearGradient>
<linearGradient id="paint3_linear_1760_20247" x1="0.970823" y1="7.78136" x2="13.1417" y2="7.78136" gradientUnits="userSpaceOnUse">
<stop stop-color="#F6D365"/>
<stop offset="1" stop-color="#FDA085"/>
</linearGradient>
<linearGradient id="paint4_linear_1760_20247" x1="8.52539" y1="12.0242" x2="20.6713" y2="12.0242" gradientUnits="userSpaceOnUse">
<stop stop-color="#F6D365"/>
<stop offset="1" stop-color="#FDA085"/>
</linearGradient>
</defs>
</svg>
