<svg width="39" height="32" viewBox="0 0 39 32" fill="none" xmlns="http://www.w3.org/2000/svg">
<path d="M39 3.79578C37.5658 4.43722 36.0251 4.87063 34.4054 5.06652C36.0766 4.0572 37.327 2.46864 37.9231 0.597263C36.3529 1.5386 34.6344 2.2012 32.8424 2.55625C31.6373 1.25754 30.0411 0.396729 28.3016 0.107471C26.5621 -0.181787 24.7767 0.11669 23.2225 0.956559C21.6683 1.79643 20.4323 3.1307 19.7064 4.75223C18.9805 6.37375 18.8053 8.1918 19.208 9.92412C16.0265 9.76288 12.9141 8.92824 10.0728 7.47435C7.23151 6.02047 4.72487 3.97983 2.71554 1.48487C2.02849 2.68107 1.63345 4.06796 1.63345 5.545C1.63268 6.87468 1.9571 8.18399 2.57792 9.35676C3.19874 10.5295 4.09677 11.5295 5.19233 12.268C3.92177 12.2272 2.67925 11.8806 1.56818 11.2573V11.3613C1.56805 13.2262 2.20718 15.0337 3.37713 16.4772C4.54708 17.9206 6.17578 18.9111 7.98688 19.2804C6.80823 19.6024 5.5725 19.6498 4.37303 19.4191C4.88401 21.0238 5.87936 22.427 7.21974 23.4323C8.56011 24.4376 10.1784 24.9948 11.8481 25.0256C9.01372 27.2714 5.51333 28.4896 1.90998 28.4842C1.27168 28.4844 0.633928 28.4468 0 28.3715C3.6576 30.7451 7.91532 32.0049 12.2637 32C26.9836 32 35.0306 19.6948 35.0306 9.02264C35.0306 8.67591 35.022 8.32572 35.0066 7.979C36.5718 6.8365 37.9229 5.42174 38.9966 3.80099L39 3.79578Z" fill="#707386"/>
</svg>
