<svg width="31" height="32" viewBox="0 0 31 32" fill="none" xmlns="http://www.w3.org/2000/svg">
<g clip-path="url(#clip0_1650_18396)">
<path fill-rule="evenodd" clip-rule="evenodd" d="M29.0041 3.47601V8.17626H29.0029C30.1385 8.41273 30.9982 9.42809 30.9982 10.6351V13.1029C30.9982 14.4836 29.8727 15.6133 28.4971 15.6133H27.5659C26.4449 20.0244 22.672 23.4022 18.0706 23.9143V25.8711H18.3698C21.7229 25.8711 24.4417 28.6 24.4417 31.9655H6.78096C6.78096 28.6 9.4998 25.8711 12.8529 25.8711H12.9388V23.9043C8.37654 23.3596 4.64384 19.9975 3.5295 15.6133H2.59828C1.22267 15.6133 0.097168 14.4836 0.097168 13.1029V10.6351C0.097168 9.42697 0.956927 8.41273 2.0936 8.17626V3.47601C1.37564 3.25523 0.853086 2.58505 0.853086 1.79271C0.853086 0.82106 1.63803 0.0332031 2.6061 0.0332031C3.57417 0.0332031 4.35912 0.82106 4.36023 1.79271C4.36023 2.58617 3.83768 3.25523 3.11972 3.47601V8.12359H3.60543C4.91852 3.46929 9.20056 0.0332031 14.2441 0.0332031H16.8524C21.896 0.0332031 26.1791 3.46929 27.4933 8.12359H27.979V3.47601C27.2611 3.25523 26.7385 2.58505 26.7385 1.79271C26.7385 0.82106 27.5235 0.0332031 28.4915 0.0332031C29.4596 0.0332031 30.2446 0.82106 30.2446 1.79271C30.2446 2.58617 29.722 3.25523 29.0041 3.47601ZM17.1304 20.411C21.0295 20.411 24.2195 17.2092 24.2195 13.2956H24.2184V9.94249C24.2184 6.75856 21.6235 4.15404 18.4513 4.15404H12.6429C9.47077 4.15404 6.87586 6.75856 6.87586 9.94249V13.2956C6.87586 17.2092 10.0659 20.411 13.965 20.411H17.1304ZM20.4941 10.3481C20.4941 11.1144 19.8752 11.7356 19.1118 11.7356C18.3484 11.7356 17.7295 11.1144 17.7295 10.3481C17.7295 9.58187 18.3484 8.96069 19.1118 8.96069C19.8752 8.96069 20.4941 9.58187 20.4941 10.3481ZM11.9846 8.96069C11.2209 8.96069 10.6023 9.58156 10.6023 10.3481C10.6023 11.1147 11.2209 11.7356 11.9846 11.7356C12.7483 11.7356 13.3669 11.1147 13.3669 10.3481C13.3669 9.58156 12.7483 8.96069 11.9846 8.96069ZM16.5209 7.28638H21.4818C22.0166 7.28638 22.4543 7.68871 22.4543 8.18182V12.5134C22.4543 13.0053 22.0166 13.4088 21.4818 13.4088H16.5209C15.986 13.4088 15.5483 13.0065 15.5483 12.5134C15.5483 13.0053 15.1106 13.4088 14.5758 13.4088H9.61487C9.08003 13.4088 8.64233 13.0065 8.64233 12.5134V8.18182C8.64233 7.68983 9.08003 7.28638 9.61487 7.28638H14.5758C15.1106 7.28638 15.5483 7.68871 15.5483 8.18182C15.5483 7.68983 15.986 7.28638 16.5209 7.28638ZM21.4818 13.0737C21.8335 13.0737 22.1193 12.8227 22.1193 12.5145V8.18294C22.1193 7.87475 21.8335 7.62371 21.4818 7.62371H16.5209C16.1691 7.62371 15.8833 7.87475 15.8833 8.18294C15.8833 8.36898 15.7337 8.51915 15.5483 8.51915C15.363 8.51915 15.2133 8.36898 15.2133 8.18294C15.2133 7.87475 14.9275 7.62371 14.5758 7.62371H9.61487C9.26315 7.62371 8.97731 7.87475 8.97731 8.18294V12.5145C8.97731 12.8227 9.26315 13.0737 9.61487 13.0737H14.5758C14.9275 13.0737 15.2133 12.8227 15.2133 12.5145C15.2133 12.3284 15.363 12.1783 15.5483 12.1783C15.7337 12.1783 15.8833 12.3284 15.8833 12.5145C15.8833 12.8227 16.1691 13.0737 16.5209 13.0737H21.4818Z" fill="url(#paint0_linear_1650_18396)"/>
<path opacity="0.9" d="M6.90649 13.9321C7.2303 17.5497 10.2808 20.4098 13.9654 20.4098H17.1309C21.03 20.4098 24.22 17.2079 24.22 13.2944V13.1655L15.5052 15.8451L6.90649 13.931V13.9321Z" fill="url(#paint1_linear_1650_18396)"/>
</g>
<defs>
<linearGradient id="paint0_linear_1650_18396" x1="27.1356" y1="31.9655" x2="27.1356" y2="0.0332031" gradientUnits="userSpaceOnUse">
<stop stop-color="#63B1F9"/>
<stop offset="1" stop-color="#9ED5FE"/>
</linearGradient>
<linearGradient id="paint1_linear_1650_18396" x1="22.0558" y1="20.4098" x2="22.0558" y2="13.1655" gradientUnits="userSpaceOnUse">
<stop stop-color="#94CBFF"/>
<stop offset="1" stop-color="#C4E6FF"/>
</linearGradient>
<clipPath id="clip0_1650_18396">
<rect width="30.9033" height="31.9334" fill="white" transform="translate(0.097168 0.0332031)"/>
</clipPath>
</defs>
</svg>
