<svg width="26" height="26" viewBox="0 0 26 26" fill="none" xmlns="http://www.w3.org/2000/svg">
<g clip-path="url(#clip0_1760_20213)">
<path d="M3.44135 7.89847C3.88443 8.22824 4.22677 8.46579 4.54765 8.73036C4.65213 8.81606 4.75287 8.96232 4.7678 9.09087C4.98047 10.9335 6.80597 11.8995 8.48035 11.1217C9.81519 10.5013 11.1883 9.96189 12.5352 9.36569C12.8608 9.22129 13.1332 9.2157 13.4606 9.36103C14.8495 9.97586 16.2441 10.5795 17.647 11.1617C18.9697 11.7095 20.2971 11.2577 20.9342 10.0765C20.964 10.0215 21.0153 9.96655 21.0153 9.91158C21.0219 8.90549 21.8502 8.50492 22.5395 7.87891C23.0013 8.36332 23.5031 8.82351 23.9276 9.34612C25.0824 10.7677 25.6943 12.4166 25.9172 14.2294C26.2129 16.6328 25.7204 18.8602 24.4191 20.8901C23.2485 22.7169 21.5312 23.9046 19.5658 24.7337C16.3831 26.077 13.0753 26.2745 9.69766 25.697C7.69679 25.3551 5.85171 24.634 4.1708 23.4864C1.94887 21.9688 0.614026 19.8812 0.165348 17.2458C-0.327172 14.3524 0.264225 11.6955 2.072 9.35451C2.48429 8.82072 2.9964 8.36612 3.44135 7.89847Z" fill="#89B05F"/>
<path d="M11.8981 4.02547C11.4326 3.32866 11.053 2.65514 10.5717 2.06546C9.91218 1.25779 10.1519 0.288961 11.1519 0.034644C11.705 -0.106022 12.1071 0.202326 12.4447 0.587062C13.2525 1.50931 13.8253 2.57037 14.2161 3.72551C14.3253 4.0469 14.4932 4.13726 14.8178 4.168C16.8242 4.35618 18.7551 4.835 20.576 5.72092C20.9659 5.91003 21.2112 6.18391 21.1254 6.63199C21.0377 7.09032 20.6926 7.24496 20.2635 7.24869C19.7411 7.25335 19.2187 7.24962 18.5425 7.24962C18.8354 7.69398 19.0546 8.0163 19.2626 8.34607C19.6348 8.93575 19.4902 9.47327 18.882 9.6484C18.6973 9.7015 18.452 9.65213 18.2664 9.57388C16.6825 8.90222 15.1014 8.22497 13.5314 7.52257C13.1611 7.35675 12.8552 7.35209 12.4811 7.51884C10.8832 8.23429 9.26854 8.91247 7.66692 9.62046C7.31712 9.7751 7.02982 9.72572 6.77516 9.47234C6.49998 9.19846 6.45801 8.86682 6.64923 8.53425C6.8759 8.13833 7.13056 7.75732 7.44118 7.2608C6.83766 7.2608 6.34887 7.24496 5.86102 7.26546C5.34424 7.28595 5.05041 7.13411 4.90862 6.71956C4.77523 6.32923 4.91329 5.92866 5.38529 5.73769C6.38805 5.33153 7.39921 4.91698 8.44301 4.64962C9.45697 4.39065 10.5176 4.31239 11.5576 4.15216C11.6155 4.14099 11.6696 4.11024 11.8981 4.02547Z" fill="url(#paint0_linear_1760_20213)"/>
</g>
<defs>
<linearGradient id="paint0_linear_1760_20213" x1="4.94176" y1="4.87293" x2="21.2744" y2="4.87293" gradientUnits="userSpaceOnUse">
<stop stop-color="#F6D365"/>
<stop offset="1" stop-color="#FDA085"/>
</linearGradient>
<clipPath id="clip0_1760_20213">
<rect width="26" height="26" fill="white"/>
</clipPath>
</defs>
</svg>
