<svg xmlns="http://www.w3.org/2000/svg" width="80" height="64" viewBox="0 0 80 64" fill="none">
  <path d="M45.0758 31.6244C45.0758 36.6959 43.0262 41.2932 39.708 44.6386C39.6829 44.6707 39.6507 44.6992 39.6256 44.7242C39.5933 44.7563 39.5647 44.7813 39.5324 44.8098L26.4568 57.824C28.5782 55.7126 30.1943 53.0877 31.0973 50.1524C31.1618 49.942 31.2227 49.7387 31.28 49.5247C31.6921 47.9947 31.9107 46.3862 31.9107 44.7242C31.9107 39.6098 29.8216 34.9769 26.4568 31.6244L0.140869 5.42825C0.162369 5.39615 0.183869 5.38188 0.212536 5.35692C3.57012 2.04362 8.19261 0 13.2989 0C14.0657 0 14.8182 0.0463648 15.5635 0.139094C19.7954 0.645541 23.5902 2.57146 26.4568 5.42825H26.4604L39.536 18.4425C39.5682 18.4675 39.5969 18.4995 39.6292 18.5245C39.6542 18.5566 39.6865 18.5851 39.7116 18.6101C43.0297 21.9555 45.0794 26.5528 45.0794 31.6244H45.0758Z" fill="url(#paint0_linear_336_179)"/>
  <path d="M26.4603 31.6278C23.5936 34.481 19.7953 36.4105 15.5562 36.917C14.8144 37.0097 14.062 37.0525 13.2951 37.0525C11.6289 37.0525 10.0128 36.8349 8.47554 36.4248C5.34012 35.5938 2.53079 33.9603 0.276878 31.7705C0.258961 31.7526 0.241045 31.7384 0.223128 31.7205C0.190878 31.6884 0.162212 31.6599 0.133545 31.6278C0.183712 31.5743 0.233878 31.5244 0.287628 31.4744C2.53796 29.2846 5.34371 27.6618 8.47195 26.8308C10.0092 26.4207 11.6289 26.2031 13.2915 26.2031C14.0584 26.2031 14.8109 26.2459 15.5526 26.3387C19.7881 26.8451 23.59 28.7746 26.4567 31.6278H26.4603Z" fill="url(#paint1_linear_336_179)"/>
  <path d="M31.914 44.7284C31.914 46.3904 31.6954 47.9989 31.2833 49.5254C31.226 49.7394 31.1651 49.9462 31.1006 50.1531C30.2012 53.0883 28.5851 55.7133 26.4638 57.8247C23.5971 60.6779 19.7988 62.6074 15.5597 63.1138C14.8179 63.2066 14.0654 63.2494 13.2986 63.2494C8.19595 63.2494 3.56987 61.2057 0.208708 57.8924C0.183625 57.871 0.165708 57.8532 0.140625 57.8247C0.244542 57.7141 0.352042 57.6142 0.455958 57.5144L7.84837 50.1531L13.2986 44.7284L15.5597 42.4779L26.4638 31.625C29.8285 34.9775 31.914 39.6104 31.914 44.7248V44.7284Z" fill="url(#paint2_linear_336_179)"/>
  <path d="M79.1102 5.42825L71.4024 13.0998L65.9486 18.5281L52.7906 31.6243H52.787L39.7114 44.6386C43.0296 41.2932 45.0793 36.6959 45.0793 31.6243C45.0793 26.5528 43.0296 21.9555 39.7114 18.6101C39.6864 18.5851 39.6541 18.553 39.629 18.5245L45.0793 13.0998L52.787 5.42825C56.1553 2.07215 60.8065 0 65.945 0C67.8406 0 69.6717 0.281755 71.3988 0.8096C74.3443 1.70836 76.9852 3.30973 79.1066 5.42825H79.1102Z" fill="url(#paint3_linear_336_179)"/>
  <defs>
    <linearGradient id="paint0_linear_336_179" x1="0.140869" y1="28.9138" x2="45.0758" y2="28.9138" gradientUnits="userSpaceOnUse">
      <stop offset="0.11" stop-color="#91D5EA"/>
      <stop offset="0.36" stop-color="#79BDBC"/>
      <stop offset="0.91" stop-color="#3E8349"/>
      <stop offset="1" stop-color="#357A37"/>
    </linearGradient>
    <linearGradient id="paint1_linear_336_179" x1="42.9723" y1="31.6278" x2="-17.8655" y2="31.6278" gradientUnits="userSpaceOnUse">
      <stop offset="0.27" stop-color="#2D897A"/>
      <stop offset="0.88" stop-color="#D9EFA4"/>
    </linearGradient>
    <linearGradient id="paint2_linear_336_179" x1="6.82354" y1="64.5904" x2="34.9711" y2="34.9309" gradientUnits="userSpaceOnUse">
      <stop offset="0.04" stop-color="#2A9476"/>
      <stop offset="0.88" stop-color="#195658"/>
    </linearGradient>
    <linearGradient id="paint3_linear_336_179" x1="71.8933" y1="-1.31961" x2="33.9859" y2="39.2955" gradientUnits="userSpaceOnUse">
      <stop offset="0.27" stop-color="#2D897A"/>
      <stop offset="0.88" stop-color="#D9EFA4"/>
    </linearGradient>
  </defs>
</svg>