<svg width="205" height="72" viewBox="0 0 205 72" fill="none" xmlns="http://www.w3.org/2000/svg">
<path d="M50.8427 35.9688C50.8427 41.7371 48.5239 46.9659 44.7701 50.7708C44.7418 50.8074 44.7053 50.8398 44.6769 50.8682C44.6404 50.9047 44.608 50.9331 44.5715 50.9656L29.7793 65.7676C32.1791 63.3662 34.0074 60.3806 35.0289 57.0422C35.1019 56.8028 35.1708 56.5716 35.2357 56.3282C35.7018 54.588 35.9491 52.7585 35.9491 50.8682C35.9491 45.0512 33.5858 39.7819 29.7793 35.9688L0.00427246 6.17396C0.0285951 6.13745 0.0529178 6.12122 0.085348 6.09283C3.88779 2.32436 9.11716 0 14.8897 0C15.7573 0 16.6085 0.0527342 17.4517 0.158203C22.2392 0.734222 26.5322 2.92472 29.7752 6.17396H29.7793L44.5715 20.976C44.608 21.0044 44.6404 21.0409 44.6769 21.0693C44.7053 21.1058 44.7418 21.1383 44.7701 21.1667C48.5239 24.9717 50.8427 30.2005 50.8427 35.9688Z" fill="url(#paint0_linear_1972_28273)"/>
<path d="M29.7832 35.9728C26.5402 39.218 22.2432 41.4125 17.4476 41.9886C16.6084 42.094 15.7572 42.1427 14.8896 42.1427C13.0046 42.1427 11.1764 41.8953 9.43732 41.4288C5.89026 40.4836 2.7121 38.6258 0.162273 36.1351C0.142004 36.1148 0.121735 36.0986 0.101467 36.0783C0.0649825 36.0418 0.0325523 36.0093 0.00012207 35.9728C0.056875 35.912 0.113628 35.8552 0.174435 35.7984C2.72021 33.3077 5.89432 31.462 9.43326 30.5169C11.1723 30.0504 13.0046 29.8029 14.8856 29.8029C15.7531 29.8029 16.6044 29.8516 17.4435 29.9571C22.2351 30.5331 26.5362 32.7276 29.7792 35.9728H29.7832Z" fill="url(#paint1_linear_1972_28273)"/>
<path d="M35.949 50.8722C35.949 52.7626 35.7017 54.592 35.2355 56.3282C35.1707 56.5716 35.1018 56.8069 35.0288 57.0421C34.0113 60.3806 32.183 63.3662 29.7832 65.7676C26.5402 69.0128 22.2432 71.2074 17.4476 71.7834C16.6084 71.8888 15.7571 71.9375 14.8896 71.9375C9.11704 71.9375 3.88362 69.6132 0.0811722 65.8447C0.0527957 65.8204 0.0325268 65.8001 0.00415039 65.7676C0.12171 65.6419 0.243323 65.5283 0.360883 65.4147L8.72383 57.0421L14.8896 50.8722L17.4476 48.3126L29.7832 35.9688C33.5897 39.7818 35.949 45.0512 35.949 50.8682V50.8722Z" fill="url(#paint2_linear_1972_28273)"/>
<path d="M89.3412 6.17395L80.6215 14.8994L74.4516 21.0734L59.5662 35.9688H59.5621L44.7699 50.7708C48.5237 46.9659 50.8424 41.7371 50.8424 35.9688C50.8424 30.2005 48.5237 24.9717 44.7699 21.1667C44.7415 21.1383 44.705 21.1018 44.6766 21.0693L50.8424 14.8994L59.5621 6.17395C63.3727 2.35681 68.6385 0 74.4516 0C76.5961 0 78.6676 0.320461 80.6215 0.92082C83.9537 1.94305 86.9413 3.76441 89.3412 6.17395Z" fill="url(#paint3_linear_1972_28273)"/>
<path d="M78.5613 54.8576L84.8303 43.8203C84.8544 43.7763 84.9025 43.7483 84.9546 43.7483H91.7607C91.8729 43.7483 91.9411 43.8684 91.885 43.9645L81.5395 61.6392C81.5275 61.6592 81.5194 61.6873 81.5194 61.7113V71.8518C81.5194 71.9318 81.4553 71.9959 81.3751 71.9959H75.511C75.4308 71.9959 75.3667 71.9318 75.3667 71.8518V61.4591C75.3667 61.4351 75.3586 61.407 75.3466 61.387L65.1214 43.9685C65.0653 43.8724 65.1334 43.7523 65.2456 43.7523H72.0878C72.14 43.7523 72.188 43.7803 72.2121 43.8243L78.441 54.8616H78.5573L78.5613 54.8576Z" fill="#25836E"/>
<path d="M136.586 43.8924V66.2351C136.586 66.3151 136.65 66.3792 136.73 66.3792H151.785C151.866 66.3792 151.93 66.4432 151.93 66.5233V71.8478C151.93 71.9278 151.866 71.9919 151.785 71.9919H130.537C130.457 71.9919 130.393 71.9278 130.393 71.8478V43.8924C130.393 43.8123 130.457 43.7483 130.537 43.7483H136.442C136.522 43.7483 136.586 43.8123 136.586 43.8924Z" fill="#ACC981"/>
<path d="M155.922 42.5473C156.612 41.8507 157.481 41.5024 158.535 41.5024C159.59 41.5024 160.455 41.8507 161.137 42.5473C161.818 43.2439 162.163 44.1046 162.163 45.1294C162.163 46.1543 161.814 46.979 161.117 47.6916C160.419 48.4002 159.558 48.7565 158.535 48.7565C157.513 48.7565 156.68 48.4162 155.982 47.7316C155.245 47.007 154.848 45.9781 154.892 44.9453C154.932 44.0005 155.277 43.2038 155.922 42.5513V42.5473ZM155.617 71.8518V51.851C155.617 51.771 155.682 51.7069 155.762 51.7069H161.293C161.373 51.7069 161.438 51.771 161.438 51.851V71.8518C161.438 71.9318 161.373 71.9959 161.293 71.9959H155.762C155.682 71.9959 155.617 71.9318 155.617 71.8518Z" fill="#ACC981"/>
<path d="M178.24 47.3155C175.795 47.3155 174.565 48.5365 174.553 50.9785V51.563C174.553 51.6431 174.617 51.7072 174.697 51.7072H182C182.08 51.7072 182.145 51.7712 182.145 51.8513V56.5672C182.145 56.6473 182.08 56.7113 182 56.7113H174.697C174.617 56.7113 174.553 56.7754 174.553 56.8555V71.852C174.553 71.9321 174.489 71.9961 174.408 71.9961H168.877C168.797 71.9961 168.733 71.9321 168.733 71.852V56.8555C168.733 56.7754 168.669 56.7113 168.588 56.7113H164.36C164.279 56.7113 164.215 56.6473 164.215 56.5672V51.8513C164.215 51.7712 164.279 51.7072 164.36 51.7072H168.588C168.669 51.7072 168.733 51.6431 168.733 51.563V49.9337C168.733 47.5957 169.554 45.6981 171.198 44.2409C172.841 42.7837 174.97 42.0551 177.587 42.0551C178.665 42.0551 180.144 42.2633 182.016 42.6756C182.088 42.6916 182.137 42.7597 182.132 42.8317L181.688 47.7198C181.68 47.8119 181.587 47.8719 181.499 47.8399C180.517 47.4876 179.431 47.3115 178.24 47.3115V47.3155Z" fill="#ACC981"/>
<path d="M194.31 50.566C197.544 50.566 200.134 51.5548 202.082 53.5325C204.026 55.5101 205 58.1003 205 61.303C205 61.407 204.992 61.5552 204.98 61.7473C204.968 61.9395 204.948 62.1757 204.92 62.4559C204.9 62.6641 204.888 62.8402 204.884 62.9804C204.884 63.0564 204.816 63.1165 204.739 63.1165H189.748C189.648 63.1165 189.572 63.2206 189.612 63.3166C190.49 65.4945 192.606 66.5834 195.965 66.5834C198.362 66.5834 200.471 66.0789 202.286 65.0621C202.371 65.0141 202.475 65.0621 202.495 65.1542L203.537 69.9462C203.549 70.0062 203.525 70.0703 203.469 70.1023C201.409 71.3514 198.891 71.9839 195.925 71.9999C192.073 71.9999 189.015 71.0111 186.754 69.0334C184.493 67.0558 183.363 64.4816 183.363 61.303C183.363 58.1243 184.393 55.6062 186.449 53.5925C188.506 51.5788 191.127 50.57 194.31 50.57V50.566ZM189.66 59.5295H198.983C199.068 59.5295 199.14 59.4534 199.132 59.3693C199.04 58.3925 198.559 57.5999 197.693 56.9873C196.779 56.3428 195.665 56.0225 194.35 56.0225C193.115 56.0225 192.073 56.3388 191.223 56.9673C190.426 57.5598 189.861 58.3485 189.52 59.3333C189.488 59.4254 189.56 59.5255 189.66 59.5255V59.5295Z" fill="#ACC981"/>
<path d="M103.726 63.1846L105.181 62.1677L112.772 56.8633C115.217 55.1538 118.584 55.7503 120.296 58.1924C122.008 60.6344 121.41 63.9972 118.965 65.7067C117.113 66.9997 114.732 66.9717 112.941 65.8188L108.407 68.9854C112.027 72.4883 117.735 73.0568 122.016 70.0663C126.87 66.6755 128.052 59.9939 124.657 55.1458C121.262 50.2978 114.572 49.1168 109.718 52.5076L96.3062 61.8795C97.9937 64.2855 101.313 64.874 103.722 63.1886L103.726 63.1846Z" fill="#25836E"/>
<path d="M111.017 59.3774L109.562 60.3942L101.97 65.6986C99.5248 67.4081 96.1578 66.8116 94.4462 64.3695C92.7347 61.9275 93.3319 58.5647 95.777 56.8553C97.6289 55.5622 100.01 55.5902 101.802 56.7432L106.335 53.5765C102.715 50.0736 97.0076 49.5051 92.7267 52.4956C87.8726 55.8864 86.6901 62.568 90.0852 67.4161C93.4802 72.2641 100.17 73.4451 105.024 70.0543L118.436 60.6824C116.749 58.2764 113.43 57.688 111.021 59.3734L111.017 59.3774Z" fill="#25836E"/>
<defs>
<linearGradient id="paint0_linear_1972_28273" x1="0.00427246" y1="32.8858" x2="50.8427" y2="32.8858" gradientUnits="userSpaceOnUse">
<stop offset="0.11" stop-color="#91D5EA"/>
<stop offset="0.36" stop-color="#79BDBC"/>
<stop offset="0.91" stop-color="#3E8349"/>
<stop offset="1" stop-color="#357A37"/>
</linearGradient>
<linearGradient id="paint1_linear_1972_28273" x1="48.459" y1="35.9728" x2="-20.3661" y2="35.9728" gradientUnits="userSpaceOnUse">
<stop offset="0.27" stop-color="#2D897A"/>
<stop offset="0.88" stop-color="#D9EFA4"/>
</linearGradient>
<linearGradient id="paint2_linear_1972_28273" x1="7.5685" y1="73.4627" x2="39.5913" y2="39.9005" gradientUnits="userSpaceOnUse">
<stop offset="0.04" stop-color="#2A9476"/>
<stop offset="0.88" stop-color="#195658"/>
</linearGradient>
<linearGradient id="paint3_linear_1972_28273" x1="81.1809" y1="-1.5009" x2="38.0466" y2="44.4628" gradientUnits="userSpaceOnUse">
<stop offset="0.27" stop-color="#2D897A"/>
<stop offset="0.88" stop-color="#D9EFA4"/>
</linearGradient>
</defs>
</svg>
