<svg width="455" height="424" viewBox="0 0 455 424" fill="none" xmlns="http://www.w3.org/2000/svg">
<path d="M252.706 144C252.706 167.093 243.44 188.027 228.441 203.26C228.327 203.406 228.181 203.536 228.068 203.649C227.922 203.796 227.793 203.909 227.647 204.039L168.538 263.299C178.128 253.685 185.433 241.732 189.515 228.367C189.807 227.409 190.082 226.483 190.342 225.508C192.204 218.542 193.192 211.217 193.192 203.649C193.192 180.361 183.749 159.266 168.538 144L49.5599 24.7173C49.6571 24.5711 49.7543 24.5061 49.8838 24.3925C65.0781 9.30551 85.9742 0 109.041 0C112.507 0 115.909 0.21112 119.278 0.63336C138.409 2.93944 155.563 11.709 168.522 24.7173H168.538L227.647 83.977C227.793 84.0907 227.922 84.2368 228.068 84.3505C228.181 84.4967 228.327 84.6266 228.441 84.7403C243.44 99.9734 252.706 120.907 252.706 144Z" fill="url(#paint0_linear_1972_28422)"/>
<path d="M168.554 144.016C155.596 157.008 138.425 165.794 119.262 168.1C115.909 168.522 112.507 168.717 109.041 168.717C101.509 168.717 94.203 167.727 87.2538 165.859C73.0801 162.075 60.3804 154.637 50.1915 144.666C50.1105 144.585 50.0295 144.52 49.9485 144.438C49.8028 144.292 49.6732 144.162 49.5436 144.016C49.7704 143.773 49.9971 143.545 50.2401 143.318C60.4128 133.347 73.0963 125.957 87.2376 122.173C94.1868 120.306 101.509 119.315 109.025 119.315C112.491 119.315 115.893 119.51 119.246 119.932C138.393 122.238 155.579 131.024 168.538 144.016H168.554Z" fill="url(#paint1_linear_1972_28422)"/>
<path d="M193.192 203.666C193.192 211.234 192.204 218.558 190.342 225.509C190.082 226.483 189.807 227.425 189.515 228.367C185.45 241.732 178.144 253.685 168.554 263.299C155.596 276.291 138.425 285.077 119.262 287.383C115.909 287.805 112.507 288 109.041 288C85.9742 288 65.0619 278.695 49.8676 263.608C49.7543 263.51 49.6733 263.429 49.5599 263.299C50.0296 262.796 50.5156 262.341 50.9853 261.886L84.403 228.367L109.041 203.666L119.262 193.418L168.554 144C183.765 159.266 193.192 180.361 193.192 203.649V203.666Z" fill="url(#paint2_linear_1972_28422)"/>
<path d="M406.544 24.7173L371.7 59.6495L347.046 84.3668L287.565 144H287.549L228.44 203.26C243.44 188.027 252.706 167.093 252.706 144C252.706 120.907 243.44 99.9734 228.44 84.7403C228.327 84.6266 228.181 84.4804 228.068 84.3505L252.706 59.6495L287.549 24.7173C302.776 9.43544 323.818 0 347.046 0C355.615 0 363.893 1.28296 371.7 3.68648C385.016 7.77895 396.954 15.0707 406.544 24.7173Z" fill="url(#paint3_linear_1972_28422)"/>
<path d="M43.7743 368.789L64.1692 333.24C64.2499 333.096 64.4114 333 64.5729 333H86.7117C87.0669 333 87.293 333.383 87.1154 333.703L53.4631 390.621C53.4631 390.621 53.3985 390.764 53.3985 390.86V423.519C53.3985 423.775 53.1886 423.982 52.9302 423.982H33.8595C33.6012 423.982 33.3912 423.775 33.3912 423.519V390.046C33.3912 389.966 33.3751 389.886 33.3266 389.806L0.0619277 333.719C-0.115699 333.415 0.110371 333.016 0.465626 333.016H22.7175C22.8789 333.016 23.0404 333.112 23.1212 333.256L43.3868 368.789H43.7743Z" fill="#25836E"/>
<path d="M232.479 333.479V405.441C232.479 405.696 232.689 405.904 232.947 405.904H281.908C282.166 405.904 282.376 406.111 282.376 406.367V423.519C282.376 423.775 282.166 423.982 281.908 423.982H212.811C212.552 423.982 212.342 423.775 212.342 423.519V333.479C212.342 333.223 212.552 333.016 212.811 333.016H232.011C232.269 333.016 232.479 333.223 232.479 333.479Z" fill="#ACC981"/>
<path d="M296.263 336.034C298.282 334.022 300.817 333.016 303.869 333.016C306.921 333.016 309.456 334.022 311.442 336.034C313.428 338.046 314.43 340.522 314.43 343.476C314.43 346.431 313.412 348.81 311.378 350.855C309.343 352.899 306.84 353.921 303.853 353.921C300.865 353.921 298.443 352.931 296.425 350.966C294.277 348.874 293.114 345.904 293.244 342.933C293.357 340.218 294.358 337.919 296.247 336.034H296.263ZM294.39 423.535V359.734C294.39 359.478 294.6 359.271 294.858 359.271H312.847C313.106 359.271 313.315 359.478 313.315 359.734V423.535C313.315 423.79 313.106 423.998 312.847 423.998H294.858C294.6 423.998 294.39 423.79 294.39 423.535Z" fill="#ACC981"/>
<path d="M367.944 349.002C359.983 349.002 355.994 352.707 355.946 360.133V361.906C355.946 362.145 356.156 362.337 356.414 362.337H380.168C380.426 362.337 380.636 362.529 380.636 362.768V377.094C380.636 377.333 380.426 377.525 380.168 377.525H356.414C356.156 377.525 355.946 377.716 355.946 377.956V423.519C355.946 423.759 355.736 423.95 355.478 423.95H337.489C337.23 423.95 337.02 423.759 337.02 423.519V377.956C337.02 377.716 336.811 377.525 336.552 377.525H322.794C322.536 377.525 322.326 377.333 322.326 377.094V362.768C322.326 362.529 322.536 362.337 322.794 362.337H336.552C336.811 362.337 337.02 362.145 337.02 361.906V356.955C337.02 349.848 339.685 344.083 345.03 339.659C350.375 335.236 357.302 333.016 365.812 333.016C369.332 333.016 374.128 333.639 380.216 334.9C380.442 334.948 380.62 335.156 380.588 335.363L379.134 350.216C379.102 350.503 378.811 350.679 378.521 350.583C375.323 349.513 371.803 348.986 367.928 348.986L367.944 349.002Z" fill="#ACC981"/>
<path d="M420.231 354.959C430.743 354.959 439.172 358.137 445.502 364.509C451.832 370.881 454.997 379.218 454.997 389.535C454.997 389.87 454.981 390.349 454.933 390.956C454.884 391.563 454.82 392.329 454.739 393.24C454.674 393.91 454.642 394.469 454.626 394.932C454.626 395.172 454.416 395.38 454.158 395.38H405.407C405.068 395.38 404.842 395.715 404.955 396.018C407.813 403.029 414.692 406.543 425.608 406.543C433.407 406.543 440.254 404.914 446.164 401.656C446.439 401.512 446.778 401.656 446.843 401.959L450.234 417.387C450.282 417.578 450.185 417.786 450.024 417.898C443.322 421.922 435.135 423.966 425.495 423.998C412.964 423.998 403.017 420.82 395.67 414.448C388.322 408.092 384.641 399.787 384.641 389.551C384.641 379.314 387.983 371.217 394.685 364.717C401.37 358.233 409.896 354.975 420.247 354.975L420.231 354.959ZM405.116 383.817H435.442C435.717 383.817 435.943 383.578 435.927 383.306C435.62 380.16 434.07 377.605 431.244 375.64C428.272 373.564 424.655 372.526 420.376 372.526C416.355 372.526 412.964 373.548 410.203 375.577C407.619 377.477 405.762 380.032 404.664 383.194C404.567 383.498 404.793 383.817 405.116 383.817Z" fill="#ACC981"/>
<path d="M125.612 395.603L130.343 392.329L155.033 375.241C162.978 369.747 173.943 371.648 179.497 379.521C185.052 387.379 183.131 398.222 175.17 403.716C169.147 407.884 161.396 407.788 155.582 404.083L140.839 414.288C152.611 425.579 171.165 427.4 185.101 417.77C200.893 406.846 204.737 385.334 193.691 369.716C182.646 354.097 160.895 350.296 145.102 361.219L101.471 391.403C106.961 399.149 117.748 401.049 125.596 395.619L125.612 395.603Z" fill="#25836E"/>
<path d="M149.317 383.354L144.586 386.628L119.896 403.716C111.951 409.21 100.986 407.309 95.4314 399.436C89.8765 391.563 91.7981 380.735 99.7591 375.241C105.782 371.073 113.533 371.169 119.346 374.874L134.09 364.669C122.318 353.378 103.764 351.557 89.8281 361.187C74.0354 372.111 70.1922 393.623 81.2374 409.242C92.2826 424.861 114.034 428.662 129.826 417.738L173.458 387.554C167.968 379.809 157.181 377.908 149.333 383.338L149.317 383.354Z" fill="#25836E"/>
<defs>
<linearGradient id="paint0_linear_1972_28422" x1="49.5599" y1="131.658" x2="252.706" y2="131.658" gradientUnits="userSpaceOnUse">
<stop offset="0.11" stop-color="#91D5EA"/>
<stop offset="0.36" stop-color="#79BDBC"/>
<stop offset="0.91" stop-color="#3E8349"/>
<stop offset="1" stop-color="#357A37"/>
</linearGradient>
<linearGradient id="paint1_linear_1972_28422" x1="243.181" y1="144.016" x2="-31.838" y2="144.016" gradientUnits="userSpaceOnUse">
<stop offset="0.27" stop-color="#2D897A"/>
<stop offset="0.88" stop-color="#D9EFA4"/>
</linearGradient>
<linearGradient id="paint2_linear_1972_28422" x1="79.7864" y1="294.106" x2="208" y2="159.983" gradientUnits="userSpaceOnUse">
<stop offset="0.04" stop-color="#2A9476"/>
<stop offset="0.88" stop-color="#195658"/>
</linearGradient>
<linearGradient id="paint3_linear_1972_28422" x1="373.936" y1="-6.0088" x2="201.228" y2="177.68" gradientUnits="userSpaceOnUse">
<stop offset="0.27" stop-color="#2D897A"/>
<stop offset="0.88" stop-color="#D9EFA4"/>
</linearGradient>
</defs>
</svg>
